<?xml version="1.0" encoding="UTF-8" standalone="no"?>
<svg
   width="600"
   height="600"
   viewBox="0 0 18 18"
   version="1.1"
   id="svg145"
   sodipodi:docname="chkbox-open-gy.svg"
   inkscape:version="1.2.2 (732a01da63, 2022-12-09)"
   xmlns:inkscape="http://www.inkscape.org/namespaces/inkscape"
   xmlns:sodipodi="http://sodipodi.sourceforge.net/DTD/sodipodi-0.dtd"
   xmlns="http://www.w3.org/2000/svg"
   xmlns:svg="http://www.w3.org/2000/svg"
   xmlns:rdf="http://www.w3.org/1999/02/22-rdf-syntax-ns#"
   xmlns:cc="http://creativecommons.org/ns#"
   xmlns:dc="http://purl.org/dc/elements/1.1/">
  <defs
     id="defs149" />
  <sodipodi:namedview
     id="namedview147"
     pagecolor="#ffffff"
     bordercolor="#000000"
     borderopacity="0.25"
     inkscape:showpageshadow="2"
     inkscape:pageopacity="0.0"
     inkscape:pagecheckerboard="0"
     inkscape:deskcolor="#d1d1d1"
     showgrid="false"
     inkscape:zoom="1.38"
     inkscape:cx="379.34783"
     inkscape:cy="283.33333"
     inkscape:window-width="2560"
     inkscape:window-height="1369"
     inkscape:window-x="-5"
     inkscape:window-y="1432"
     inkscape:window-maximized="1"
     inkscape:current-layer="svg145" />
  <!-- Uploaded to: SVG Repo, www.svgrepo.com, Generator: SVG Repo Mixer Tools -->
  <title
     id="title138">ic_fluent_checkbox_checked_24_regular</title>
  <desc
     id="desc140">Created with Sketch.</desc>
  <metadata
     id="metadata1338">
    <rdf:RDF>
      <cc:Work
         rdf:about="">
        <dc:title>ic_fluent_checkbox_checked_24_regular</dc:title>
      </cc:Work>
    </rdf:RDF>
  </metadata>
  <g
     id="g6149">
    <rect
       style="fill:#f8f8f8;fill-opacity:1;stroke-width:0.0828"
       id="rect1710"
       width="15.239131"
       height="15.260869"
       x="1.3804345"
       y="1.3695655" />
    <path
       d="M 15.25,0 C 16.768783,0 18,1.2312169 18,2.75 v 12.5 C 18,16.768783 16.768783,18 15.25,18 H 2.75 C 1.2312169,18 0,16.768783 0,15.25 V 2.75 C 0,1.2312169 1.2312169,0 2.75,0 Z m 0,1.5 H 2.75 C 2.0596441,1.5 1.5,2.0596441 1.5,2.75 v 12.5 c 0,0.690356 0.5596441,1.25 1.25,1.25 h 12.5 c 0.690356,0 1.25,-0.559644 1.25,-1.25 V 2.75 C 16.5,2.0596441 15.940356,1.5 15.25,1.5 Z"
       id="🎨Color"
       style="fill:#bfbfbf;fill-opacity:1;fill-rule:nonzero;stroke:none;stroke-width:1"
       sodipodi:nodetypes="ssssssssssssssssss" />
  </g>
</svg>
