<?xml version="1.0" encoding="UTF-8" standalone="no"?>
<!-- Created with Inkscape (http://www.inkscape.org/) -->

<svg
   width="853.33331"
   height="853.33331"
   viewBox="0 0 800 800"
   id="svg5302"
   version="1.1"
   inkscape:version="1.2.2 (732a01da63, 2022-12-09)"
   sodipodi:docname="ps_home.svg"
   xmlns:inkscape="http://www.inkscape.org/namespaces/inkscape"
   xmlns:sodipodi="http://sodipodi.sourceforge.net/DTD/sodipodi-0.dtd"
   xmlns="http://www.w3.org/2000/svg"
   xmlns:svg="http://www.w3.org/2000/svg"
   xmlns:rdf="http://www.w3.org/1999/02/22-rdf-syntax-ns#"
   xmlns:cc="http://creativecommons.org/ns#"
   xmlns:dc="http://purl.org/dc/elements/1.1/">
  <defs
     id="defs5304" />
  <sodipodi:namedview
     id="base"
     pagecolor="#ffffff"
     bordercolor="#666666"
     borderopacity="1.0"
     inkscape:pageopacity="0.0"
     inkscape:pageshadow="2"
     inkscape:zoom="0.605"
     inkscape:cx="-228.92562"
     inkscape:cy="796.69421"
     inkscape:document-units="px"
     inkscape:current-layer="layer1"
     showgrid="true"
     inkscape:window-width="2560"
     inkscape:window-height="1369"
     inkscape:window-x="-5"
     inkscape:window-y="1432"
     inkscape:window-maximized="1"
     units="px"
     inkscape:showpageshadow="2"
     inkscape:pagecheckerboard="0"
     inkscape:deskcolor="#d1d1d1"
     showguides="false">
    <inkscape:grid
       type="xygrid"
       id="grid4183"
       dotted="false"
       color="#3f3fff"
       opacity="0.1254902"
       empcolor="#ff3f3f"
       empopacity="0.25098039"
       originx="0"
       originy="0"
       spacingx="1"
       spacingy="1" />
  </sodipodi:namedview>
  <metadata
     id="metadata5307">
    <rdf:RDF>
      <cc:Work
         rdf:about="">
        <dc:format>image/svg+xml</dc:format>
        <dc:type
           rdf:resource="http://purl.org/dc/dcmitype/StillImage" />
      </cc:Work>
    </rdf:RDF>
  </metadata>
  <g
     inkscape:label="Layer 1"
     inkscape:groupmode="layer"
     id="layer1"
     transform="translate(0,-252.36202)">
    <rect
       style="opacity:0;fill:#ffffff;fill-opacity:0;stroke:none;stroke-width:1;stroke-linecap:round;stroke-linejoin:miter;stroke-miterlimit:4;stroke-dasharray:none;stroke-opacity:1"
       id="rect5243"
       width="800"
       height="799"
       x="0.49999639"
       y="252.86201" />
    <g
       id="g4203"
       transform="matrix(1,0,0,-1,0,1477.1611)"
       style="stroke:#bfbfbf;stroke-opacity:1">
      <path
         inkscape:connector-curvature="0"
         id="path5443"
         d="m 117.06445,731.80263 a 30.003,30.003 0 0 0 -18.97851,52.2539 l 280,259.99997 a 30.003,30.003 0 1 0 40.82812,-43.9668 l -280,-259.99996 a 30.003,30.003 0 0 0 -21.84961,-8.28711 z"
         style="color:#000000;font-style:normal;font-variant:normal;font-weight:normal;font-stretch:normal;font-size:medium;line-height:normal;font-family:sans-serif;text-indent:0;text-align:start;text-decoration:none;text-decoration-line:none;text-decoration-style:solid;text-decoration-color:#000000;letter-spacing:normal;word-spacing:normal;text-transform:none;writing-mode:lr-tb;direction:ltr;baseline-shift:baseline;text-anchor:start;white-space:normal;clip-rule:nonzero;display:inline;overflow:visible;visibility:visible;opacity:1;isolation:auto;mix-blend-mode:normal;color-interpolation:sRGB;color-interpolation-filters:linearRGB;solid-color:#000000;solid-opacity:1;fill:#000000;fill-opacity:1;fill-rule:evenodd;stroke:#bfbfbf;stroke-width:60;stroke-linecap:round;stroke-linejoin:round;stroke-miterlimit:4;stroke-dasharray:none;stroke-dashoffset:0;stroke-opacity:1;color-rendering:auto;image-rendering:auto;shape-rendering:auto;text-rendering:auto;enable-background:accumulate" />
      <path
         inkscape:connector-curvature="0"
         id="path5443-4"
         d="m 683.03125,731.78114 a 30.003,30.003 0 0 0 -20.94531,8.3086 l -280,259.99996 a 30.003,30.003 0 1 0 40.82812,43.9668 l 280,-259.99997 a 30.003,30.003 0 0 0 -19.88281,-52.27539 z"
         style="color:#000000;font-style:normal;font-variant:normal;font-weight:normal;font-stretch:normal;font-size:medium;line-height:normal;font-family:sans-serif;text-indent:0;text-align:start;text-decoration:none;text-decoration-line:none;text-decoration-style:solid;text-decoration-color:#000000;letter-spacing:normal;word-spacing:normal;text-transform:none;writing-mode:lr-tb;direction:ltr;baseline-shift:baseline;text-anchor:start;white-space:normal;clip-rule:nonzero;display:inline;overflow:visible;visibility:visible;opacity:1;isolation:auto;mix-blend-mode:normal;color-interpolation:sRGB;color-interpolation-filters:linearRGB;solid-color:#000000;solid-opacity:1;fill:#000000;fill-opacity:1;fill-rule:evenodd;stroke:#bfbfbf;stroke-width:60;stroke-linecap:round;stroke-linejoin:round;stroke-miterlimit:4;stroke-dasharray:none;stroke-dashoffset:0;stroke-opacity:1;color-rendering:auto;image-rendering:auto;shape-rendering:auto;text-rendering:auto;enable-background:accumulate" />
    </g>
    <path
       style="fill:none;stroke-width:48.75;stroke-linecap:round;stroke-linejoin:round"
       id="path289"
       d="m 77.724082,375.61393 c 15.500155,4.51676 31.321208,7.68645 47.113688,10.9702 20.51802,3.94135 40.74885,9.14357 60.88556,14.67195 5.31071,1.44112 10.5904,2.98515 15.81645,4.70778 2.76586,0.91169 4.61892,1.44827 7.06898,2.96383 -23.98059,-12.19363 -12.05718,-8.15601 -9.43735,-4.98459 0.52285,0.63293 0.89715,1.4306 1.32989,2.12432 2.51841,3.14214 6.30999,4.87851 9.43975,7.32414 1.1945,0.93339 2.32671,1.94389 3.49006,2.91583 7.19307,6.44617 12.98546,14.32805 17.25986,22.97991 0.88832,1.79806 1.64941,3.65621 2.47412,5.48432 4.44557,10.52097 8.71267,21.11581 12.82333,31.77199 1.39373,3.9734 3.6596,7.50506 5.67306,11.16684 0,0 12.78365,5.717 12.78365,5.717 v 0 c -2.08172,-3.71022 -4.5496,-7.19866 -6.13288,-11.17964 -4.33164,-10.64436 -8.66075,-21.28947 -13.0209,-31.92213 -1.99904,-4.5869 -2.69759,-6.53552 -5.18497,-10.87429 -3.8127,-6.65054 -8.52528,-12.80608 -14.11874,-18.05255 -3.0163,-2.67517 -3.1742,-2.97031 -6.26414,-5.17539 -1.78361,-1.27285 -3.82739,-2.31582 -5.50978,-3.73339 -0.30034,-0.25306 -0.54313,-0.56743 -0.8147,-0.85115 -0.79442,-0.90471 -1.08711,-2.00039 -1.79449,-2.94873 -3.23632,-4.33878 -13.62664,-3.02548 -13.83774,-8.4974 -2.26271,-1.06971 -4.57167,-1.80273 -6.96583,-2.54199 -5.11977,-1.58087 -10.28576,-3.0004 -15.46595,-4.36935 -20.01956,-5.31956 -40.1369,-10.24782 -60.46565,-14.26014 -16.191783,-3.43881 -32.478978,-6.74305 -48.177883,-12.08298 0,0 11.032605,8.67561 11.032605,8.67561 z" />
    <g
       id="g1997"
       transform="translate(0.50066606)"
       style="fill:#ff8080;stroke:#bfbfbf;stroke-opacity:1">
      <path
         style="fill:#ff8080;stroke:#bfbfbf;stroke-width:60;stroke-linecap:butt;stroke-linejoin:round;stroke-dasharray:none;paint-order:fill markers stroke;stroke-opacity:1"
         d="m 200,642.36202 v 409.99998 0 0"
         id="path1971" />
      <path
         style="fill:#ff8080;stroke:#bfbfbf;stroke-width:60;stroke-linecap:butt;stroke-linejoin:round;stroke-dasharray:none;paint-order:fill markers stroke;stroke-opacity:1"
         d="m 600,642.36203 v 409.99997 0 0"
         id="path1971-9" />
    </g>
    <path
       style="fill:none;stroke:#bfbfbf;stroke-width:60;stroke-linecap:butt;stroke-linejoin:round;stroke-dasharray:none;paint-order:fill markers stroke;stroke-opacity:1"
       d="M 325.50067,1052.362 V 804.23269 h 150 v 248.12931 0"
       id="path1999" />
  </g>
</svg>
