<?xml version="1.0" encoding="UTF-8" standalone="no"?>
<svg
   width="275"
   height="20"
   role="img"
   aria-label="Dev: D0000"
   version="1.1"
   id="svg30"
   sodipodi:docname="m1-text.svg"
   inkscape:version="1.1.1 (3bf5ae0d25, 2021-09-20)"
   xmlns:inkscape="http://www.inkscape.org/namespaces/inkscape"
   xmlns:sodipodi="http://sodipodi.sourceforge.net/DTD/sodipodi-0.dtd"
   xmlns="http://www.w3.org/2000/svg"
   xmlns:svg="http://www.w3.org/2000/svg"
   xmlns:rdf="http://www.w3.org/1999/02/22-rdf-syntax-ns#"
   xmlns:cc="http://creativecommons.org/ns#"
   xmlns:dc="http://purl.org/dc/elements/1.1/">
  <g
     aria-label="FC11101 Document Release"
     id="text1796"
     style="font-size:16px;line-height:1.25">
    <path
       d="M 7.4296875,5.6992187 H 1.546875 V 8.9804688 H 6.6015625 V 10.355469 H 1.546875 v 5.601562 H 0 V 4.3242187 h 7.4296875 z"
       id="path2354" />
    <path
       d="m 18.179687,15.113281 q -0.429687,0.1875 -0.78125,0.351563 -0.34375,0.164062 -0.90625,0.34375 -0.476562,0.148437 -1.039062,0.25 -0.554687,0.109375 -1.226562,0.109375 -1.265625,0 -2.304688,-0.351563 Q 10.890625,15.457031 10.125,14.699219 9.375,13.957031 8.953125,12.816406 8.53125,11.667969 8.53125,10.152344 q 0,-1.4375002 0.40625,-2.5703128 0.40625,-1.1328125 1.171875,-1.9140625 0.742188,-0.7578125 1.789063,-1.15625 1.054687,-0.3984375 2.335937,-0.3984375 0.9375,0 1.867187,0.2265625 0.9375,0.2265625 2.078125,0.796875 V 6.9726562 H 18.0625 Q 17.101562,6.1679687 16.15625,5.8007812 15.210938,5.4335937 14.132813,5.4335937 q -0.882813,0 -1.59375,0.2890625 -0.703125,0.28125 -1.257813,0.8828125 -0.539062,0.5859375 -0.84375,1.4843751 -0.296875,0.890625 -0.296875,2.0625002 0,1.226562 0.328125,2.109375 0.335938,0.882812 0.859375,1.4375 0.546875,0.578125 1.273438,0.859375 0.734375,0.273437 1.546875,0.273437 1.117187,0 2.093749,-0.382812 0.976563,-0.382813 1.828125,-1.148438 h 0.109375 z"
       id="path2356" />
    <path
       d="m 27.273437,15.957031 h -6.296875 v -1.1875 h 2.421875 V 6.9726562 h -2.421875 v -1.0625 q 0.492188,0 1.054688,-0.078125 0.5625,-0.085937 0.851562,-0.2421875 0.359375,-0.1953125 0.5625,-0.4921875 0.210938,-0.3046875 0.242188,-0.8125 h 1.210937 V 14.769531 h 2.375 z"
       id="path2358" />
    <path
       d="m 37.445312,15.957031 h -6.296875 v -1.1875 h 2.421875 V 6.9726562 h -2.421875 v -1.0625 q 0.492188,0 1.054688,-0.078125 0.5625,-0.085937 0.851562,-0.2421875 0.359375,-0.1953125 0.5625,-0.4921875 0.210938,-0.3046875 0.242188,-0.8125 h 1.210937 V 14.769531 h 2.375 z"
       id="path2360" />
    <path
       d="m 47.617187,15.957031 h -6.296875 v -1.1875 h 2.421875 V 6.9726562 h -2.421875 v -1.0625 q 0.492188,0 1.054688,-0.078125 0.5625,-0.085937 0.851562,-0.2421875 0.359375,-0.1953125 0.5625,-0.4921875 Q 44,4.7929687 44.03125,4.2851562 h 1.210937 V 14.769531 h 2.375 z"
       id="path2362" />
    <path
       d="m 58.4375,10.136719 q 0,3.132812 -0.984375,4.601562 -0.976563,1.460938 -3.039063,1.460938 -2.09375,0 -3.0625,-1.484375 -0.960937,-1.484375 -0.960937,-4.5625 0,-3.1015628 0.976562,-4.5781253 0.976563,-1.484375 3.046875,-1.484375 2.09375,0 3.054688,1.5078125 0.96875,1.5 0.96875,4.5390628 z m -2.054688,3.546875 Q 56.65625,13.050781 56.75,12.199219 q 0.101562,-0.859375 0.101562,-2.0625 0,-1.1875002 -0.101562,-2.0625002 -0.09375,-0.8750001 -0.375,-1.4843751 -0.273438,-0.6015625 -0.75,-0.90625 -0.46875,-0.3046875 -1.210938,-0.3046875 -0.734375,0 -1.21875,0.3046875 -0.476562,0.3046875 -0.757812,0.921875 -0.265625,0.578125 -0.367188,1.5078126 -0.09375,0.9296875 -0.09375,2.0390627 0,1.21875 0.08594,2.039062 0.08594,0.820313 0.367187,1.46875 0.257813,0.609375 0.726563,0.929688 0.476562,0.320312 1.257812,0.320312 0.734375,0 1.21875,-0.304687 0.484375,-0.304688 0.75,-0.921875 z"
       id="path2364" />
    <path
       d="m 67.960937,15.957031 h -6.296875 v -1.1875 h 2.421875 V 6.9726562 h -2.421875 v -1.0625 q 0.492188,0 1.054688,-0.078125 0.5625,-0.085937 0.851562,-0.2421875 0.359375,-0.1953125 0.5625,-0.4921875 0.210938,-0.3046875 0.242188,-0.8125 h 1.210937 V 14.769531 h 2.375 z"
       id="path2366" />
    <path
       d="m 86.679687,10.152344 q 0,1.585937 -0.695312,2.875 -0.6875,1.289062 -1.835938,2 -0.796875,0.492187 -1.78125,0.710937 -0.976562,0.21875 -2.578125,0.21875 h -2.9375 V 4.3242187 h 2.90625 q 1.703125,0 2.703125,0.25 1.007813,0.2421875 1.703125,0.671875 1.1875,0.7421875 1.851563,1.9765625 0.664062,1.2343751 0.664062,2.9296878 z M 85.0625,10.128906 q 0,-1.3671872 -0.476563,-2.3046873 -0.476562,-0.9375 -1.421875,-1.4765625 -0.6875,-0.390625 -1.460937,-0.5390625 -0.773438,-0.15625 -1.851563,-0.15625 h -1.453125 v 8.9765623 h 1.453125 q 1.117188,0 1.945313,-0.164062 0.835937,-0.164063 1.53125,-0.609375 0.867187,-0.554688 1.296875,-1.460938 0.4375,-0.90625 0.4375,-2.265625 z"
       id="path2368" />
    <path
       d="m 96.5,11.597656 q 0,2.132813 -1.09375,3.367188 -1.09375,1.234375 -2.929688,1.234375 -1.851562,0 -2.945312,-1.234375 -1.085938,-1.234375 -1.085938,-3.367188 0,-2.1328122 1.085938,-3.3671872 1.09375,-1.2421876 2.945312,-1.2421876 1.835938,0 2.929688,1.2421876 Q 96.5,9.4648438 96.5,11.597656 Z m -1.515625,0 q 0,-1.6953122 -0.664063,-2.5156247 -0.664062,-0.828125 -1.84375,-0.828125 -1.195312,0 -1.859375,0.828125 -0.65625,0.8203125 -0.65625,2.5156247 0,1.640625 0.664063,2.492188 0.664062,0.84375 1.851562,0.84375 1.171875,0 1.835938,-0.835938 0.671875,-0.84375 0.671875,-2.5 z"
       id="path2370" />
    <path
       d="m 105.22656,15.410156 q -0.73437,0.351563 -1.39843,0.546875 -0.65625,0.195313 -1.39844,0.195313 -0.94531,0 -1.73438,-0.273438 -0.78906,-0.28125 -1.35156,-0.84375 -0.570313,-0.5625 -0.882813,-1.421875 -0.3125,-0.859375 -0.3125,-2.007812 0,-2.1406252 1.171875,-3.3593752 1.179688,-1.2187501 3.109378,-1.2187501 0.75,0 1.46875,0.2109375 0.72656,0.2109375 1.32812,0.515625 v 1.6328126 h -0.0781 q -0.67188,-0.5234375 -1.39063,-0.8046875 -0.71093,-0.28125 -1.39062,-0.28125 -1.25,0 -1.97656,0.84375 -0.718755,0.8359375 -0.718755,2.4609377 0,1.578125 0.703125,2.429687 0.71094,0.84375 1.99219,0.84375 0.44531,0 0.90625,-0.117187 0.46094,-0.117188 0.82812,-0.304688 0.32032,-0.164062 0.60157,-0.34375 0.28125,-0.1875 0.44531,-0.320312 h 0.0781 z"
       id="path2372" />
    <path
       d="M 114.34375,15.957031 H 112.875 v -0.96875 q -0.74219,0.585938 -1.42187,0.898438 -0.67969,0.3125 -1.5,0.3125 -1.375,0 -2.14063,-0.835938 -0.76562,-0.84375 -0.76562,-2.46875 V 7.2304687 h 1.46875 v 4.9687503 q 0,0.664062 0.0625,1.140625 0.0625,0.46875 0.26562,0.804687 0.21094,0.34375 0.54688,0.5 0.33593,0.15625 0.97656,0.15625 0.57031,0 1.24219,-0.296875 0.67968,-0.296875 1.26562,-0.757812 V 7.2304687 h 1.46875 z"
       id="path2374" />
    <path
       d="M 129.96875,15.957031 H 128.5 v -4.96875 q 0,-0.5625 -0.0547,-1.0859372 -0.0469,-0.5234375 -0.21094,-0.8359375 -0.17968,-0.3359375 -0.51562,-0.5078125 -0.33594,-0.171875 -0.96875,-0.171875 -0.61719,0 -1.23437,0.3125 -0.61719,0.3046875 -1.23438,0.78125 0.0234,0.1796875 0.0391,0.421875 0.0156,0.2343752 0.0156,0.4687502 v 5.585937 h -1.46875 v -4.96875 q 0,-0.578125 -0.0547,-1.0937497 -0.0469,-0.5234375 -0.21094,-0.8359375 -0.17968,-0.3359375 -0.51562,-0.5 -0.33594,-0.171875 -0.96875,-0.171875 -0.60156,0 -1.21094,0.296875 -0.60156,0.296875 -1.20312,0.7578125 v 6.5156247 h -1.46875 V 7.2304687 h 1.46875 v 0.9687501 q 0.6875,-0.5703126 1.36718,-0.8906251 0.6875,-0.3203125 1.46094,-0.3203125 0.89063,0 1.50781,0.375 0.625,0.375 0.92969,1.0390626 0.89063,-0.7500001 1.625,-1.0781251 0.73438,-0.3359375 1.57031,-0.3359375 1.4375,0 2.11719,0.875 0.6875,0.8671876 0.6875,2.4296878 z"
       id="path2376" />
    <path
       d="m 140.10156,11.746094 h -6.42969 q 0,0.804687 0.24219,1.40625 0.24219,0.59375 0.66406,0.976562 0.40625,0.375 0.96094,0.5625 0.5625,0.1875 1.23438,0.1875 0.89062,0 1.78906,-0.351562 0.90625,-0.359375 1.28906,-0.703125 h 0.0781 v 1.601562 q -0.74219,0.3125 -1.51563,0.523438 -0.77344,0.210937 -1.625,0.210937 -2.17187,0 -3.39062,-1.171875 -1.21875,-1.179687 -1.21875,-3.34375 0,-2.1406247 1.16406,-3.3984372 1.17187,-1.2578126 3.07812,-1.2578126 1.76563,0 2.71875,1.0312501 0.96094,1.03125 0.96094,2.9296877 z m -1.42969,-1.125 q -0.008,-1.1562502 -0.58593,-1.7890627 -0.57032,-0.6328125 -1.74219,-0.6328125 -1.17969,0 -1.88281,0.6953125 -0.69532,0.6953125 -0.78907,1.7265627 z"
       id="path2378" />
    <path
       d="m 149.625,15.957031 h -1.46875 v -4.96875 q 0,-0.601562 -0.0703,-1.1249997 -0.0703,-0.53125 -0.25782,-0.828125 -0.19531,-0.328125 -0.5625,-0.484375 -0.36718,-0.1640625 -0.95312,-0.1640625 -0.60156,0 -1.25781,0.296875 -0.65625,0.296875 -1.25782,0.7578125 v 6.5156247 h -1.46875 V 7.2304687 h 1.46875 v 0.9687501 q 0.6875,-0.5703126 1.42188,-0.8906251 0.73437,-0.3203125 1.50781,-0.3203125 1.41406,0 2.15625,0.8515625 0.74219,0.8515626 0.74219,2.4531253 z"
       id="path2380" />
    <path
       d="m 156.98437,15.878906 q -0.41406,0.109375 -0.90625,0.179688 -0.48437,0.07031 -0.86718,0.07031 -1.33594,0 -2.03125,-0.71875 -0.69532,-0.71875 -0.69532,-2.304687 V 8.4648438 h -0.99218 V 7.2304687 h 0.99218 V 4.7226562 h 1.46875 v 2.5078125 h 3.03125 v 1.2343751 h -3.03125 v 3.9765622 q 0,0.6875 0.0312,1.078125 0.0312,0.382813 0.21875,0.71875 0.17188,0.3125 0.46875,0.460938 0.30469,0.140625 0.92188,0.140625 0.35937,0 0.75,-0.101563 0.39062,-0.109375 0.5625,-0.179687 h 0.0781 z"
       id="path2382" />
    <path
       d="m 174.125,15.957031 h -2.00781 l -3.89063,-4.625 h -2.17969 v 4.625 H 164.5 V 4.3242187 h 3.25781 q 1.05469,0 1.75781,0.140625 0.70313,0.1328125 1.26563,0.484375 0.63281,0.3984375 0.98437,1.0078125 0.35938,0.6015625 0.35938,1.53125 0,1.2578126 -0.63281,2.1093751 -0.63282,0.8437497 -1.74219,1.2734377 z m -3.61719,-8.3593748 q 0,-0.5 -0.17969,-0.8828125 -0.17187,-0.390625 -0.57812,-0.65625 -0.33594,-0.2265625 -0.79688,-0.3125 -0.46093,-0.09375 -1.08593,-0.09375 h -1.82032 v 4.3906253 h 1.5625 q 0.73438,0 1.28125,-0.1250002 0.54688,-0.1328125 0.92969,-0.484375 0.35156,-0.328125 0.51563,-0.75 0.17187,-0.4296875 0.17187,-1.0859376 z"
       id="path2384" />
    <path
       d="m 182.42187,11.746094 h -6.42968 q 0,0.804687 0.24218,1.40625 0.24219,0.59375 0.66407,0.976562 0.40625,0.375 0.96093,0.5625 0.5625,0.1875 1.23438,0.1875 0.89062,0 1.78906,-0.351562 0.90625,-0.359375 1.28906,-0.703125 h 0.0781 v 1.601562 q -0.74219,0.3125 -1.51563,0.523438 -0.77343,0.210937 -1.625,0.210937 -2.17187,0 -3.39062,-1.171875 Q 174.5,13.808594 174.5,11.644531 q 0,-2.1406247 1.16406,-3.3984372 1.17188,-1.2578126 3.07813,-1.2578126 1.76562,0 2.71875,1.0312501 0.96093,1.03125 0.96093,2.9296877 z m -1.42968,-1.125 q -0.008,-1.1562502 -0.58594,-1.7890627 -0.57031,-0.6328125 -1.74219,-0.6328125 -1.17969,0 -1.88281,0.6953125 -0.69531,0.6953125 -0.78906,1.7265627 z"
       id="path2386" />
    <path
       d="m 186.13281,15.957031 h -1.46875 V 3.8007813 h 1.46875 z"
       id="path2388" />
    <path
       d="m 196.34375,11.746094 h -6.42969 q 0,0.804687 0.24219,1.40625 0.24219,0.59375 0.66406,0.976562 0.40625,0.375 0.96094,0.5625 0.5625,0.1875 1.23437,0.1875 0.89063,0 1.78907,-0.351562 0.90625,-0.359375 1.28906,-0.703125 h 0.0781 v 1.601562 q -0.74218,0.3125 -1.51562,0.523438 -0.77344,0.210937 -1.625,0.210937 -2.17188,0 -3.39063,-1.171875 -1.21875,-1.179687 -1.21875,-3.34375 0,-2.1406247 1.16407,-3.3984372 1.17187,-1.2578126 3.07812,-1.2578126 1.76563,0 2.71875,1.0312501 0.96094,1.03125 0.96094,2.9296877 z m -1.42969,-1.125 q -0.008,-1.1562502 -0.58594,-1.7890627 -0.57031,-0.6328125 -1.74218,-0.6328125 -1.17969,0 -1.88282,0.6953125 -0.69531,0.6953125 -0.78906,1.7265627 z"
       id="path2390" />
    <path
       d="m 205.35156,15.957031 h -1.46094 v -0.929687 q -0.19531,0.132812 -0.53125,0.375 -0.32812,0.234375 -0.64062,0.375 -0.36719,0.179687 -0.84375,0.296875 -0.47656,0.125 -1.11719,0.125 -1.17969,0 -2,-0.78125 -0.82031,-0.78125 -0.82031,-1.992188 0,-0.992187 0.42187,-1.601562 0.42969,-0.617188 1.21875,-0.96875 0.79688,-0.351563 1.91407,-0.476563 1.11718,-0.125 2.39843,-0.1875 V 9.9648438 q 0,-0.5 -0.17968,-0.828125 -0.17188,-0.328125 -0.5,-0.515625 -0.3125,-0.1796875 -0.75,-0.2421875 -0.4375,-0.0625 -0.91407,-0.0625 -0.57812,0 -1.28906,0.15625 -0.71094,0.1484375 -1.46875,0.4375 h -0.0781 V 7.4179687 q 0.42968,-0.1171875 1.24218,-0.2578125 0.8125,-0.140625 1.60157,-0.140625 0.92187,0 1.60156,0.15625 0.6875,0.1484375 1.1875,0.515625 0.49219,0.3593751 0.75,0.9296876 0.25781,0.5703125 0.25781,1.4140622 z m -1.46094,-2.148437 v -2.429688 q -0.67187,0.03906 -1.58593,0.117188 -0.90625,0.07813 -1.4375,0.226562 -0.63282,0.179688 -1.02344,0.5625 -0.39063,0.375 -0.39063,1.039063 0,0.75 0.45313,1.132812 0.45312,0.375 1.38281,0.375 0.77344,0 1.41406,-0.296875 0.64063,-0.304687 1.1875,-0.726562 z"
       id="path2392" />
    <path
       d="m 214.41406,13.441406 q 0,1.195313 -0.99219,1.960938 -0.98437,0.765625 -2.69531,0.765625 -0.96875,0 -1.78125,-0.226563 -0.80469,-0.234375 -1.35156,-0.507812 v -1.648438 h 0.0781 q 0.69532,0.523438 1.54688,0.835938 0.85156,0.304687 1.63281,0.304687 0.96875,0 1.51563,-0.3125 0.54687,-0.3125 0.54687,-0.984375 0,-0.515625 -0.29687,-0.78125 -0.29688,-0.265625 -1.14063,-0.453125 -0.3125,-0.07031 -0.82031,-0.164062 -0.5,-0.09375 -0.91406,-0.203125 -1.14844,-0.304688 -1.63282,-0.890625 -0.47656,-0.59375 -0.47656,-1.4531252 0,-0.5390625 0.21875,-1.015625 0.22656,-0.4765625 0.67969,-0.8515626 0.4375,-0.3671875 1.10937,-0.578125 0.67969,-0.21875 1.51563,-0.21875 0.78125,0 1.57812,0.1953125 0.80469,0.1875 1.33594,0.4609375 v 1.5703126 h -0.0781 q -0.5625,-0.4140625 -1.36719,-0.6953125 -0.80469,-0.2890625 -1.57813,-0.2890625 -0.80468,0 -1.35937,0.3125 -0.55469,0.3046875 -0.55469,0.9140625 0,0.5390627 0.33594,0.8124997 0.32812,0.273438 1.0625,0.445313 0.40625,0.09375 0.90625,0.1875 0.50781,0.09375 0.84375,0.171875 1.02344,0.234375 1.57812,0.804687 0.55469,0.578125 0.55469,1.53125 z"
       id="path2394" />
    <path
       d="m 223.82031,11.746094 h -6.42969 q 0,0.804687 0.24219,1.40625 0.24219,0.59375 0.66406,0.976562 0.40625,0.375 0.96094,0.5625 0.5625,0.1875 1.23438,0.1875 0.89062,0 1.78906,-0.351562 0.90625,-0.359375 1.28906,-0.703125 h 0.0781 v 1.601562 q -0.74219,0.3125 -1.51563,0.523438 -0.77344,0.210937 -1.625,0.210937 -2.17187,0 -3.39062,-1.171875 -1.21875,-1.179687 -1.21875,-3.34375 0,-2.1406247 1.16406,-3.3984372 1.17187,-1.2578126 3.07812,-1.2578126 1.76563,0 2.71875,1.0312501 0.96094,1.03125 0.96094,2.9296877 z m -1.42969,-1.125 q -0.008,-1.1562502 -0.58593,-1.7890627 -0.57032,-0.6328125 -1.74219,-0.6328125 -1.17969,0 -1.88281,0.6953125 -0.69532,0.6953125 -0.78907,1.7265627 z"
       id="path2396" />
  </g>
  <metadata
     id="metadata36">
    <rdf:RDF>
      <cc:Work
         rdf:about="">
        <dc:format>image/svg+xml</dc:format>
        <dc:type
           rdf:resource="http://purl.org/dc/dcmitype/StillImage" />
        <dc:title>Dev: D0000</dc:title>
      </cc:Work>
    </rdf:RDF>
  </metadata>
  <defs
     id="defs34" />
  <sodipodi:namedview
     pagecolor="#ffffff"
     bordercolor="#666666"
     borderopacity="1"
     objecttolerance="10"
     gridtolerance="10"
     guidetolerance="10"
     inkscape:pageopacity="0"
     inkscape:pageshadow="2"
     inkscape:window-width="2560"
     inkscape:window-height="1369"
     id="namedview32"
     showgrid="false"
     inkscape:zoom="5.149188"
     inkscape:cx="91.179425"
     inkscape:cy="-8.2537285"
     inkscape:window-x="2552"
     inkscape:window-y="-8"
     inkscape:window-maximized="1"
     inkscape:current-layer="svg30"
     inkscape:pagecheckerboard="0" />
  <title
     id="title2">Dev: D0000</title>
  <linearGradient
     id="s"
     x2="0"
     y2="1">
    <stop
       offset="0"
       stop-color="#bbb"
       stop-opacity=".1"
       id="stop4" />
    <stop
       offset="1"
       stop-opacity=".1"
       id="stop6" />
  </linearGradient>
  <clipPath
     id="r">
    <rect
       width="78"
       height="20"
       rx="3"
       id="rect9"
       x="0"
       y="0"
       style="fill:#ffffff" />
  </clipPath>
</svg>
