<?xml version="1.0" encoding="UTF-8" standalone="no"?>
<svg
   xmlns:dc="http://purl.org/dc/elements/1.1/"
   xmlns:cc="http://creativecommons.org/ns#"
   xmlns:rdf="http://www.w3.org/1999/02/22-rdf-syntax-ns#"
   xmlns:svg="http://www.w3.org/2000/svg"
   xmlns="http://www.w3.org/2000/svg"
   xmlns:sodipodi="http://sodipodi.sourceforge.net/DTD/sodipodi-0.dtd"
   xmlns:inkscape="http://www.inkscape.org/namespaces/inkscape"
   width="446"
   height="20"
   role="img"
   aria-label="Dev: D0000"
   version="1.1"
   id="svg30"
   sodipodi:docname="m1-text.svg"
   inkscape:version="0.92.4 (5da689c313, 2019-01-14)">
  <metadata
     id="metadata36">
    <rdf:RDF>
      <cc:Work
         rdf:about="">
        <dc:format>image/svg+xml</dc:format>
        <dc:type
           rdf:resource="http://purl.org/dc/dcmitype/StillImage" />
        <dc:title>Dev: D0000</dc:title>
      </cc:Work>
    </rdf:RDF>
  </metadata>
  <defs
     id="defs34" />
  <sodipodi:namedview
     pagecolor="#ffffff"
     bordercolor="#666666"
     borderopacity="1"
     objecttolerance="10"
     gridtolerance="10"
     guidetolerance="10"
     inkscape:pageopacity="0"
     inkscape:pageshadow="2"
     inkscape:window-width="2560"
     inkscape:window-height="1377"
     id="namedview32"
     showgrid="false"
     inkscape:zoom="3.6410256"
     inkscape:cx="158.34108"
     inkscape:cy="9.9999999"
     inkscape:window-x="2552"
     inkscape:window-y="-6"
     inkscape:window-maximized="1"
     inkscape:current-layer="svg30" />
  <title
     id="title2">Dev: D0000</title>
  <linearGradient
     id="s"
     x2="0"
     y2="1">
    <stop
       offset="0"
       stop-color="#bbb"
       stop-opacity=".1"
       id="stop4" />
    <stop
       offset="1"
       stop-opacity=".1"
       id="stop6" />
  </linearGradient>
  <clipPath
     id="r">
    <rect
       width="78"
       height="20"
       rx="3"
       id="rect9"
       x="0"
       y="0"
       style="fill:#ffffff" />
  </clipPath>
  <g
     aria-label="Repository Created — Folder structure and common files only"
     style="font-style:normal;font-variant:normal;font-weight:normal;font-stretch:normal;font-size:16.39999962px;line-height:1.25;font-family:'Segoe UI';-inkscape-font-specification:'Segoe UI, Normal';font-variant-ligatures:normal;font-variant-caps:normal;font-variant-numeric:normal;font-feature-settings:ss02;text-align:start;letter-spacing:0px;word-spacing:0px;writing-mode:lr-tb;text-anchor:start;fill:#000000;fill-opacity:1;stroke:none"
     id="text823">
    <path
       d="M 8.6749144,14.228125 H 7.073352 L 5.151477,11.008984 Q 4.8872192,10.560547 4.638977,10.248242 4.3907348,9.9279294 4.126477,9.7277341 3.870227,9.5275388 3.5659302,9.4394529 3.2696411,9.3433591 2.8932739,9.3433591 H 1.7881958 V 14.228125 H 0.44288336 V 2.7449218 H 3.870227 q 0.7527344,0 1.3853516,0.1921875 0.6406249,0.1841796 1.1050781,0.5685546 0.4724609,0.384375 0.7367187,0.9609375 0.2642578,0.5685547 0.2642578,1.3373047 0,0.6005859 -0.1841797,1.1050781 -0.1761719,0.4964843 -0.5125,0.8888671 Q 6.3366332,8.1902341 5.8641723,8.4705076 5.3997192,8.7427732 4.8151489,8.8949216 v 0.032031 q 0.2882812,0.128125 0.4964843,0.296289 0.216211,0.1601563 0.4083985,0.384375 0.1921875,0.2242188 0.3763672,0.5125001 0.1921875,0.280273 0.424414,0.656641 z M 1.7881958,3.9621092 V 8.1261716 H 3.613977 q 0.5044922,0 0.9289063,-0.1521484 Q 4.9753051,7.8218748 5.2876098,7.5416013 5.5999145,7.2533201 5.7760864,6.8449217 5.9522582,6.4285154 5.9522582,5.9160154 5.9522582,4.995117 5.3516723,4.482617 4.7590942,3.9621092 3.6299927,3.9621092 Z"
       style=""
       id="path822" />
    <path
       d="m 16.178235,10.456445 h -5.789649 q 0.03203,1.369336 0.736719,2.114062 0.704687,0.744727 1.937891,0.744727 1.385351,0 2.546484,-0.912891 v 1.233204 q -1.081055,0.784765 -2.858789,0.784765 -1.737695,0 -2.730664,-1.113086 -0.9929688,-1.121094 -0.9929688,-3.14707 0,-1.9138672 1.0810548,-3.115039 1.089062,-1.2091797 2.698633,-1.2091797 1.60957,0 2.490429,1.0410156 0.88086,1.0410156 0.88086,2.8908203 z M 14.832922,9.3433591 q -0.008,-1.1371093 -0.552539,-1.7697265 -0.536523,-0.6326172 -1.497461,-0.6326172 -0.928906,0 -1.577539,0.6646484 -0.648633,0.6646485 -0.800781,1.7376953 z"
       style=""
       id="path824" />
    <path
       d="m 19.517492,13.042968 h -0.03203 v 4.956836 H 18.172179 V 6.0281248 h 1.313282 V 7.469531 h 0.03203 q 0.968945,-1.6335937 2.834766,-1.6335937 1.585546,0 2.474414,1.1050781 0.888867,1.0970703 0.888867,2.9468749 0,2.0580077 -1.000977,3.2992187 -1.000976,1.233203 -2.738672,1.233203 -1.593554,0 -2.458398,-1.377344 z m -0.03203,-3.3072261 v 1.1451171 q 0,1.016992 0.65664,1.729688 0.664649,0.704687 1.681641,0.704687 1.193164,0 1.86582,-0.912891 0.680664,-0.91289 0.680664,-2.5384761 0,-1.3693359 -0.632617,-2.1460937 -0.632617,-0.7767578 -1.713672,-0.7767578 -1.145117,0 -1.841797,0.8007812 -0.696679,0.7927735 -0.696679,1.9939453 z"
       style=""
       id="path826" />
    <path
       d="m 31.24093,14.420312 q -1.817773,0 -2.906836,-1.145117 -1.081054,-1.153125 -1.081054,-3.050977 0,-2.0660151 1.129101,-3.2271479 1.129102,-1.1611328 3.050977,-1.1611328 1.833789,0 2.858789,1.1291015 1.033007,1.1291016 1.033007,3.1310542 0,1.961914 -1.113085,3.147071 -1.105079,1.177148 -2.970899,1.177148 z m 0.09609,-7.4792966 q -1.265234,0 -2.001953,0.8648437 -0.736719,0.856836 -0.736719,2.3703129 0,1.457421 0.744727,2.298242 0.744726,0.84082 1.993945,0.84082 1.273242,0 1.953906,-0.824805 0.688672,-0.824804 0.688672,-2.346289 0,-1.5374996 -0.688672,-2.3703121 -0.680664,-0.8328125 -1.953906,-0.8328125 z"
       style=""
       id="path828" />
    <path
       d="m 36.926477,13.931836 v -1.409375 q 1.073047,0.792773 2.362305,0.792773 1.729687,0 1.729687,-1.153125 0,-0.32832 -0.152148,-0.552539 Q 40.72218,11.377343 40.46593,11.201172 40.217688,11.025 39.873352,10.888867 39.537024,10.744726 39.144641,10.592578 38.60011,10.376367 38.183704,10.160156 37.775305,9.9359372 37.495032,9.6636716 37.222766,9.3833982 37.078626,9.0310544 36.942493,8.6787107 36.942493,8.2062498 q 0,-0.5765625 0.264258,-1.0169922 0.264257,-0.4484375 0.704687,-0.7447266 0.44043,-0.3042968 1.000977,-0.4564453 0.568554,-0.1521484 1.16914,-0.1521484 1.065039,0 1.90586,0.3683594 v 1.3292968 q -0.904883,-0.5925781 -2.082032,-0.5925781 -0.368359,0 -0.664648,0.088086 -0.296289,0.080078 -0.5125,0.2322266 -0.208203,0.1521484 -0.32832,0.3683594 -0.11211,0.2082031 -0.11211,0.4644531 0,0.3203125 0.11211,0.5365234 0.120117,0.2162109 0.344336,0.384375 0.224218,0.1681641 0.544531,0.3042969 0.320312,0.1361328 0.728711,0.296289 0.544531,0.2082031 0.976953,0.4324223 0.432422,0.216211 0.736719,0.496484 0.304296,0.272266 0.464453,0.632617 0.168164,0.360352 0.168164,0.856836 0,0.608594 -0.272266,1.057031 -0.264258,0.448438 -0.712695,0.744727 -0.448438,0.296289 -1.033008,0.440429 -0.58457,0.144141 -1.225195,0.144141 -1.265235,0 -2.194141,-0.488476 z"
       style=""
       id="path830" />
    <path
       d="m 45.046397,3.9460936 q -0.352344,0 -0.600586,-0.2402344 -0.248242,-0.2402343 -0.248242,-0.6085937 0,-0.3683594 0.248242,-0.6085937 0.248242,-0.2482422 0.600586,-0.2482422 0.360351,0 0.608593,0.2482422 0.25625,0.2402343 0.25625,0.6085937 0,0.3523437 -0.25625,0.6005859 -0.248242,0.2482422 -0.608593,0.2482422 z M 45.687022,14.228125 H 44.37374 V 6.0281248 h 1.313282 z"
       style=""
       id="path832" />
    <path
       d="m 52.149326,14.148046 q -0.464454,0.25625 -1.225196,0.25625 -2.154101,0 -2.154101,-2.402343 V 7.1492185 H 47.360654 V 6.0281248 h 1.409375 V 4.0261717 l 1.313281,-0.424414 v 2.4263671 h 2.066016 V 7.1492185 H 50.08331 v 4.6205075 q 0,0.824805 0.280273,1.177149 0.280274,0.352343 0.928907,0.352343 0.496484,0 0.856836,-0.272265 z"
       style=""
       id="path834" />
    <path
       d="m 57.346399,14.420312 q -1.817773,0 -2.906836,-1.145117 -1.081055,-1.153125 -1.081055,-3.050977 0,-2.0660151 1.129102,-3.2271479 1.129101,-1.1611328 3.050976,-1.1611328 1.833789,0 2.858789,1.1291015 1.033008,1.1291016 1.033008,3.1310542 0,1.961914 -1.113086,3.147071 -1.105078,1.177148 -2.970898,1.177148 z m 0.09609,-7.4792966 q -1.265235,0 -2.001953,0.8648437 -0.736719,0.856836 -0.736719,2.3703129 0,1.457421 0.744726,2.298242 0.744727,0.84082 1.993946,0.84082 1.273242,0 1.953906,-0.824805 0.688672,-0.824804 0.688672,-2.346289 0,-1.5374996 -0.688672,-2.3703121 -0.680664,-0.8328125 -1.953906,-0.8328125 z"
       style=""
       id="path836" />
    <path
       d="m 67.804602,7.3574217 q -0.344336,-0.2642579 -0.992969,-0.2642579 -0.84082,0 -1.409375,0.7927735 -0.560547,0.7927734 -0.560547,2.1621097 v 4.180078 H 63.52843 V 6.0281248 h 1.313281 v 1.6896484 h 0.03203 q 0.280273,-0.8648437 0.856836,-1.3453125 0.576562,-0.4884765 1.289257,-0.4884765 0.5125,0 0.784766,0.1121094 z"
       style=""
       id="path838" />
    <path
       d="m 75.756358,6.0281248 -3.771679,9.5132812 q -1.008985,2.546484 -2.834766,2.546484 -0.5125,0 -0.856836,-0.104101 V 16.80664 q 0.424414,0.144141 0.776758,0.144141 0.992969,0 1.489453,-1.185156 l 0.656641,-1.553516 -3.203125,-8.1839842 h 1.457422 l 2.218164,6.3101562 q 0.04004,0.120117 0.168164,0.624609 h 0.04805 q 0.04004,-0.192187 0.160156,-0.608593 L 74.39503,6.0281248 Z"
       style=""
       id="path840" />
    <path
       d="m 89.649911,13.747656 q -1.273242,0.672656 -3.171093,0.672656 -2.450391,0 -3.923828,-1.577539 -1.473438,-1.577539 -1.473438,-4.1400389 0,-2.7546874 1.657617,-4.4523436 1.657617,-1.6976562 4.204102,-1.6976562 1.633594,0 2.70664,0.4724609 v 1.4333984 q -1.233203,-0.6886719 -2.722656,-0.6886719 -1.977929,0 -3.211133,1.3212891 -1.225195,1.321289 -1.225195,3.5314452 0,2.098047 1.145117,3.347266 1.153125,1.24121 3.018946,1.24121 1.729687,0 2.994921,-0.76875 z"
       style=""
       id="path842" />
    <path
       d="m 96.088194,7.3574217 q -0.344336,-0.2642579 -0.992968,-0.2642579 -0.840821,0 -1.409375,0.7927735 -0.560547,0.7927734 -0.560547,2.1621097 v 4.180078 H 91.812022 V 6.0281248 h 1.313282 v 1.6896484 h 0.03203 q 0.280273,-0.8648437 0.856836,-1.3453125 0.576562,-0.4884765 1.289258,-0.4884765 0.5125,0 0.784765,0.1121094 z"
       style=""
       id="path844" />
    <path
       d="m 104.10401,10.456445 h -5.789645 q 0.03203,1.369336 0.736718,2.114062 0.704688,0.744727 1.937887,0.744727 1.38536,0 2.54649,-0.912891 v 1.233204 q -1.08106,0.784765 -2.85879,0.784765 -1.737696,0 -2.730665,-1.113086 -0.992968,-1.121094 -0.992968,-3.14707 0,-1.9138672 1.081054,-3.115039 1.089063,-1.2091797 2.698629,-1.2091797 1.60957,0 2.49043,1.0410156 0.88086,1.0410156 0.88086,2.8908203 z M 102.7587,9.3433591 q -0.008,-1.1371093 -0.55254,-1.7697265 -0.53652,-0.6326172 -1.49746,-0.6326172 -0.928906,0 -1.577538,0.6646484 -0.648633,0.6646485 -0.800782,1.7376953 z"
       style=""
       id="path846" />
    <path
       d="m 111.96768,14.228125 h -1.31328 v -1.28125 h -0.032 q -0.85684,1.473437 -2.52246,1.473437 -1.2252,0 -1.92187,-0.648633 -0.68868,-0.648632 -0.68868,-1.721679 0,-2.2982425 2.70664,-2.6746096 l 2.4584,-0.344336 q 0,-2.090039 -1.68965,-2.090039 -1.48144,0 -2.67461,1.0089844 V 6.6046873 q 1.20918,-0.76875 2.78672,-0.76875 2.89082,0 2.89082,3.0589843 z m -1.31328,-4.148047 -1.97793,0.272265 q -0.91289,0.128125 -1.37734,0.456446 -0.46445,0.320312 -0.46445,1.145117 0,0.600586 0.42441,0.984961 0.43242,0.376367 1.14512,0.376367 0.97695,0 1.60957,-0.680664 0.64062,-0.688672 0.64062,-1.737695 z"
       style=""
       id="path848" />
    <path
       d="m 118.26183,14.148046 q -0.46445,0.25625 -1.2252,0.25625 -2.1541,0 -2.1541,-2.402343 V 7.1492185 h -1.40937 V 6.0281248 h 1.40937 V 4.0261717 l 1.31328,-0.424414 v 2.4263671 h 2.06602 v 1.1210937 h -2.06602 v 4.6205075 q 0,0.824805 0.28028,1.177149 0.28027,0.352343 0.9289,0.352343 0.49649,0 0.85684,-0.272265 z"
       style=""
       id="path850" />
    <path
       d="m 126.62198,10.456445 h -5.78965 q 0.032,1.369336 0.73672,2.114062 0.70469,0.744727 1.93789,0.744727 1.38535,0 2.54649,-0.912891 v 1.233204 q -1.08106,0.784765 -2.85879,0.784765 -1.7377,0 -2.73067,-1.113086 -0.99297,-1.121094 -0.99297,-3.14707 0,-1.9138672 1.08106,-3.115039 1.08906,-1.2091797 2.69863,-1.2091797 1.60957,0 2.49043,1.0410156 0.88086,1.0410156 0.88086,2.8908203 z m -1.34531,-1.1130859 q -0.008,-1.1371093 -0.55254,-1.7697265 -0.53652,-0.6326172 -1.49746,-0.6326172 -0.92891,0 -1.57754,0.6646484 -0.64863,0.6646485 -0.80078,1.7376953 z"
       style=""
       id="path852" />
    <path
       d="m 135.61475,14.228125 h -1.31328 v -1.39336 h -0.032 q -0.91289,1.585547 -2.81875,1.585547 -1.54551,0 -2.47441,-1.09707 -0.9209,-1.105078 -0.9209,-3.00293 0,-2.0339841 1.025,-3.2591794 1.025,-1.2251953 2.73066,-1.2251953 1.68965,0 2.4584,1.3292969 h 0.032 v -5.076953 h 1.31328 z m -1.31328,-3.707617 V 9.3113279 q 0,-0.9929688 -0.65664,-1.6816406 -0.65664,-0.6886719 -1.66562,-0.6886719 -1.20118,0 -1.88985,0.8808594 -0.68867,0.8808593 -0.68867,2.4343752 0,1.417382 0.65664,2.242187 0.66465,0.816797 1.77773,0.816797 1.09707,0 1.77774,-0.792773 0.68867,-0.792774 0.68867,-2.001953 z"
       style=""
       id="path854" />
    <path
       d="m 157.84445,10.176172 h -16.4 V 9.1431638 h 16.4 z"
       style=""
       id="path856" />
    <path
       d="m 169.66397,3.9621092 h -4.48437 v 3.9718749 h 4.14805 v 1.2091797 h -4.14805 v 5.0849612 h -1.34531 V 2.7449218 h 5.82968 z"
       style=""
       id="path858" />
    <path
       d="m 175.09327,14.420312 q -1.81777,0 -2.90684,-1.145117 -1.08105,-1.153125 -1.08105,-3.050977 0,-2.0660151 1.1291,-3.2271479 1.1291,-1.1611328 3.05098,-1.1611328 1.83379,0 2.85879,1.1291015 1.03301,1.1291016 1.03301,3.1310542 0,1.961914 -1.11309,3.147071 -1.10508,1.177148 -2.9709,1.177148 z m 0.0961,-7.4792966 q -1.26523,0 -2.00195,0.8648437 -0.73672,0.856836 -0.73672,2.3703129 0,1.457421 0.74473,2.298242 0.74473,0.84082 1.99394,0.84082 1.27325,0 1.95391,-0.824805 0.68867,-0.824804 0.68867,-2.346289 0,-1.5374996 -0.68867,-2.3703121 -0.68066,-0.8328125 -1.95391,-0.8328125 z"
       style=""
       id="path860" />
    <path
       d="M 182.58858,14.228125 H 181.2753 V 2.0882812 h 1.31328 z"
       style=""
       id="path862" />
    <path
       d="m 192.24601,14.228125 h -1.31328 v -1.39336 h -0.032 q -0.91289,1.585547 -2.81875,1.585547 -1.54551,0 -2.47442,-1.09707 -0.9209,-1.105078 -0.9209,-3.00293 0,-2.0339841 1.025,-3.2591794 1.025,-1.2251953 2.73067,-1.2251953 1.68965,0 2.4584,1.3292969 h 0.032 v -5.076953 h 1.31328 z m -1.31328,-3.707617 V 9.3113279 q 0,-0.9929688 -0.65664,-1.6816406 -0.65664,-0.6886719 -1.66563,-0.6886719 -1.20117,0 -1.88984,0.8808594 -0.68867,0.8808593 -0.68867,2.4343752 0,1.417382 0.65664,2.242187 0.66464,0.816797 1.77773,0.816797 1.09707,0 1.77774,-0.792773 0.68867,-0.792774 0.68867,-2.001953 z"
       style=""
       id="path864" />
    <path
       d="m 201.51104,10.456445 h -5.78965 q 0.032,1.369336 0.73672,2.114062 0.70469,0.744727 1.93789,0.744727 1.38535,0 2.54649,-0.912891 v 1.233204 q -1.08106,0.784765 -2.85879,0.784765 -1.7377,0 -2.73067,-1.113086 -0.99297,-1.121094 -0.99297,-3.14707 0,-1.9138672 1.08106,-3.115039 1.08906,-1.2091797 2.69863,-1.2091797 1.60957,0 2.49043,1.0410156 0.88086,1.0410156 0.88086,2.8908203 z m -1.34531,-1.1130859 q -0.008,-1.1371093 -0.55254,-1.7697265 -0.53652,-0.6326172 -1.49746,-0.6326172 -0.92891,0 -1.57754,0.6646484 -0.64863,0.6646485 -0.80078,1.7376953 z"
       style=""
       id="path866" />
    <path
       d="m 207.78116,7.3574217 q -0.34433,-0.2642579 -0.99296,-0.2642579 -0.84082,0 -1.40938,0.7927735 -0.56055,0.7927734 -0.56055,2.1621097 v 4.180078 h -1.31328 V 6.0281248 h 1.31328 v 1.6896484 h 0.032 q 0.28027,-0.8648437 0.85683,-1.3453125 0.57656,-0.4884765 1.28926,-0.4884765 0.5125,0 0.78476,0.1121094 z"
       style=""
       id="path868" />
    <path
       d="m 213.19444,13.931836 v -1.409375 q 1.07304,0.792773 2.3623,0.792773 1.72969,0 1.72969,-1.153125 0,-0.32832 -0.15215,-0.552539 -0.14414,-0.232227 -0.40039,-0.408398 -0.24824,-0.176172 -0.59258,-0.312305 -0.33633,-0.144141 -0.72871,-0.296289 -0.54453,-0.216211 -0.96094,-0.432422 -0.4084,-0.2242188 -0.68867,-0.4964844 -0.27226,-0.2802734 -0.4164,-0.6326172 -0.13614,-0.3523437 -0.13614,-0.8248046 0,-0.5765625 0.26426,-1.0169922 0.26426,-0.4484375 0.70469,-0.7447266 0.44043,-0.3042968 1.00097,-0.4564453 0.56856,-0.1521484 1.16914,-0.1521484 1.06504,0 1.90586,0.3683594 v 1.3292968 q -0.90488,-0.5925781 -2.08203,-0.5925781 -0.36836,0 -0.66465,0.088086 -0.29628,0.080078 -0.5125,0.2322266 -0.2082,0.1521484 -0.32832,0.3683594 -0.11211,0.2082031 -0.11211,0.4644531 0,0.3203125 0.11211,0.5365234 0.12012,0.2162109 0.34434,0.384375 0.22422,0.1681641 0.54453,0.3042969 0.32031,0.1361328 0.72871,0.296289 0.54453,0.2082031 0.97696,0.4324223 0.43242,0.216211 0.73671,0.496484 0.3043,0.272266 0.46446,0.632617 0.16816,0.360352 0.16816,0.856836 0,0.608594 -0.27226,1.057031 -0.26426,0.448438 -0.7127,0.744727 -0.44844,0.296289 -1.03301,0.440429 -0.58457,0.144141 -1.22519,0.144141 -1.26524,0 -2.19414,-0.488476 z"
       style=""
       id="path870" />
    <path
       d="m 224.44542,14.148046 q -0.46445,0.25625 -1.22519,0.25625 -2.1541,0 -2.1541,-2.402343 V 7.1492185 h -1.40938 V 6.0281248 h 1.40938 V 4.0261717 l 1.31328,-0.424414 v 2.4263671 h 2.06601 v 1.1210937 h -2.06601 v 4.6205075 q 0,0.824805 0.28027,1.177149 0.28027,0.352343 0.92891,0.352343 0.49648,0 0.85683,-0.272265 z"
       style=""
       id="path872" />
    <path
       d="m 230.49131,7.3574217 q -0.34434,-0.2642579 -0.99297,-0.2642579 -0.84082,0 -1.40938,0.7927735 -0.56054,0.7927734 -0.56054,2.1621097 v 4.180078 h -1.31328 V 6.0281248 h 1.31328 v 1.6896484 h 0.032 q 0.28027,-0.8648437 0.85684,-1.3453125 0.57656,-0.4884765 1.28925,-0.4884765 0.5125,0 0.78477,0.1121094 z"
       style=""
       id="path874" />
    <path
       d="m 238.54717,14.228125 h -1.31328 v -1.297266 h -0.032 q -0.8168,1.489453 -2.53047,1.489453 -2.93086,0 -2.93086,-3.491406 V 6.0281248 h 1.30528 v 4.6925782 q 0,2.594531 1.98593,2.594531 0.96094,0 1.57754,-0.704687 0.62461,-0.712696 0.62461,-1.857813 V 6.0281248 h 1.31328 z"
       style=""
       id="path876" />
    <path
       d="m 246.79522,13.851757 q -0.94492,0.568555 -2.24219,0.568555 -1.75371,0 -2.83476,-1.137109 -1.07305,-1.145117 -1.07305,-2.962891 0,-2.0259763 1.16113,-3.2511716 1.16114,-1.2332031 3.09903,-1.2332031 1.08105,0 1.90586,0.4003906 v 1.3453125 q -0.91289,-0.640625 -1.95391,-0.640625 -1.25723,0 -2.06602,0.9048828 -0.80078,0.896875 -0.80078,2.3623048 0,1.441406 0.75274,2.274219 0.76074,0.832812 2.03398,0.832812 1.07305,0 2.01797,-0.712695 z"
       style=""
       id="path878" />
    <path
       d="m 252.60088,14.148046 q -0.46445,0.25625 -1.2252,0.25625 -2.1541,0 -2.1541,-2.402343 V 7.1492185 h -1.40937 V 6.0281248 h 1.40937 V 4.0261717 l 1.31328,-0.424414 v 2.4263671 h 2.06602 v 1.1210937 h -2.06602 v 4.6205075 q 0,0.824805 0.28028,1.177149 0.28027,0.352343 0.9289,0.352343 0.49649,0 0.85684,-0.272265 z"
       style=""
       id="path880" />
    <path
       d="m 261.00108,14.228125 h -1.31328 v -1.297266 h -0.032 q -0.81679,1.489453 -2.53046,1.489453 -2.93086,0 -2.93086,-3.491406 V 6.0281248 h 1.30527 v 4.6925782 q 0,2.594531 1.98594,2.594531 0.96094,0 1.57754,-0.704687 0.62461,-0.712696 0.62461,-1.857813 V 6.0281248 h 1.31328 z"
       style=""
       id="path882" />
    <path
       d="m 267.93586,7.3574217 q -0.34434,-0.2642579 -0.99297,-0.2642579 -0.84082,0 -1.40938,0.7927735 -0.56054,0.7927734 -0.56054,2.1621097 v 4.180078 h -1.31328 V 6.0281248 h 1.31328 v 1.6896484 h 0.032 q 0.28027,-0.8648437 0.85683,-1.3453125 0.57657,-0.4884765 1.28926,-0.4884765 0.5125,0 0.78477,0.1121094 z"
       style=""
       id="path884" />
    <path
       d="m 275.95165,10.456445 h -5.78964 q 0.032,1.369336 0.73671,2.114062 0.70469,0.744727 1.93789,0.744727 1.38536,0 2.54649,-0.912891 v 1.233204 q -1.08106,0.784765 -2.85879,0.784765 -1.73769,0 -2.73066,-1.113086 -0.99297,-1.121094 -0.99297,-3.14707 0,-1.9138672 1.08105,-3.115039 1.08906,-1.2091797 2.69863,-1.2091797 1.60958,0 2.49043,1.0410156 0.88086,1.0410156 0.88086,2.8908203 z m -1.34531,-1.1130859 q -0.008,-1.1371093 -0.55254,-1.7697265 -0.53652,-0.6326172 -1.49746,-0.6326172 -0.9289,0 -1.57754,0.6646484 -0.64863,0.6646485 -0.80078,1.7376953 z"
       style=""
       id="path886" />
    <path
       d="m 288.29971,14.228125 h -1.31328 v -1.28125 h -0.032 q -0.85683,1.473437 -2.52246,1.473437 -1.22519,0 -1.92187,-0.648633 -0.68867,-0.648632 -0.68867,-1.721679 0,-2.2982425 2.70664,-2.6746096 l 2.4584,-0.344336 q 0,-2.090039 -1.68965,-2.090039 -1.48145,0 -2.67461,1.0089844 V 6.6046873 q 1.20918,-0.76875 2.78672,-0.76875 2.89082,0 2.89082,3.0589843 z m -1.31328,-4.148047 -1.97793,0.272265 q -0.91289,0.128125 -1.37735,0.456446 -0.46445,0.320312 -0.46445,1.145117 0,0.600586 0.42441,0.984961 0.43243,0.376367 1.14512,0.376367 0.97695,0 1.60957,-0.680664 0.64063,-0.688672 0.64063,-1.737695 z"
       style=""
       id="path888" />
    <path
       d="m 297.59679,14.228125 h -1.31328 V 9.5515622 q 0,-2.6105468 -1.90586,-2.6105468 -0.98496,0 -1.63359,0.7447266 -0.64063,0.7367187 -0.64063,1.8658202 v 4.6765628 h -1.31328 V 6.0281248 h 1.31328 v 1.3613281 h 0.032 q 0.92891,-1.5535156 2.69063,-1.5535156 1.34531,0 2.058,0.8728516 0.7127,0.8648437 0.7127,2.5064452 z"
       style=""
       id="path890" />
    <path
       d="m 307.07804,14.228125 h -1.31328 v -1.39336 h -0.032 q -0.91289,1.585547 -2.81875,1.585547 -1.54551,0 -2.47442,-1.09707 -0.9209,-1.105078 -0.9209,-3.00293 0,-2.0339841 1.025,-3.2591794 1.025,-1.2251953 2.73067,-1.2251953 1.68965,0 2.4584,1.3292969 h 0.032 v -5.076953 h 1.31328 z m -1.31328,-3.707617 V 9.3113279 q 0,-0.9929688 -0.65664,-1.6816406 -0.65664,-0.6886719 -1.66563,-0.6886719 -1.20117,0 -1.88984,0.8808594 -0.68867,0.8808593 -0.68867,2.4343752 0,1.417382 0.65664,2.242187 0.66465,0.816797 1.77773,0.816797 1.09707,0 1.77774,-0.792773 0.68867,-0.792774 0.68867,-2.001953 z"
       style=""
       id="path892" />
    <path
       d="m 319.82647,13.851757 q -0.94492,0.568555 -2.24219,0.568555 -1.75371,0 -2.83476,-1.137109 -1.07305,-1.145117 -1.07305,-2.962891 0,-2.0259763 1.16113,-3.2511716 1.16114,-1.2332031 3.09903,-1.2332031 1.08105,0 1.90586,0.4003906 v 1.3453125 q -0.91289,-0.640625 -1.95391,-0.640625 -1.25723,0 -2.06602,0.9048828 -0.80078,0.896875 -0.80078,2.3623048 0,1.441406 0.75274,2.274219 0.76074,0.832812 2.03398,0.832812 1.07305,0 2.01797,-0.712695 z"
       style=""
       id="path894" />
    <path
       d="m 325.25576,14.420312 q -1.81777,0 -2.90683,-1.145117 -1.08106,-1.153125 -1.08106,-3.050977 0,-2.0660151 1.1291,-3.2271479 1.1291,-1.1611328 3.05098,-1.1611328 1.83379,0 2.85879,1.1291015 1.03301,1.1291016 1.03301,3.1310542 0,1.961914 -1.11309,3.147071 -1.10508,1.177148 -2.9709,1.177148 z m 0.0961,-7.4792966 q -1.26524,0 -2.00196,0.8648437 -0.73672,0.856836 -0.73672,2.3703129 0,1.457421 0.74473,2.298242 0.74473,0.84082 1.99395,0.84082 1.27324,0 1.9539,-0.824805 0.68867,-0.824804 0.68867,-2.346289 0,-1.5374996 -0.68867,-2.3703121 -0.68066,-0.8328125 -1.9539,-0.8328125 z"
       style=""
       id="path896" />
    <path
       d="m 343.08115,14.228125 h -1.31328 V 9.519531 q 0,-1.3613281 -0.42441,-1.9699219 -0.41641,-0.6085937 -1.40938,-0.6085937 -0.84082,0 -1.4334,0.76875 -0.58457,0.76875 -0.58457,1.8417968 v 4.6765628 h -1.31328 V 9.3593747 q 0,-2.4183593 -1.86582,-2.4183593 -0.86484,0 -1.42539,0.7287109 -0.56055,0.7207031 -0.56055,1.8818359 v 4.6765628 h -1.31328 V 6.0281248 h 1.31328 v 1.2972656 h 0.032 q 0.87285,-1.4894531 2.54648,-1.4894531 0.84082,0 1.46543,0.4724609 0.62461,0.4644532 0.85684,1.2251953 0.91289,-1.6976562 2.72265,-1.6976562 2.70664,0 2.70664,3.3392577 z"
       style=""
       id="path898" />
    <path
       d="m 357.20695,14.228125 h -1.31329 V 9.519531 q 0,-1.3613281 -0.42441,-1.9699219 -0.41641,-0.6085937 -1.40937,-0.6085937 -0.84082,0 -1.4334,0.76875 -0.58457,0.76875 -0.58457,1.8417968 v 4.6765628 h -1.31328 V 9.3593747 q 0,-2.4183593 -1.86582,-2.4183593 -0.86485,0 -1.4254,0.7287109 -0.56054,0.7207031 -0.56054,1.8818359 v 4.6765628 h -1.31328 V 6.0281248 h 1.31328 v 1.2972656 h 0.032 q 0.87285,-1.4894531 2.54648,-1.4894531 0.84082,0 1.46543,0.4724609 0.62461,0.4644532 0.85684,1.2251953 0.91289,-1.6976562 2.72266,-1.6976562 2.70664,0 2.70664,3.3392577 z"
       style=""
       id="path900" />
    <path
       d="m 363.11669,14.420312 q -1.81777,0 -2.90683,-1.145117 -1.08106,-1.153125 -1.08106,-3.050977 0,-2.0660151 1.1291,-3.2271479 1.12911,-1.1611328 3.05098,-1.1611328 1.83379,0 2.85879,1.1291015 1.03301,1.1291016 1.03301,3.1310542 0,1.961914 -1.11309,3.147071 -1.10508,1.177148 -2.9709,1.177148 z m 0.0961,-7.4792966 q -1.26524,0 -2.00196,0.8648437 -0.73671,0.856836 -0.73671,2.3703129 0,1.457421 0.74472,2.298242 0.74473,0.84082 1.99395,0.84082 1.27324,0 1.9539,-0.824805 0.68867,-0.824804 0.68867,-2.346289 0,-1.5374996 -0.68867,-2.3703121 -0.68066,-0.8328125 -1.9539,-0.8328125 z"
       style=""
       id="path902" />
    <path
       d="m 376.10536,14.228125 h -1.31328 V 9.5515622 q 0,-2.6105468 -1.90586,-2.6105468 -0.98496,0 -1.63359,0.7447266 -0.64062,0.7367187 -0.64062,1.8658202 v 4.6765628 h -1.31329 V 6.0281248 h 1.31329 v 1.3613281 h 0.032 q 0.9289,-1.5535156 2.69062,-1.5535156 1.34531,0 2.05801,0.8728516 0.71269,0.8648437 0.71269,2.5064452 z"
       style=""
       id="path904" />
    <path
       d="m 387.12411,3.2414061 q -0.38437,-0.2162109 -0.87285,-0.2162109 -1.37734,0 -1.37734,1.7376953 v 1.2652343 h 1.92187 v 1.1210937 h -1.92187 v 7.0789065 h -1.30527 V 7.1492185 h -1.40137 V 6.0281248 h 1.40137 V 4.698828 q 0,-1.2892578 0.74472,-2.0339844 0.74473,-0.7527343 1.85782,-0.7527343 0.60058,0 0.95292,0.1441406 z"
       style=""
       id="path906" />
    <path
       d="m 388.86982,3.9460936 q -0.35235,0 -0.60059,-0.2402344 -0.24824,-0.2402343 -0.24824,-0.6085937 0,-0.3683594 0.24824,-0.6085937 0.24824,-0.2482422 0.60059,-0.2482422 0.36035,0 0.60859,0.2482422 0.25625,0.2402343 0.25625,0.6085937 0,0.3523437 -0.25625,0.6005859 -0.24824,0.2482422 -0.60859,0.2482422 z m 0.64062,10.2820314 h -1.31328 V 6.0281248 h 1.31328 z"
       style=""
       id="path908" />
    <path
       d="m 393.48234,14.228125 h -1.31328 V 2.0882812 h 1.31328 z"
       style=""
       id="path910" />
    <path
       d="m 402.73135,10.456445 h -5.78965 q 0.032,1.369336 0.73672,2.114062 0.70469,0.744727 1.93789,0.744727 1.38535,0 2.54648,-0.912891 v 1.233204 q -1.08105,0.784765 -2.85879,0.784765 -1.73769,0 -2.73066,-1.113086 -0.99297,-1.121094 -0.99297,-3.14707 0,-1.9138672 1.08106,-3.115039 1.08906,-1.2091797 2.69863,-1.2091797 1.60957,0 2.49043,1.0410156 0.88086,1.0410156 0.88086,2.8908203 z m -1.34531,-1.1130859 q -0.008,-1.1371093 -0.55254,-1.7697265 -0.53653,-0.6326172 -1.49746,-0.6326172 -0.92891,0 -1.57754,0.6646484 -0.64864,0.6646485 -0.80079,1.7376953 z"
       style=""
       id="path912" />
    <path
       d="m 404.22881,13.931836 v -1.409375 q 1.07305,0.792773 2.36231,0.792773 1.72969,0 1.72969,-1.153125 0,-0.32832 -0.15215,-0.552539 -0.14414,-0.232227 -0.40039,-0.408398 -0.24824,-0.176172 -0.59258,-0.312305 -0.33633,-0.144141 -0.72871,-0.296289 -0.54453,-0.216211 -0.96094,-0.432422 -0.4084,-0.2242188 -0.68867,-0.4964844 -0.27227,-0.2802734 -0.41641,-0.6326172 -0.13613,-0.3523437 -0.13613,-0.8248046 0,-0.5765625 0.26426,-1.0169922 0.26426,-0.4484375 0.70469,-0.7447266 0.44043,-0.3042968 1.00097,-0.4564453 0.56856,-0.1521484 1.16914,-0.1521484 1.06504,0 1.90586,0.3683594 v 1.3292968 q -0.90488,-0.5925781 -2.08203,-0.5925781 -0.36836,0 -0.66465,0.088086 -0.29629,0.080078 -0.5125,0.2322266 -0.2082,0.1521484 -0.32832,0.3683594 -0.11211,0.2082031 -0.11211,0.4644531 0,0.3203125 0.11211,0.5365234 0.12012,0.2162109 0.34434,0.384375 0.22422,0.1681641 0.54453,0.3042969 0.32031,0.1361328 0.72871,0.296289 0.54453,0.2082031 0.97695,0.4324223 0.43243,0.216211 0.73672,0.496484 0.3043,0.272266 0.46446,0.632617 0.16816,0.360352 0.16816,0.856836 0,0.608594 -0.27227,1.057031 -0.26425,0.448438 -0.71269,0.744727 -0.44844,0.296289 -1.03301,0.440429 -0.58457,0.144141 -1.22519,0.144141 -1.26524,0 -2.19415,-0.488476 z"
       style=""
       id="path914" />
    <path
       d="m 419.58779,14.420312 q -1.81777,0 -2.90683,-1.145117 -1.08106,-1.153125 -1.08106,-3.050977 0,-2.0660151 1.1291,-3.2271479 1.12911,-1.1611328 3.05098,-1.1611328 1.83379,0 2.85879,1.1291015 1.03301,1.1291016 1.03301,3.1310542 0,1.961914 -1.11309,3.147071 -1.10508,1.177148 -2.9709,1.177148 z m 0.0961,-7.4792966 q -1.26524,0 -2.00196,0.8648437 -0.73672,0.856836 -0.73672,2.3703129 0,1.457421 0.74473,2.298242 0.74473,0.84082 1.99395,0.84082 1.27324,0 1.9539,-0.824805 0.68867,-0.824804 0.68867,-2.346289 0,-1.5374996 -0.68867,-2.3703121 -0.68066,-0.8328125 -1.9539,-0.8328125 z"
       style=""
       id="path916" />
    <path
       d="m 432.57646,14.228125 h -1.31328 V 9.5515622 q 0,-2.6105468 -1.90586,-2.6105468 -0.98496,0 -1.63359,0.7447266 -0.64062,0.7367187 -0.64062,1.8658202 v 4.6765628 h -1.31329 V 6.0281248 h 1.31329 v 1.3613281 h 0.032 q 0.9289,-1.5535156 2.69062,-1.5535156 1.34531,0 2.05801,0.8728516 0.71269,0.8648437 0.71269,2.5064452 z"
       style=""
       id="path918" />
    <path
       d="m 436.37217,14.228125 h -1.31328 V 2.0882812 h 1.31328 z"
       style=""
       id="path920" />
    <path
       d="m 445.55712,6.0281248 -3.77168,9.5132812 q -1.00899,2.546484 -2.83477,2.546484 -0.5125,0 -0.85683,-0.104101 V 16.80664 q 0.42441,0.144141 0.77675,0.144141 0.99297,0 1.48946,-1.185156 l 0.65664,-1.553516 -3.20313,-8.1839842 h 1.45742 l 2.21817,6.3101562 q 0.04,0.120117 0.16816,0.624609 h 0.048 q 0.04,-0.192187 0.16016,-0.608593 l 2.33027,-6.3261722 z"
       style=""
       id="path922" />
  </g>
</svg>
