<?xml version="1.0" encoding="UTF-8" standalone="no"?>
<!-- Created with Inkscape (http://www.inkscape.org/) -->

<svg
   width="2000"
   height="985"
   id="svg2"
   version="1.1"
   inkscape:version="1.2.2 (732a01da63, 2022-12-09)"
   sodipodi:docname="PAL Logo GitHub Wiki.svg"
   xmlns:inkscape="http://www.inkscape.org/namespaces/inkscape"
   xmlns:sodipodi="http://sodipodi.sourceforge.net/DTD/sodipodi-0.dtd"
   xmlns="http://www.w3.org/2000/svg"
   xmlns:svg="http://www.w3.org/2000/svg"
   xmlns:rdf="http://www.w3.org/1999/02/22-rdf-syntax-ns#"
   xmlns:cc="http://creativecommons.org/ns#"
   xmlns:dc="http://purl.org/dc/elements/1.1/">
  <sodipodi:namedview
     id="base"
     pagecolor="#ffffff"
     bordercolor="#666666"
     borderopacity="1.0"
     inkscape:pageopacity="0.0"
     inkscape:pageshadow="2"
     inkscape:zoom="0.43580858"
     inkscape:cx="673.46082"
     inkscape:cy="683.78645"
     inkscape:document-units="px"
     inkscape:current-layer="layer1"
     showgrid="false"
     gridtolerance="10000"
     inkscape:window-width="2560"
     inkscape:window-height="1369"
     inkscape:window-x="-5"
     inkscape:window-y="1432"
     inkscape:window-maximized="1"
     guidetolerance="10000"
     inkscape:snap-global="true"
     inkscape:snap-bbox="true"
     inkscape:snap-bbox-edge-midpoints="true"
     inkscape:bbox-nodes="false"
     inkscape:snap-grids="true"
     inkscape:snap-to-guides="true"
     showguides="false"
     inkscape:guide-bbox="true"
     inkscape:snap-path-clip="true"
     inkscape:snap-path-mask="true"
     objecttolerance="50"
     inkscape:showpageshadow="2"
     inkscape:pagecheckerboard="0"
     inkscape:deskcolor="#d1d1d1">
    <inkscape:grid
       type="xygrid"
       id="grid2985"
       empspacing="5"
       visible="true"
       enabled="true"
       snapvisiblegridlinesonly="true"
       empcolor="#c0504d"
       empopacity="0.19607843"
       color="#8db3e2"
       opacity="0.15686275"
       dotted="false"
       originx="0"
       originy="0" />
    <sodipodi:guide
       position="-929.07276,8384.8816"
       orientation="1,0"
       id="guide7491"
       inkscape:locked="false" />
  </sodipodi:namedview>
  <defs
     id="defs4" />
  <metadata
     id="metadata7">
    <rdf:RDF>
      <cc:Work
         rdf:about="">
        <dc:format>image/svg+xml</dc:format>
        <dc:type
           rdf:resource="http://purl.org/dc/dcmitype/StillImage" />
      </cc:Work>
    </rdf:RDF>
  </metadata>
  <g
     inkscape:label="Layer 1"
     inkscape:groupmode="layer"
     id="layer1"
     transform="translate(0,-67.36217)">
    <rect
       style="fill:#ffffff;stroke:none;stroke-width:64;stroke-linejoin:round;paint-order:fill markers stroke"
       id="rect2747"
       width="2000"
       height="985"
       x="0"
       y="67.362167"
       rx="73.405037"
       ry="63.396725" />
    <g
       id="g534"
       transform="translate(51.437355)">
      <g
         id="g501"
         transform="translate(0,49.014694)">
        <ellipse
           ry="136.49165"
           rx="135.95767"
           cy="481.96585"
           cx="223.2794"
           id="path7015-3-5-6-6-9-1-5-8-0-6-8-4"
           style="fill:#1f2d41;fill-opacity:1;stroke:none;stroke-width:1;stroke-miterlimit:4;stroke-dasharray:none" />
        <ellipse
           ry="90.994438"
           rx="90.638451"
           cy="160.85649"
           cx="510.30112"
           id="path7015-2-2-2-5-6-0-8-6-2-4-27-2-8"
           style="fill:#1f2d41;fill-opacity:1;stroke:none;stroke-width:1;stroke-miterlimit:4;stroke-dasharray:none" />
        <path
           sodipodi:nodetypes="cccssccsccsssss"
           inkscape:connector-curvature="0"
           id="path11296-5-0-9-6-8-1-9-6-1-04-8-7-0"
           d="m 179.74108,632.7205 c -12.4,0.2737 -17.1566,8.4472 -19.7898,12.4288 L 9.99458,904.3136 c -15.1064,27.2983 6.0426,47.5193 26.1845,47.5193 h 374.6389 c 20.1419,0 41.2909,-20.221 25.1774,-47.5193 L 287.10678,645.4158 c -3.1819,-5.9979 -10.0889,-15.543 -27.5122,-11.4059 -22.216,5.2752 -50.4146,5.2752 -72.143,-0.5529 -2.8556,-0.5679 -5.4142,-0.7872 -7.7105,-0.7365 z m 43.5371,51.1981 c 16.7847,0 33.5702,29.7746 67.8176,89.3259 68.495,119.1025 69.1743,117.9233 -67.8156,117.9233 -136.9898,2e-4 -136.3125,1.1793 -67.8175,-117.9233 34.2474,-59.5513 51.0309,-89.3259 67.8155,-89.3259 z"
           style="fill:#1f2d41;fill-opacity:1;fill-rule:evenodd;stroke:none;stroke-width:1px;stroke-linecap:butt;stroke-linejoin:miter;stroke-opacity:1" />
        <path
           id="path11315-3-8-6-3-1-0-9-4-3-99-7-7-2"
           d="m 406.87118,199.3168 -160.297,128.4744 a 155.52334,156.13415 0 0 1 127.3129,115.7691 c 0.2377,0.4261 0.4714,0.834 0.71,1.2638 l 111.5396,-175.9443 a 110.3714,110.80488 0 0 1 -79.2655,-69.563 z"
           style="fill:#1f2d41;fill-opacity:1;fill-rule:evenodd;stroke:none;stroke-width:1px;stroke-linecap:butt;stroke-linejoin:miter;stroke-opacity:1"
           inkscape:connector-curvature="0" />
        <path
           id="path11339-0-3-6-8-0-0-1-2-3-9-39-6-0"
           d="m 605.13888,217.2907 a 110.3714,110.80488 0 0 1 -49.562,44.4664 l 48.3621,54.0319 -16.9336,117.2225 c -0.098,9.1228 4.7484,13.8383 9.7169,18.418 7.1686,6.4383 9.9863,8.1333 17.2071,11.6626 l 90.5459,40.6533 c 5.3513,1.4405 7.5215,0.8405 10.1065,-2.3223 6.5562,-7.802 5.2857,-10.7346 1.5086,-14.9544 l -44.133,-41.7433 c -2.9543,-3.3005 -6.565,-6.9141 -10.0966,-11.2795 -2.878,-4.7283 -4.3991,-10.0683 -2.6062,-18.0389 l 12.4471,-52.7208 c 0.9592,-3.3981 1.9369,-8.3569 7.1223,-13.2206 5.3019,-4.5971 8.1456,-4.444 14.1722,-5.2745 l 53.1537,-7.1721 c 8.0347,-0.4518 13.2123,1.1452 17.5886,4.522 4.5262,3.5441 7.1259,7.7469 10.0965,11.2815 l 36.6409,48.5007 c 3.7771,4.22 6.7792,5.8902 14.2233,0.7624 3.4078,-2.2434 5.761,-6.2829 4.1247,-10.5174 l -30.618,-94.7148 c -3.4751,-6.9081 -4.4335,-9.5314 -9.7169,-18.4199 -4.1484,-7.6602 -7.5131,-11.4191 -17.2071,-11.6607 l -117.9027,4.4154 z"
           style="fill:#1f2d41;fill-opacity:1;fill-rule:evenodd;stroke:none;stroke-width:1px;stroke-linecap:butt;stroke-linejoin:miter;stroke-opacity:1"
           inkscape:connector-curvature="0" />
        <path
           inkscape:connector-curvature="0"
           id="path8474-0-7-9-0-6-7-1-8-7-7-5-4-3-8-0"
           d="m 309.12678,640.298 v 0.5589 l 35.1461,61.1151 h 488.5427 v 0.067 a 90.551761,90.907403 0 0 1 90.552,90.9075 90.551761,90.907403 0 0 1 -90.552,90.9095 v 60.7617 a 151.56769,152.16299 0 0 0 0.4839,0.01 151.56769,152.16299 0 0 0 21.1628,-1.6527 l 5.0178,-21.242 a 131.53458,132.05116 0 0 0 18.6351,-5.241 l 15.2836,15.468 a 151.56769,152.16299 0 0 0 33.2241,-19.6602 l -6.2766,-21.0543 a 131.53458,132.05116 0 0 0 13.6509,-13.8349 l 20.8224,5.6932 a 151.56769,152.16299 0 0 0 18.94,-33.7418 l -15.8421,-15.0098 a 131.53458,132.05116 0 0 0 4.774,-18.8387 l 21.0761,-5.5766 a 151.56769,152.16299 0 0 0 1.0996,-17.4721 151.56769,152.16299 0 0 0 -1.6464,-21.2459 l -21.1588,-5.0374 a 131.53458,132.05116 0 0 0 -5.2203,-18.7104 l 15.4073,-15.3435 a 151.56769,152.16299 0 0 0 -19.5833,-33.3508 l -20.9719,6.3013 a 131.53458,132.05116 0 0 0 -13.7806,-13.7064 l 5.6707,-20.9042 a 151.56769,152.16299 0 0 0 -33.6097,-19.0165 l -14.951,15.9063 a 131.53458,132.05116 0 0 0 -18.7631,-4.7925 l -5.5548,-21.157 a 151.56769,152.16299 0 0 0 -17.4058,-1.1059 v 0 a 151.56769,152.16299 0 0 0 -0.4839,0.027 v -0.027 h -523.6888 z"
           style="fill:#1f2d41;fill-opacity:1;stroke:none;stroke-width:2.83358" />
        <path
           inkscape:connector-curvature="0"
           id="path8474-0-7-9-0-6-4-09-7-6-7-3-3-1-65-2-73"
           d="m 303.79358,640.298 v 0.555 l 35.146,61.1151 h 262.4404 V 640.298 Z"
           style="fill:#1f2d41;fill-opacity:1;stroke:none;stroke-width:2.83358" />
        <g
           transform="matrix(1.0070939,0,0,1.0110493,-6044.0993,478.6747)"
           id="g2256-72-6-0-0-4-8-4-8"
           style="fill:#1f2d41;fill-opacity:1;stroke-width:0.991012">
          <path
             style="fill:#1f2d41;fill-opacity:1;stroke:none;stroke-width:2.80811"
             d="m 6529.6885,400.7529 v 0.54082 l 34.8984,59.55688 h 260.5918 v -60.0977 z"
             id="path8474-0-7-9-0-6-4-09-7-0-5-9-8-0-4-9-1-3"
             inkscape:connector-curvature="0" />
          <path
             style="fill:#1f2d41;fill-opacity:1;stroke:none;stroke-width:2.80811"
             d="m 6441.0026,400.75287 v 0.54082 l 34.8984,59.55688 h 260.5918 v -60.0977 z"
             id="path8474-0-7-9-0-6-4-09-7-0-9-68-8-6-4-3-3-0-2"
             inkscape:connector-curvature="0" />
        </g>
        <g
           transform="matrix(1.0070939,0,0,1.0110493,-6038.4963,478.6746)"
           id="g2256-7-4-7-8-8-9-8-2-2"
           style="fill:#1f2d41;fill-opacity:1;stroke-width:0.991012">
          <path
             style="fill:#1f2d41;fill-opacity:1;stroke:none;stroke-width:2.80811"
             d="m 6529.6885,400.7529 v 0.54082 l 34.8984,59.55688 h 260.5918 v -60.0977 z"
             id="path8474-0-7-9-0-6-4-09-7-0-94-9-2-1-5-7-4-5-4"
             inkscape:connector-curvature="0" />
          <path
             style="fill:#1f2d41;fill-opacity:1;stroke:none;stroke-width:2.80811"
             d="m 6441.0026,400.75287 v 0.54082 l 34.8984,59.55688 h 260.5918 v -60.0977 z"
             id="path8474-0-7-9-0-6-4-09-7-0-9-6-9-5-8-4-2-2-5-8"
             inkscape:connector-curvature="0" />
        </g>
        <g
           aria-label="pal"
           transform="scale(0.8654499,1.1554684)"
           id="text5347-2-7-7-0-2-1-4-1-3-01"
           style="font-weight:bold;font-size:247.133px;line-height:125%;font-family:'Concourse C7';-inkscape-font-specification:'Concourse C7, Bold';letter-spacing:0px;word-spacing:0px;fill:#1f2d41;stroke-width:1px">
          <path
             d="m 657.48171,668.92646 q 0,11.61525 -4.20126,20.51204 -3.95413,8.64965 -11.12098,14.33371 -6.91973,5.68406 -16.55791,8.64966 -9.39106,2.71846 -20.01778,2.71846 h -15.32224 v 35.34002 H 544.54193 V 621.97119 h 60.79472 q 11.36812,0 21.0063,3.21273 9.63819,3.21273 16.55791,9.39105 6.91973,5.93119 10.62672,14.82798 3.95413,8.64966 3.95413,19.52351 z m -43.98967,1.23566 q 0,-6.91972 -3.707,-10.13245 -3.70699,-3.45986 -8.15539,-3.45986 h -11.36811 v 26.44323 h 11.61525 q 5.18979,0 8.40252,-3.45986 3.21273,-3.707 3.21273,-9.39106 z"
             id="path2851" />
          <path
             d="m 761.52445,734.4167 h -41.51834 l -5.93119,16.06365 h -48.93233 l 55.85205,-128.50916 h 39.54128 l 56.34632,128.50916 h -48.93233 z m -33.61008,-31.38589 h 24.96043 l -11.61525,-31.88015 h -0.98853 z"
             id="path2853" />
          <path
             d="m 886.82086,713.4104 h 51.15653 v 37.06995 H 841.10126 V 621.97119 h 45.7196 z"
             id="path2855" />
        </g>
        <g
           transform="translate(1238.1736,-181.32109)"
           id="g2598">
          <rect
             transform="matrix(0.70605603,0.70815598,-0.70605603,0.70815598,0,0)"
             rx="15.489941"
             style="fill:#4c6c9c;fill-opacity:1;stroke:none;stroke-width:30.0531;stroke-miterlimit:4;stroke-dasharray:none"
             id="rect7773-4-9-3-6-6-0-0-84-7-7-8-0-0"
             width="147.57478"
             height="147.57478"
             x="132.12027"
             y="715.47064"
             ry="15.489941" />
          <g
             style="fill:#ffffff;stroke-width:1.24847"
             id="g26"
             transform="matrix(1.0679694,0,0,-1.06797,-411.87805,641.83258)">
            <path
               inkscape:connector-curvature="0"
               d="m 42.760497,-18.395281 c -22.931698,24.2107209 -61.155034,25.2520035 -85.370138,2.31618 -19.370341,-18.347009 -23.905901,-46.475476 -13.203279,-69.386732 1.669537,-2.575547 3.788414,-2.094728 4.946424,-0.997896 1.044749,0.989556 4.460666,4.302142 8.106307,7.790996 -14.205007,9.685148 -8.817699,19.670599 -8.817699,19.670599 3.1779,6.79363 1.804335,10.944234 1.804335,10.944234 -1.046598,6.555268 2.949244,2.224585 2.949244,2.224585 3.860738,-4.695556 1.846973,-11.000856 1.846973,-11.000856 -2.998149,-10.258237 4.950526,-14.769024 8.440489,-16.209829 3.206353,2.289053 6.216723,2.98619 8.499173,2.769351 -8.11579,10.787542 -14.051841,24.585918 2.747646,40.49789 4.785956,4.533114 10.319988,6.525584 16.0468123,6.629106 0.6731152,1.501161 3.7109476,7.225516 12.0055758,10.564188 0,0 4.6647816,-2.566269 6.9273625,-16.316617 4.2839224,-2.577156 8.3235834,-5.86637 11.8701254,-9.575821 3.511692,-3.742459 6.579778,-7.957428 8.927048,-12.381321 13.598504,-2.995394 15.903247,-7.787379 15.903247,-7.787379 -3.778706,-8.106471 -9.659361,-10.829443 -11.194814,-11.42017 -0.407704,-5.719317 -2.709005,-11.124825 -7.49496,-15.657939 -16.840144,-15.950478 -30.2619266,-9.20518 -40.594418,-0.470401 0.12892,-2.86126 -1.21202,-6.789669 -5.302443,-10.663996 -5.86628,-5.556361 -10.635069,-9.978181 -12.079132,-11.345951 -1.167448,-1.10578 -1.787018,-3.18843 0.747744,-5.00369 22.2955192,-11.91428 50.607615,-8.90013 69.972148,9.44138 24.215104,22.935824 25.250677,61.156464 2.316229,85.370089"
               style="fill:#ffffff;fill-opacity:1;fill-rule:evenodd;stroke:none;stroke-width:1.24847"
               id="path28" />
          </g>
        </g>
      </g>
      <g
         id="g507"
         transform="translate(0,-144.58812)">
        <g
           aria-label="Automation Library"
           transform="scale(0.85562003,1.1687431)"
           id="text5347-9-3-8-9-7-2-5-7-6-8"
           style="font-weight:800;font-size:102.417px;line-height:125%;font-family:'Concourse C8';-inkscape-font-specification:'Concourse C8, Ultra-Bold';letter-spacing:0px;word-spacing:0px;fill:#1f2d41;stroke-width:1px">
          <path
             d="m 1112.936,387.84228 h -19.5616 l -3.3798,9.72962 h -24.1704 l 26.3212,-69.64356 h 22.0196 l 26.4236,69.64356 h -24.1704 z m -14.9528,-16.2843 h 10.1392 l -4.6087,-16.69397 h -0.7169 z"
             id="path2889" />
          <path
             d="m 1205.6235,376.37158 q 0,4.40393 -1.8435,8.50061 -1.7411,4.09668 -5.3257,7.27161 -3.5846,3.17493 -9.0127,5.12085 -5.3257,1.8435 -12.4949,1.8435 -8.1933,0 -13.7239,-1.8435 -5.4281,-1.94592 -8.8078,-5.12085 -3.2774,-3.17493 -4.7112,-7.27161 -1.4338,-4.09668 -1.4338,-8.50061 v -32.87586 h 23.0438 v 31.13477 q 0,3.17493 1.5362,4.71118 1.6387,1.53626 4.3015,1.53626 2.1508,0 3.7895,-1.43384 1.6386,-1.53625 1.6386,-4.71118 v -31.23719 h 23.0439 z"
             id="path2891" />
          <path
             d="m 1255.0909,360.59936 v 36.97254 h -23.0438 v -36.97254 h -15.4649 v -17.10364 h 53.8713 v 17.10364 z"
             id="path2893" />
          <path
             d="m 1340.3019,370.84106 q 0,5.53052 -2.2532,10.65137 -2.2531,5.12085 -6.4522,9.11511 -4.1991,3.89185 -10.2417,6.24744 -5.9402,2.25317 -13.3143,2.25317 -7.2716,0 -13.1093,-2.15075 -5.7354,-2.25318 -9.8321,-6.04261 -3.9942,-3.78942 -6.145,-8.91027 -2.1507,-5.22327 -2.1507,-11.16346 0,-6.6571 2.5604,-11.98279 2.6628,-5.32568 6.9643,-9.11511 4.404,-3.78943 10.1393,-5.73535 5.8378,-2.04834 12.1876,-2.04834 6.2475,0 11.8804,2.04834 5.7354,1.94592 10.1393,5.63293 4.4039,3.68702 6.9644,9.11512 2.6628,5.32568 2.6628,12.0852 z m -22.839,-0.20483 q 0,-2.76526 -0.8193,-4.71118 -0.8194,-2.04834 -2.1508,-3.27735 -1.229,-1.229 -2.8677,-1.8435 -1.6386,-0.61451 -3.2773,-0.61451 -3.7894,0 -6.4523,2.56043 -2.6628,2.45801 -2.6628,7.88611 0,5.32568 2.458,7.78369 2.5604,2.45801 6.7595,2.45801 3.687,0 6.3499,-2.35559 2.6628,-2.45801 2.6628,-7.88611 z"
             id="path2895" />
          <path
             d="m 1401.4449,375.8595 -8.2958,21.7124 h -10.3441 l -8.3982,-21.7124 h -0.7169 l -3.8918,21.7124 h -21.5076 l 11.2659,-54.07618 h 17.9229 l 10.3442,26.11634 h 0.512 l 10.0369,-26.11634 h 17.923 l 11.2659,54.07618 h -21.5076 l -3.8919,-21.7124 z"
             id="path2897" />
          <path
             d="m 1475.6973,390.91479 h -16.8988 l -2.6628,6.65711 h -22.327 l 22.1221,-54.07618 h 22.5318 l 22.3269,54.07618 h -22.3269 z m -13.2118,-13.00695 h 9.4224 l -4.404,-12.69971 h -0.6145 z"
             id="path2899" />
          <path
             d="m 1541.8586,360.59936 v 36.97254 h -23.0438 v -36.97254 h -15.4649 v -17.10364 h 53.8713 v 17.10364 z"
             id="path2901" />
          <path
             d="m 1592.2479,397.5719 h -23.5559 v -54.07618 h 23.5559 z"
             id="path2903" />
          <path
             d="m 1667.0124,370.84106 q 0,5.53052 -2.2532,10.65137 -2.2532,5.12085 -6.4522,9.11511 -4.1991,3.89185 -10.2417,6.24744 -5.9402,2.25317 -13.3143,2.25317 -7.2716,0 -13.1093,-2.15075 -5.7354,-2.25318 -9.8321,-6.04261 -3.9942,-3.78942 -6.145,-8.91027 -2.1507,-5.22327 -2.1507,-11.16346 0,-6.6571 2.5604,-11.98279 2.6628,-5.32568 6.9643,-9.11511 4.404,-3.78943 10.1393,-5.73535 5.8378,-2.04834 12.1876,-2.04834 6.2475,0 11.8804,2.04834 5.7354,1.94592 10.1393,5.63293 4.4039,3.68702 6.9644,9.11512 2.6628,5.32568 2.6628,12.0852 z m -22.839,-0.20483 q 0,-2.76526 -0.8193,-4.71118 -0.8194,-2.04834 -2.1508,-3.27735 -1.229,-1.229 -2.8677,-1.8435 -1.6386,-0.61451 -3.2773,-0.61451 -3.7894,0 -6.4523,2.56043 -2.6628,2.45801 -2.6628,7.88611 0,5.32568 2.458,7.78369 2.5604,2.45801 6.7595,2.45801 3.687,0 6.3499,-2.35559 2.6628,-2.45801 2.6628,-7.88611 z"
             id="path2905" />
          <path
             d="m 1714.8412,366.12988 h 0.8193 v -22.63416 h 22.5318 v 54.07618 h -16.3868 l -20.6882,-22.42932 h -0.8193 v 22.42932 h -22.5318 v -54.07618 h 16.3868 z"
             id="path2907" />
          <path
             d="m 1808.8599,377.90784 h 23.0438 v 19.66406 h -47.6239 v -69.64356 h 24.5801 z"
             id="path2909" />
          <path
             d="m 1868.7739,397.5719 h -23.5559 v -54.07618 h 23.5559 z"
             id="path2911" />
          <path
             d="m 1925.3081,370.43139 q 2.6629,0.40967 4.8136,1.63868 2.2532,1.229 3.7894,2.97009 1.6387,1.74109 2.458,3.99426 0.9218,2.15076 0.9218,4.50635 0,6.45227 -6.3499,10.2417 -6.2474,3.78943 -19.0495,3.78943 h -29.2913 v -54.07618 h 29.5985 q 6.3499,0 10.6514,1.22901 4.3015,1.12658 6.8619,3.07251 2.6629,1.94592 3.7895,4.50635 1.1266,2.458 1.1266,5.01843 0,4.1991 -2.2532,7.37402 -2.1508,3.07251 -7.0668,5.32569 z m -11.061,-9.01269 q 0,-2.04834 -1.4339,-2.97009 -1.4338,-0.92176 -2.9701,-0.92176 h -5.2232 v 7.88611 h 5.3257 q 1.9459,0 3.0725,-1.02417 1.229,-1.02417 1.229,-2.97009 z m 1.0241,18.12781 q 0,-2.04834 -1.4338,-2.9701 -1.4338,-0.92175 -2.9701,-0.92175 h -6.2474 v 7.88611 h 6.3498 q 1.946,0 3.0725,-1.02417 1.229,-1.02417 1.229,-2.97009 z"
             id="path2913" />
          <path
             d="m 2007.2416,397.05981 v 0.51209 h -24.4776 l -12.2901,-18.23023 h -0.8193 v 18.23023 h -22.5317 v -54.07618 h 30.3154 q 5.3257,0 9.7296,1.33142 4.5064,1.33143 7.6813,3.78943 3.1749,2.35559 4.916,5.73536 1.8435,3.37976 1.8435,7.57885 0,5.63294 -2.6628,9.21753 -2.5605,3.5846 -7.1692,5.32569 z m -27.6525,-34.10486 q 0,-2.35559 -1.4339,-3.48217 -1.4338,-1.12659 -2.9701,-1.12659 h -5.5305 v 9.42236 h 5.6329 q 1.946,0 3.0725,-1.229 1.2291,-1.22901 1.2291,-3.5846 z"
             id="path2915" />
          <path
             d="m 2053.3293,390.91479 h -16.8988 l -2.6629,6.65711 h -22.3269 l 22.1221,-54.07618 h 22.5317 l 22.327,54.07618 h -22.327 z m -13.2118,-13.00695 h 9.4224 l -4.404,-12.69971 h -0.6145 z"
             id="path2917" />
          <path
             d="m 2147.553,397.05981 v 0.51209 h -24.4776 l -12.2901,-18.23023 h -0.8193 v 18.23023 h -22.5317 v -54.07618 h 30.3154 q 5.3257,0 9.7296,1.33142 4.5064,1.33143 7.6813,3.78943 3.1749,2.35559 4.916,5.73536 1.8435,3.37976 1.8435,7.57885 0,5.63294 -2.6628,9.21753 -2.5605,3.5846 -7.1692,5.32569 z m -27.6525,-34.10486 q 0,-2.35559 -1.4339,-3.48217 -1.4338,-1.12659 -2.9701,-1.12659 h -5.5305 v 9.42236 h 5.6329 q 1.946,0 3.0726,-1.229 1.229,-1.22901 1.229,-3.5846 z"
             id="path2919" />
          <path
             d="m 2178.995,360.08728 h 0.4097 l 8.8078,-16.59156 h 23.3511 l -20.8931,33.79761 v 20.27857 h -23.0438 v -20.27857 l -20.9955,-33.79761 h 23.3511 z"
             id="path2921" />
        </g>
        <g
           aria-label="PracticalSeries"
           transform="scale(0.85562003,1.1687431)"
           id="text5347-9-3-8-9-7-2-6-9-95-8-1-3"
           style="font-weight:800;font-size:105.937px;line-height:125%;font-family:'Concourse C8';-inkscape-font-specification:'Concourse C8, Ultra-Bold';letter-spacing:4px;word-spacing:0px;fill:#1f2d41;stroke-width:1px">
          <path
             d="m 1126.2083,252.33382 q 0,6.35622 -2.7543,11.01744 -2.7544,4.66123 -7.2038,7.73341 -4.3434,2.96623 -9.8521,4.44935 -5.4028,1.37718 -10.8056,1.37718 h -4.8731 v 22.14083 h -24.8952 v -72.03716 h 28.709 q 6.9918,0 12.7124,1.58906 5.8265,1.48312 10.064,4.66123 4.2375,3.17811 6.5681,7.94527 2.3306,4.76717 2.3306,11.12339 z m -24.3655,0.31781 q 0,-2.75436 -1.9069,-4.66123 -1.8009,-2.0128 -4.979,-2.0128 h -4.2375 v 13.13618 h 4.2375 q 3.7078,0 5.2968,-1.90686 1.5891,-1.90687 1.5891,-4.55529 z"
             id="path2858" />
          <path
             d="m 1200.8683,298.52235 v 0.52968 h -25.3189 l -12.7125,-18.85678 h -0.8475 v 18.85678 h -23.3061 V 243.1173 h 31.3573 q 5.5088,0 10.064,1.37718 4.6613,1.37718 7.9453,3.91967 3.2841,2.43655 5.085,5.93247 1.9069,3.49592 1.9069,7.83934 0,5.82653 -2.7544,9.53433 -2.6484,3.70779 -7.4156,5.50872 z m -28.603,-35.27702 q 0,-2.43655 -1.4831,-3.60186 -1.4831,-1.16531 -3.0722,-1.16531 h -5.7206 v 9.74621 h 5.8266 q 2.0128,0 3.1781,-1.27125 1.2712,-1.27124 1.2712,-3.70779 z"
             id="path2860" />
          <path
             d="m 1252.54,292.16613 h -17.4796 l -2.7544,6.8859 h -23.0943 l 22.8824,-55.93473 h 23.3062 l 23.0942,55.93473 h -23.0942 z m -13.6659,-13.454 h 9.7462 l -4.5553,-13.13619 h -0.6356 z"
             id="path2862" />
          <path
             d="m 1338.3234,277.22901 v 19.28053 q -3.39,2.11874 -7.9453,3.07218 -4.4493,1.05937 -9.2165,1.05937 -7.8393,0 -13.9837,-2.22468 -6.1443,-2.33061 -10.3818,-6.25028 -4.2375,-3.91967 -6.4622,-9.11058 -2.2247,-5.29685 -2.2247,-11.22933 0,-7.20371 2.7544,-12.81837 2.7544,-5.7206 7.3097,-9.53433 4.6612,-3.91967 10.5937,-5.93247 6.0384,-2.01281 12.6065,-2.01281 5.5087,0 10.064,1.27125 4.5553,1.27124 6.8859,2.75436 v 18.53897 h -0.8475 q -2.2247,-1.27124 -5.8265,-2.43655 -3.6019,-1.1653 -7.8394,-1.05937 -2.4365,0 -4.7672,0.63562 -2.2246,0.63563 -4.0256,1.90687 -1.6949,1.27124 -2.7543,3.28405 -0.9535,1.90686 -0.9535,4.66123 0,2.54248 0.9535,4.44935 1.0594,1.90687 2.7543,3.28405 1.801,1.37718 4.0256,2.11874 2.3307,0.63562 4.9791,0.63562 4.2375,0 7.4156,-1.27125 3.1781,-1.37718 6.0384,-3.07217 z"
             id="path2864" />
          <path
             d="m 1391.4781,260.80878 v 38.24325 h -23.8358 v -38.24325 h -15.9965 V 243.1173 h 55.7228 v 17.69148 z"
             id="path2866" />
          <path
             d="m 1447.5992,299.05203 h -24.3656 V 243.1173 h 24.3656 z"
             id="path2868" />
          <path
             d="m 1513.4664,277.22901 v 19.28053 q -3.3899,2.11874 -7.9452,3.07218 -4.4494,1.05937 -9.2165,1.05937 -7.8394,0 -13.9837,-2.22468 -6.1444,-2.33061 -10.3819,-6.25028 -4.2374,-3.91967 -6.4621,-9.11058 -2.2247,-5.29685 -2.2247,-11.22933 0,-7.20371 2.7544,-12.81837 2.7543,-5.7206 7.3096,-9.53433 4.6613,-3.91967 10.5937,-5.93247 6.0384,-2.01281 12.6065,-2.01281 5.5088,0 10.064,1.27125 4.5553,1.27124 6.8859,2.75436 v 18.53897 h -0.8474 q -2.2247,-1.27124 -5.8266,-2.43655 -3.6018,-1.1653 -7.8393,-1.05937 -2.4366,0 -4.7672,0.63562 -2.2247,0.63563 -4.0256,1.90687 -1.695,1.27124 -2.7544,3.28405 -0.9534,1.90686 -0.9534,4.66123 0,2.54248 0.9534,4.44935 1.0594,1.90687 2.7544,3.28405 1.8009,1.37718 4.0256,2.11874 2.3306,0.63562 4.9791,0.63562 4.2374,0 7.4155,-1.27125 3.1782,-1.37718 6.0385,-3.07217 z"
             id="path2870" />
          <path
             d="m 1569.1637,292.16613 h -17.4796 l -2.7544,6.8859 h -23.0943 l 22.8824,-55.93473 h 23.3062 l 23.0942,55.93473 h -23.0942 z m -13.6659,-13.454 h 9.7462 l -4.5553,-13.13619 h -0.6356 z"
             id="path2872" />
          <path
             d="m 1632.2766,281.36055 h 20.3399 v 17.69148 h -44.1757 V 243.1173 h 23.8358 z"
             id="path2874" />
          <path
             d="m 1673.4605,271.93216 q 5.6147,4.02561 11.6531,6.35622 6.1444,2.22468 11.9709,2.22468 3.0722,0 4.2375,-0.63562 1.2712,-0.63563 1.2712,-1.80093 0,-0.95344 -1.1653,-1.69499 -1.0594,-0.74156 -2.9662,-1.37719 -5.9325,-2.0128 -11.2293,-4.34341 -5.191,-2.33062 -9.1106,-5.40279 -3.9197,-3.17811 -6.1444,-7.30965 -2.2247,-4.23748 -2.2247,-10.16995 0,-4.66123 1.5891,-8.68684 1.695,-4.13154 4.979,-7.09778 3.39,-3.07217 8.3691,-4.76716 5.0849,-1.80093 11.9708,-1.80093 8.2631,0 15.255,2.22468 6.9918,2.11874 12.7124,5.72059 l -6.4621,18.96273 q -2.4366,-1.58906 -5.085,-2.8603 -2.6484,-1.27125 -5.2969,-2.11874 -2.6484,-0.95343 -5.0849,-1.37718 -2.4366,-0.42375 -4.2375,-0.42375 -2.1188,0 -3.6019,0.42375 -1.3772,0.42375 -1.3772,1.90686 0,1.16531 2.1188,2.43655 2.2247,1.16531 6.1443,2.54249 6.4622,2.22468 11.0175,4.76717 4.6612,2.43655 7.6274,5.50872 2.9663,3.07217 4.2375,6.99184 1.3772,3.81373 1.3772,8.89871 0,6.14435 -2.8603,10.27589 -2.8603,4.13154 -7.3097,6.67403 -4.3434,2.54249 -9.6402,3.60186 -5.2969,1.05937 -10.17,1.05937 -4.6612,0 -9.1106,-0.8475 -4.3434,-0.74156 -8.263,-2.0128 -3.8138,-1.37718 -7.0978,-3.17811 -3.1781,-1.80093 -5.4028,-3.81373 z"
             id="path2876" />
          <path
             d="m 1790.2834,259.00785 h -24.4714 v 5.40278 h 20.7636 v 13.34807 h -20.7636 v 5.40278 h 25.0011 v 15.89055 h -48.3073 V 243.1173 h 47.7776 z"
             id="path2878" />
          <path
             d="m 1870.1343,298.52235 v 0.52968 h -25.3189 l -12.7124,-18.85678 h -0.8475 v 18.85678 h -23.3062 V 243.1173 h 31.3574 q 5.5087,0 10.064,1.37718 4.6612,1.37718 7.9453,3.91967 3.284,2.43655 5.0849,5.93247 1.9069,3.49592 1.9069,7.83934 0,5.82653 -2.7544,9.53433 -2.6484,3.70779 -7.4155,5.50872 z m -28.603,-35.27702 q 0,-2.43655 -1.4831,-3.60186 -1.4831,-1.16531 -3.0721,-1.16531 h -5.7206 v 9.74621 h 5.8265 q 2.0128,0 3.1781,-1.27125 1.2712,-1.27124 1.2712,-3.70779 z"
             id="path2880" />
          <path
             d="m 1906.7629,299.05203 h -24.3655 V 243.1173 h 24.3655 z"
             id="path2882" />
          <path
             d="m 1972.8421,259.00785 h -24.4715 v 5.40278 h 20.7637 v 13.34807 h -20.7637 v 5.40278 h 25.0012 v 15.89055 h -48.3073 V 243.1173 h 47.7776 z"
             id="path2884" />
          <path
             d="m 1991.991,277.33495 q 2.0128,1.27124 4.4494,2.43655 2.4365,1.05937 4.979,2.0128 2.6484,0.8475 5.4028,1.37718 2.7544,0.52969 5.4028,0.52969 2.4365,0 3.39,-0.42375 0.9534,-0.52968 0.9534,-1.48312 0,-1.1653 -1.9069,-1.69499 -1.8009,-0.52968 -6.3562,-2.0128 -10.3818,-3.49592 -14.7252,-7.94528 -4.3434,-4.55529 -4.3434,-10.91151 0,-3.60186 1.6949,-6.77997 1.695,-3.17811 4.8731,-5.61466 3.2841,-2.43655 7.8394,-3.81373 4.6612,-1.48312 10.5937,-1.48312 7.6274,0 14.3015,1.80093 6.674,1.80093 11.4412,4.8731 l -6.3562,15.46681 q -9.7462,-5.29685 -17.5856,-5.29685 -2.1187,0 -2.9662,0.42374 -0.8475,0.42375 -0.8475,0.95344 0,0.95343 1.589,1.80093 1.695,0.74155 5.8266,2.0128 6.3562,2.11874 10.2759,4.34342 4.0256,2.11874 6.2502,4.55529 2.2247,2.43655 2.9663,5.29685 0.7415,2.75436 0.7415,5.93247 0,4.13154 -2.1187,7.30965 -2.1187,3.17811 -5.7206,5.40279 -3.4959,2.11874 -8.2631,3.17811 -4.7672,1.05937 -10.064,1.05937 -4.5553,0 -8.7928,-0.63562 -4.2375,-0.63563 -7.8393,-1.695 -3.6019,-1.05937 -6.4622,-2.33061 -2.8603,-1.27124 -4.5553,-2.54249 z"
             id="path2886" />
        </g>
      </g>
    </g>
  </g>
</svg>
