<?xml version="1.0" encoding="UTF-8" standalone="no"?>
<!-- Created with Inkscape (http://www.inkscape.org/) -->

<svg
   width="5080"
   height="982"
   id="svg2"
   version="1.1"
   inkscape:version="1.2.2 (732a01da63, 2022-12-09)"
   sodipodi:docname="pal-logo-github-wiki.svg"
   xml:space="preserve"
   xmlns:inkscape="http://www.inkscape.org/namespaces/inkscape"
   xmlns:sodipodi="http://sodipodi.sourceforge.net/DTD/sodipodi-0.dtd"
   xmlns="http://www.w3.org/2000/svg"
   xmlns:svg="http://www.w3.org/2000/svg"
   xmlns:rdf="http://www.w3.org/1999/02/22-rdf-syntax-ns#"
   xmlns:cc="http://creativecommons.org/ns#"
   xmlns:dc="http://purl.org/dc/elements/1.1/"><sodipodi:namedview
     id="base"
     pagecolor="#ffffff"
     bordercolor="#666666"
     borderopacity="1.0"
     inkscape:pageopacity="0.0"
     inkscape:pageshadow="2"
     inkscape:zoom="0.32"
     inkscape:cx="695.3125"
     inkscape:cy="637.5"
     inkscape:document-units="px"
     inkscape:current-layer="g888"
     showgrid="false"
     gridtolerance="10000"
     inkscape:window-width="2560"
     inkscape:window-height="1369"
     inkscape:window-x="2555"
     inkscape:window-y="1431"
     inkscape:window-maximized="1"
     guidetolerance="10000"
     inkscape:snap-global="true"
     inkscape:snap-bbox="true"
     inkscape:snap-bbox-edge-midpoints="true"
     inkscape:bbox-nodes="false"
     inkscape:snap-grids="true"
     inkscape:snap-to-guides="true"
     showguides="false"
     inkscape:guide-bbox="true"
     inkscape:snap-path-clip="true"
     inkscape:snap-path-mask="true"
     objecttolerance="50"
     showborder="false"
     inkscape:showpageshadow="2"
     inkscape:pagecheckerboard="0"
     inkscape:deskcolor="#d1d1d1"><inkscape:grid
       type="xygrid"
       id="grid2985"
       empspacing="5"
       visible="true"
       enabled="true"
       snapvisiblegridlinesonly="true"
       empcolor="#c0504d"
       empopacity="0.19607843"
       color="#8db3e2"
       opacity="0.15686275"
       dotted="false"
       originx="0"
       originy="0" /><sodipodi:guide
       position="-929.07276,8484.8816"
       orientation="1,0"
       id="guide7491"
       inkscape:locked="false" /></sodipodi:namedview><defs
     id="defs4">
		
	</defs><metadata
     id="metadata7"><rdf:RDF><cc:Work
         rdf:about=""><dc:format>image/svg+xml</dc:format><dc:type
           rdf:resource="http://purl.org/dc/dcmitype/StillImage" /></cc:Work></rdf:RDF></metadata><g
     inkscape:label="Layer 1"
     inkscape:groupmode="layer"
     id="layer1"
     transform="translate(0,-170.36217)"><g
       id="g888"
       transform="translate(-2.3671761,100.51469)"><rect
         style="fill:#ffffff;fill-opacity:1;stroke-width:9.99994;stroke-linejoin:round;paint-order:fill markers stroke"
         id="rect1724"
         width="5080"
         height="982"
         x="2.3671761"
         y="69.847481"
         rx="80.000008"
         ry="79.999985" /><ellipse
         ry="136.49165"
         rx="135.95767"
         cy="530.0304"
         cx="272.22995"
         id="path7015-3-5-6-6-9-1-5-8-0-6-8-4"
         style="fill:#1f2d41;fill-opacity:1;stroke:none;stroke-width:1;stroke-miterlimit:4;stroke-dasharray:none" /><ellipse
         ry="90.994438"
         rx="90.638451"
         cy="208.92105"
         cx="559.25165"
         id="path7015-2-2-2-5-6-0-8-6-2-4-27-2-8"
         style="fill:#1f2d41;fill-opacity:1;stroke:none;stroke-width:1;stroke-miterlimit:4;stroke-dasharray:none" /><path
         sodipodi:nodetypes="cccssccsccsssss"
         inkscape:connector-curvature="0"
         id="path11296-5-0-9-6-8-1-9-6-1-04-8-7-0"
         d="m 228.69163,680.78506 c -12.4,0.2737 -17.1566,8.4472 -19.7898,12.4288 L 58.945131,952.37816 c -15.1064,27.2983 6.0426,47.5193 26.1845,47.5193 H 459.76853 c 20.1419,0 41.2909,-20.221 25.1774,-47.5193 l -148.8886,-258.8978 c -3.1819,-5.9979 -10.0889,-15.543 -27.5122,-11.4059 -22.216,5.2752 -50.4146,5.2752 -72.143,-0.5529 -2.8556,-0.5679 -5.4142,-0.7872 -7.7105,-0.7365 z m 43.5371,51.1981 c 16.7847,0 33.5702,29.7746 67.8176,89.3259 68.495,119.1025 69.1743,117.9233 -67.8156,117.9233 -136.9898,2e-4 -136.3125,1.1793 -67.8175,-117.9233 34.2474,-59.5513 51.0309,-89.3259 67.8155,-89.3259 z"
         style="fill:#1f2d41;fill-opacity:1;fill-rule:evenodd;stroke:none;stroke-width:1px;stroke-linecap:butt;stroke-linejoin:miter;stroke-opacity:1" /><path
         id="path11315-3-8-6-3-1-0-9-4-3-99-7-7-2"
         d="m 455.82173,247.38136 -160.297,128.4744 a 155.52334,156.13415 0 0 1 127.3129,115.7691 c 0.2377,0.4261 0.4714,0.834 0.71,1.2638 l 111.5396,-175.9443 a 110.3714,110.80488 0 0 1 -79.2655,-69.563 z"
         style="fill:#1f2d41;fill-opacity:1;fill-rule:evenodd;stroke:none;stroke-width:1px;stroke-linecap:butt;stroke-linejoin:miter;stroke-opacity:1"
         inkscape:connector-curvature="0" /><path
         id="path11339-0-3-6-8-0-0-1-2-3-9-39-6-0"
         d="m 654.08943,265.35526 a 110.3714,110.80488 0 0 1 -49.562,44.4664 l 48.3621,54.0319 -16.9336,117.2225 c -0.098,9.1228 4.7484,13.8383 9.7169,18.418 7.1686,6.4383 9.9863,8.1333 17.2071,11.6626 l 90.5459,40.6533 c 5.3513,1.4405 7.5215,0.8405 10.1065,-2.3223 6.5562,-7.802 5.2857,-10.7346 1.5086,-14.9544 l -44.133,-41.7433 c -2.9543,-3.3005 -6.565,-6.9141 -10.0966,-11.2795 -2.878,-4.7283 -4.3991,-10.0683 -2.6062,-18.0389 l 12.4471,-52.7208 c 0.9592,-3.3981 1.9369,-8.3569 7.1223,-13.2206 5.3019,-4.5971 8.1456,-4.444 14.1722,-5.2745 l 53.1537,-7.1721 c 8.0347,-0.4518 13.2123,1.1452 17.5886,4.522 4.5262,3.5441 7.1259,7.7469 10.0965,11.2815 l 36.6409,48.5007 c 3.7771,4.22 6.7792,5.8902 14.2233,0.7624 3.4078,-2.2434 5.761,-6.2829 4.1247,-10.5174 l -30.618,-94.7148 c -3.4751,-6.9081 -4.4335,-9.5314 -9.7169,-18.4199 -4.1484,-7.6602 -7.5131,-11.4191 -17.2071,-11.6607 l -117.9027,4.4154 z"
         style="fill:#1f2d41;fill-opacity:1;fill-rule:evenodd;stroke:none;stroke-width:1px;stroke-linecap:butt;stroke-linejoin:miter;stroke-opacity:1"
         inkscape:connector-curvature="0" /><path
         inkscape:connector-curvature="0"
         id="path8474-0-7-9-0-6-7-1-8-7-7-5-4-3-8-0"
         d="m 358.07733,688.36256 v 0.5589 l 35.1461,61.1151 h 488.5427 v 0.067 a 90.551761,90.907403 0 0 1 90.552,90.9075 90.551761,90.907403 0 0 1 -90.552,90.9095 v 60.7617 a 151.56769,152.16299 0 0 0 0.4839,0.01 151.56769,152.16299 0 0 0 21.1628,-1.6527 l 5.0178,-21.242 a 131.53458,132.05116 0 0 0 18.6351,-5.241 l 15.2836,15.468 a 151.56769,152.16299 0 0 0 33.2241,-19.6602 l -6.2766,-21.0543 a 131.53458,132.05116 0 0 0 13.6509,-13.8349 l 20.82237,5.6932 a 151.56769,152.16299 0 0 0 18.94,-33.7418 l -15.8421,-15.0098 a 131.53458,132.05116 0 0 0 4.774,-18.8387 l 21.0761,-5.5766 a 151.56769,152.16299 0 0 0 1.0996,-17.4721 151.56769,152.16299 0 0 0 -1.6464,-21.2459 l -21.1588,-5.0374 a 131.53458,132.05116 0 0 0 -5.2203,-18.7104 l 15.4073,-15.3435 a 151.56769,152.16299 0 0 0 -19.5833,-33.3508 l -20.97187,6.3013 a 131.53458,132.05116 0 0 0 -13.7806,-13.7064 l 5.6707,-20.9042 a 151.56769,152.16299 0 0 0 -33.6097,-19.0165 l -14.951,15.9063 a 131.53458,132.05116 0 0 0 -18.7631,-4.7925 l -5.5548,-21.157 a 151.56769,152.16299 0 0 0 -17.4058,-1.1059 v 0 a 151.56769,152.16299 0 0 0 -0.4839,0.027 v -0.027 h -523.6888 z"
         style="fill:#1f2d41;fill-opacity:1;stroke:none;stroke-width:2.83358" /><path
         inkscape:connector-curvature="0"
         id="path8474-0-7-9-0-6-4-09-7-6-7-3-3-1-65-2-73"
         d="m 352.74413,688.36256 v 0.555 l 35.146,61.1151 h 262.4404 v -61.6701 z"
         style="fill:#1f2d41;fill-opacity:1;stroke:none;stroke-width:2.83358" /><g
         transform="matrix(1.0070939,0,0,1.0110493,-5995.1487,526.73926)"
         id="g2256-72-6-0-0-4-8-4-8"
         style="fill:#1f2d41;fill-opacity:1;stroke-width:0.991012"><path
           style="fill:#1f2d41;fill-opacity:1;stroke:none;stroke-width:2.80811"
           d="m 6529.6885,400.7529 v 0.54082 l 34.8984,59.55688 h 260.5918 v -60.0977 z"
           id="path8474-0-7-9-0-6-4-09-7-0-5-9-8-0-4-9-1-3"
           inkscape:connector-curvature="0" /><path
           style="fill:#1f2d41;fill-opacity:1;stroke:none;stroke-width:2.80811"
           d="m 6441.0026,400.75287 v 0.54082 l 34.8984,59.55688 h 260.5918 v -60.0977 z"
           id="path8474-0-7-9-0-6-4-09-7-0-9-68-8-6-4-3-3-0-2"
           inkscape:connector-curvature="0" /></g><g
         transform="matrix(1.0070939,0,0,1.0110493,-5989.5457,526.73916)"
         id="g2256-7-4-7-8-8-9-8-2-2"
         style="fill:#1f2d41;fill-opacity:1;stroke-width:0.991012"><path
           style="fill:#1f2d41;fill-opacity:1;stroke:none;stroke-width:2.80811"
           d="m 6529.6885,400.7529 v 0.54082 l 34.8984,59.55688 h 260.5918 v -60.0977 z"
           id="path8474-0-7-9-0-6-4-09-7-0-94-9-2-1-5-7-4-5-4"
           inkscape:connector-curvature="0" /><path
           style="fill:#1f2d41;fill-opacity:1;stroke:none;stroke-width:2.80811"
           d="m 6441.0026,400.75287 v 0.54082 l 34.8984,59.55688 h 260.5918 v -60.0977 z"
           id="path8474-0-7-9-0-6-4-09-7-0-9-6-9-5-8-4-2-2-5-8"
           inkscape:connector-curvature="0" /></g><text
         transform="scale(0.8654499,1.1554684)"
         id="text5347-2-7-7-0-2-1-4-1-3-01"
         y="792.07782"
         x="582.56775"
         style="font-style:normal;font-variant:normal;font-weight:bold;font-stretch:normal;font-size:247.133px;line-height:125%;font-family:'Concourse C7';-inkscape-font-specification:'Concourse C7, Bold';font-variant-ligatures:normal;font-variant-caps:normal;font-variant-numeric:normal;font-feature-settings:normal;text-align:start;letter-spacing:0px;word-spacing:0px;writing-mode:lr-tb;text-anchor:start;fill:#1f2d41;fill-opacity:1;stroke:none;stroke-width:1px;stroke-linecap:butt;stroke-linejoin:miter;stroke-opacity:1"
         xml:space="preserve"><tspan
           y="792.07782"
           x="582.56775"
           id="tspan1824-4"
           sodipodi:role="line">pal</tspan></text><g
         style="fill:#ffffff;stroke-width:1.24847"
         id="g26"
         transform="matrix(1.0679694,0,0,-1.06797,875.2461,508.57605)"><path
           inkscape:connector-curvature="0"
           d="m 42.760497,-18.395281 c -22.931698,24.2107209 -61.155034,25.2520035 -85.370138,2.31618 -19.370341,-18.347009 -23.905901,-46.475476 -13.203279,-69.386732 1.669537,-2.575547 3.788414,-2.094728 4.946424,-0.997896 1.044749,0.989556 4.460666,4.302142 8.106307,7.790996 -14.205007,9.685148 -8.817699,19.670599 -8.817699,19.670599 3.1779,6.79363 1.804335,10.944234 1.804335,10.944234 -1.046598,6.555268 2.949244,2.224585 2.949244,2.224585 3.860738,-4.695556 1.846973,-11.000856 1.846973,-11.000856 -2.998149,-10.258237 4.950526,-14.769024 8.440489,-16.209829 3.206353,2.289053 6.216723,2.98619 8.499173,2.769351 -8.11579,10.787542 -14.051841,24.585918 2.747646,40.49789 4.785956,4.533114 10.319988,6.525584 16.0468123,6.629106 0.6731152,1.501161 3.7109476,7.225516 12.0055758,10.564188 0,0 4.6647816,-2.566269 6.9273625,-16.316617 4.2839224,-2.577156 8.3235834,-5.86637 11.8701254,-9.575821 3.511692,-3.742459 6.579778,-7.957428 8.927048,-12.381321 13.598504,-2.995394 15.903247,-7.787379 15.903247,-7.787379 -3.778706,-8.106471 -9.659361,-10.829443 -11.194814,-11.42017 -0.407704,-5.719317 -2.709005,-11.124825 -7.49496,-15.657939 -16.840144,-15.950478 -30.2619266,-9.20518 -40.594418,-0.470401 0.12892,-2.86126 -1.21202,-6.789669 -5.302443,-10.663996 -5.86628,-5.556361 -10.635069,-9.978181 -12.079132,-11.345951 -1.167448,-1.10578 -1.787018,-3.18843 0.747744,-5.00369 22.2955192,-11.91428 50.607615,-8.90013 69.972148,9.44138 24.215104,22.935824 25.250677,61.156464 2.316229,85.370089"
           style="fill:#ffffff;fill-opacity:1;fill-rule:evenodd;stroke:none;stroke-width:1.24847"
           id="path28" /></g><g
         aria-label="Practical Series Automation Library"
         transform="scale(0.91565448,1.092115)"
         id="text1401"
         style="font-size:219.757px;font-family:'Concourse C8';-inkscape-font-specification:'Concourse C8, Normal';letter-spacing:-6.03416px;fill:#1f2d41;stroke-width:10;stroke-linejoin:round;paint-order:fill markers stroke"><path
           d="m 1317.1059,163.79831 q 0,13.18542 -5.7137,22.85473 -5.7137,9.66931 -14.9435,16.04226 -9.01,6.1532 -20.4374,9.2298 -11.2076,2.85684 -22.4152,2.85684 h -10.1088 v 45.92921 h -51.6429 V 111.27639 h 59.5541 q 14.504,0 26.3709,3.29635 12.0866,3.0766 20.8769,9.66931 8.7903,6.59271 13.6249,16.48178 4.8347,9.88906 4.8347,23.07448 z m -50.5441,0.65927 q 0,-5.71368 -3.9557,-9.6693 -3.7358,-4.17539 -10.3285,-4.17539 h -8.7903 v 27.24987 h 8.7903 q 7.6915,0 10.9878,-3.95563 3.2964,-3.95562 3.2964,-9.44955 z"
           id="path10209" /><path
           d="m 1457.6497,259.61237 v 1.09878 h -52.522 l -26.3708,-39.11675 h -1.7581 v 39.11675 h -48.3465 v -116.0317 h 65.0481 q 11.4273,0 20.8769,2.85684 9.6693,2.85685 16.4818,8.13101 6.8124,5.05441 10.5483,12.3064 3.9556,7.25198 3.9556,16.26201 0,12.08664 -5.7137,19.77813 -5.4939,7.6915 -15.383,11.42737 z m -59.3344,-73.17909 q 0,-5.05441 -3.0766,-7.47173 -3.0766,-2.41733 -6.373,-2.41733 h -11.8669 v 20.21764 h 12.0867 q 4.1754,0 6.5927,-2.63708 2.6371,-2.63709 2.6371,-7.6915 z"
           id="path10211" /><path
           d="m 1550.5062,246.42695 h -36.2599 l -5.7137,14.2842 h -47.9071 l 47.4676,-116.0317 h 48.3465 l 47.907,116.0317 h -47.907 z m -28.3487,-27.90914 h 20.2177 l -9.4496,-27.24987 h -1.3185 z"
           id="path10213" /><path
           d="m 1714.1245,215.44121 v 39.99577 q -7.0322,4.39514 -16.4817,6.37296 -9.2298,2.19757 -19.1189,2.19757 -16.262,0 -29.0079,-4.6149 -12.7459,-4.83465 -21.5362,-12.96566 -8.7903,-8.13101 -13.4052,-18.89911 -4.6149,-10.98785 -4.6149,-23.29424 0,-14.94348 5.7137,-26.5906 5.7137,-11.86687 15.1632,-19.77813 9.6693,-8.13101 21.9757,-12.30639 12.5262,-4.17538 26.1511,-4.17538 11.4274,0 20.8769,2.63708 9.4496,2.63709 14.2842,5.71368 v 38.45748 h -1.758 q -4.6149,-2.63708 -12.0867,-5.05441 -7.4717,-2.41733 -16.262,-2.19757 -5.0544,0 -9.889,1.31854 -4.6149,1.31854 -8.3508,3.95563 -3.5161,2.63708 -5.7137,6.81246 -1.9778,3.95563 -1.9778,9.66931 0,5.27417 1.9778,9.2298 2.1976,3.95562 5.7137,6.81246 3.7359,2.85684 8.3508,4.39514 4.8346,1.31855 10.3285,1.31855 8.7903,0 15.383,-2.63709 6.5927,-2.85684 12.5262,-6.37295 z"
           id="path10215" /><path
           d="m 1810.0575,181.37887 v 79.33228 h -49.4453 v -79.33228 h -33.1833 v -36.69942 h 115.5922 v 36.69942 z"
           id="path10217" /><path
           d="m 1912.1439,260.71115 h -50.5441 v -116.0317 h 50.5441 z"
           id="path10219" /><path
           d="m 2034.448,215.44121 v 39.99577 q -7.0322,4.39514 -16.4818,6.37296 -9.2297,2.19757 -19.1188,2.19757 -16.262,0 -29.0079,-4.6149 -12.7459,-4.83465 -21.5362,-12.96566 -8.7903,-8.13101 -13.4052,-18.89911 -4.6149,-10.98785 -4.6149,-23.29424 0,-14.94348 5.7137,-26.5906 5.7137,-11.86687 15.1632,-19.77813 9.6693,-8.13101 21.9757,-12.30639 12.5262,-4.17538 26.1511,-4.17538 11.4274,0 20.8769,2.63708 9.4496,2.63709 14.2842,5.71368 v 38.45748 h -1.758 q -4.6149,-2.63708 -12.0867,-5.05441 -7.4717,-2.41733 -16.262,-2.19757 -5.0544,0 -9.8891,1.31854 -4.6149,1.31854 -8.3507,3.95563 -3.5161,2.63708 -5.7137,6.81246 -1.9778,3.95563 -1.9778,9.66931 0,5.27417 1.9778,9.2298 2.1976,3.95562 5.7137,6.81246 3.7358,2.85684 8.3507,4.39514 4.8347,1.31855 10.3286,1.31855 8.7903,0 15.383,-2.63709 6.5927,-2.85684 12.5262,-6.37295 z"
           id="path10221" /><path
           d="m 2135.6552,246.42695 h -36.2599 l -5.7136,14.2842 h -47.9071 l 47.4675,-116.0317 h 48.3466 l 47.907,116.0317 h -47.907 z m -28.3486,-27.90914 h 20.2176 l -9.4495,-27.24987 h -1.3186 z"
           id="path10223" /><path
           d="m 2252.2456,224.01173 h 42.1934 v 36.69942 h -91.6387 v -116.0317 h 49.4453 z"
           id="path10225" /><path
           d="m 2378.8438,204.45336 q 11.6472,8.35076 24.1733,13.18542 12.7459,4.6149 24.8325,4.6149 6.373,0 8.7903,-1.31855 2.6371,-1.31854 2.6371,-3.73587 0,-1.97781 -2.4173,-3.51611 -2.1976,-1.5383 -6.1532,-2.85684 -12.3064,-4.17538 -23.2943,-9.01004 -10.768,-4.83465 -18.8991,-11.2076 -8.131,-6.59271 -12.7459,-15.16324 -4.6149,-8.79028 -4.6149,-21.09667 0,-9.66931 3.2964,-18.02007 3.5161,-8.57053 10.3286,-14.72372 7.0322,-6.37296 17.3608,-9.88907 10.5483,-3.73587 24.8325,-3.73587 17.1411,0 31.645,4.6149 14.504,4.39514 26.3709,11.86688 l -13.4052,39.3365 q -5.0544,-3.29635 -10.5483,-5.93344 -5.494,-2.63708 -10.9879,-4.39514 -5.4939,-1.97781 -10.5483,-2.85684 -5.0544,-0.87903 -8.7903,-0.87903 -4.3952,0 -7.4718,0.87903 -2.8568,0.87903 -2.8568,3.95563 0,2.41733 4.3951,5.05441 4.6149,2.41733 12.746,5.27417 13.4051,4.61489 22.8547,9.88906 9.6693,5.05441 15.8225,11.42737 6.1532,6.37295 8.7903,14.50396 2.8568,7.91125 2.8568,18.45959 0,12.7459 -5.9334,21.31643 -5.9335,8.57052 -15.1633,13.84469 -9.01,5.27417 -19.9979,7.47174 -10.9878,2.19757 -21.0966,2.19757 -9.6693,0 -18.8991,-1.75806 -9.0101,-1.5383 -17.1411,-4.17538 -7.9112,-2.85684 -14.7237,-6.59271 -6.5927,-3.73587 -11.2076,-7.91126 z"
           id="path10227" /><path
           d="m 2606.8509,177.643 h -50.7639 v 11.20761 h 43.0724 v 27.68938 h -43.0724 v 11.20761 h 51.8627 v 32.96355 h -100.2092 v -116.0317 h 99.1104 z"
           id="path10229" /><path
           d="m 2758.1627,259.61237 v 1.09878 h -52.522 l -26.3708,-39.11675 h -1.7581 v 39.11675 h -48.3465 v -116.0317 h 65.0481 q 11.4273,0 20.8769,2.85684 9.6693,2.85685 16.4818,8.13101 6.8124,5.05441 10.5483,12.3064 3.9556,7.25198 3.9556,16.26201 0,12.08664 -5.7136,19.77813 -5.494,7.6915 -15.383,11.42737 z m -59.3344,-73.17909 q 0,-5.05441 -3.0766,-7.47173 -3.0766,-2.41733 -6.373,-2.41733 h -11.8669 v 20.21764 h 12.0867 q 4.1754,0 6.5927,-2.63708 2.6371,-2.63709 2.6371,-7.6915 z"
           id="path10231" /><path
           d="m 2819.8137,260.71115 h -50.5441 v -116.0317 h 50.5441 z"
           id="path10233" /><path
           d="m 2942.5573,177.643 h -50.7638 v 11.20761 h 43.0723 v 27.68938 h -43.0723 v 11.20761 h 51.8626 v 32.96355 h -100.2092 v -116.0317 h 99.1104 z"
           id="path10235" /><path
           d="m 2967.9484,215.66097 q 4.1754,2.63708 9.2298,5.05441 5.0544,2.19757 10.3286,4.17538 5.4939,1.75806 11.2076,2.85684 5.7137,1.09879 11.2076,1.09879 5.0544,0 7.0322,-0.87903 1.9778,-1.09879 1.9778,-3.0766 0,-2.41733 -3.9556,-3.51611 -3.7359,-1.09879 -13.1854,-4.17539 -21.5362,-7.25198 -30.5463,-16.48177 -9.01,-9.44955 -9.01,-22.63497 0,-7.47174 3.5161,-14.06445 3.5161,-6.59271 10.1088,-11.64712 6.8125,-5.05441 16.2621,-7.91125 9.6693,-3.0766 21.9757,-3.0766 15.8225,0 29.6672,3.73587 13.8446,3.73587 23.7337,10.10882 l -13.1854,32.08452 q -20.2177,-10.98785 -36.4797,-10.98785 -4.3951,0 -6.1532,0.87903 -1.758,0.87903 -1.758,1.97781 0,1.97782 3.2963,3.73587 3.5161,1.5383 12.0867,4.17538 13.1854,4.39514 21.3164,9.01004 8.3508,4.39514 12.9657,9.44955 4.6149,5.05441 6.1532,10.98785 1.5383,5.71369 1.5383,12.3064 0,8.57052 -4.3952,15.16323 -4.3951,6.59271 -11.8669,11.20761 -7.2519,4.39514 -17.141,6.59271 -9.8891,2.19757 -20.8769,2.19757 -9.4496,0 -18.2399,-1.31855 -8.7902,-1.31854 -16.262,-3.51611 -7.4717,-2.19757 -13.4052,-4.83465 -5.9334,-2.63709 -9.4495,-5.27417 z"
           id="path10237" /><path
           d="m 3239.5862,239.83424 h -41.9736 l -7.252,20.87691 h -51.8626 l 56.4775,-149.43476 h 47.2478 l 56.6973,149.43476 h -51.8627 z m -32.0845,-34.94137 h 21.7559 l -9.889,-35.82039 h -1.5383 z"
           id="path10239" /><path
           d="m 3432.4321,215.22145 q 0,9.44955 -3.9556,18.23983 -3.7359,8.79028 -11.4274,15.60275 -7.6915,6.81247 -19.3386,10.98785 -11.4274,3.95563 -26.8103,3.95563 -17.5806,0 -29.4475,-3.95563 -11.6471,-4.17538 -18.8991,-10.98785 -7.0322,-6.81247 -10.1088,-15.60275 -3.0766,-8.79028 -3.0766,-18.23983 v -70.542 h 49.4453 v 66.80613 q 0,6.81247 3.2964,10.10882 3.5161,3.29636 9.2298,3.29636 4.6149,0 8.131,-3.0766 3.5161,-3.29635 3.5161,-10.10882 v -67.02589 h 49.4453 z"
           id="path10241" /><path
           d="m 3532.5408,181.37887 v 79.33228 h -49.4453 v -79.33228 h -33.1833 v -36.69942 h 115.5922 v 36.69942 z"
           id="path10243" /><path
           d="m 3709.3446,203.35457 q 0,11.86688 -4.8347,22.85473 -4.8347,10.98785 -13.8447,19.55837 -9.01,8.35077 -21.9757,13.40518 -12.7459,4.83466 -28.5684,4.83466 -15.6027,0 -28.1289,-4.6149 -12.3064,-4.83465 -21.0967,-12.96566 -8.5705,-8.13101 -13.1854,-19.11886 -4.6149,-11.20761 -4.6149,-23.95352 0,-14.2842 5.4939,-25.71157 5.7137,-11.42736 14.9435,-19.55837 9.4496,-8.13101 21.756,-12.30639 12.5261,-4.39514 26.151,-4.39514 13.4052,0 25.4919,4.39514 12.3063,4.17538 21.7559,12.08663 9.4495,7.91126 14.9435,19.55838 5.7137,11.42736 5.7137,25.93132 z m -49.0059,-0.43951 q 0,-5.93344 -1.758,-10.10882 -1.7581,-4.39514 -4.6149,-7.03223 -2.6371,-2.63708 -6.1532,-3.95562 -3.5161,-1.31855 -7.0322,-1.31855 -8.131,0 -13.8447,5.49393 -5.7137,5.27417 -5.7137,16.92129 0,11.42736 5.2742,16.70153 5.4939,5.27417 14.5039,5.27417 7.9113,0 13.625,-5.05441 5.7136,-5.27417 5.7136,-16.92129 z"
           id="path10245" /><path
           d="m 3834.5055,214.12267 -17.8003,46.58848 h -22.1955 l -18.0201,-46.58848 h -1.5383 l -8.3507,46.58848 h -46.149 l 24.1733,-116.0317 h 38.4574 l 22.1955,56.03804 h 1.0988 l 21.5362,-56.03804 h 38.4574 l 24.1733,116.0317 h -46.149 l -8.3507,-46.58848 z"
           id="path10247" /><path
           d="m 3987.7951,246.42695 h -36.2599 l -5.7137,14.2842 h -47.907 l 47.4675,-116.0317 h 48.3466 l 47.907,116.0317 h -47.907 z m -28.3486,-27.90914 h 20.2176 l -9.4495,-27.24987 h -1.3186 z"
           id="path10249" /><path
           d="m 4123.7239,181.37887 v 79.33228 h -49.4453 v -79.33228 h -33.1833 v -36.69942 h 115.5922 v 36.69942 z"
           id="path10251" /><path
           d="m 4225.8104,260.71115 h -50.5441 v -116.0317 h 50.5441 z"
           id="path10253" /><path
           d="m 4380.199,203.35457 q 0,11.86688 -4.8346,22.85473 -4.8347,10.98785 -13.8447,19.55837 -9.01,8.35077 -21.9757,13.40518 -12.7459,4.83466 -28.5684,4.83466 -15.6028,0 -28.1289,-4.6149 -12.3064,-4.83465 -21.0967,-12.96566 -8.5705,-8.13101 -13.1854,-19.11886 -4.6149,-11.20761 -4.6149,-23.95352 0,-14.2842 5.4939,-25.71157 5.7137,-11.42736 14.9435,-19.55837 9.4496,-8.13101 21.7559,-12.30639 12.5262,-4.39514 26.1511,-4.39514 13.4052,0 25.4918,4.39514 12.3064,4.17538 21.756,12.08663 9.4495,7.91126 14.9435,19.55838 5.7136,11.42736 5.7136,25.93132 z m -49.0058,-0.43951 q 0,-5.93344 -1.758,-10.10882 -1.7581,-4.39514 -4.6149,-7.03223 -2.6371,-2.63708 -6.1532,-3.95562 -3.5161,-1.31855 -7.0322,-1.31855 -8.131,0 -13.8447,5.49393 -5.7137,5.27417 -5.7137,16.92129 0,11.42736 5.2742,16.70153 5.4939,5.27417 14.5039,5.27417 7.9113,0 13.625,-5.05441 5.7136,-5.27417 5.7136,-16.92129 z"
           id="path10255" /><path
           d="m 4476.7916,193.24575 h 1.758 v -48.5663 h 48.3466 v 116.0317 h -35.1612 l -44.3909,-48.12678 h -1.758 v 48.12678 h -48.3466 v -116.0317 h 35.1611 z"
           id="path10257" /><path
           d="m 4666.4598,218.51781 h 49.4454 v 42.19334 h -102.187 V 111.27639 h 52.7416 z"
           id="path10259" /><path
           d="m 4788.9837,260.71115 h -50.5441 v -116.0317 h 50.5441 z"
           id="path10261" /><path
           d="m 4904.2556,202.47555 q 5.7137,0.87902 10.3286,3.51611 4.8347,2.63708 8.131,6.37295 3.5161,3.73587 5.2742,8.57052 1.9778,4.6149 1.9778,9.66931 0,13.84469 -13.6249,21.9757 -13.4052,8.13101 -40.8748,8.13101 h -62.8505 v -116.0317 h 63.5097 q 13.625,0 22.8548,2.63709 9.2298,2.41732 14.7237,6.59271 5.7137,4.17538 8.131,9.66931 2.4173,5.27416 2.4173,10.76809 0,9.01004 -4.8346,15.8225 -4.6149,6.59271 -15.1633,11.42737 z m -23.7337,-19.33862 q 0,-4.39514 -3.0766,-6.37295 -3.0766,-1.97782 -6.373,-1.97782 h -11.2076 v 16.92129 h 11.4274 q 4.1754,0 6.5927,-2.19757 2.6371,-2.19757 2.6371,-6.37295 z m 2.1976,38.89699 q 0,-4.39514 -3.0766,-6.37295 -3.0766,-1.97782 -6.373,-1.97782 h -13.4052 v 16.92129 h 13.625 q 4.1753,0 6.5927,-2.19757 2.6371,-2.19757 2.6371,-6.37295 z"
           id="path10263" /><path
           d="m 5074.0269,259.61237 v 1.09878 h -52.5219 l -26.3708,-39.11675 h -1.7581 v 39.11675 h -48.3465 v -116.0317 h 65.048 q 11.4274,0 20.877,2.85684 9.6693,2.85685 16.4817,8.13101 6.8125,5.05441 10.5484,12.3064 3.9556,7.25198 3.9556,16.26201 0,12.08664 -5.7137,19.77813 -5.4939,7.6915 -15.383,11.42737 z m -59.3344,-73.17909 q 0,-5.05441 -3.0766,-7.47173 -3.0766,-2.41733 -6.3729,-2.41733 h -11.8669 v 20.21764 h 12.0866 q 4.1754,0 6.5928,-2.63708 2.637,-2.63709 2.637,-7.6915 z"
           id="path10265" /><path
           d="m 5166.8833,246.42695 h -36.2599 l -5.7137,14.2842 h -47.907 l 47.4675,-116.0317 h 48.3465 l 47.907,116.0317 h -47.907 z m -28.3487,-27.90914 h 20.2177 l -9.4496,-27.24987 h -1.3185 z"
           id="path10267" /><path
           d="m 5363.0257,259.61237 v 1.09878 h -52.5219 l -26.3709,-39.11675 h -1.758 v 39.11675 h -48.3466 v -116.0317 h 65.0481 q 11.4274,0 20.8769,2.85684 9.6693,2.85685 16.4818,8.13101 6.8125,5.05441 10.5483,12.3064 3.9557,7.25198 3.9557,16.26201 0,12.08664 -5.7137,19.77813 -5.4939,7.6915 -15.383,11.42737 z m -59.3344,-73.17909 q 0,-5.05441 -3.0766,-7.47173 -3.0766,-2.41733 -6.3729,-2.41733 h -11.8669 v 20.21764 h 12.0866 q 4.1754,0 6.5927,-2.63708 2.6371,-2.63709 2.6371,-7.6915 z"
           id="path10269" /><path
           d="m 5424.4568,180.28009 h 0.879 l 18.8991,-35.60064 h 50.1046 l -44.8304,72.51981 v 43.51189 h -49.4453 v -43.51189 l -45.0502,-72.51981 h 50.1046 z"
           id="path10271" /></g><g
         aria-label="Project Documentation"
         id="text1452"
         style="font-weight:600;font-size:220px;font-family:'Concourse T3';-inkscape-font-specification:'Concourse T3, Semi-Bold';font-feature-settings:'ss02';fill:#1f2d41;stroke-width:10;stroke-linejoin:round;paint-order:fill markers stroke"><path
           d="m 2175.0672,813.27205 q 0,11 -3.96,20.02 -3.74,9.02 -10.78,15.4 -6.82,6.38 -16.28,10.12 -9.46,3.52 -20.9,3.52 h -12.54 v 53.02 h -29.7 v -149.6 h 40.26 q 25.08,0 39.38,12.32 14.52,12.32 14.52,35.2 z m -31.02,0.44 q 0,-10.78 -6.6,-16.06 -6.38,-5.5 -15.62,-5.5 h -11.22 v 43.34 h 11.22 q 3.96,0 7.92,-1.1 4.18,-1.1 7.26,-3.74 3.08,-2.64 5.06,-6.82 1.98,-4.18 1.98,-10.12 z"
           id="path10274" /><path
           d="m 2244.3673,845.39205 q -5.94,0 -10.78,2.42 -4.62,2.2 -7.92,6.16 -3.3,3.74 -5.06,8.58 -1.76,4.62 -1.76,9.46 v 43.34 h -28.6 v -99.66 h 21.12 l 2.86,19.36 h 1.1 q 4.4,-10.34 12.76,-15.84 8.58,-5.5 17.82,-5.5 h 2.2 v 31.68 z"
           id="path10276" /><path
           d="m 2351.2872,866.51205 q 0,11 -3.74,20.46 -3.74,9.46 -10.34,16.5 -6.6,7.04 -15.4,11.22 -8.8,3.96 -18.92,3.96 -10.34,0 -19.14,-3.74 -8.8,-3.74 -15.4,-10.34 -6.38,-6.82 -10.12,-16.5 -3.74,-9.68 -3.74,-21.56 0,-11.66 3.52,-21.56 3.74,-9.9 10.12,-16.94 6.38,-7.26 15.18,-11.22 8.8,-4.18 19.36,-4.18 11,0 19.8,4.18 9.02,3.96 15.4,11.22 6.38,7.04 9.9,16.94 3.52,9.9 3.52,21.56 z m -29.26,-0.22 q 0,-5.94 -1.32,-11.22 -1.1,-5.28 -3.52,-9.02 -2.2,-3.96 -5.94,-6.16 -3.52,-2.42 -8.36,-2.42 -4.4,0 -8.14,2.42 -3.52,2.42 -5.94,6.38 -2.42,3.96 -3.74,9.24 -1.32,5.06 -1.32,10.78 0,12.76 5.5,20.24 5.5,7.26 13.86,7.26 7.92,0 13.42,-7.48 5.5,-7.48 5.5,-20.02 z"
           id="path10278" /><path
           d="m 2367.7871,818.55205 28.6,-3.52 v 101.86 q 0,15.84 -3.52,24.64 -3.3,9.02 -9.24,14.96 l -26.84,4.4 -1.1,-8.8 q 5.06,-5.06 8.58,-13.42 3.52,-8.14 3.52,-22.66 z m -3.08,-37.18 q 0,-7.26 5.06,-12.32 5.06,-5.06 12.32,-5.06 7.26,0 12.32,5.06 5.06,5.06 5.06,12.32 0,7.26 -5.06,12.32 -5.06,5.06 -12.32,5.06 -7.26,0 -12.32,-5.06 -5.06,-5.06 -5.06,-12.32 z"
           id="path10280" /><path
           d="m 2492.527,885.21205 3.74,23.54 q -7.26,4.84 -16.72,7.26 -9.46,2.64 -20.02,2.64 -9.68,0 -18.26,-2.86 -8.58,-2.86 -14.96,-8.8 -6.16,-6.16 -9.9,-15.62 -3.52,-9.46 -3.52,-22.66 0,-12.32 3.96,-22.66 3.96,-10.34 10.34,-17.6 6.38,-7.48 14.74,-11.66 8.36,-4.18 17.38,-4.18 9.68,0 17.38,3.52 7.7,3.52 13.2,9.46 5.5,5.94 8.36,13.64 2.86,7.7 2.86,16.06 0,2.86 -0.66,7.92 -0.66,5.06 -2.64,9.68 h -56.76 q 0,7.04 2.2,11.22 2.42,4.18 5.72,6.6 3.52,2.2 7.48,3.08 3.96,0.66 7.48,0.66 7.04,0 14.74,-2.42 7.92,-2.42 12.98,-6.82 z m -19.36,-29.26 q 1.1,-8.36 -3.08,-13.86 -4.18,-5.72 -10.78,-5.72 -7.04,0 -11.66,5.72 -4.62,5.5 -5.72,13.86 z"
           id="path10282" /><path
           d="m 2584.9272,845.39205 q -4.62,-3.52 -9.9,-5.5 -5.06,-1.98 -10.78,-1.98 -10.56,0 -16.94,8.36 -6.16,8.14 -6.16,21.12 0,7.26 1.98,12.32 1.98,5.06 5.28,8.14 3.3,3.08 7.26,4.62 4.18,1.32 8.14,1.32 12.32,0 22,-8.8 h 0.88 l 5.5,21.34 q -6.6,5.94 -14.74,9.02 -8.14,3.3 -18.7,3.3 -11.88,0 -20.9,-3.96 -8.8,-4.18 -14.52,-11 -5.72,-6.82 -8.58,-15.84 -2.86,-9.24 -2.86,-19.14 0,-12.1 3.74,-22.44 3.96,-10.34 10.56,-17.82 6.6,-7.48 15.4,-11.66 8.8,-4.18 18.48,-4.18 9.9,0 17.6,3.08 7.92,2.86 13.64,7.26 l -5.5,22.44 z"
           id="path10284" /><path
           d="m 2610.8872,840.33205 h -11.66 v -15.84 l 31.46,-30.8 h 8.8 v 22 h 29.7 v 24.64 h -29.7 v 34.1 q 0,10.56 4.18,14.96 4.18,4.18 10.56,4.18 5.06,0 8.58,-0.88 3.74,-1.1 7.04,-3.08 v 23.98 q -4.84,2.42 -11.44,3.74 -6.38,1.32 -13.42,1.32 -17.38,0 -25.74,-9.46 -8.36,-9.68 -8.36,-25.52 z"
           id="path10286" /><path
           d="m 2781.8271,888.07205 q 10.12,0 18.7,-3.3 8.8,-3.3 15.18,-9.46 6.6,-6.16 10.12,-14.74 3.74,-8.58 3.74,-19.14 0,-12.76 -4.4,-21.78 -4.18,-9.24 -10.78,-15.18 -6.6,-5.94 -14.74,-8.58 -8.14,-2.86 -15.84,-2.86 h -17.6 v 95.04 z m -45.32,27.28 v -149.6 h 44.88 q 17.16,0 31.68,5.06 14.52,4.84 24.86,14.52 10.56,9.68 16.5,23.98 5.94,14.08 5.94,32.56 0,16.5 -6.16,30.14 -5.94,13.42 -16.5,23.1 -10.56,9.68 -24.86,14.96 -14.08,5.28 -30.14,5.28 z"
           id="path10288" /><path
           d="m 2969.4871,866.51205 q 0,11 -3.74,20.46 -3.74,9.46 -10.34,16.5 -6.6,7.04 -15.4,11.22 -8.8,3.96 -18.92,3.96 -10.34,0 -19.14,-3.74 -8.8,-3.74 -15.4,-10.34 -6.38,-6.82 -10.12,-16.5 -3.74,-9.68 -3.74,-21.56 0,-11.66 3.52,-21.56 3.74,-9.9 10.12,-16.94 6.38,-7.26 15.18,-11.22 8.8,-4.18 19.36,-4.18 11,0 19.8,4.18 9.02,3.96 15.4,11.22 6.38,7.04 9.9,16.94 3.52,9.9 3.52,21.56 z m -29.26,-0.22 q 0,-5.94 -1.32,-11.22 -1.1,-5.28 -3.52,-9.02 -2.2,-3.96 -5.94,-6.16 -3.52,-2.42 -8.36,-2.42 -4.4,0 -8.14,2.42 -3.52,2.42 -5.94,6.38 -2.42,3.96 -3.74,9.24 -1.32,5.06 -1.32,10.78 0,12.76 5.5,20.24 5.5,7.26 13.86,7.26 7.92,0 13.42,-7.48 5.5,-7.48 5.5,-20.02 z"
           id="path10290" /><path
           d="m 3053.527,845.39205 q -4.62,-3.52 -9.9,-5.5 -5.06,-1.98 -10.78,-1.98 -10.56,0 -16.94,8.36 -6.16,8.14 -6.16,21.12 0,7.26 1.98,12.32 1.98,5.06 5.28,8.14 3.3,3.08 7.26,4.62 4.18,1.32 8.14,1.32 12.32,0 22,-8.8 h 0.88 l 5.5,21.34 q -6.6,5.94 -14.74,9.02 -8.14,3.3 -18.7,3.3 -11.88,0 -20.9,-3.96 -8.8,-4.18 -14.52,-11 -5.72,-6.82 -8.58,-15.84 -2.86,-9.24 -2.86,-19.14 0,-12.1 3.74,-22.44 3.96,-10.34 10.56,-17.82 6.6,-7.48 15.4,-11.66 8.8,-4.18 18.48,-4.18 9.9,0 17.6,3.08 7.92,2.86 13.64,7.26 l -5.5,22.44 z"
           id="path10292" /><path
           d="m 3130.9669,903.47205 q -4.62,6.16 -11.88,10.78 -7.26,4.4 -16.5,4.4 -5.94,0 -11.44,-1.98 -5.28,-1.76 -9.46,-5.94 -4.18,-4.4 -6.82,-11.22 -2.42,-7.04 -2.42,-17.16 v -66.66 h 28.6 v 58.52 q 0,9.24 3.3,13.42 3.3,3.96 9.46,3.96 5.06,0 9.68,-3.52 4.62,-3.52 7.04,-10.12 v -62.26 h 28.6 v 99.66 h -24.2 l -2.64,-11.88 z"
           id="path10294" /><path
           d="m 3262.7468,829.11205 q 5.72,-7.92 14.52,-12.1 8.8,-4.4 18.04,-4.4 6.16,0 11.44,1.98 5.28,1.76 9.02,5.72 3.96,3.74 6.16,9.9 2.2,5.94 2.2,14.52 v 70.62 h -28.6 v -61.38 q 0,-7.92 -3.96,-11 -3.74,-3.3 -7.48,-3.3 -6.38,0 -11.44,3.52 -5.06,3.52 -7.26,7.92 v 64.24 h -28.6 v -60.28 q 0,-4.62 -1.32,-7.48 -1.1,-3.08 -2.86,-4.84 -1.76,-1.76 -3.96,-2.42 -1.98,-0.66 -3.74,-0.66 -5.5,0 -10.56,3.3 -4.84,3.3 -7.7,8.14 v 64.24 h -28.6 v -99.66 h 24.2 l 2.64,11.88 h 1.32 q 5.28,-7.04 12.76,-11 7.48,-3.96 16.94,-3.96 9.02,0 15.62,4.62 6.82,4.4 10.12,11.88 z"
           id="path10296" /><path
           d="m 3418.7268,885.21205 3.74,23.54 q -7.26,4.84 -16.72,7.26 -9.46,2.64 -20.02,2.64 -9.68,0 -18.26,-2.86 -8.58,-2.86 -14.96,-8.8 -6.16,-6.16 -9.9,-15.62 -3.52,-9.46 -3.52,-22.66 0,-12.32 3.96,-22.66 3.96,-10.34 10.34,-17.6 6.38,-7.48 14.74,-11.66 8.36,-4.18 17.38,-4.18 9.68,0 17.38,3.52 7.7,3.52 13.2,9.46 5.5,5.94 8.36,13.64 2.86,7.7 2.86,16.06 0,2.86 -0.66,7.92 -0.66,5.06 -2.64,9.68 h -56.76 q 0,7.04 2.2,11.22 2.42,4.18 5.72,6.6 3.52,2.2 7.48,3.08 3.96,0.66 7.48,0.66 7.04,0 14.74,-2.42 7.92,-2.42 12.98,-6.82 z m -19.36,-29.26 q 1.1,-8.36 -3.08,-13.86 -4.18,-5.72 -10.78,-5.72 -7.04,0 -11.66,5.72 -4.62,5.5 -5.72,13.86 z"
           id="path10298" /><path
           d="m 3470.207,827.57205 q 5.06,-6.82 12.54,-10.78 7.48,-4.18 16.94,-4.18 5.5,0 10.78,1.98 5.28,1.98 9.24,5.94 4.18,3.96 6.6,10.34 2.42,6.16 2.42,14.74 v 69.74 h -28.6 v -59.4 q 0,-9.46 -3.52,-12.76 -3.3,-3.52 -8.14,-3.52 -5.06,0 -9.9,3.08 -4.62,3.08 -7.92,8.14 v 64.46 h -28.6 v -99.66 h 24.2 l 2.64,11.88 z"
           id="path10300" /><path
           d="m 3550.2868,840.33205 h -11.66 v -15.84 l 31.46,-30.8 h 8.8 v 22 h 29.7 v 24.64 h -29.7 v 34.1 q 0,10.56 4.18,14.96 4.18,4.18 10.56,4.18 5.06,0 8.58,-0.88 3.74,-1.1 7.04,-3.08 v 23.98 q -4.84,2.42 -11.44,3.74 -6.38,1.32 -13.42,1.32 -17.38,0 -25.74,-9.46 -8.36,-9.68 -8.36,-25.52 z"
           id="path10302" /><path
           d="m 3708.4669,906.77205 -21.56,12.54 q -5.28,-1.98 -7.92,-5.28 -2.64,-3.3 -3.96,-7.48 h -1.1 q -4.84,5.5 -11.88,8.8 -6.82,3.3 -15.18,3.3 -5.06,0 -10.34,-1.76 -5.06,-1.76 -9.24,-5.28 -4.18,-3.74 -6.82,-9.46 -2.42,-5.72 -2.42,-13.42 0,-15.4 10.56,-24.64 10.56,-9.24 27.94,-9.24 4.62,0 8.58,0.66 3.96,0.44 8.36,1.32 v -7.48 q 0,-3.52 -1.54,-5.94 -1.32,-2.42 -3.74,-3.74 -2.2,-1.54 -5.28,-1.98 -2.86,-0.66 -6.16,-0.66 -11,0 -25.08,9.24 l -7.7,-21.56 q 6.82,-5.06 17.38,-8.58 10.78,-3.52 22.66,-3.52 7.26,0 14.08,1.98 7.04,1.76 12.32,5.94 5.28,4.18 8.36,10.56 3.08,6.38 3.08,15.62 l -0.44,40.26 q -0.22,7.04 1.76,11.44 2.2,4.4 5.28,6.38 z m -34.98,-32.34 q -3.08,-0.66 -6.38,-1.32 -3.3,-0.66 -7.48,-0.66 -5.94,0 -10.34,3.74 -4.18,3.52 -4.18,9.46 0,5.28 3.3,7.92 3.52,2.42 8.58,2.42 4.4,0 8.8,-2.2 4.4,-2.42 7.7,-7.04 z"
           id="path10304" /><path
           d="m 3724.0871,840.33205 h -11.66 v -15.84 l 31.46,-30.8 h 8.8 v 22 h 29.7 v 24.64 h -29.7 v 34.1 q 0,10.56 4.18,14.96 4.18,4.18 10.56,4.18 5.06,0 8.58,-0.88 3.74,-1.1 7.04,-3.08 v 23.98 q -4.84,2.42 -11.44,3.74 -6.38,1.32 -13.42,1.32 -17.38,0 -25.74,-9.46 -8.36,-9.68 -8.36,-25.52 z"
           id="path10306" /><path
           d="m 3826.3871,815.03205 v 100.32 h -28.6 v -96.8 z m -31.68,-33.66 q 0,-7.26 5.06,-12.32 5.06,-5.06 12.32,-5.06 7.26,0 12.32,5.06 5.06,5.06 5.06,12.32 0,7.26 -5.06,12.32 -5.06,5.06 -12.32,5.06 -7.26,0 -12.32,-5.06 -5.06,-5.06 -5.06,-12.32 z"
           id="path10308" /><path
           d="m 3939.6871,866.51205 q 0,11 -3.74,20.46 -3.74,9.46 -10.34,16.5 -6.6,7.04 -15.4,11.22 -8.8,3.96 -18.92,3.96 -10.34,0 -19.14,-3.74 -8.8,-3.74 -15.4,-10.34 -6.38,-6.82 -10.12,-16.5 -3.74,-9.68 -3.74,-21.56 0,-11.66 3.52,-21.56 3.74,-9.9 10.12,-16.94 6.38,-7.26 15.18,-11.22 8.8,-4.18 19.36,-4.18 11,0 19.8,4.18 9.02,3.96 15.4,11.22 6.38,7.04 9.9,16.94 3.52,9.9 3.52,21.56 z m -29.26,-0.22 q 0,-5.94 -1.32,-11.22 -1.1,-5.28 -3.52,-9.02 -2.2,-3.96 -5.94,-6.16 -3.52,-2.42 -8.36,-2.42 -4.4,0 -8.14,2.42 -3.52,2.42 -5.94,6.38 -2.42,3.96 -3.74,9.24 -1.32,5.06 -1.32,10.78 0,12.76 5.5,20.24 5.5,7.26 13.86,7.26 7.92,0 13.42,-7.48 5.5,-7.48 5.5,-20.02 z"
           id="path10310" /><path
           d="m 3982.807,827.57205 q 5.06,-6.82 12.54,-10.78 7.48,-4.18 16.94,-4.18 5.5,0 10.78,1.98 5.28,1.98 9.24,5.94 4.18,3.96 6.6,10.34 2.42,6.16 2.42,14.74 v 69.74 h -28.6 v -59.4 q 0,-9.46 -3.52,-12.76 -3.3,-3.52 -8.14,-3.52 -5.06,0 -9.9,3.08 -4.62,3.08 -7.92,8.14 v 64.46 h -28.6 v -99.66 h 24.2 l 2.64,11.88 z"
           id="path10312" /></g><path
         id="path10119"
         style="fill:#4c6c9c;stroke:#000000;stroke-width:0;stroke-linejoin:round;paint-order:fill markers stroke"
         d="m 894.95859,464.39676 c -12.74299,0.85979 -27.27699,2.59592 -28.13487,9.15837 l -5.74155,2.10508 c 5.70603,0.44528 11.321,2.63627 15.94244,6.69413 11.37033,9.98385 12.49856,27.35681 2.51372,38.72833 -5.0734,5.77798 -12.37985,9.17445 -20.0491,9.31452 l 20.51323,18.01168 c 1.30526,1.14608 1.43442,3.1359 0.28827,4.44116 l -17.78643,20.25644 c 7.22054,-0.45877 14.46205,1.99881 19.86288,6.74101 v 0 c 11.37033,9.98385 12.49836,27.35893 2.51226,38.72946 -9.98385,11.37033 -27.35893,12.49856 -38.72688,2.51438 -5.39963,-4.74121 -8.77401,-11.60074 -9.25294,-18.82214 l -17.78749,20.25789 c -1.14615,1.30527 -3.1359,1.43443 -4.44117,0.28827 l -18.45722,-16.20637 c -0.9127,-0.8014 -1.28186,-2.05727 -0.95079,-3.22598 0.33437,-1.17009 1.30705,-2.04166 2.5069,-2.24442 5.50889,-0.92514 10.38369,-3.64658 14.09197,-7.86984 8.81277,-10.03669 7.81416,-25.3676 -2.21896,-34.17725 -10.03312,-8.80966 -25.36541,-7.81204 -34.17507,2.22114 -3.62938,4.13339 -5.68831,9.18926 -5.96534,14.64134 0.0667,0.82071 -0.18735,1.66563 -0.77283,2.33252 -1.14615,1.30527 -3.1355,1.43436 -4.44077,0.28827 -0.009,-0.007 -0.0139,-0.0152 -0.0238,-0.0205 l -7.37741,-6.47787 A 110.0169,110.0169 0 0 0 866.82358,680.75356 110.0169,110.0169 0 0 0 976.8405,570.73666 110.0169,110.0169 0 0 0 894.95846,464.39662 Z m -55.37767,19.14764 -0.26143,0.0956 -0.0212,0.19483 c 0.0943,-0.0967 0.18716,-0.19542 0.28259,-0.29046 z" /></g></g></svg>
