<?xml version="1.0" encoding="UTF-8" standalone="no"?>
<svg
   xmlns:dc="http://purl.org/dc/elements/1.1/"
   xmlns:cc="http://creativecommons.org/ns#"
   xmlns:rdf="http://www.w3.org/1999/02/22-rdf-syntax-ns#"
   xmlns:svg="http://www.w3.org/2000/svg"
   xmlns="http://www.w3.org/2000/svg"
   xmlns:sodipodi="http://sodipodi.sourceforge.net/DTD/sodipodi-0.dtd"
   xmlns:inkscape="http://www.inkscape.org/namespaces/inkscape"
   width="980"
   height="980"
   version="1.1"
   id="svg130"
   sodipodi:docname="pal-logo-github-wip.svg"
   inkscape:version="0.92.4 (5da689c313, 2019-01-14)">
  <metadata
     id="metadata136">
    <rdf:RDF>
      <cc:Work
         rdf:about="">
        <dc:format>image/svg+xml</dc:format>
        <dc:type
           rdf:resource="http://purl.org/dc/dcmitype/StillImage" />
        <dc:title></dc:title>
      </cc:Work>
    </rdf:RDF>
  </metadata>
  <defs
     id="defs134" />
  <sodipodi:namedview
     pagecolor="#ffffff"
     bordercolor="#666666"
     borderopacity="1"
     objecttolerance="10"
     gridtolerance="10"
     guidetolerance="10"
     inkscape:pageopacity="0"
     inkscape:pageshadow="2"
     inkscape:window-width="2560"
     inkscape:window-height="1377"
     id="namedview132"
     showgrid="false"
     inkscape:zoom="0.8716173"
     inkscape:cx="441.10853"
     inkscape:cy="535.3036"
     inkscape:window-x="2552"
     inkscape:window-y="-6"
     inkscape:window-maximized="1"
     inkscape:current-layer="svg130"
     showguides="false"
     showborder="false">
    <inkscape:grid
       type="xygrid"
       id="grid1016" />
  </sodipodi:namedview>
  <g
     id="g1097"
     transform="translate(0,2.2746581e-6)">
    <g
       transform="translate(0,-72.361004)"
       id="g36"
       word-spacing="0"
       letter-spacing="0"
       font-size="101.924"
       font-weight="800"
       style="font-weight:800;font-size:101.9240036px;line-height:125%;font-family:'Concourse C8';-inkscape-font-specification:'Concourse C8, Ultra-Bold';font-variant-ligatures:normal;font-variant-caps:normal;font-variant-numeric:normal;font-feature-settings:normal;text-align:start;letter-spacing:0;word-spacing:0;fill:#1f2d41">
      <path
         inkscape:connector-curvature="0"
         id="path2"
         d="M 40.12,1039.26 H 23.46 l -2.88,11.32 H 0 l 22.4,-81 h 18.76 l 22.5,81 H 43.08 Z m -12.74,-18.94 h 8.64 l -3.93,-19.42 h -0.62 z" />
      <path
         inkscape:connector-curvature="0"
         id="path4"
         d="m 119,1025.92 q 0,5.12 -1.57,9.88 -1.48,4.77 -4.54,8.46 -3.06,3.7 -7.68,5.96 -4.54,2.14 -10.64,2.14 -6.98,0 -11.7,-2.14 -4.6,-2.27 -7.5,-5.96 -2.78,-3.7 -4,-8.46 -1.22,-4.76 -1.22,-9.88 v -38.24 h 19.62 v 36.2 q 0,3.7 1.3,5.5 1.4,1.78 3.67,1.78 1.84,0 3.23,-1.67 1.4,-1.8 1.4,-5.5 V 987.7 H 119 Z" />
      <path
         inkscape:connector-curvature="0"
         id="path6"
         d="m 161.07,1007.57 v 43 h -19.62 v -43 h -13.17 v -19.9 h 45.87 v 19.9 z" />
      <path
         inkscape:connector-curvature="0"
         id="path8"
         d="m 233.62,1019.48 q 0,6.44 -1.92,12.4 -1.92,5.95 -5.5,10.6 -3.57,4.52 -8.72,7.26 -5.06,2.62 -11.33,2.62 -6.2,0 -11.17,-2.5 -4.88,-2.62 -8.37,-7.03 -3.4,-4.4 -5.22,-10.36 -1.83,-6.08 -1.83,-13 0,-7.73 2.18,-13.92 2.26,-6.2 5.93,-10.6 3.75,-4.4 8.63,-6.68 4.96,-2.38 10.37,-2.38 5.32,0 10.12,2.37 4.87,2.27 8.62,6.56 3.75,4.28 5.93,10.6 2.27,6.2 2.27,14.05 z m -19.45,-0.23 q 0,-3.22 -0.7,-5.48 -0.7,-2.4 -1.83,-3.82 -1.05,-1.43 -2.44,-2.14 -1.4,-0.7 -2.8,-0.7 -3.22,0 -5.5,2.97 -2.25,2.86 -2.25,9.18 0,6.2 2.1,9.05 2.17,2.86 5.74,2.86 3.13,0 5.4,-2.74 2.27,-2.86 2.27,-9.17 z" />
      <path
         inkscape:connector-curvature="0"
         id="path10"
         d="m 285.6,1025.32 -7.05,25.26 h -8.8 l -7.16,-25.26 h -0.62 l -3.32,25.26 h -18.3 l 9.58,-62.9 h 15.27 l 8.8,30.37 h 0.45 L 283,987.68 h 15.26 l 9.6,62.9 h -18.32 l -3.32,-25.26 z" />
      <path
         inkscape:connector-curvature="0"
         id="path12"
         d="m 348.8,1042.83 h -14.4 l -2.25,7.75 h -19 l 18.82,-62.9 h 19.2 l 19,62.9 h -19 z m -11.25,-15.13 h 8.03 l -3.75,-14.77 h -0.53 z" />
      <path
         inkscape:connector-curvature="0"
         id="path14"
         d="m 405.15,1007.57 v 43 h -19.62 v -43 h -13.17 v -19.9 h 45.88 v 19.9 z" />
      <path
         inkscape:connector-curvature="0"
         id="path16"
         d="m 448,1050.58 h -20.05 v -62.9 H 448 Z" />
      <path
         inkscape:connector-curvature="0"
         id="path18"
         d="m 511.6,1019.48 q 0,6.44 -1.92,12.4 -1.92,5.95 -5.5,10.6 -3.57,4.52 -8.72,7.26 -5.06,2.62 -11.34,2.62 -6.2,0 -11.16,-2.5 -4.88,-2.62 -8.37,-7.03 -3.4,-4.4 -5.24,-10.36 -1.84,-6.08 -1.84,-13 0,-7.73 2.18,-13.92 2.27,-6.2 5.93,-10.6 3.75,-4.4 8.64,-6.68 4.97,-2.38 10.38,-2.38 5.32,0 10.1,2.37 4.9,2.27 8.65,6.56 3.75,4.28 5.93,10.6 2.26,6.2 2.26,14.05 z m -19.45,-0.23 q 0,-3.22 -0.7,-5.48 -0.7,-2.4 -1.83,-3.82 -1.05,-1.43 -2.44,-2.14 -1.4,-0.7 -2.8,-0.7 -3.22,0 -5.5,2.97 -2.26,2.86 -2.26,9.18 0,6.2 2.1,9.05 2.18,2.86 5.75,2.86 3.14,0 5.4,-2.74 2.28,-2.86 2.28,-9.17 z" />
      <path
         inkscape:connector-curvature="0"
         id="path20"
         d="m 552.25,1014 h 0.7 v -26.32 h 19.2 v 62.9 h -13.97 l -17.6,-26.1 h -0.7 v 26.1 h -19.2 v -62.9 h 13.96 z" />
      <path
         inkscape:connector-curvature="0"
         id="path22"
         d="m 632.44,1027.7 h 19.62 v 22.88 H 611.5 v -81 h 20.94 z" />
      <path
         inkscape:connector-curvature="0"
         id="path24"
         d="m 683.4,1050.58 h -20.06 v -62.9 h 20.06 z" />
      <path
         inkscape:connector-curvature="0"
         id="path26"
         d="m 731.47,1019 q 2.26,0.48 4.1,1.9 1.9,1.44 3.22,3.47 1.4,2.02 2.08,4.64 0.8,2.52 0.8,5.26 0,7.5 -5.42,11.9 -5.32,4.42 -16.22,4.42 H 695.1 v -62.9 h 25.2 q 5.4,0 9.07,1.43 3.67,1.32 5.85,3.58 2.26,2.26 3.22,5.24 0.96,2.86 0.96,5.84 0,4.88 -1.92,8.58 -1.83,3.57 -6,6.2 z m -9.42,-10.48 q 0,-2.38 -1.22,-3.45 -1.22,-1.07 -2.53,-1.07 h -4.45 v 9.17 h 4.53 q 1.66,0 2.62,-1.2 1.05,-1.18 1.05,-3.45 z m 0.87,21.1 q 0,-2.4 -1.22,-3.46 -1.22,-1.08 -2.53,-1.08 h -5.32 v 9.18 h 5.4 q 1.66,0 2.62,-1.2 1.05,-1.2 1.05,-3.45 z" />
      <path
         inkscape:connector-curvature="0"
         id="path28"
         d="m 801.3,1049.98 v 0.6 H 780.46 L 770,1029.38 h -0.7 v 21.2 h -19.18 v -62.9 h 25.8 q 4.54,0 8.3,1.55 3.83,1.55 6.54,4.4 2.7,2.74 4.18,6.68 1.57,3.94 1.57,8.82 0,6.55 -2.26,10.72 -2.18,4.17 -6.1,6.2 z m -23.54,-39.67 q 0,-2.73 -1.22,-4.04 -1.22,-1.3 -2.53,-1.3 h -4.7 v 10.95 h 4.8 q 1.66,0 2.6,-1.42 1.06,-1.43 1.06,-4.17 z" />
      <path
         inkscape:connector-curvature="0"
         id="path30"
         d="m 840.54,1042.83 h -14.4 l -2.25,7.75 h -19.02 l 18.83,-62.9 h 19.2 l 19,62.9 h -19 z m -11.25,-15.13 h 8.02 l -3.75,-14.77 h -0.53 z" />
      <path
         inkscape:connector-curvature="0"
         id="path32"
         d="m 920.7,1049.98 v 0.6 h -20.83 l -10.47,-21.2 h -0.7 v 21.2 h -19.18 v -62.9 h 25.8 q 4.55,0 8.3,1.55 3.83,1.55 6.54,4.4 2.7,2.74 4.18,6.68 1.57,3.94 1.57,8.82 0,6.55 -2.26,10.72 -2.18,4.17 -6.1,6.2 z m -23.54,-39.67 q 0,-2.73 -1.22,-4.04 -1.22,-1.3 -2.53,-1.3 h -4.7 v 10.95 h 4.8 q 1.66,0 2.62,-1.42 1.04,-1.43 1.04,-4.17 z" />
      <path
         inkscape:connector-curvature="0"
         id="path34"
         d="m 947.56,1006.98 h 0.34 l 7.5,-19.3 h 19.9 l -17.8,39.3 v 23.6 h -19.62 v -23.6 L 920,987.7 h 19.88 z" />
    </g>
    <ellipse
       style="fill:#1f2d41"
       id="ellipse38"
       rx="135.304"
       ry="135.83501"
       cy="410.12399"
       cx="222.07401" />
    <ellipse
       style="fill:#1f2d41"
       id="ellipse40"
       rx="90.203003"
       ry="90.556999"
       cy="90.557999"
       cx="507.716" />
    <path
       style="fill:#1f2d41;fill-rule:evenodd"
       inkscape:connector-curvature="0"
       id="path42"
       d="m 178.74,560.139 c -12.34,0.3 -17.07,8.42 -19.7,12.38 L 9.82,830.439 c -15.02,27.17 6.03,47.3 26.07,47.3 H 408.7 c 20.06,0 41.1,-20.13 25.07,-47.3 L 285.6,572.789 c -3.17,-5.97 -10.05,-15.47 -27.4,-11.35 -22.1,5.25 -50.16,5.25 -71.78,-0.55 -2.84,-0.57 -5.4,-0.8 -7.68,-0.74 z m 43.33,50.97 c 16.7,0 33.4,29.63 67.5,88.9 68.16,118.52 68.84,117.35 -67.5,117.35 -136.33,0 -135.65,1.17 -67.5,-117.36 34.1,-59.26 50.8,-88.9 67.5,-88.9 z" />
    <path
       style="fill:#1f2d41;fill-rule:evenodd"
       inkscape:connector-curvature="0"
       id="path44"
       d="m 404.78,128.839 -159.52,127.84 a 154.78,155.38 0 0 1 126.7,115.2 c 0.23,0.44 0.47,0.84 0.7,1.27 l 111,-175.1 a 109.84,110.27 0 0 1 -78.88,-69.23 z" />
    <path
       style="fill:#1f2d41;fill-rule:evenodd"
       inkscape:connector-curvature="0"
       id="path46"
       d="m 602.1,146.719 a 109.84,110.27 0 0 1 -49.33,44.25 l 48.13,53.78 -16.85,116.67 c -0.1,9.07 4.73,13.77 9.67,18.33 7.14,6.4 9.94,8.1 17.13,11.6 l 90.1,40.46 c 5.33,1.43 7.5,0.84 10.06,-2.3 6.54,-7.78 5.27,-10.7 1.52,-14.9 l -43.93,-41.54 c -2.95,-3.28 -6.54,-6.88 -10.05,-11.22 -2.87,-4.7 -4.38,-10.02 -2.6,-17.95 l 12.4,-52.47 c 0.94,-3.38 1.92,-8.32 7.08,-13.16 5.27,-4.57 8.1,-4.42 14.1,-5.25 l 52.9,-7.14 c 8,-0.44 13.15,1.14 17.5,4.5 4.5,3.53 7.1,7.7 10.05,11.23 l 36.47,48.27 c 3.76,4.2 6.74,5.86 14.15,0.76 3.4,-2.24 5.74,-6.26 4.1,-10.48 l -30.46,-94.26 c -3.46,-6.87 -4.42,-9.48 -9.67,-18.33 -4.13,-7.62 -7.48,-11.36 -17.13,-11.6 l -117.33,4.4 z" />
    <path
       style="fill:#1f2d41"
       inkscape:connector-curvature="0"
       id="path48"
       d="m 307.5,567.699 v 0.55 l 35,60.83 h 486.18 v 0.07 a 90.12,90.47 0 0 1 90.12,90.47 90.12,90.47 0 0 1 -90.12,90.47 v 60.47 a 150.84,151.43 0 0 0 0.48,0.02 150.84,151.43 0 0 0 21.06,-1.64 l 5,-21.14 a 130.9,131.42 0 0 0 18.54,-5.22 l 15.2,15.4 a 150.84,151.43 0 0 0 33.08,-19.57 l -6.25,-20.95 a 130.9,131.42 0 0 0 13.57,-13.77 l 20.73,5.66 a 150.84,151.43 0 0 0 18.85,-33.6 l -15.77,-14.92 a 130.9,131.42 0 0 0 4.75,-18.75 l 20.98,-5.55 a 150.84,151.43 0 0 0 1.1,-17.4 150.84,151.43 0 0 0 -1.64,-21.13 l -21.06,-5.02 a 130.9,131.42 0 0 0 -5.2,-18.62 l 15.34,-15.26 a 150.84,151.43 0 0 0 -19.5,-33.2 l -20.86,6.28 a 130.9,131.42 0 0 0 -13.7,-13.64 l 5.63,-20.8 a 150.84,151.43 0 0 0 -33.44,-18.92 l -14.89,15.82 a 130.9,131.42 0 0 0 -18.68,-4.8 l -5.52,-21.06 a 150.84,151.43 0 0 0 -17.32,-1.1 150.84,151.43 0 0 0 -0.48,0.03 v -0.04 H 307.5 Z" />
    <path
       style="fill:#1f2d41"
       inkscape:connector-curvature="0"
       id="path50"
       d="m 302.2,567.699 v 0.55 l 34.98,60.83 h 261.18 v -61.37 z" />
    <g
       transform="translate(0,-72.361004)"
       style="fill:#1f2d41"
       id="g56">
      <path
         inkscape:connector-curvature="0"
         id="path52"
         d="m 529.22,882.44 v 0.55 l 34.98,59.9 h 261.18 v -60.46 z" />
      <path
         inkscape:connector-curvature="0"
         id="path54"
         d="m 440.34,882.44 v 0.55 l 34.97,59.9 h 261.2 v -60.46 z" />
    </g>
    <g
       transform="translate(0,-72.361004)"
       style="fill:#1f2d41"
       id="g62">
      <path
         inkscape:connector-curvature="0"
         id="path58"
         d="m 534.8,882.44 v 0.55 l 34.97,59.9 h 261.18 v -60.46 z" />
      <path
         inkscape:connector-curvature="0"
         id="path60"
         d="m 445.9,882.44 v 0.55 l 35,59.9 h 261.17 v -60.46 z" />
    </g>
    <g
       transform="translate(0,-72.361004)"
       style="font-weight:bold;font-family:'Concourse C7';letter-spacing:0;word-spacing:0;fill:#ffffff"
       id="g74"
       word-spacing="0"
       letter-spacing="0"
       font-weight="bold">
      <text
         id="text68"
         transform="matrix(0.069,0.069,-0.096,0.096,995.919,655.129)"
         style="line-height:0%;-inkscape-font-specification:'Concourse C7, Bold';text-align:start"
         y="635.26501"
         x="-2851.26">
        <tspan
           id="tspan66"
           font-size="1125"
           style="font-size:1125px;line-height:1.25"
           y="635.26501"
           x="-2851.26">P</tspan>
      </text>
      <text
         id="text72"
         transform="matrix(0.069,0.069,-0.096,0.096,995.919,655.129)"
         style="line-height:0%;-inkscape-font-specification:'Concourse C7, Bold';text-align:start"
         y="652.14001"
         x="-2269.261">
        <tspan
           id="tspan70"
           font-size="1125"
           style="font-size:1125px;line-height:1.25"
           y="652.14001"
           x="-2269.261">S</tspan>
      </text>
    </g>
    <g
       transform="translate(0,-72.361004)"
       id="g94"
       word-spacing="0"
       letter-spacing="3.538"
       font-size="105.428"
       font-weight="800"
       style="font-weight:800;font-size:105.4280014px;line-height:125%;font-family:'Concourse C8';-inkscape-font-specification:'Concourse C8, Ultra-Bold';font-variant-ligatures:normal;font-variant-caps:normal;font-variant-numeric:normal;font-feature-settings:normal;text-align:start;letter-spacing:3.53800011;word-spacing:0;fill:#1f2d41">
      <path
         inkscape:connector-curvature="0"
         id="path76"
         d="m 141,137.1 q 0,7.4 -2.36,12.82 -2.34,5.42 -6.13,9 -3.7,3.45 -8.38,5.17 -4.6,1.6 -9.2,1.6 h -4.15 v 25.74 h -21.2 v -83.78 h 24.45 q 5.95,0 10.82,1.84 4.96,1.73 8.57,5.43 3.62,3.7 5.6,9.24 2,5.54 2,12.94 z m -20.76,0.38 q 0,-3.2 -1.62,-5.43 -1.54,-2.34 -4.24,-2.34 h -3.6 V 145 h 3.6 q 3.15,0 4.5,-2.23 1.36,-2.2 1.36,-5.3 z" />
      <path
         inkscape:connector-curvature="0"
         id="path78"
         d="m 204.18,190.83 v 0.6 h -21.56 l -10.83,-21.92 h -0.73 v 21.94 H 151.21 V 126.4 h 26.7 q 4.7,0 8.58,1.6 3.96,1.6 6.76,4.55 2.8,2.83 4.33,6.9 1.6,4.06 1.6,9.1 0,6.8 -2.33,11.1 -2.26,4.32 -6.32,6.4 z M 179.82,149.8 q 0,-2.84 -1.26,-4.2 -1.27,-1.35 -2.62,-1.35 h -4.87 v 11.34 h 4.96 q 1.72,0 2.7,-1.5 1.1,-1.47 1.1,-4.3 z" />
      <path
         inkscape:connector-curvature="0"
         id="path80"
         d="m 247.8,183.44 h -14.9 l -2.34,8 H 210.9 l 19.48,-65.05 h 19.85 l 19.66,65.04 h -19.67 z m -11.65,-15.65 h 8.3 l -3.88,-15.3 h -0.54 z" />
      <path
         inkscape:connector-curvature="0"
         id="path82"
         d="m 320.4,166.06 v 22.43 q -2.88,2.45 -6.76,3.56 -3.8,1.23 -7.85,1.23 -6.68,0 -11.9,-2.6 -5.25,-2.7 -8.85,-7.26 -3.6,-4.56 -5.5,-10.6 -1.9,-6.16 -1.9,-13.06 0,-8.38 2.34,-14.9 2.34,-6.67 6.22,-11.1 3.97,-4.56 9.02,-6.9 5.14,-2.34 10.73,-2.34 4.7,0 8.57,1.48 3.88,1.47 5.87,3.2 v 21.56 h -0.7 q -1.9,-1.48 -4.98,-2.83 -3.06,-1.36 -6.67,-1.23 -2.08,0 -4.06,0.74 -1.9,0.74 -3.44,2.2 -1.44,1.5 -2.34,3.83 -0.82,2.2 -0.82,5.42 0,2.95 0.82,5.17 0.9,2.2 2.34,3.8 1.54,1.6 3.43,2.47 1.97,0.74 4.23,0.74 3.6,0 6.3,-1.46 2.72,-1.6 5.16,-3.58 z" />
      <path
         inkscape:connector-curvature="0"
         id="path84"
         d="m 365.34,146.96 v 44.48 h -20.3 V 146.96 H 331.42 V 126.4 h 47.45 v 20.56 z" />
      <path
         inkscape:connector-curvature="0"
         id="path86"
         d="M 412.7,191.44 H 391.95 V 126.4 h 20.74 z" />
      <path
         inkscape:connector-curvature="0"
         id="path88"
         d="m 468.32,166.06 v 22.43 q -2.88,2.45 -6.76,3.56 -3.8,1.23 -7.85,1.23 -6.67,0 -11.9,-2.6 -5.23,-2.7 -8.84,-7.26 -3.6,-4.56 -5.5,-10.6 -1.9,-6.16 -1.9,-13.06 0,-8.38 2.35,-14.9 2.36,-6.67 6.23,-11.1 3.97,-4.56 9.03,-6.9 5.14,-2.34 10.73,-2.34 4.68,0 8.56,1.48 3.88,1.47 5.86,3.2 v 21.56 h -0.72 q -1.9,-1.48 -4.96,-2.83 -3.07,-1.36 -6.68,-1.23 -2.07,0 -4.05,0.74 -1.9,0.74 -3.42,2.2 -1.45,1.5 -2.35,3.83 -0.8,2.2 -0.8,5.42 0,2.95 0.8,5.17 0.9,2.2 2.35,3.8 1.53,1.6 3.43,2.47 2,0.74 4.25,0.74 3.6,0 6.3,-1.46 2.72,-1.6 5.15,-3.58 z" />
      <path
         inkscape:connector-curvature="0"
         id="path90"
         d="m 515.4,183.44 h -14.88 l -2.35,8 H 478.5 L 498,126.4 h 19.84 l 19.66,65.04 h -19.66 z m -11.64,-15.65 h 8.3 l -3.88,-15.3 h -0.54 z" />
      <path
         inkscape:connector-curvature="0"
         id="path92"
         d="M 568.7,170.87 H 586 v 20.57 H 548.4 V 126.4 h 20.3 z" />
    </g>
    <g
       transform="translate(0,-72.361004)"
       id="g102"
       word-spacing="0"
       letter-spacing="3.538"
       font-size="105.428"
       font-weight="800"
       style="font-weight:800;font-size:105.4280014px;line-height:125%;font-family:'Concourse C8';-inkscape-font-specification:'Concourse C8, Ultra-Bold';font-variant-ligatures:normal;font-variant-caps:normal;font-variant-numeric:normal;font-feature-settings:normal;text-align:start;letter-spacing:3.53800011;word-spacing:0;fill:#ffffff">
      <path
         inkscape:connector-curvature="0"
         id="path96"
         d="m 470.25,166.1 v 22.4 q -2.9,2.48 -6.77,3.58 -3.78,1.24 -7.84,1.24 -6.68,0 -11.9,-2.6 -5.24,-2.7 -8.85,-7.26 -3.62,-4.56 -5.5,-10.6 -1.9,-6.16 -1.9,-13.06 0,-8.38 2.34,-14.9 2.34,-6.66 6.22,-11.1 3.97,-4.56 9.02,-6.9 5.14,-2.34 10.74,-2.34 4.7,0 8.57,1.48 3.87,1.48 5.85,3.2 v 21.57 h -0.72 q -1.9,-1.47 -4.96,-2.83 -3.07,-1.35 -6.68,-1.23 -2.08,0 -4.07,0.74 -1.9,0.74 -3.43,2.22 -1.44,1.48 -2.34,3.82 -0.8,2.22 -0.8,5.42 0,2.96 0.8,5.17 0.9,2.23 2.34,3.83 1.54,1.6 3.43,2.47 2,0.74 4.24,0.74 3.6,0 6.32,-1.48 2.7,-1.6 5.13,-3.57 z" />
      <path
         inkscape:connector-curvature="0"
         id="path98"
         d="m 517.33,183.46 h -14.9 l -2.33,8 h -19.67 l 19.5,-65.05 h 19.83 l 19.67,65.07 H 519.76 Z M 505.7,167.8 h 8.3 l -3.9,-15.27 h -0.53 z" />
      <path
         inkscape:connector-curvature="0"
         id="path100"
         d="m 570.62,170.9 h 17.32 v 20.57 H 550.32 V 126.4 h 20.3 z" />
    </g>
    <g
       transform="translate(0,-72.361004)"
       id="g116"
       word-spacing="0"
       letter-spacing="3.538"
       font-size="105.428"
       font-weight="800"
       style="font-weight:800;font-size:105.4280014px;line-height:125%;font-family:'Concourse C8';-inkscape-font-specification:'Concourse C8, Ultra-Bold';font-variant-ligatures:normal;font-variant-caps:normal;font-variant-numeric:normal;font-feature-settings:normal;text-align:start;letter-spacing:3.53800011;word-spacing:0;fill:#1f2d41">
      <path
         inkscape:connector-curvature="0"
         id="path104"
         d="m 608.12,159.9 q 4.78,4.68 9.93,7.4 5.23,2.58 10.2,2.58 2.6,0 3.6,-0.74 1.08,-0.74 1.08,-2.1 0,-1.1 -1,-1.96 -0.9,-0.87 -2.52,-1.6 -5.04,-2.35 -9.55,-5.06 -4.42,-2.7 -7.76,-6.28 -3.35,-3.7 -5.24,-8.5 -1.9,-4.93 -1.9,-11.83 0,-5.4 1.36,-10.1 1.44,-4.8 4.24,-8.25 2.9,-3.58 7.13,-5.55 4.3,-2.1 10.18,-2.1 7.03,0 13,2.6 5.94,2.46 10.8,6.65 l -5.5,22.06 q -2.06,-1.84 -4.32,-3.32 -2.25,-1.48 -4.5,-2.47 -2.27,-1.1 -4.34,-1.6 -2.07,-0.48 -3.6,-0.48 -1.8,0 -3.08,0.5 -1.17,0.5 -1.17,2.2 0,1.37 1.8,2.84 1.9,1.36 5.24,2.96 5.5,2.6 9.4,5.55 3.96,2.83 6.48,6.4 2.53,3.58 3.6,8.14 1.2,4.44 1.2,10.36 0,7.14 -2.45,11.95 -2.44,4.8 -6.22,7.77 -3.7,2.96 -8.2,4.2 -4.5,1.22 -8.66,1.22 -3.97,0 -7.76,-1 -3.7,-0.86 -7.04,-2.33 -3.24,-1.6 -6.04,-3.7 -2.7,-2.1 -4.6,-4.44 z" />
      <path
         inkscape:connector-curvature="0"
         id="path106"
         d="M 707.23,144.87 H 686.4 v 6.28 h 17.68 v 15.53 H 686.4 v 6.28 h 21.3 v 18.48 H 666.55 V 126.4 h 40.68 z" />
      <path
         inkscape:connector-curvature="0"
         id="path108"
         d="m 774.86,190.83 v 0.6 H 753.3 l -10.83,-21.92 h -0.72 v 21.94 H 721.9 V 126.4 h 26.7 q 4.7,0 8.58,1.6 3.97,1.6 6.76,4.55 2.8,2.83 4.33,6.9 1.63,4.06 1.63,9.1 0,6.8 -2.35,11.1 -2.25,4.32 -6.3,6.4 z M 750.5,149.8 q 0,-2.84 -1.26,-4.2 -1.26,-1.35 -2.62,-1.35 h -4.87 v 11.34 h 4.96 q 1.73,0 2.72,-1.5 1.08,-1.47 1.08,-4.3 z" />
      <path
         inkscape:connector-curvature="0"
         id="path110"
         d="M 805.68,191.44 H 784.93 V 126.4 h 20.75 z" />
      <path
         inkscape:connector-curvature="0"
         id="path112"
         d="m 861.5,144.87 h -20.84 v 6.28 h 17.68 v 15.53 h -17.68 v 6.28 h 21.28 v 18.48 H 820.8 V 126.4 h 40.7 z" />
      <path
         inkscape:connector-curvature="0"
         id="path114"
         d="m 877.45,166.2 q 1.7,1.46 3.8,2.82 2.06,1.23 4.23,2.34 2.25,1 4.6,1.6 2.34,0.62 4.6,0.62 2.07,0 2.88,-0.5 0.82,-0.6 0.82,-1.72 0,-1.36 -1.63,-1.97 -1.53,-0.63 -5.4,-2.35 -8.85,-4.07 -12.55,-9.24 -3.7,-5.3 -3.7,-12.7 0,-4.17 1.45,-7.87 1.44,-3.7 4.15,-6.53 2.8,-2.84 6.67,-4.44 3.97,-1.72 9.02,-1.72 6.5,0 12.17,2.1 5.68,2.1 9.74,5.66 l -5.4,18 q -8.3,-6.17 -14.97,-6.17 -1.8,0 -2.53,0.5 -0.72,0.48 -0.72,1.1 0,1.1 1.35,2.1 1.44,0.86 4.96,2.34 5.4,2.46 8.74,5.05 3.43,2.46 5.32,5.3 1.9,2.83 2.53,6.16 0.62,3.2 0.62,6.9 0,4.8 -1.8,8.5 -1.8,3.7 -4.87,6.28 -2.98,2.47 -7.04,3.7 -4.05,1.23 -8.56,1.23 -3.88,0 -7.5,-0.75 -3.6,-0.74 -6.66,-1.97 -3.07,-1.23 -5.5,-2.7 -2.44,-1.5 -3.88,-2.97 z" />
    </g>
    <g
       transform="translate(0,-72.361004)"
       id="g124"
       word-spacing="0"
       letter-spacing="0"
       font-size="245.945"
       font-weight="bold"
       style="font-weight:bold;font-size:245.94500732px;line-height:125%;font-family:'Concourse C7';-inkscape-font-specification:'Concourse C7, Bold';font-variant-ligatures:normal;font-variant-caps:normal;font-variant-numeric:normal;font-feature-settings:normal;text-align:start;letter-spacing:0;word-spacing:0;fill:#1f2d41">
      <path
         inkscape:connector-curvature="0"
         id="path118"
         d="m 566.15,772.04 q 0,13.36 -3.62,23.6 -3.4,9.94 -9.58,16.47 -5.96,6.55 -14.26,9.96 -8.1,3.13 -17.25,3.13 h -13.2 v 40.62 H 468.87 V 718.05 h 52.36 q 9.8,0 18.1,3.7 8.3,3.7 14.25,10.8 5.95,6.8 9.14,17.04 3.4,9.94 3.4,22.44 z m -37.9,1.42 q 0,-7.95 -3.18,-11.65 -3.2,-3.97 -7.02,-3.97 h -9.8 v 30.4 h 10 q 4.48,0 7.24,-3.97 2.76,-4.26 2.76,-10.8 z" />
      <path
         inkscape:connector-curvature="0"
         id="path120"
         d="m 655.98,847.35 h -35.76 l -5.1,18.47 h -42.16 l 48.1,-147.77 h 34.07 l 48.53,147.77 H 661.5 Z m -28.95,-36.1 h 21.5 l -10,-36.65 h -0.86 z" />
      <path
         inkscape:connector-curvature="0"
         id="path122"
         d="M 763.93,823.2 H 808 v 42.62 H 724.55 V 718.05 h 39.38 z" />
    </g>
    <g
       transform="translate(1234.7685,-246.22623)"
       id="g2598">
      <rect
         transform="matrix(0.70605603,0.70815598,-0.70605603,0.70815598,0,0)"
         rx="15.489941"
         style="fill:#4c6c9c;fill-opacity:1;stroke:none;stroke-width:30.05306244;stroke-miterlimit:4;stroke-dasharray:none"
         id="rect7773-4-9-3-6-6-0-0-84-7-7-8-0-0"
         width="147.57478"
         height="147.57478"
         x="132.12027"
         y="715.47064"
         ry="15.489941" />
      <g
         style="fill:#ffffff;stroke-width:1.24847484"
         id="g26"
         transform="matrix(1.0679694,0,0,-1.06797,-411.87805,641.83258)">
        <path
           inkscape:connector-curvature="0"
           d="m 42.760497,-18.395281 c -22.931698,24.2107209 -61.155034,25.2520035 -85.370138,2.31618 -19.370341,-18.347009 -23.905901,-46.475476 -13.203279,-69.386732 1.669537,-2.575547 3.788414,-2.094728 4.946424,-0.997896 1.044749,0.989556 4.460666,4.302142 8.106307,7.790996 -14.205007,9.685148 -8.817699,19.670599 -8.817699,19.670599 3.1779,6.79363 1.804335,10.944234 1.804335,10.944234 -1.046598,6.555268 2.949244,2.224585 2.949244,2.224585 3.860738,-4.695556 1.846973,-11.000856 1.846973,-11.000856 -2.998149,-10.258237 4.950526,-14.769024 8.440489,-16.209829 3.206353,2.289053 6.216723,2.98619 8.499173,2.769351 -8.11579,10.787542 -14.051841,24.585918 2.747646,40.49789 4.785956,4.533114 10.319988,6.525584 16.0468123,6.629106 0.6731152,1.501161 3.7109476,7.225516 12.0055758,10.564188 0,0 4.6647816,-2.566269 6.9273625,-16.316617 4.2839224,-2.577156 8.3235834,-5.86637 11.8701254,-9.575821 3.511692,-3.742459 6.579778,-7.957428 8.927048,-12.381321 13.598504,-2.995394 15.903247,-7.787379 15.903247,-7.787379 -3.778706,-8.106471 -9.659361,-10.829443 -11.194814,-11.42017 -0.407704,-5.719317 -2.709005,-11.124825 -7.49496,-15.657939 -16.840144,-15.950478 -30.2619266,-9.20518 -40.594418,-0.470401 0.12892,-2.86126 -1.21202,-6.789669 -5.302443,-10.663996 -5.86628,-5.556361 -10.635069,-9.978181 -12.079132,-11.345951 -1.167448,-1.10578 -1.787018,-3.18843 0.747744,-5.00369 22.2955192,-11.91428 50.607615,-8.90013 69.972148,9.44138 24.215104,22.935824 25.250677,61.156464 2.316229,85.370089"
           style="fill:#ffffff;fill-opacity:1;fill-rule:evenodd;stroke:none;stroke-width:1.24847484"
           id="path28-9" />
      </g>
    </g>
  </g>
  <rect
     style="fill:#ffffff;fill-opacity:0.69019608;stroke:none;stroke-width:8;stroke-linecap:round;stroke-linejoin:miter;stroke-miterlimit:4;stroke-dasharray:none;stroke-opacity:1"
     id="rect1056"
     width="980"
     height="980.00006"
     x="0"
     y="-3.0517578e-05" />
  <text
     xml:space="preserve"
     style="font-style:normal;font-variant:normal;font-weight:normal;font-stretch:normal;font-size:53.33333206px;line-height:1.25;font-family:'Concourse C8';-inkscape-font-specification:'Concourse C8';font-variant-ligatures:normal;font-variant-caps:normal;font-variant-numeric:normal;font-feature-settings:ss02;text-align:start;letter-spacing:0px;word-spacing:0px;writing-mode:lr-tb;text-anchor:start;fill:#000000;fill-opacity:1;stroke:none;"
     x="-720.85944"
     y="-223.14519"
     id="text992"><tspan
       sodipodi:role="line"
       id="tspan990"
       x="-720.85944"
       y="-176.79852" /></text>
  <text
     xml:space="preserve"
     style="font-style:normal;font-variant:normal;font-weight:normal;font-stretch:normal;font-size:53.33333206px;line-height:1.25;font-family:'Equity Caps A';-inkscape-font-specification:'Equity Caps A';font-variant-ligatures:normal;font-variant-caps:normal;font-variant-numeric:normal;font-feature-settings:ss02;text-align:start;letter-spacing:0px;word-spacing:0px;writing-mode:lr-tb;text-anchor:start;fill:#000000;fill-opacity:1;stroke:none"
     x="-751.69043"
     y="-240.76292"
     id="text996"><tspan
       sodipodi:role="line"
       id="tspan994"
       x="-751.69043"
       y="-194.41626" /></text>
  <g
     id="g1054"
     transform="matrix(2.0360454,0,0,2.0360454,1862.221,868.24911)"
     style="stroke-width:0.49114817">
    <path
       id="path954"
       d="m -671.07617,-408.71484 -10.07227,11.76562 a 211.42662,211.42662 0 0 0 -15.89453,1.26172 l -11.77148,-10.29883 a 223.08301,223.08299 0 0 0 -59.31836,18.25391 l -3.91992,14.78711 a 211.42662,211.42662 0 0 0 -13.96289,8.00781 l -14.74219,-4.07812 a 223.08301,223.08299 0 0 0 -45.70313,41.99218 l 2.94727,15.35742 a 211.42662,211.42662 0 0 0 -8.96289,13.0586 l -15.35742,2.77539 a 223.08301,223.08299 0 0 0 -22.73243,57.77148 l 9.0918,12.25196 a 211.42662,211.42662 0 0 0 -2.40625,15.91992 l -12.41016,9.0039 a 223.08301,223.08299 0 0 0 -0.75586,15.10743 223.08301,223.08299 0 0 0 5.25782,46.88086 l 13.52734,7.10546 a 211.42662,211.42662 0 0 0 4.7832,15.23243 l -7.43359,13.79101 a 223.08301,223.08299 0 0 0 30.82031,53.732424 l 15.66407,0.544922 a 211.42662,211.42662 0 0 0 10.73046,11.818359 l -0.69531,15.263672 a 223.08301,223.08299 0 0 0 51.26367,35.167969 l 14.01758,-6.1601566 a 211.42662,211.42662 0 0 0 14.86524,5.7578126 l 6.16406,14.447266 a 223.08301,223.08299 0 0 0 61.23047,9.357421 l 10.07422,-11.767578 a 211.42662,211.42662 0 0 0 15.89453,-1.261719 l 11.77343,10.298829 a 223.08301,223.08299 0 0 0 59.31641,-18.253907 l 3.91992,-14.7851559 a 211.42662,211.42662 0 0 0 13.96485,-8.0097656 l 14.74023,4.078125 a 223.08301,223.08299 0 0 0 45.70313,-41.9902345 l -2.94727,-15.359375 a 211.42662,211.42662 0 0 0 8.96289,-13.058594 l 15.35742,-2.77539 a 223.08301,223.08299 0 0 0 22.73047,-57.773434 l -9.08984,-12.25 a 211.42662,211.42662 0 0 0 2.40429,-15.91797 l 12.41016,-9.00391 a 223.08301,223.08299 0 0 0 0.75586,-15.10937 223.08301,223.08299 0 0 0 -5.25781,-46.88282 l -13.52344,-7.10156 a 211.42662,211.42662 0 0 0 -4.78516,-15.23242 l 7.4336,-13.79102 a 223.08301,223.08299 0 0 0 -30.82422,-53.73242 l -15.6582,-0.54492 a 211.42662,211.42662 0 0 0 -10.73243,-11.82031 l 0.69532,-15.25781 a 223.08301,223.08299 0 0 0 -51.26758,-35.17188 l -14.01367,6.1582 a 211.42662,211.42662 0 0 0 -14.86524,-5.75781 l -6.16211,-14.44336 a 223.08301,223.08299 0 0 0 -61.23437,-9.35937 z m -2.88867,23.44531 a 199.493,199.49301 0 0 1 199.49414,199.49219 199.493,199.49301 0 0 1 -199.49414,199.494137 199.493,199.49301 0 0 1 -199.49219,-199.492187 199.493,199.49301 0 0 1 199.49219,-199.49414 z"
       style="fill:#e60d18;fill-opacity:1;stroke:none;stroke-width:1.9645927;stroke-linecap:round;stroke-linejoin:miter;stroke-miterlimit:4;stroke-dasharray:none;stroke-opacity:1"
       inkscape:connector-curvature="0" />
    <circle
       r="185"
       cy="-185.77637"
       cx="-673.96387"
       id="path988"
       style="fill:none;fill-opacity:1;stroke:#e50d18;stroke-width:3.92918539;stroke-linecap:round;stroke-linejoin:miter;stroke-miterlimit:4;stroke-dasharray:none;stroke-opacity:1" />
    <g
       transform="translate(-0.73412677,4.2236345)"
       id="g1042"
       style="stroke-width:0.49114817">
      <g
         id="g1014"
         transform="translate(0,-2.7021526)"
         style="stroke-width:0.49114817">
        <text
           id="text1004"
           y="-181.64459"
           x="-824.62952"
           style="font-style:normal;font-variant:normal;font-weight:800;font-stretch:normal;font-size:88.67763519px;line-height:1.25;font-family:'Concourse C8';-inkscape-font-specification:'Concourse C8, Ultra-Bold';font-variant-ligatures:normal;font-variant-caps:normal;font-variant-numeric:normal;font-feature-settings:ss02;text-align:start;letter-spacing:0px;word-spacing:0px;writing-mode:lr-tb;text-anchor:start;fill:#e60d18;fill-opacity:1;stroke:none;stroke-width:0.49114817"
           xml:space="preserve"><tspan
             style="fill:#e60d18;fill-opacity:1;stroke-width:0.49114817"
             y="-181.64459"
             x="-824.62952"
             id="tspan1002"
             sodipodi:role="line">WORK</tspan></text>
        <text
           id="text1008"
           y="-132.01541"
           x="-826.35236"
           style="font-style:normal;font-variant:normal;font-weight:800;font-stretch:normal;font-size:46.3483429px;line-height:1.25;font-family:'Concourse C8';-inkscape-font-specification:'Concourse C8, Ultra-Bold';font-variant-ligatures:normal;font-variant-caps:normal;font-variant-numeric:normal;font-feature-settings:ss02;text-align:start;letter-spacing:0px;word-spacing:0px;writing-mode:lr-tb;text-anchor:start;fill:#e60d18;fill-opacity:1;stroke:none;stroke-width:0.49114814"
           xml:space="preserve"><tspan
             style="fill:#e60d18;fill-opacity:1;stroke-width:0.49114814"
             y="-132.01541"
             x="-826.35236"
             id="tspan1006"
             sodipodi:role="line">In Progress</tspan></text>
      </g>
      <path
         style="fill:#000000;fill-opacity:0;stroke:#e50d18;stroke-width:3.92918539;stroke-linecap:butt;stroke-linejoin:miter;stroke-miterlimit:4;stroke-dasharray:none;stroke-opacity:1"
         d="m -798.22974,-270 c 250,0 250,0 250,0"
         id="path1018"
         inkscape:connector-curvature="0" />
      <path
         style="fill:#000000;fill-opacity:0;stroke:#e50d18;stroke-width:3.92918539;stroke-linecap:butt;stroke-linejoin:miter;stroke-miterlimit:4;stroke-dasharray:none;stroke-opacity:1"
         d="m -798.22974,-110 c 250,0 250,0 250,0"
         id="path1018-8"
         inkscape:connector-curvature="0" />
    </g>
  </g>
</svg>
