<?xml version="1.0" encoding="UTF-8" standalone="no"?>
<!-- Created with Inkscape (http://www.inkscape.org/) -->

<svg
   width="5080"
   height="982"
   id="svg2"
   version="1.1"
   inkscape:version="1.2.2 (732a01da63, 2022-12-09)"
   sodipodi:docname="pal-logo-github-wiki5.svg"
   xml:space="preserve"
   xmlns:inkscape="http://www.inkscape.org/namespaces/inkscape"
   xmlns:sodipodi="http://sodipodi.sourceforge.net/DTD/sodipodi-0.dtd"
   xmlns="http://www.w3.org/2000/svg"
   xmlns:svg="http://www.w3.org/2000/svg"
   xmlns:rdf="http://www.w3.org/1999/02/22-rdf-syntax-ns#"
   xmlns:cc="http://creativecommons.org/ns#"
   xmlns:dc="http://purl.org/dc/elements/1.1/"><sodipodi:namedview
     id="base"
     pagecolor="#ffffff"
     bordercolor="#666666"
     borderopacity="1.0"
     inkscape:pageopacity="0.0"
     inkscape:pageshadow="2"
     inkscape:zoom="0.32"
     inkscape:cx="-1001.5625"
     inkscape:cy="637.5"
     inkscape:document-units="px"
     inkscape:current-layer="g888"
     showgrid="true"
     gridtolerance="10000"
     inkscape:window-width="2560"
     inkscape:window-height="1369"
     inkscape:window-x="-5"
     inkscape:window-y="1432"
     inkscape:window-maximized="1"
     guidetolerance="10000"
     inkscape:snap-global="true"
     inkscape:snap-bbox="true"
     inkscape:snap-bbox-edge-midpoints="true"
     inkscape:bbox-nodes="false"
     inkscape:snap-grids="true"
     inkscape:snap-to-guides="true"
     showguides="false"
     inkscape:guide-bbox="true"
     inkscape:snap-path-clip="true"
     inkscape:snap-path-mask="true"
     objecttolerance="50"
     showborder="false"
     inkscape:showpageshadow="2"
     inkscape:pagecheckerboard="0"
     inkscape:deskcolor="#d1d1d1"><inkscape:grid
       type="xygrid"
       id="grid2985"
       empspacing="5"
       visible="true"
       enabled="true"
       snapvisiblegridlinesonly="true"
       empcolor="#c0504d"
       empopacity="0.19607843"
       color="#8db3e2"
       opacity="0.15686275"
       dotted="false"
       originx="0"
       originy="0" /><sodipodi:guide
       position="-929.07276,8484.8816"
       orientation="1,0"
       id="guide7491"
       inkscape:locked="false" /></sodipodi:namedview><defs
     id="defs4">
		
	</defs><metadata
     id="metadata7"><rdf:RDF><cc:Work
         rdf:about=""><dc:format>image/svg+xml</dc:format><dc:type
           rdf:resource="http://purl.org/dc/dcmitype/StillImage" /></cc:Work></rdf:RDF></metadata><g
     inkscape:label="Layer 1"
     inkscape:groupmode="layer"
     id="layer1"
     transform="translate(0,-170.36217)"><g
       id="g888"
       transform="translate(-2.3671761,100.51469)"><rect
         style="fill:#ffffff;fill-opacity:1;stroke-width:9.99994;stroke-linejoin:round;paint-order:fill markers stroke"
         id="rect1724"
         width="5080"
         height="982"
         x="2.3671761"
         y="69.847481"
         rx="80.000008"
         ry="79.999985" /><ellipse
         ry="136.49165"
         rx="135.95767"
         cy="530.0304"
         cx="272.22995"
         id="path7015-3-5-6-6-9-1-5-8-0-6-8-4"
         style="fill:#1f2d41;fill-opacity:1;stroke:none;stroke-width:1;stroke-miterlimit:4;stroke-dasharray:none" /><ellipse
         ry="90.994438"
         rx="90.638451"
         cy="208.92105"
         cx="559.25165"
         id="path7015-2-2-2-5-6-0-8-6-2-4-27-2-8"
         style="fill:#1f2d41;fill-opacity:1;stroke:none;stroke-width:1;stroke-miterlimit:4;stroke-dasharray:none" /><path
         sodipodi:nodetypes="cccssccsccsssss"
         inkscape:connector-curvature="0"
         id="path11296-5-0-9-6-8-1-9-6-1-04-8-7-0"
         d="m 228.69163,680.78506 c -12.4,0.2737 -17.1566,8.4472 -19.7898,12.4288 L 58.945131,952.37816 c -15.1064,27.2983 6.0426,47.5193 26.1845,47.5193 H 459.76853 c 20.1419,0 41.2909,-20.221 25.1774,-47.5193 l -148.8886,-258.8978 c -3.1819,-5.9979 -10.0889,-15.543 -27.5122,-11.4059 -22.216,5.2752 -50.4146,5.2752 -72.143,-0.5529 -2.8556,-0.5679 -5.4142,-0.7872 -7.7105,-0.7365 z m 43.5371,51.1981 c 16.7847,0 33.5702,29.7746 67.8176,89.3259 68.495,119.1025 69.1743,117.9233 -67.8156,117.9233 -136.9898,2e-4 -136.3125,1.1793 -67.8175,-117.9233 34.2474,-59.5513 51.0309,-89.3259 67.8155,-89.3259 z"
         style="fill:#1f2d41;fill-opacity:1;fill-rule:evenodd;stroke:none;stroke-width:1px;stroke-linecap:butt;stroke-linejoin:miter;stroke-opacity:1" /><path
         id="path11315-3-8-6-3-1-0-9-4-3-99-7-7-2"
         d="m 455.82173,247.38136 -160.297,128.4744 a 155.52334,156.13415 0 0 1 127.3129,115.7691 c 0.2377,0.4261 0.4714,0.834 0.71,1.2638 l 111.5396,-175.9443 a 110.3714,110.80488 0 0 1 -79.2655,-69.563 z"
         style="fill:#1f2d41;fill-opacity:1;fill-rule:evenodd;stroke:none;stroke-width:1px;stroke-linecap:butt;stroke-linejoin:miter;stroke-opacity:1"
         inkscape:connector-curvature="0" /><path
         id="path11339-0-3-6-8-0-0-1-2-3-9-39-6-0"
         d="m 654.08943,265.35526 a 110.3714,110.80488 0 0 1 -49.562,44.4664 l 48.3621,54.0319 -16.9336,117.2225 c -0.098,9.1228 4.7484,13.8383 9.7169,18.418 7.1686,6.4383 9.9863,8.1333 17.2071,11.6626 l 90.5459,40.6533 c 5.3513,1.4405 7.5215,0.8405 10.1065,-2.3223 6.5562,-7.802 5.2857,-10.7346 1.5086,-14.9544 l -44.133,-41.7433 c -2.9543,-3.3005 -6.565,-6.9141 -10.0966,-11.2795 -2.878,-4.7283 -4.3991,-10.0683 -2.6062,-18.0389 l 12.4471,-52.7208 c 0.9592,-3.3981 1.9369,-8.3569 7.1223,-13.2206 5.3019,-4.5971 8.1456,-4.444 14.1722,-5.2745 l 53.1537,-7.1721 c 8.0347,-0.4518 13.2123,1.1452 17.5886,4.522 4.5262,3.5441 7.1259,7.7469 10.0965,11.2815 l 36.6409,48.5007 c 3.7771,4.22 6.7792,5.8902 14.2233,0.7624 3.4078,-2.2434 5.761,-6.2829 4.1247,-10.5174 l -30.618,-94.7148 c -3.4751,-6.9081 -4.4335,-9.5314 -9.7169,-18.4199 -4.1484,-7.6602 -7.5131,-11.4191 -17.2071,-11.6607 l -117.9027,4.4154 z"
         style="fill:#1f2d41;fill-opacity:1;fill-rule:evenodd;stroke:none;stroke-width:1px;stroke-linecap:butt;stroke-linejoin:miter;stroke-opacity:1"
         inkscape:connector-curvature="0" /><path
         inkscape:connector-curvature="0"
         id="path8474-0-7-9-0-6-7-1-8-7-7-5-4-3-8-0"
         d="m 358.07733,688.36256 v 0.5589 l 35.1461,61.1151 h 488.5427 v 0.067 a 90.551761,90.907403 0 0 1 90.552,90.9075 90.551761,90.907403 0 0 1 -90.552,90.9095 v 60.7617 a 151.56769,152.16299 0 0 0 0.4839,0.01 151.56769,152.16299 0 0 0 21.1628,-1.6527 l 5.0178,-21.242 a 131.53458,132.05116 0 0 0 18.6351,-5.241 l 15.2836,15.468 a 151.56769,152.16299 0 0 0 33.2241,-19.6602 l -6.2766,-21.0543 a 131.53458,132.05116 0 0 0 13.6509,-13.8349 l 20.82237,5.6932 a 151.56769,152.16299 0 0 0 18.94,-33.7418 l -15.8421,-15.0098 a 131.53458,132.05116 0 0 0 4.774,-18.8387 l 21.0761,-5.5766 a 151.56769,152.16299 0 0 0 1.0996,-17.4721 151.56769,152.16299 0 0 0 -1.6464,-21.2459 l -21.1588,-5.0374 a 131.53458,132.05116 0 0 0 -5.2203,-18.7104 l 15.4073,-15.3435 a 151.56769,152.16299 0 0 0 -19.5833,-33.3508 l -20.97187,6.3013 a 131.53458,132.05116 0 0 0 -13.7806,-13.7064 l 5.6707,-20.9042 a 151.56769,152.16299 0 0 0 -33.6097,-19.0165 l -14.951,15.9063 a 131.53458,132.05116 0 0 0 -18.7631,-4.7925 l -5.5548,-21.157 a 151.56769,152.16299 0 0 0 -17.4058,-1.1059 v 0 a 151.56769,152.16299 0 0 0 -0.4839,0.027 v -0.027 h -523.6888 z"
         style="fill:#1f2d41;fill-opacity:1;stroke:none;stroke-width:2.83358" /><path
         inkscape:connector-curvature="0"
         id="path8474-0-7-9-0-6-4-09-7-6-7-3-3-1-65-2-73"
         d="m 352.74413,688.36256 v 0.555 l 35.146,61.1151 h 262.4404 v -61.6701 z"
         style="fill:#1f2d41;fill-opacity:1;stroke:none;stroke-width:2.83358" /><g
         transform="matrix(1.0070939,0,0,1.0110493,-5995.1487,526.73926)"
         id="g2256-72-6-0-0-4-8-4-8"
         style="fill:#1f2d41;fill-opacity:1;stroke-width:0.991012"><path
           style="fill:#1f2d41;fill-opacity:1;stroke:none;stroke-width:2.80811"
           d="m 6529.6885,400.7529 v 0.54082 l 34.8984,59.55688 h 260.5918 v -60.0977 z"
           id="path8474-0-7-9-0-6-4-09-7-0-5-9-8-0-4-9-1-3"
           inkscape:connector-curvature="0" /><path
           style="fill:#1f2d41;fill-opacity:1;stroke:none;stroke-width:2.80811"
           d="m 6441.0026,400.75287 v 0.54082 l 34.8984,59.55688 h 260.5918 v -60.0977 z"
           id="path8474-0-7-9-0-6-4-09-7-0-9-68-8-6-4-3-3-0-2"
           inkscape:connector-curvature="0" /></g><g
         transform="matrix(1.0070939,0,0,1.0110493,-5989.5457,526.73916)"
         id="g2256-7-4-7-8-8-9-8-2-2"
         style="fill:#1f2d41;fill-opacity:1;stroke-width:0.991012"><path
           style="fill:#1f2d41;fill-opacity:1;stroke:none;stroke-width:2.80811"
           d="m 6529.6885,400.7529 v 0.54082 l 34.8984,59.55688 h 260.5918 v -60.0977 z"
           id="path8474-0-7-9-0-6-4-09-7-0-94-9-2-1-5-7-4-5-4"
           inkscape:connector-curvature="0" /><path
           style="fill:#1f2d41;fill-opacity:1;stroke:none;stroke-width:2.80811"
           d="m 6441.0026,400.75287 v 0.54082 l 34.8984,59.55688 h 260.5918 v -60.0977 z"
           id="path8474-0-7-9-0-6-4-09-7-0-9-6-9-5-8-4-2-2-5-8"
           inkscape:connector-curvature="0" /></g><text
         transform="scale(0.8654499,1.1554684)"
         id="text5347-2-7-7-0-2-1-4-1-3-01"
         y="792.07782"
         x="582.56775"
         style="font-style:normal;font-variant:normal;font-weight:bold;font-stretch:normal;font-size:247.133px;line-height:125%;font-family:'Concourse C7';-inkscape-font-specification:'Concourse C7, Bold';font-variant-ligatures:normal;font-variant-caps:normal;font-variant-numeric:normal;font-feature-settings:normal;text-align:start;letter-spacing:0px;word-spacing:0px;writing-mode:lr-tb;text-anchor:start;fill:#1f2d41;fill-opacity:1;stroke:none;stroke-width:1px;stroke-linecap:butt;stroke-linejoin:miter;stroke-opacity:1"
         xml:space="preserve"><tspan
           y="792.07782"
           x="582.56775"
           id="tspan1824-4"
           sodipodi:role="line">pal</tspan></text><g
         style="fill:#ffffff;stroke-width:1.24847"
         id="g26"
         transform="matrix(1.0679694,0,0,-1.06797,875.2461,508.57605)"><path
           inkscape:connector-curvature="0"
           d="m 42.760497,-18.395281 c -22.931698,24.2107209 -61.155034,25.2520035 -85.370138,2.31618 -19.370341,-18.347009 -23.905901,-46.475476 -13.203279,-69.386732 1.669537,-2.575547 3.788414,-2.094728 4.946424,-0.997896 1.044749,0.989556 4.460666,4.302142 8.106307,7.790996 -14.205007,9.685148 -8.817699,19.670599 -8.817699,19.670599 3.1779,6.79363 1.804335,10.944234 1.804335,10.944234 -1.046598,6.555268 2.949244,2.224585 2.949244,2.224585 3.860738,-4.695556 1.846973,-11.000856 1.846973,-11.000856 -2.998149,-10.258237 4.950526,-14.769024 8.440489,-16.209829 3.206353,2.289053 6.216723,2.98619 8.499173,2.769351 -8.11579,10.787542 -14.051841,24.585918 2.747646,40.49789 4.785956,4.533114 10.319988,6.525584 16.0468123,6.629106 0.6731152,1.501161 3.7109476,7.225516 12.0055758,10.564188 0,0 4.6647816,-2.566269 6.9273625,-16.316617 4.2839224,-2.577156 8.3235834,-5.86637 11.8701254,-9.575821 3.511692,-3.742459 6.579778,-7.957428 8.927048,-12.381321 13.598504,-2.995394 15.903247,-7.787379 15.903247,-7.787379 -3.778706,-8.106471 -9.659361,-10.829443 -11.194814,-11.42017 -0.407704,-5.719317 -2.709005,-11.124825 -7.49496,-15.657939 -16.840144,-15.950478 -30.2619266,-9.20518 -40.594418,-0.470401 0.12892,-2.86126 -1.21202,-6.789669 -5.302443,-10.663996 -5.86628,-5.556361 -10.635069,-9.978181 -12.079132,-11.345951 -1.167448,-1.10578 -1.787018,-3.18843 0.747744,-5.00369 22.2955192,-11.91428 50.607615,-8.90013 69.972148,9.44138 24.215104,22.935824 25.250677,61.156464 2.316229,85.370089"
           style="fill:#ffffff;fill-opacity:1;fill-rule:evenodd;stroke:none;stroke-width:1.24847"
           id="path28" /></g><text
         xml:space="preserve"
         style="font-style:normal;font-variant:normal;font-weight:normal;font-stretch:normal;font-size:219.757px;font-family:'Concourse C8';-inkscape-font-specification:'Concourse C8, Normal';font-variant-ligatures:normal;font-variant-caps:normal;font-variant-numeric:normal;font-variant-east-asian:normal;letter-spacing:-6.03416px;fill:#1f2d41;fill-opacity:1;stroke-width:10;stroke-linejoin:round;paint-order:fill markers stroke"
         x="1173.165"
         y="260.71115"
         id="text1401"
         transform="scale(0.91565448,1.092115)"><tspan
           sodipodi:role="line"
           id="tspan1403"
           x="1173.165"
           y="260.71115"
           style="stroke-width:10">Practical Series Automation Library</tspan></text><text
         xml:space="preserve"
         style="font-style:normal;font-variant:normal;font-weight:600;font-stretch:normal;font-size:220px;font-family:'Concourse T3';-inkscape-font-specification:'Concourse T3, Semi-Bold';font-variant-ligatures:normal;font-variant-caps:normal;font-variant-numeric:normal;font-variant-east-asian:normal;font-feature-settings:'ss02';fill:#1f2d41;fill-opacity:1;stroke-width:10;stroke-linejoin:round;paint-order:fill markers stroke"
         x="2066.3872"
         y="915.35205"
         id="text1452"><tspan
           sodipodi:role="line"
           id="tspan1450"
           x="2066.3872"
           y="915.35205">Project Documentation</tspan></text><path
         id="path10119"
         style="fill:#4c6c9c;stroke:#000000;stroke-width:0;stroke-linejoin:round;paint-order:fill markers stroke"
         d="m 894.95859,464.39676 c -12.74299,0.85979 -27.27699,2.59592 -28.13487,9.15837 l -5.74155,2.10508 c 5.70603,0.44528 11.321,2.63627 15.94244,6.69413 11.37033,9.98385 12.49856,27.35681 2.51372,38.72833 -5.0734,5.77798 -12.37985,9.17445 -20.0491,9.31452 l 20.51323,18.01168 c 1.30526,1.14608 1.43442,3.1359 0.28827,4.44116 l -17.78643,20.25644 c 7.22054,-0.45877 14.46205,1.99881 19.86288,6.74101 v 0 c 11.37033,9.98385 12.49836,27.35893 2.51226,38.72946 -9.98385,11.37033 -27.35893,12.49856 -38.72688,2.51438 -5.39963,-4.74121 -8.77401,-11.60074 -9.25294,-18.82214 l -17.78749,20.25789 c -1.14615,1.30527 -3.1359,1.43443 -4.44117,0.28827 l -18.45722,-16.20637 c -0.9127,-0.8014 -1.28186,-2.05727 -0.95079,-3.22598 0.33437,-1.17009 1.30705,-2.04166 2.5069,-2.24442 5.50889,-0.92514 10.38369,-3.64658 14.09197,-7.86984 8.81277,-10.03669 7.81416,-25.3676 -2.21896,-34.17725 -10.03312,-8.80966 -25.36541,-7.81204 -34.17507,2.22114 -3.62938,4.13339 -5.68831,9.18926 -5.96534,14.64134 0.0667,0.82071 -0.18735,1.66563 -0.77283,2.33252 -1.14615,1.30527 -3.1355,1.43436 -4.44077,0.28827 -0.009,-0.007 -0.0139,-0.0152 -0.0238,-0.0205 l -7.37741,-6.47787 A 110.0169,110.0169 0 0 0 866.82358,680.75356 110.0169,110.0169 0 0 0 976.8405,570.73666 110.0169,110.0169 0 0 0 894.95846,464.39662 Z m -55.37767,19.14764 -0.26143,0.0956 -0.0212,0.19483 c 0.0943,-0.0967 0.18716,-0.19542 0.28259,-0.29046 z" /></g></g></svg>
