<?xml version="1.0" encoding="UTF-8" standalone="no"?>
<!-- Created with Inkscape (http://www.inkscape.org/) -->

<svg
   width="261mm"
   height="261mm"
   viewBox="0 0 261 261"
   version="1.1"
   id="svg1930"
   sodipodi:docname="PAL Logo GitHub Dark.svg"
   inkscape:version="1.2.2 (732a01da63, 2022-12-09)"
   xmlns:inkscape="http://www.inkscape.org/namespaces/inkscape"
   xmlns:sodipodi="http://sodipodi.sourceforge.net/DTD/sodipodi-0.dtd"
   xmlns="http://www.w3.org/2000/svg"
   xmlns:svg="http://www.w3.org/2000/svg">
  <sodipodi:namedview
     id="namedview1932"
     pagecolor="#ffffff"
     bordercolor="#000000"
     borderopacity="0.25"
     inkscape:showpageshadow="2"
     inkscape:pageopacity="0.0"
     inkscape:pagecheckerboard="0"
     inkscape:deskcolor="#d1d1d1"
     inkscape:document-units="mm"
     showgrid="false"
     inkscape:zoom="0.914906"
     inkscape:cx="716.46704"
     inkscape:cy="706.08346"
     inkscape:window-width="2560"
     inkscape:window-height="1369"
     inkscape:window-x="2555"
     inkscape:window-y="1431"
     inkscape:window-maximized="1"
     inkscape:current-layer="layer1" />
  <defs
     id="defs1927" />
  <g
     inkscape:label="Layer 1"
     inkscape:groupmode="layer"
     id="layer1">
    <rect
       style="fill:#0d1117;fill-opacity:1;stroke:none;stroke-width:13.7584;stroke-linecap:round;stroke-linejoin:round"
       id="rect2236"
       width="261"
       height="261"
       x="-7.1054274e-15"
       y="5.3290705e-15" />
    <text
       transform="scale(0.85562004,1.1687431)"
       id="text5347-9-3-8-9-7-2-5-7-6"
       y="222.17955"
       x="-0.54661494"
       style="font-style:normal;font-variant:normal;font-weight:800;font-stretch:normal;font-size:27.0978px;line-height:125%;font-family:'Concourse C8';-inkscape-font-specification:'Concourse C8, Ultra-Bold';font-variant-ligatures:normal;font-variant-caps:normal;font-variant-numeric:normal;font-feature-settings:normal;text-align:start;letter-spacing:0px;word-spacing:0px;writing-mode:lr-tb;text-anchor:start;fill:#ffffff;fill-opacity:1;stroke:none;stroke-width:0.264583px;stroke-linecap:butt;stroke-linejoin:miter;stroke-opacity:1"
       xml:space="preserve"><tspan
         style="fill:#ffffff;stroke-width:0.264583px"
         y="222.17955"
         x="-0.54661494"
         id="tspan2051-43-9-5"
         sodipodi:role="line">Automation Library</tspan></text>
    <ellipse
       ry="36.113415"
       rx="35.972134"
       cy="109.88994"
       cx="59.268715"
       id="path7015-3-5-6-6-9-1-5-8-0-6-8"
       style="fill:#ffffff;fill-opacity:1;stroke:none;stroke-width:0.264583;stroke-miterlimit:4;stroke-dasharray:none" />
    <ellipse
       ry="24.075611"
       rx="23.981422"
       cy="24.929754"
       cx="135.20988"
       id="path7015-2-2-2-5-6-0-8-6-2-4-27-2"
       style="fill:#ffffff;fill-opacity:1;stroke:none;stroke-width:0.264583;stroke-miterlimit:4;stroke-dasharray:none" />
    <path
       sodipodi:nodetypes="cccssccsccsssss"
       inkscape:connector-curvature="0"
       id="path11296-5-0-9-6-8-1-9-6-1-04-8-7"
       d="m 47.749197,149.77712 c -3.280833,0.0724 -4.53935,2.23499 -5.236051,3.28845 L 2.8371032,221.63613 c -3.9969016,7.22267 1.5987712,12.57281 6.9279822,12.57281 H 108.88829 c 5.32921,0 10.92489,-5.35014 6.66152,-12.57281 L 76.156372,153.13608 c -0.841878,-1.58694 -2.669355,-4.11241 -7.27927,-3.01781 -5.877983,1.39573 -13.338862,1.39573 -19.087835,-0.14628 -0.755544,-0.15026 -1.432507,-0.20828 -2.04007,-0.19487 z m 11.519191,13.54616 c 4.440952,0 8.882116,7.87787 17.943407,23.63415 18.122635,31.51253 18.302366,31.20054 -17.942878,31.20054 -36.245217,5e-5 -36.066015,0.31202 -17.94338,-31.20054 9.061292,-15.75628 13.501926,-23.63415 17.942851,-23.63415 z"
       style="fill:#ffffff;fill-opacity:1;fill-rule:evenodd;stroke:none;stroke-width:0.264583px;stroke-linecap:butt;stroke-linejoin:miter;stroke-opacity:1" />
    <path
       id="path11315-3-8-6-3-1-0-9-4-3-99-7-7"
       d="M 107.84404,35.105726 65.432122,69.097911 a 41.148883,41.310493 0 0 1 33.684871,30.630574 c 0.06289,0.112739 0.124724,0.220662 0.187854,0.334375 L 128.81637,53.510936 a 29.202433,29.317124 0 0 1 -20.97233,-18.40521 z"
       style="fill:#ffffff;fill-opacity:1;fill-rule:evenodd;stroke:none;stroke-width:0.264583px;stroke-linecap:butt;stroke-linejoin:miter;stroke-opacity:1"
       inkscape:connector-curvature="0" />
    <path
       id="path11339-0-3-6-8-0-0-1-2-3-9-39-6"
       d="m 160.30236,39.86132 a 29.202433,29.317124 0 0 1 -13.11328,11.765069 l 12.79581,14.29594 -4.48035,31.015119 c -0.0259,2.413741 1.25635,3.661382 2.57093,4.873092 1.89669,1.70347 2.64221,2.15194 4.55271,3.08573 l 23.95694,10.75619 c 1.41586,0.38113 1.99006,0.22238 2.67401,-0.61444 1.73466,-2.06428 1.39851,-2.8402 0.39915,-3.95669 l -11.67685,-11.04458 c -0.78166,-0.873257 -1.73699,-1.829355 -2.6714,-2.984367 -0.76147,-1.251029 -1.16393,-2.663904 -0.68955,-4.772792 l 3.29329,-13.949045 c 0.25379,-0.899081 0.51247,-2.211097 1.88444,-3.49795 1.4028,-1.216317 2.15519,-1.175809 3.74973,-1.395545 l 14.06358,-1.897618 c 2.12585,-0.119539 3.49576,0.303 4.65365,1.196445 1.19756,0.93771 1.8854,2.049701 2.67137,2.984897 l 9.69457,12.832477 c 0.99936,1.116542 1.79366,1.558449 3.76325,0.201718 0.90165,-0.593566 1.52426,-1.66235 1.09133,-2.782728 l -8.10102,-25.059958 c -0.91945,-1.827768 -1.17303,-2.521849 -2.57093,-4.873598 -1.09759,-2.026761 -1.98784,-3.021304 -4.55271,-3.085227 L 173.06594,54.1217 Z"
       style="fill:#ffffff;fill-opacity:1;fill-rule:evenodd;stroke:none;stroke-width:0.264583px;stroke-linecap:butt;stroke-linejoin:miter;stroke-opacity:1"
       inkscape:connector-curvature="0" />
    <path
       inkscape:connector-curvature="0"
       id="path8474-0-7-9-0-6-7-1-8-7-7-5-4-3-8"
       d="m 81.982497,151.782 v 0.14788 l 9.299072,16.17003 H 220.54182 v 0.0177 a 23.958486,24.052583 0 0 1 23.95855,24.05261 23.958486,24.052583 0 0 1 -23.95855,24.05314 v 16.07653 a 40.102284,40.259791 0 0 0 0.12804,0.003 40.102284,40.259791 0 0 0 5.59932,-0.43728 l 1.32763,-5.62028 a 34.801857,34.938536 0 0 0 4.93053,-1.38668 l 4.04379,4.09257 a 40.102284,40.259791 0 0 0 8.79054,-5.20176 l -1.66068,-5.57061 a 34.801857,34.938536 0 0 0 3.6118,-3.66049 l 5.50926,1.50633 a 40.102284,40.259791 0 0 0 5.01121,-8.92752 l -4.19156,-3.97134 a 34.801857,34.938536 0 0 0 1.26312,-4.98441 l 5.57639,-1.47547 a 40.102284,40.259791 0 0 0 0.29093,-4.62283 40.102284,40.259791 0 0 0 -0.43561,-5.62131 l -5.59826,-1.33281 a 34.801857,34.938536 0 0 0 -1.38121,-4.95046 l 4.07652,-4.05964 a 40.102284,40.259791 0 0 0 -5.18142,-8.82406 l -5.54881,1.66721 a 34.801857,34.938536 0 0 0 -3.64612,-3.62648 l 1.50037,-5.5309 a 40.102284,40.259791 0 0 0 -8.89256,-5.03145 l -3.95579,4.20854 a 34.801857,34.938536 0 0 0 -4.9644,-1.26802 l -1.46971,-5.59779 a 40.102284,40.259791 0 0 0 -4.60528,-0.2926 v 0 a 40.102284,40.259791 0 0 0 -0.12804,0.007 v -0.007 H 81.982497 Z"
       style="fill:#ffffff;fill-opacity:1;stroke:none;stroke-width:0.749718" />
    <path
       inkscape:connector-curvature="0"
       id="path8474-0-7-9-0-6-4-09-7-6-7-3-3-1-65-2"
       d="m 80.571421,151.782 v 0.14684 l 9.299046,16.17004 H 159.30782 V 151.782 Z"
       style="fill:#ffffff;fill-opacity:1;stroke:none;stroke-width:0.749718" />
    <g
       transform="matrix(0.26646026,0,0,0.26750679,-1597.4928,109.01914)"
       id="g2256-7-4-7-8-8-9-8-2"
       style="fill:#ffffff;fill-opacity:1;stroke-width:0.991012">
      <path
         style="fill:#ffffff;fill-opacity:1;stroke:none;stroke-width:2.80811"
         d="m 6529.6885,400.7529 v 0.54082 l 34.8984,59.55688 h 260.5918 v -60.0977 z"
         id="path8474-0-7-9-0-6-4-09-7-0-94-9-2-1-5-7-4-5"
         inkscape:connector-curvature="0" />
      <path
         style="fill:#ffffff;fill-opacity:1;stroke:none;stroke-width:2.80811"
         d="m 6441.0026,400.75287 v 0.54082 l 34.8984,59.55688 h 260.5918 v -60.0977 z"
         id="path8474-0-7-9-0-6-4-09-7-0-9-6-9-5-8-4-2-2-5"
         inkscape:connector-curvature="0" />
    </g>
    <text
       xml:space="preserve"
       style="font-style:normal;font-variant:normal;font-weight:800;font-stretch:normal;font-size:28.0292px;line-height:125%;font-family:'Concourse C8';-inkscape-font-specification:'Concourse C8, Ultra-Bold';font-variant-ligatures:normal;font-variant-caps:normal;font-variant-numeric:normal;font-feature-settings:normal;text-align:start;letter-spacing:0.94075px;word-spacing:0px;writing-mode:lr-tb;text-anchor:start;fill:#ffffff;fill-opacity:1;stroke:none;stroke-width:0.264583px;stroke-linecap:butt;stroke-linejoin:miter;stroke-opacity:1"
       x="25.715412"
       y="27.819328"
       id="text5347-9-3-8-9-7-2-6-9-95-8-1"
       transform="scale(0.85562004,1.1687431)"><tspan
         id="tspan2098"
         sodipodi:role="line"
         x="25.715412"
         y="27.819328"
         style="stroke-width:0.264583px">Practical</tspan></text>
    <text
       xml:space="preserve"
       style="font-style:normal;font-variant:normal;font-weight:800;font-stretch:normal;font-size:28.0294px;line-height:125%;font-family:'Concourse C8';-inkscape-font-specification:'Concourse C8, Ultra-Bold';font-variant-ligatures:normal;font-variant-caps:normal;font-variant-numeric:normal;font-feature-settings:normal;text-align:start;letter-spacing:0.94075px;word-spacing:0px;writing-mode:lr-tb;text-anchor:start;fill:#0d1117;fill-opacity:1;stroke:none;stroke-width:0.264583px;stroke-linecap:butt;stroke-linejoin:miter;stroke-opacity:1"
       x="131.97714"
       y="27.82469"
       id="text5347-9-3-8-9-7-2-6-9-95-4-7-0"
       transform="scale(0.85562004,1.1687431)"><tspan
         y="27.82469"
         x="131.97714"
         id="tspan5887-4-0"
         sodipodi:role="line"
         style="fill:#0d1117;fill-opacity:1;stroke-width:0.264583px">cal</tspan></text>
    <text
       xml:space="preserve"
       style="font-style:normal;font-variant:normal;font-weight:800;font-stretch:normal;font-size:28.0292px;line-height:125%;font-family:'Concourse C8';-inkscape-font-specification:'Concourse C8, Ultra-Bold';font-variant-ligatures:normal;font-variant-caps:normal;font-variant-numeric:normal;font-feature-settings:normal;text-align:start;letter-spacing:0.94075px;word-spacing:0px;writing-mode:lr-tb;text-anchor:start;fill:#ffffff;fill-opacity:1;stroke:none;stroke-width:0.264583px;stroke-linecap:butt;stroke-linejoin:miter;stroke-opacity:1"
       x="186.11337"
       y="27.819328"
       id="text5347-9-3-8-9-7-2-6-9-95-8-1-4"
       transform="scale(0.85562004,1.1687431)"><tspan
         y="27.819328"
         x="186.11337"
         id="tspan2100"
         sodipodi:role="line"
         style="stroke-width:0.264583px">Series</tspan></text>
    <text
       transform="scale(0.8654499,1.1554684)"
       id="text5347-2-7-7-0-2-1-4-1-3"
       y="183.30658"
       x="139.39534"
       style="font-style:normal;font-variant:normal;font-weight:bold;font-stretch:normal;font-size:65.3873px;line-height:125%;font-family:'Concourse C7';-inkscape-font-specification:'Concourse C7, Bold';font-variant-ligatures:normal;font-variant-caps:normal;font-variant-numeric:normal;font-feature-settings:normal;text-align:start;letter-spacing:0px;word-spacing:0px;writing-mode:lr-tb;text-anchor:start;fill:#ffffff;fill-opacity:1;stroke:none;stroke-width:0.264583px;stroke-linecap:butt;stroke-linejoin:miter;stroke-opacity:1"
       xml:space="preserve"><tspan
         y="183.30658"
         x="139.39534"
         id="tspan1824"
         sodipodi:role="line"
         style="stroke-width:0.264583px">pal</tspan></text>
    <g
       transform="matrix(0.26458333,0,0,0.26458333,327.33897,-64.010827)"
       id="g2598">
      <rect
         transform="matrix(0.70605603,0.70815598,-0.70605603,0.70815598,0,0)"
         rx="15.489941"
         style="fill:#4c6c9c;fill-opacity:1;stroke:none;stroke-width:30.0531;stroke-miterlimit:4;stroke-dasharray:none"
         id="rect7773-4-9-3-6-6-0-0-84-7-7-8-0-0"
         width="147.57478"
         height="147.57478"
         x="132.12027"
         y="715.47064"
         ry="15.489941" />
      <g
         style="fill:#ffffff;stroke-width:1.24847"
         id="g26"
         transform="matrix(1.0679694,0,0,-1.06797,-411.87805,641.83258)">
        <path
           inkscape:connector-curvature="0"
           d="m 42.760497,-18.395281 c -22.931698,24.2107209 -61.155034,25.2520035 -85.370138,2.31618 -19.370341,-18.347009 -23.905901,-46.475476 -13.203279,-69.386732 1.669537,-2.575547 3.788414,-2.094728 4.946424,-0.997896 1.044749,0.989556 4.460666,4.302142 8.106307,7.790996 -14.205007,9.685148 -8.817699,19.670599 -8.817699,19.670599 3.1779,6.79363 1.804335,10.944234 1.804335,10.944234 -1.046598,6.555268 2.949244,2.224585 2.949244,2.224585 3.860738,-4.695556 1.846973,-11.000856 1.846973,-11.000856 -2.998149,-10.258237 4.950526,-14.769024 8.440489,-16.209829 3.206353,2.289053 6.216723,2.98619 8.499173,2.769351 -8.11579,10.787542 -14.051841,24.585918 2.747646,40.49789 4.785956,4.533114 10.319988,6.525584 16.0468123,6.629106 0.6731152,1.501161 3.7109476,7.225516 12.0055758,10.564188 0,0 4.6647816,-2.566269 6.9273625,-16.316617 4.2839224,-2.577156 8.3235834,-5.86637 11.8701254,-9.575821 3.511692,-3.742459 6.579778,-7.957428 8.927048,-12.381321 13.598504,-2.995394 15.903247,-7.787379 15.903247,-7.787379 -3.778706,-8.106471 -9.659361,-10.829443 -11.194814,-11.42017 -0.407704,-5.719317 -2.709005,-11.124825 -7.49496,-15.657939 -16.840144,-15.950478 -30.2619266,-9.20518 -40.594418,-0.470401 0.12892,-2.86126 -1.21202,-6.789669 -5.302443,-10.663996 -5.86628,-5.556361 -10.635069,-9.978181 -12.079132,-11.345951 -1.167448,-1.10578 -1.787018,-3.18843 0.747744,-5.00369 22.2955192,-11.91428 50.607615,-8.90013 69.972148,9.44138 24.215104,22.935824 25.250677,61.156464 2.316229,85.370089"
           style="fill:#ffffff;fill-opacity:1;fill-rule:evenodd;stroke:none;stroke-width:1.24847"
           id="path28" />
      </g>
    </g>
  </g>
</svg>
