<?xml version="1.0" encoding="UTF-8" standalone="no"?>
<!-- Created with Inkscape (http://www.inkscape.org/) -->

<svg
   xmlns:dc="http://purl.org/dc/elements/1.1/"
   xmlns:cc="http://creativecommons.org/ns#"
   xmlns:rdf="http://www.w3.org/1999/02/22-rdf-syntax-ns#"
   xmlns:svg="http://www.w3.org/2000/svg"
   xmlns="http://www.w3.org/2000/svg"
   xmlns:sodipodi="http://sodipodi.sourceforge.net/DTD/sodipodi-0.dtd"
   xmlns:inkscape="http://www.inkscape.org/namespaces/inkscape"
   width="985"
   height="985"
   id="svg2"
   version="1.1"
   inkscape:version="0.92.4 (5da689c313, 2019-01-14)"
   sodipodi:docname="pal-logo-web-wip.svg">
  <sodipodi:namedview
     id="base"
     pagecolor="#ffffff"
     bordercolor="#666666"
     borderopacity="1.0"
     inkscape:pageopacity="0.0"
     inkscape:pageshadow="2"
     inkscape:zoom="1.2326528"
     inkscape:cx="492.5"
     inkscape:cy="492.5"
     inkscape:document-units="px"
     inkscape:current-layer="layer1"
     showgrid="false"
     gridtolerance="10000"
     inkscape:window-width="2560"
     inkscape:window-height="1377"
     inkscape:window-x="-8"
     inkscape:window-y="-8"
     inkscape:window-maximized="1"
     guidetolerance="10000"
     inkscape:snap-global="true"
     inkscape:snap-bbox="true"
     inkscape:snap-bbox-edge-midpoints="true"
     inkscape:bbox-nodes="false"
     inkscape:snap-grids="true"
     inkscape:snap-to-guides="true"
     showguides="false"
     inkscape:guide-bbox="true"
     inkscape:snap-path-clip="true"
     inkscape:snap-path-mask="true"
     objecttolerance="50"
     showborder="false">
    <inkscape:grid
       type="xygrid"
       id="grid2985"
       empspacing="5"
       visible="true"
       enabled="true"
       snapvisiblegridlinesonly="true"
       empcolor="#c0504d"
       empopacity="0.19607843"
       color="#8db3e2"
       opacity="0.15686275"
       dotted="false" />
    <sodipodi:guide
       position="-929.07276,8384.8816"
       orientation="1,0"
       id="guide7491"
       inkscape:locked="false" />
  </sodipodi:namedview>
  <defs
     id="defs4" />
  <metadata
     id="metadata7">
    <rdf:RDF>
      <cc:Work
         rdf:about="">
        <dc:format>image/svg+xml</dc:format>
        <dc:type
           rdf:resource="http://purl.org/dc/dcmitype/StillImage" />
        <dc:title></dc:title>
      </cc:Work>
    </rdf:RDF>
  </metadata>
  <g
     inkscape:label="Layer 1"
     inkscape:groupmode="layer"
     id="layer1"
     transform="translate(0,-67.36217)">
    <g
       id="g977">
      <text
         transform="scale(0.85562003,1.1687431)"
         id="text5347-9-3-8-9-7-2-5-7-6-8"
         y="896.74695"
         x="-2.9172723"
         style="font-style:normal;font-variant:normal;font-weight:800;font-stretch:normal;font-size:102.41675568px;line-height:125%;font-family:'Concourse C8';-inkscape-font-specification:'Concourse C8, Ultra-Bold';font-variant-ligatures:normal;font-variant-caps:normal;font-variant-numeric:normal;font-feature-settings:normal;text-align:start;letter-spacing:0px;word-spacing:0px;writing-mode:lr-tb;text-anchor:start;fill:#1f2d41;fill-opacity:1;stroke:none;stroke-width:1px;stroke-linecap:butt;stroke-linejoin:miter;stroke-opacity:1"
         xml:space="preserve"><tspan
           style="stroke-width:1px"
           y="896.74695"
           x="-2.9172723"
           id="tspan2051-43-9-5-00"
           sodipodi:role="line">Automation Library</tspan></text>
      <ellipse
         ry="136.49165"
         rx="135.95767"
         cy="481.96585"
         cx="223.2794"
         id="path7015-3-5-6-6-9-1-5-8-0-6-8-4"
         style="opacity:1;fill:#1f2d41;fill-opacity:1;stroke:none;stroke-width:1;stroke-miterlimit:4;stroke-dasharray:none" />
      <ellipse
         ry="90.994438"
         rx="90.638451"
         cy="160.85649"
         cx="510.30112"
         id="path7015-2-2-2-5-6-0-8-6-2-4-27-2-8"
         style="opacity:1;fill:#1f2d41;fill-opacity:1;stroke:none;stroke-width:1;stroke-miterlimit:4;stroke-dasharray:none" />
      <path
         sodipodi:nodetypes="cccssccsccsssss"
         inkscape:connector-curvature="0"
         id="path11296-5-0-9-6-8-1-9-6-1-04-8-7-0"
         d="m 179.74108,632.7205 c -12.4,0.2737 -17.1566,8.4472 -19.7898,12.4288 L 9.99458,904.3136 c -15.1064,27.2983 6.0426,47.5193 26.1845,47.5193 h 374.6389 c 20.1419,0 41.2909,-20.221 25.1774,-47.5193 L 287.10678,645.4158 c -3.1819,-5.9979 -10.0889,-15.543 -27.5122,-11.4059 -22.216,5.2752 -50.4146,5.2752 -72.143,-0.5529 -2.8556,-0.5679 -5.4142,-0.7872 -7.7105,-0.7365 z m 43.5371,51.1981 c 16.7847,0 33.5702,29.7746 67.8176,89.3259 68.495,119.1025 69.1743,117.9233 -67.8156,117.9233 -136.9898,2e-4 -136.3125,1.1793 -67.8175,-117.9233 34.2474,-59.5513 51.0309,-89.3259 67.8155,-89.3259 z"
         style="fill:#1f2d41;fill-opacity:1;fill-rule:evenodd;stroke:none;stroke-width:1px;stroke-linecap:butt;stroke-linejoin:miter;stroke-opacity:1" />
      <path
         id="path11315-3-8-6-3-1-0-9-4-3-99-7-7-2"
         d="m 406.87118,199.3168 -160.297,128.4744 a 155.52334,156.13415 0 0 1 127.3129,115.7691 c 0.2377,0.4261 0.4714,0.834 0.71,1.2638 l 111.5396,-175.9443 a 110.3714,110.80488 0 0 1 -79.2655,-69.563 z"
         style="fill:#1f2d41;fill-opacity:1;fill-rule:evenodd;stroke:none;stroke-width:1px;stroke-linecap:butt;stroke-linejoin:miter;stroke-opacity:1"
         inkscape:connector-curvature="0" />
      <path
         id="path11339-0-3-6-8-0-0-1-2-3-9-39-6-0"
         d="m 605.13888,217.2907 a 110.3714,110.80488 0 0 1 -49.562,44.4664 l 48.3621,54.0319 -16.9336,117.2225 c -0.098,9.1228 4.7484,13.8383 9.7169,18.418 7.1686,6.4383 9.9863,8.1333 17.2071,11.6626 l 90.5459,40.6533 c 5.3513,1.4405 7.5215,0.8405 10.1065,-2.3223 6.5562,-7.802 5.2857,-10.7346 1.5086,-14.9544 l -44.133,-41.7433 c -2.9543,-3.3005 -6.565,-6.9141 -10.0966,-11.2795 -2.878,-4.7283 -4.3991,-10.0683 -2.6062,-18.0389 l 12.4471,-52.7208 c 0.9592,-3.3981 1.9369,-8.3569 7.1223,-13.2206 5.3019,-4.5971 8.1456,-4.444 14.1722,-5.2745 l 53.1537,-7.1721 c 8.0347,-0.4518 13.2123,1.1452 17.5886,4.522 4.5262,3.5441 7.1259,7.7469 10.0965,11.2815 l 36.6409,48.5007 c 3.7771,4.22 6.7792,5.8902 14.2233,0.7624 3.4078,-2.2434 5.761,-6.2829 4.1247,-10.5174 l -30.618,-94.7148 c -3.4751,-6.9081 -4.4335,-9.5314 -9.7169,-18.4199 -4.1484,-7.6602 -7.5131,-11.4191 -17.2071,-11.6607 l -117.9027,4.4154 z"
         style="fill:#1f2d41;fill-opacity:1;fill-rule:evenodd;stroke:none;stroke-width:1px;stroke-linecap:butt;stroke-linejoin:miter;stroke-opacity:1"
         inkscape:connector-curvature="0" />
      <path
         inkscape:connector-curvature="0"
         id="path8474-0-7-9-0-6-7-1-8-7-7-5-4-3-8-0"
         d="m 309.12678,640.298 v 0.5589 l 35.1461,61.1151 h 488.5427 v 0.067 a 90.551761,90.907403 0 0 1 90.552,90.9075 90.551761,90.907403 0 0 1 -90.552,90.9095 v 60.7617 a 151.56769,152.16299 0 0 0 0.4839,0.01 151.56769,152.16299 0 0 0 21.1628,-1.6527 l 5.0178,-21.242 a 131.53458,132.05116 0 0 0 18.6351,-5.241 l 15.2836,15.468 a 151.56769,152.16299 0 0 0 33.2241,-19.6602 l -6.2766,-21.0543 a 131.53458,132.05116 0 0 0 13.6509,-13.8349 l 20.8224,5.6932 a 151.56769,152.16299 0 0 0 18.94,-33.7418 l -15.8421,-15.0098 a 131.53458,132.05116 0 0 0 4.774,-18.8387 l 21.0761,-5.5766 a 151.56769,152.16299 0 0 0 1.0996,-17.4721 151.56769,152.16299 0 0 0 -1.6464,-21.2459 l -21.1588,-5.0374 a 131.53458,132.05116 0 0 0 -5.2203,-18.7104 l 15.4073,-15.3435 a 151.56769,152.16299 0 0 0 -19.5833,-33.3508 l -20.9719,6.3013 a 131.53458,132.05116 0 0 0 -13.7806,-13.7064 l 5.6707,-20.9042 a 151.56769,152.16299 0 0 0 -33.6097,-19.0165 l -14.951,15.9063 a 131.53458,132.05116 0 0 0 -18.7631,-4.7925 l -5.5548,-21.157 a 151.56769,152.16299 0 0 0 -17.4058,-1.1059 v 0 a 151.56769,152.16299 0 0 0 -0.4839,0.027 v -0.027 h -523.6888 z"
         style="fill:#1f2d41;fill-opacity:1;stroke:none;stroke-width:2.83358312" />
      <path
         inkscape:connector-curvature="0"
         id="path8474-0-7-9-0-6-4-09-7-6-7-3-3-1-65-2-73"
         d="m 303.79358,640.298 v 0.555 l 35.146,61.1151 h 262.4404 V 640.298 Z"
         style="fill:#1f2d41;fill-opacity:1;stroke:none;stroke-width:2.83358312" />
      <g
         transform="matrix(1.0070939,0,0,1.0110493,-6044.0993,478.6747)"
         id="g2256-72-6-0-0-4-8-4-8"
         style="fill:#1f2d41;fill-opacity:1;stroke-width:0.99101186">
        <path
           style="fill:#1f2d41;fill-opacity:1;stroke:none;stroke-width:2.80811477"
           d="m 6529.6885,400.7529 v 0.54082 l 34.8984,59.55688 h 260.5918 v -60.0977 z"
           id="path8474-0-7-9-0-6-4-09-7-0-5-9-8-0-4-9-1-3"
           inkscape:connector-curvature="0" />
        <path
           style="fill:#1f2d41;fill-opacity:1;stroke:none;stroke-width:2.80811477"
           d="m 6441.0026,400.75287 v 0.54082 l 34.8984,59.55688 h 260.5918 v -60.0977 z"
           id="path8474-0-7-9-0-6-4-09-7-0-9-68-8-6-4-3-3-0-2"
           inkscape:connector-curvature="0" />
      </g>
      <g
         transform="matrix(1.0070939,0,0,1.0110493,-6038.4963,478.6746)"
         id="g2256-7-4-7-8-8-9-8-2-2"
         style="fill:#1f2d41;fill-opacity:1;stroke-width:0.99101186">
        <path
           style="fill:#1f2d41;fill-opacity:1;stroke:none;stroke-width:2.80811477"
           d="m 6529.6885,400.7529 v 0.54082 l 34.8984,59.55688 h 260.5918 v -60.0977 z"
           id="path8474-0-7-9-0-6-4-09-7-0-94-9-2-1-5-7-4-5-4"
           inkscape:connector-curvature="0" />
        <path
           style="fill:#1f2d41;fill-opacity:1;stroke:none;stroke-width:2.80811477"
           d="m 6441.0026,400.75287 v 0.54082 l 34.8984,59.55688 h 260.5918 v -60.0977 z"
           id="path8474-0-7-9-0-6-4-09-7-0-9-6-9-5-8-4-2-2-5-8"
           inkscape:connector-curvature="0" />
      </g>
      <text
         xml:space="preserve"
         style="font-style:normal;font-variant:normal;font-weight:800;font-stretch:normal;font-size:105.93733978px;line-height:125%;font-family:'Concourse C8';-inkscape-font-specification:'Concourse C8, Ultra-Bold';font-variant-ligatures:normal;font-variant-caps:normal;font-variant-numeric:normal;font-feature-settings:normal;text-align:start;letter-spacing:3.55559349px;word-spacing:0px;writing-mode:lr-tb;text-anchor:start;fill:#1f2d41;fill-opacity:1;stroke:none;stroke-width:0.99999988px;stroke-linecap:butt;stroke-linejoin:miter;stroke-opacity:1"
         x="96.340843"
         y="162.15714"
         id="text5347-9-3-8-9-7-2-6-9-95-8-1-3"
         transform="scale(0.85562003,1.1687431)"><tspan
           id="tspan2098-89"
           sodipodi:role="line"
           x="96.340843"
           y="162.15714">Practical</tspan></text>
      <text
         xml:space="preserve"
         style="font-style:normal;font-variant:normal;font-weight:800;font-stretch:normal;font-size:105.93772888px;line-height:125%;font-family:'Concourse C8';-inkscape-font-specification:'Concourse C8, Ultra-Bold';font-variant-ligatures:normal;font-variant-caps:normal;font-variant-numeric:normal;font-feature-settings:normal;text-align:start;letter-spacing:3.55559349px;word-spacing:0px;writing-mode:lr-tb;text-anchor:start;fill:#ffffff;fill-opacity:1;stroke:none;stroke-width:0.99999988px;stroke-linecap:butt;stroke-linejoin:miter;stroke-opacity:1"
         x="497.95999"
         y="162.17715"
         id="text5347-9-3-8-9-7-2-6-9-95-4-7-0-2"
         transform="scale(0.85562003,1.1687431)"><tspan
           y="162.17715"
           x="497.95999"
           id="tspan5887-4-0-6"
           sodipodi:role="line"
           style="stroke-width:0.99999988px">cal</tspan></text>
      <text
         xml:space="preserve"
         style="font-style:normal;font-variant:normal;font-weight:800;font-stretch:normal;font-size:105.93733978px;line-height:125%;font-family:'Concourse C8';-inkscape-font-specification:'Concourse C8, Ultra-Bold';font-variant-ligatures:normal;font-variant-caps:normal;font-variant-numeric:normal;font-feature-settings:normal;text-align:start;letter-spacing:3.55559349px;word-spacing:0px;writing-mode:lr-tb;text-anchor:start;fill:#1f2d41;fill-opacity:1;stroke:none;stroke-width:0.99999988px;stroke-linecap:butt;stroke-linejoin:miter;stroke-opacity:1"
         x="702.56934"
         y="162.15714"
         id="text5347-9-3-8-9-7-2-6-9-95-8-1-4-7"
         transform="scale(0.85562003,1.1687431)"><tspan
           y="162.15714"
           x="702.56934"
           id="tspan2100-2"
           sodipodi:role="line">Series</tspan></text>
      <text
         transform="scale(0.8654499,1.1554684)"
         id="text5347-2-7-7-0-2-1-4-1-3-01"
         y="750.48035"
         x="526.00696"
         style="font-style:normal;font-variant:normal;font-weight:bold;font-stretch:normal;font-size:247.13334656px;line-height:125%;font-family:'Concourse C7';-inkscape-font-specification:'Concourse C7, Bold';font-variant-ligatures:normal;font-variant-caps:normal;font-variant-numeric:normal;font-feature-settings:normal;text-align:start;letter-spacing:0px;word-spacing:0px;writing-mode:lr-tb;text-anchor:start;fill:#1f2d41;fill-opacity:1;stroke:none;stroke-width:1.00000012px;stroke-linecap:butt;stroke-linejoin:miter;stroke-opacity:1"
         xml:space="preserve"><tspan
           y="750.48035"
           x="526.00696"
           id="tspan1824-4"
           sodipodi:role="line">pal</tspan></text>
      <g
         transform="translate(1118.3486,43.797729)"
         id="g945">
        <rect
           transform="matrix(0.70605603,0.70815598,-0.70605603,0.70815598,0,0)"
           rx="15.489941"
           style="fill:#4c6c9c;fill-opacity:1;stroke:none;stroke-width:30.05306244;stroke-miterlimit:4;stroke-dasharray:none"
           id="rect7773-4-9-3-6-6-0-0-84-7-7-8-0-0-9"
           width="147.57478"
           height="147.57478"
           x="58.02824"
           y="471.66827"
           ry="15.489941" />
        <g
           id="g936"
           transform="rotate(45,-645.52108,471.72038)"
           style="stroke:#ffffff">
          <circle
             r="63.5"
             cy="227.36217"
             cx="-390"
             id="path896"
             style="opacity:1;vector-effect:none;fill:none;fill-opacity:1;stroke:#ffffff;stroke-width:5;stroke-linecap:butt;stroke-linejoin:round;stroke-miterlimit:10;stroke-dasharray:none;stroke-dashoffset:0;stroke-opacity:1" />
          <ellipse
             ry="63.5"
             rx="30.5"
             cy="227.36217"
             cx="-390"
             id="path896-7"
             style="opacity:1;vector-effect:none;fill:none;fill-opacity:1;stroke:#ffffff;stroke-width:5;stroke-linecap:butt;stroke-linejoin:round;stroke-miterlimit:10;stroke-dasharray:none;stroke-dashoffset:0;stroke-opacity:1" />
          <path
             inkscape:connector-curvature="0"
             id="path915"
             d="m -331,202.36217 c -118,0 -118,0 -118,0"
             style="fill:none;stroke:#ffffff;stroke-width:5;stroke-linecap:butt;stroke-linejoin:miter;stroke-miterlimit:4;stroke-dasharray:none;stroke-opacity:1" />
          <path
             inkscape:connector-curvature="0"
             id="path915-6"
             d="m -331,249.86217 c -118,0 -118,0 -118,0"
             style="fill:none;stroke:#ffffff;stroke-width:5;stroke-linecap:butt;stroke-linejoin:miter;stroke-miterlimit:4;stroke-dasharray:none;stroke-opacity:1" />
        </g>
      </g>
    </g>
    <g
       id="g1019"
       transform="translate(-815.24866,-234.51982)">
      <rect
         y="304.38196"
         x="811.25867"
         height="980.00006"
         width="989.73517"
         id="rect1056"
         style="fill:#ffffff;fill-opacity:0.69019608;stroke:none;stroke-width:8;stroke-linecap:round;stroke-linejoin:miter;stroke-miterlimit:4;stroke-dasharray:none;stroke-opacity:1" />
      <g
         style="stroke-width:0.49114817"
         transform="matrix(2.0360454,0,0,2.0360454,2679.9697,1172.6311)"
         id="g1054">
        <path
           inkscape:connector-curvature="0"
           style="fill:#e60d18;fill-opacity:1;stroke:none;stroke-width:1.9645927;stroke-linecap:round;stroke-linejoin:miter;stroke-miterlimit:4;stroke-dasharray:none;stroke-opacity:1"
           d="m -671.07617,-408.71484 -10.07227,11.76562 a 211.42662,211.42662 0 0 0 -15.89453,1.26172 l -11.77148,-10.29883 a 223.08301,223.08299 0 0 0 -59.31836,18.25391 l -3.91992,14.78711 a 211.42662,211.42662 0 0 0 -13.96289,8.00781 l -14.74219,-4.07812 a 223.08301,223.08299 0 0 0 -45.70313,41.99218 l 2.94727,15.35742 a 211.42662,211.42662 0 0 0 -8.96289,13.0586 l -15.35742,2.77539 a 223.08301,223.08299 0 0 0 -22.73243,57.77148 l 9.0918,12.25196 a 211.42662,211.42662 0 0 0 -2.40625,15.91992 l -12.41016,9.0039 a 223.08301,223.08299 0 0 0 -0.75586,15.10743 223.08301,223.08299 0 0 0 5.25782,46.88086 l 13.52734,7.10546 a 211.42662,211.42662 0 0 0 4.7832,15.23243 l -7.43359,13.79101 a 223.08301,223.08299 0 0 0 30.82031,53.732424 l 15.66407,0.544922 a 211.42662,211.42662 0 0 0 10.73046,11.818359 l -0.69531,15.263672 a 223.08301,223.08299 0 0 0 51.26367,35.167969 l 14.01758,-6.1601566 a 211.42662,211.42662 0 0 0 14.86524,5.7578126 l 6.16406,14.447266 a 223.08301,223.08299 0 0 0 61.23047,9.357421 l 10.07422,-11.767578 a 211.42662,211.42662 0 0 0 15.89453,-1.261719 l 11.77343,10.298829 a 223.08301,223.08299 0 0 0 59.31641,-18.253907 l 3.91992,-14.7851559 a 211.42662,211.42662 0 0 0 13.96485,-8.0097656 l 14.74023,4.078125 a 223.08301,223.08299 0 0 0 45.70313,-41.9902345 l -2.94727,-15.359375 a 211.42662,211.42662 0 0 0 8.96289,-13.058594 l 15.35742,-2.77539 a 223.08301,223.08299 0 0 0 22.73047,-57.773434 l -9.08984,-12.25 a 211.42662,211.42662 0 0 0 2.40429,-15.91797 l 12.41016,-9.00391 a 223.08301,223.08299 0 0 0 0.75586,-15.10937 223.08301,223.08299 0 0 0 -5.25781,-46.88282 l -13.52344,-7.10156 a 211.42662,211.42662 0 0 0 -4.78516,-15.23242 l 7.4336,-13.79102 a 223.08301,223.08299 0 0 0 -30.82422,-53.73242 l -15.6582,-0.54492 a 211.42662,211.42662 0 0 0 -10.73243,-11.82031 l 0.69532,-15.25781 a 223.08301,223.08299 0 0 0 -51.26758,-35.17188 l -14.01367,6.1582 a 211.42662,211.42662 0 0 0 -14.86524,-5.75781 l -6.16211,-14.44336 a 223.08301,223.08299 0 0 0 -61.23437,-9.35937 z m -2.88867,23.44531 a 199.493,199.49301 0 0 1 199.49414,199.49219 199.493,199.49301 0 0 1 -199.49414,199.494137 199.493,199.49301 0 0 1 -199.49219,-199.492187 199.493,199.49301 0 0 1 199.49219,-199.49414 z"
           id="path954" />
        <circle
           style="fill:none;fill-opacity:1;stroke:#e50d18;stroke-width:3.92918539;stroke-linecap:round;stroke-linejoin:miter;stroke-miterlimit:4;stroke-dasharray:none;stroke-opacity:1"
           id="path988"
           cx="-673.96387"
           cy="-185.77637"
           r="185" />
        <g
           style="stroke-width:0.49114817"
           id="g1042"
           transform="translate(-0.73412677,4.2236345)">
          <g
             style="stroke-width:0.49114817"
             transform="translate(0,-2.7021526)"
             id="g1014">
            <text
               xml:space="preserve"
               style="font-style:normal;font-variant:normal;font-weight:800;font-stretch:normal;font-size:88.67763519px;line-height:1.25;font-family:'Concourse C8';-inkscape-font-specification:'Concourse C8, Ultra-Bold';font-variant-ligatures:normal;font-variant-caps:normal;font-variant-numeric:normal;font-feature-settings:ss02;text-align:start;letter-spacing:0px;word-spacing:0px;writing-mode:lr-tb;text-anchor:start;fill:#e60d18;fill-opacity:1;stroke:none;stroke-width:0.49114817"
               x="-824.62952"
               y="-181.64459"
               id="text1004"><tspan
                 sodipodi:role="line"
                 id="tspan1002"
                 x="-824.62952"
                 y="-181.64459"
                 style="fill:#e60d18;fill-opacity:1;stroke-width:0.49114817">WORK</tspan></text>
            <text
               xml:space="preserve"
               style="font-style:normal;font-variant:normal;font-weight:800;font-stretch:normal;font-size:46.3483429px;line-height:1.25;font-family:'Concourse C8';-inkscape-font-specification:'Concourse C8, Ultra-Bold';font-variant-ligatures:normal;font-variant-caps:normal;font-variant-numeric:normal;font-feature-settings:ss02;text-align:start;letter-spacing:0px;word-spacing:0px;writing-mode:lr-tb;text-anchor:start;fill:#e60d18;fill-opacity:1;stroke:none;stroke-width:0.49114814"
               x="-826.35236"
               y="-132.01541"
               id="text1008"><tspan
                 sodipodi:role="line"
                 id="tspan1006"
                 x="-826.35236"
                 y="-132.01541"
                 style="fill:#e60d18;fill-opacity:1;stroke-width:0.49114814">In Progress</tspan></text>
          </g>
          <path
             inkscape:connector-curvature="0"
             id="path1018"
             d="m -798.22974,-270 c 250,0 250,0 250,0"
             style="fill:#000000;fill-opacity:0;stroke:#e50d18;stroke-width:3.92918539;stroke-linecap:butt;stroke-linejoin:miter;stroke-miterlimit:4;stroke-dasharray:none;stroke-opacity:1" />
          <path
             inkscape:connector-curvature="0"
             id="path1018-8"
             d="m -798.22974,-110 c 250,0 250,0 250,0"
             style="fill:#000000;fill-opacity:0;stroke:#e50d18;stroke-width:3.92918539;stroke-linecap:butt;stroke-linejoin:miter;stroke-miterlimit:4;stroke-dasharray:none;stroke-opacity:1" />
        </g>
      </g>
    </g>
  </g>
</svg>
