<svg xmlns="http://www.w3.org/2000/svg" width="980" height="980"><g><g transform="translate(0 -72.362)"><g fill="#1f2d41" style="line-height:125%;-inkscape-font-specification:'Concourse C8, Ultra-Bold';font-variant-ligatures:normal;font-variant-caps:normal;font-variant-numeric:normal;font-feature-settings:normal;text-align:start" font-weight="800" font-size="101.924" font-family="Concourse C8" letter-spacing="0" word-spacing="0"><path d="M40.12 1039.26H23.46l-2.88 11.32H0l22.4-81h18.76l22.5 81H43.08zm-12.74-18.94h8.64l-3.93-19.42h-.62z"/><path d="M119 1025.92q0 5.12-1.57 9.88-1.48 4.77-4.54 8.46-3.06 3.7-7.68 5.96-4.54 2.14-10.64 2.14-6.98 0-11.7-2.14-4.6-2.27-7.5-5.96-2.78-3.7-4-8.46-1.22-4.76-1.22-9.88v-38.24h19.62v36.2q0 3.7 1.3 5.5 1.4 1.78 3.67 1.78 1.84 0 3.23-1.67 1.4-1.8 1.4-5.5V987.7H119z"/><path d="M161.07 1007.57v43h-19.62v-43h-13.17v-19.9h45.87v19.9z"/><path d="M233.62 1019.48q0 6.44-1.92 12.4-1.92 5.95-5.5 10.6-3.57 4.52-8.72 7.26-5.06 2.62-11.33 2.62-6.2 0-11.17-2.5-4.88-2.62-8.37-7.03-3.4-4.4-5.22-10.36-1.83-6.08-1.83-13 0-7.73 2.18-13.92 2.26-6.2 5.93-10.6 3.75-4.4 8.63-6.68 4.96-2.38 10.37-2.38 5.32 0 10.12 2.37 4.87 2.27 8.62 6.56 3.75 4.28 5.93 10.6 2.27 6.2 2.27 14.05zm-19.45-.23q0-3.22-.7-5.48-.7-2.4-1.83-3.82-1.05-1.43-2.44-2.14-1.4-.7-2.8-.7-3.22 0-5.5 2.97-2.25 2.86-2.25 9.18 0 6.2 2.1 9.05 2.17 2.86 5.74 2.86 3.13 0 5.4-2.74 2.27-2.86 2.27-9.17z"/><path d="M285.6 1025.32l-7.05 25.26h-8.8l-7.16-25.26h-.62l-3.32 25.26h-18.3l9.58-62.9h15.27l8.8 30.37h.45l8.55-30.37h15.26l9.6 62.9h-18.32l-3.32-25.26z"/><path d="M348.8 1042.83h-14.4l-2.25 7.75h-19l18.82-62.9h19.2l19 62.9h-19zm-11.25-15.13h8.03l-3.75-14.77h-.53z"/><path d="M405.15 1007.57v43h-19.62v-43h-13.17v-19.9h45.88v19.9z"/><path d="M448 1050.58h-20.05v-62.9H448z"/><path d="M511.6 1019.48q0 6.44-1.92 12.4-1.92 5.95-5.5 10.6-3.57 4.52-8.72 7.26-5.06 2.62-11.34 2.62-6.2 0-11.16-2.5-4.88-2.62-8.37-7.03-3.4-4.4-5.24-10.36-1.84-6.08-1.84-13 0-7.73 2.18-13.92 2.27-6.2 5.93-10.6 3.75-4.4 8.64-6.68 4.97-2.38 10.38-2.38 5.32 0 10.1 2.37 4.9 2.27 8.65 6.56 3.75 4.28 5.93 10.6 2.26 6.2 2.26 14.05zm-19.45-.23q0-3.22-.7-5.48-.7-2.4-1.83-3.82-1.05-1.43-2.44-2.14-1.4-.7-2.8-.7-3.22 0-5.5 2.97-2.26 2.86-2.26 9.18 0 6.2 2.1 9.05 2.18 2.86 5.75 2.86 3.14 0 5.4-2.74 2.28-2.86 2.28-9.17z"/><path d="M552.25 1014h.7v-26.32h19.2v62.9h-13.97l-17.6-26.1h-.7v26.1h-19.2v-62.9h13.96z"/><path d="M632.44 1027.7h19.62v22.88H611.5v-81h20.94z"/><path d="M683.4 1050.58h-20.06v-62.9h20.06z"/><path d="M731.47 1019q2.26.48 4.1 1.9 1.9 1.44 3.22 3.47 1.4 2.02 2.08 4.64.8 2.52.8 5.26 0 7.5-5.42 11.9-5.32 4.42-16.22 4.42H695.1v-62.9h25.2q5.4 0 9.07 1.43 3.67 1.32 5.85 3.58 2.26 2.26 3.22 5.24.96 2.86.96 5.84 0 4.88-1.92 8.58-1.83 3.57-6 6.2zm-9.42-10.48q0-2.38-1.22-3.45-1.22-1.07-2.53-1.07h-4.45v9.17h4.53q1.66 0 2.62-1.2 1.05-1.18 1.05-3.45zm.87 21.1q0-2.4-1.22-3.46-1.22-1.08-2.53-1.08h-5.32v9.18h5.4q1.66 0 2.62-1.2 1.05-1.2 1.05-3.45z"/><path d="M801.3 1049.98v.6h-20.84l-10.46-21.2h-.7v21.2h-19.18v-62.9h25.8q4.54 0 8.3 1.55 3.83 1.55 6.54 4.4 2.7 2.74 4.18 6.68 1.57 3.94 1.57 8.82 0 6.55-2.26 10.72-2.18 4.17-6.1 6.2zm-23.54-39.67q0-2.73-1.22-4.04-1.22-1.3-2.53-1.3h-4.7v10.95h4.8q1.66 0 2.6-1.42 1.06-1.43 1.06-4.17z"/><path d="M840.54 1042.83h-14.4l-2.25 7.75h-19.02l18.83-62.9h19.2l19 62.9h-19zm-11.25-15.13h8.02l-3.75-14.77h-.53z"/><path d="M920.7 1049.98v.6h-20.83l-10.47-21.2h-.7v21.2h-19.18v-62.9h25.8q4.55 0 8.3 1.55 3.83 1.55 6.54 4.4 2.7 2.74 4.18 6.68 1.57 3.94 1.57 8.82 0 6.55-2.26 10.72-2.18 4.17-6.1 6.2zm-23.54-39.67q0-2.73-1.22-4.04-1.22-1.3-2.53-1.3h-4.7v10.95h4.8q1.66 0 2.62-1.42 1.04-1.43 1.04-4.17z"/><path d="M947.56 1006.98h.34l7.5-19.3h19.9l-17.8 39.3v23.6h-19.62v-23.6L920 987.7h19.88z"/></g><ellipse cx="222.074" cy="482.485" fill="#1f2d41" ry="135.835" rx="135.304"/><ellipse cx="507.716" cy="162.919" fill="#1f2d41" ry="90.557" rx="90.203"/><path fill="#1f2d41" fill-rule="evenodd" d="M178.74 632.5c-12.34.3-17.07 8.42-19.7 12.38L9.82 902.8c-15.02 27.17 6.03 47.3 26.07 47.3H408.7c20.06 0 41.1-20.13 25.07-47.3L285.6 645.15c-3.17-5.97-10.05-15.47-27.4-11.35-22.1 5.25-50.16 5.25-71.78-.55-2.84-.57-5.4-.8-7.68-.74zm43.33 50.97c16.7 0 33.4 29.63 67.5 88.9 68.16 118.52 68.84 117.35-67.5 117.35-136.33 0-135.65 1.17-67.5-117.36 34.1-59.26 50.8-88.9 67.5-88.9z"/><path fill="#1f2d41" fill-rule="evenodd" d="M404.78 201.2L245.26 329.04a154.78 155.38 0 0 1 126.7 115.2c.23.44.47.84.7 1.27l111-175.1a109.84 110.27 0 0 1-78.88-69.23z"/><path fill="#1f2d41" fill-rule="evenodd" d="M602.1 219.08a109.84 110.27 0 0 1-49.33 44.25l48.13 53.78-16.85 116.67c-.1 9.07 4.73 13.77 9.67 18.33 7.14 6.4 9.94 8.1 17.13 11.6l90.1 40.46c5.33 1.43 7.5.84 10.06-2.3 6.54-7.78 5.27-10.7 1.52-14.9l-43.93-41.54c-2.95-3.28-6.54-6.88-10.05-11.22-2.87-4.7-4.38-10.02-2.6-17.95l12.4-52.47c.94-3.38 1.92-8.32 7.08-13.16 5.27-4.57 8.1-4.42 14.1-5.25l52.9-7.14c8-.44 13.15 1.14 17.5 4.5 4.5 3.53 7.1 7.7 10.05 11.23l36.47 48.27c3.76 4.2 6.74 5.86 14.15.76 3.4-2.24 5.74-6.26 4.1-10.48l-30.46-94.26c-3.46-6.87-4.42-9.48-9.67-18.33-4.13-7.62-7.48-11.36-17.13-11.6l-117.33 4.4z"/><path fill="#1f2d41" d="M307.5 640.06v.55l35 60.83h486.18v.07a90.12 90.47 0 0 1 90.12 90.47 90.12 90.47 0 0 1-90.12 90.47v60.47a150.84 151.43 0 0 0 .48.02 150.84 151.43 0 0 0 21.06-1.64l5-21.14a130.9 131.42 0 0 0 18.54-5.22l15.2 15.4a150.84 151.43 0 0 0 33.08-19.57l-6.25-20.95a130.9 131.42 0 0 0 13.57-13.77l20.73 5.66a150.84 151.43 0 0 0 18.85-33.6l-15.77-14.92a130.9 131.42 0 0 0 4.75-18.75l20.98-5.55a150.84 151.43 0 0 0 1.1-17.4 150.84 151.43 0 0 0-1.64-21.13l-21.06-5.02a130.9 131.42 0 0 0-5.2-18.62l15.34-15.26a150.84 151.43 0 0 0-19.5-33.2l-20.86 6.28a130.9 131.42 0 0 0-13.7-13.64l5.63-20.8a150.84 151.43 0 0 0-33.44-18.92L870.68 667A130.9 131.42 0 0 0 852 662.2l-5.52-21.06a150.84 151.43 0 0 0-17.32-1.1 150.84 151.43 0 0 0-.48.03v-.04H307.5z"/><path fill="#1f2d41" d="M302.2 640.06v.55l34.98 60.83h261.18v-61.37z"/><g fill="#1f2d41"><path d="M529.22 882.44v.55l34.98 59.9h261.18v-60.46z"/><path d="M440.34 882.44v.55l34.97 59.9h261.2v-60.46z"/></g><g fill="#1f2d41"><path d="M534.8 882.44v.55l34.97 59.9h261.18v-60.46z"/><path d="M445.9 882.44v.55l35 59.9h261.17v-60.46z"/></g><rect width="146.076" height="146.076" x="880.526" y="-277.56" fill="#4c6c9c" transform="rotate(45)" ry="15.49" rx="15.49"/><g fill="#fff" font-weight="bold" font-family="Concourse C7" letter-spacing="0" word-spacing="0"><text x="-2851.26" y="635.265" style="line-height:0%;-inkscape-font-specification:'Concourse C7, Bold';text-align:start" transform="matrix(.069 .069 -.096 .096 995.919 655.129)"><tspan x="-2851.26" y="635.265" style="line-height:1.25" font-size="1125">P</tspan></text><text x="-2269.261" y="652.14" style="line-height:0%;-inkscape-font-specification:'Concourse C7, Bold';text-align:start" transform="matrix(.069 .069 -.096 .096 995.919 655.129)"><tspan x="-2269.261" y="652.14" style="line-height:1.25" font-size="1125">S</tspan></text></g><g fill="#1f2d41" style="line-height:125%;-inkscape-font-specification:'Concourse C8, Ultra-Bold';font-variant-ligatures:normal;font-variant-caps:normal;font-variant-numeric:normal;font-feature-settings:normal;text-align:start" font-weight="800" font-size="105.428" font-family="Concourse C8" letter-spacing="3.538" word-spacing="0"><path d="M141 137.1q0 7.4-2.36 12.82-2.34 5.42-6.13 9-3.7 3.45-8.38 5.17-4.6 1.6-9.2 1.6h-4.15v25.74h-21.2v-83.78h24.45q5.95 0 10.82 1.84 4.96 1.73 8.57 5.43 3.62 3.7 5.6 9.24 2 5.54 2 12.94zm-20.76.38q0-3.2-1.62-5.43-1.54-2.34-4.24-2.34h-3.6V145h3.6q3.15 0 4.5-2.23 1.36-2.2 1.36-5.3z"/><path d="M204.18 190.83v.6h-21.56l-10.83-21.92h-.73v21.94h-19.85V126.4h26.7q4.7 0 8.58 1.6 3.96 1.6 6.76 4.55 2.8 2.83 4.33 6.9 1.6 4.06 1.6 9.1 0 6.8-2.33 11.1-2.26 4.32-6.32 6.4zm-24.36-41.03q0-2.84-1.26-4.2-1.27-1.35-2.62-1.35h-4.87v11.34h4.96q1.72 0 2.7-1.5 1.1-1.47 1.1-4.3z"/><path d="M247.8 183.44h-14.9l-2.34 8H210.9l19.48-65.05h19.85l19.66 65.04h-19.67zm-11.65-15.65h8.3l-3.88-15.3h-.54z"/><path d="M320.4 166.06v22.43q-2.88 2.45-6.76 3.56-3.8 1.23-7.85 1.23-6.68 0-11.9-2.6-5.25-2.7-8.85-7.26-3.6-4.56-5.5-10.6-1.9-6.16-1.9-13.06 0-8.38 2.34-14.9 2.34-6.67 6.22-11.1 3.97-4.56 9.02-6.9 5.14-2.34 10.73-2.34 4.7 0 8.57 1.48 3.88 1.47 5.87 3.2v21.56h-.7q-1.9-1.48-4.98-2.83-3.06-1.36-6.67-1.23-2.08 0-4.06.74-1.9.74-3.44 2.2-1.44 1.5-2.34 3.83-.82 2.2-.82 5.42 0 2.95.82 5.17.9 2.2 2.34 3.8 1.54 1.6 3.43 2.47 1.97.74 4.23.74 3.6 0 6.3-1.46 2.72-1.6 5.16-3.58z"/><path d="M365.34 146.96v44.48h-20.3v-44.48h-13.62V126.4h47.45v20.56z"/><path d="M412.7 191.44h-20.75V126.4h20.74z"/><path d="M468.32 166.06v22.43q-2.88 2.45-6.76 3.56-3.8 1.23-7.85 1.23-6.67 0-11.9-2.6-5.23-2.7-8.84-7.26-3.6-4.56-5.5-10.6-1.9-6.16-1.9-13.06 0-8.38 2.35-14.9 2.36-6.67 6.23-11.1 3.97-4.56 9.03-6.9 5.14-2.34 10.73-2.34 4.68 0 8.56 1.48 3.88 1.47 5.86 3.2v21.56h-.72q-1.9-1.48-4.96-2.83-3.07-1.36-6.68-1.23-2.07 0-4.05.74-1.9.74-3.42 2.2-1.45 1.5-2.35 3.83-.8 2.2-.8 5.42 0 2.95.8 5.17.9 2.2 2.35 3.8 1.53 1.6 3.43 2.47 2 .74 4.25.74 3.6 0 6.3-1.46 2.72-1.6 5.15-3.58z"/><path d="M515.4 183.44h-14.88l-2.35 8H478.5L498 126.4h19.84l19.66 65.04h-19.66zm-11.64-15.65h8.3l-3.88-15.3h-.54z"/><path d="M568.7 170.87H586v20.57h-37.6V126.4h20.3z"/></g><g fill="#fff" style="line-height:125%;-inkscape-font-specification:'Concourse C8, Ultra-Bold';font-variant-ligatures:normal;font-variant-caps:normal;font-variant-numeric:normal;font-feature-settings:normal;text-align:start" font-weight="800" font-size="105.428" font-family="Concourse C8" letter-spacing="3.538" word-spacing="0"><path d="M470.25 166.1v22.4q-2.9 2.48-6.77 3.58-3.78 1.24-7.84 1.24-6.68 0-11.9-2.6-5.24-2.7-8.85-7.26-3.62-4.56-5.5-10.6-1.9-6.16-1.9-13.06 0-8.38 2.34-14.9 2.34-6.66 6.22-11.1 3.97-4.56 9.02-6.9 5.14-2.34 10.74-2.34 4.7 0 8.57 1.48t5.85 3.2v21.57h-.72q-1.9-1.47-4.96-2.83-3.07-1.35-6.68-1.23-2.08 0-4.07.74-1.9.74-3.43 2.22-1.44 1.48-2.34 3.82-.8 2.22-.8 5.42 0 2.96.8 5.17.9 2.23 2.34 3.83 1.54 1.6 3.43 2.47 2 .74 4.24.74 3.6 0 6.32-1.48 2.7-1.6 5.13-3.57z"/><path d="M517.33 183.46h-14.9l-2.33 8h-19.67l19.5-65.05h19.83l19.67 65.07h-19.67zM505.7 167.8h8.3l-3.9-15.27h-.53z"/><path d="M570.62 170.9h17.32v20.57h-37.62V126.4h20.3z"/></g><g fill="#1f2d41" style="line-height:125%;-inkscape-font-specification:'Concourse C8, Ultra-Bold';font-variant-ligatures:normal;font-variant-caps:normal;font-variant-numeric:normal;font-feature-settings:normal;text-align:start" font-weight="800" font-size="105.428" font-family="Concourse C8" letter-spacing="3.538" word-spacing="0"><path d="M608.12 159.9q4.78 4.68 9.93 7.4 5.23 2.58 10.2 2.58 2.6 0 3.6-.74 1.08-.74 1.08-2.1 0-1.1-1-1.96-.9-.87-2.52-1.6-5.04-2.35-9.55-5.06-4.42-2.7-7.76-6.28-3.35-3.7-5.24-8.5-1.9-4.93-1.9-11.83 0-5.4 1.36-10.1 1.44-4.8 4.24-8.25 2.9-3.58 7.13-5.55 4.3-2.1 10.18-2.1 7.03 0 13 2.6 5.94 2.46 10.8 6.65l-5.5 22.06q-2.06-1.84-4.32-3.32-2.25-1.48-4.5-2.47-2.27-1.1-4.34-1.6-2.07-.48-3.6-.48-1.8 0-3.08.5-1.17.5-1.17 2.2 0 1.37 1.8 2.84 1.9 1.36 5.24 2.96 5.5 2.6 9.4 5.55 3.96 2.83 6.48 6.4 2.53 3.58 3.6 8.14 1.2 4.44 1.2 10.36 0 7.14-2.45 11.95-2.44 4.8-6.22 7.77-3.7 2.96-8.2 4.2-4.5 1.22-8.66 1.22-3.97 0-7.76-1-3.7-.86-7.04-2.33-3.24-1.6-6.04-3.7-2.7-2.1-4.6-4.44z"/><path d="M707.23 144.87H686.4v6.28h17.68v15.53H686.4v6.28h21.3v18.48h-41.15V126.4h40.68z"/><path d="M774.86 190.83v.6H753.3l-10.83-21.92h-.72v21.94H721.9V126.4h26.7q4.7 0 8.58 1.6 3.97 1.6 6.76 4.55 2.8 2.83 4.33 6.9 1.63 4.06 1.63 9.1 0 6.8-2.35 11.1-2.25 4.32-6.3 6.4zM750.5 149.8q0-2.84-1.26-4.2-1.26-1.35-2.62-1.35h-4.87v11.34h4.96q1.73 0 2.72-1.5 1.08-1.47 1.08-4.3z"/><path d="M805.68 191.44h-20.75V126.4h20.75z"/><path d="M861.5 144.87h-20.84v6.28h17.68v15.53h-17.68v6.28h21.28v18.48H820.8V126.4h40.7z"/><path d="M877.45 166.2q1.7 1.46 3.8 2.82 2.06 1.23 4.23 2.34 2.25 1 4.6 1.6 2.34.62 4.6.62 2.07 0 2.88-.5.82-.6.82-1.72 0-1.36-1.63-1.97-1.53-.63-5.4-2.35-8.85-4.07-12.55-9.24-3.7-5.3-3.7-12.7 0-4.17 1.45-7.87 1.44-3.7 4.15-6.53 2.8-2.84 6.67-4.44 3.97-1.72 9.02-1.72 6.5 0 12.17 2.1 5.68 2.1 9.74 5.66l-5.4 18q-8.3-6.17-14.97-6.17-1.8 0-2.53.5-.72.48-.72 1.1 0 1.1 1.35 2.1 1.44.86 4.96 2.34 5.4 2.46 8.74 5.05 3.43 2.46 5.32 5.3 1.9 2.83 2.53 6.16.62 3.2.62 6.9 0 4.8-1.8 8.5t-4.87 6.28q-2.98 2.47-7.04 3.7-4.05 1.23-8.56 1.23-3.88 0-7.5-.75-3.6-.74-6.66-1.97-3.07-1.23-5.5-2.7-2.44-1.5-3.88-2.97z"/></g><g fill="#1f2d41" style="line-height:125%;-inkscape-font-specification:'Concourse C7, Bold';font-variant-ligatures:normal;font-variant-caps:normal;font-variant-numeric:normal;font-feature-settings:normal;text-align:start" font-weight="bold" font-size="245.945" font-family="Concourse C7" letter-spacing="0" word-spacing="0"><path d="M566.15 772.04q0 13.36-3.62 23.6-3.4 9.94-9.58 16.47-5.96 6.55-14.26 9.96-8.1 3.13-17.25 3.13h-13.2v40.62h-39.37V718.05h52.36q9.8 0 18.1 3.7t14.25 10.8q5.95 6.8 9.14 17.04 3.4 9.94 3.4 22.44zm-37.9 1.42q0-7.95-3.18-11.65-3.2-3.97-7.02-3.97h-9.8v30.4h10q4.48 0 7.24-3.97 2.76-4.26 2.76-10.8z"/><path d="M655.98 847.35h-35.76l-5.1 18.47h-42.16l48.1-147.77h34.07l48.53 147.77H661.5zm-28.95-36.1h21.5l-10-36.65h-.86z"/><path d="M763.93 823.2H808v42.62h-83.45V718.05h39.38z"/></g></g></g></svg>
