<?xml version="1.0" encoding="UTF-8" standalone="no"?>
<svg
   width="138.651"
   height="20"
   role="img"
   aria-label="Dev: D0000"
   version="1.1"
   id="svg30"
   sodipodi:docname="d1-name.svg"
   inkscape:version="1.1.1 (3bf5ae0d25, 2021-09-20)"
   xmlns:inkscape="http://www.inkscape.org/namespaces/inkscape"
   xmlns:sodipodi="http://sodipodi.sourceforge.net/DTD/sodipodi-0.dtd"
   xmlns="http://www.w3.org/2000/svg"
   xmlns:svg="http://www.w3.org/2000/svg"
   xmlns:rdf="http://www.w3.org/1999/02/22-rdf-syntax-ns#"
   xmlns:cc="http://creativecommons.org/ns#"
   xmlns:dc="http://purl.org/dc/elements/1.1/">
  <g
     aria-label="D0015A-FC11101"
     id="text6676"
     style="font-size:16px;line-height:1.25">
    <path
       d="m 9.828125,10.007813 q 0,1.585937 -0.6953125,2.875 -0.6875,1.289062 -1.8359375,2 Q 6.5,15.375 5.515625,15.59375 4.5390625,15.8125 2.9375,15.8125 H 0 V 4.1796875 h 2.90625 q 1.703125,0 2.703125,0.25 Q 6.6171875,4.671875 7.3125,5.1015625 8.5,5.84375 9.1640625,7.078125 9.828125,8.3125 9.828125,10.007813 Z M 8.2109375,9.984375 q 0,-1.3671875 -0.4765625,-2.3046875 Q 7.2578125,6.7421875 6.3125,6.203125 5.625,5.8125 4.8515625,5.6640625 4.078125,5.5078125 3,5.5078125 H 1.546875 V 14.484375 H 3 q 1.1171875,0 1.9453125,-0.164062 Q 5.78125,14.15625 6.4765625,13.710938 7.34375,13.15625 7.7734375,12.25 q 0.4375,-0.90625 0.4375,-2.265625 z"
       id="path8884" />
    <path
       d="m 19.882812,9.9921875 q 0,3.1328125 -0.984375,4.6015625 -0.976562,1.460937 -3.039062,1.460937 -2.09375,0 -3.0625,-1.484374 -0.960937,-1.484375 -0.960937,-4.5625 0,-3.101563 0.976562,-4.5781255 0.976563,-1.484375 3.046875,-1.484375 2.09375,0 3.054687,1.5078125 0.96875,1.5 0.96875,4.5390625 z m -2.054687,3.5468755 q 0.273437,-0.632813 0.367187,-1.484375 0.101563,-0.859375 0.101563,-2.0625005 0,-1.1875 -0.101563,-2.0625 -0.09375,-0.875 -0.375,-1.484375 -0.273437,-0.6015625 -0.75,-0.90625 -0.46875,-0.3046875 -1.210937,-0.3046875 -0.734375,0 -1.21875,0.3046875 -0.476562,0.3046875 -0.757812,0.921875 -0.265625,0.578125 -0.367188,1.5078125 -0.09375,0.9296875 -0.09375,2.039063 0,1.21875 0.08594,2.039062 0.08594,0.820313 0.367187,1.46875 0.257813,0.609375 0.726563,0.929688 0.476562,0.320312 1.257812,0.320312 0.734375,0 1.21875,-0.304687 0.484375,-0.304688 0.75,-0.921875 z"
       id="path8886" />
    <path
       d="m 30.054687,9.9921875 q 0,3.1328125 -0.984375,4.6015625 -0.976562,1.460937 -3.039062,1.460937 -2.09375,0 -3.0625,-1.484374 -0.960938,-1.484375 -0.960938,-4.5625 0,-3.101563 0.976563,-4.5781255 0.976562,-1.484375 3.046875,-1.484375 2.09375,0 3.054687,1.5078125 0.96875,1.5 0.96875,4.5390625 z M 28,13.539063 q 0.273437,-0.632813 0.367187,-1.484375 0.101563,-0.859375 0.101563,-2.0625005 0,-1.1875 -0.101563,-2.0625 -0.09375,-0.875 -0.375,-1.484375 -0.273437,-0.6015625 -0.75,-0.90625 -0.46875,-0.3046875 -1.210937,-0.3046875 -0.734375,0 -1.21875,0.3046875 -0.476563,0.3046875 -0.757813,0.921875 -0.265625,0.578125 -0.367187,1.5078125 -0.09375,0.9296875 -0.09375,2.039063 0,1.21875 0.08594,2.039062 0.08594,0.820313 0.367188,1.46875 0.257812,0.609375 0.726562,0.929688 0.476563,0.320312 1.257813,0.320312 0.734375,0 1.21875,-0.304687 0.484375,-0.304688 0.75,-0.921875 z"
       id="path8888" />
    <path
       d="M 39.578125,15.8125 H 33.28125 V 14.625 h 2.421875 V 6.828125 H 33.28125 v -1.0625 q 0.492187,0 1.054687,-0.078125 0.5625,-0.085937 0.851563,-0.2421875 Q 35.546875,5.25 35.75,4.953125 q 0.210937,-0.3046875 0.242187,-0.8125 h 1.210938 V 14.625 h 2.375 z"
       id="path8890" />
    <path
       d="m 50.320312,12.117188 q 0,0.8125 -0.296875,1.554687 -0.296875,0.742188 -0.8125,1.25 -0.5625,0.546875 -1.34375,0.84375 -0.773437,0.289062 -1.796875,0.289062 -0.953125,0 -1.835937,-0.203124 Q 43.351562,15.65625 42.742187,15.375 v -1.648437 h 0.109375 q 0.640625,0.40625 1.5,0.695312 0.859375,0.28125 1.6875,0.28125 0.554688,0 1.070313,-0.15625 0.523437,-0.15625 0.929687,-0.546875 0.34375,-0.335937 0.515625,-0.804687 0.179688,-0.46875 0.179688,-1.085938 0,-0.601562 -0.210938,-1.015625 -0.203125,-0.414062 -0.570312,-0.664062 -0.40625,-0.296875 -0.992188,-0.414063 -0.578125,-0.125 -1.296875,-0.125 -0.6875,0 -1.328125,0.09375 -0.632812,0.09375 -1.09375,0.1875 V 4.1796875 h 7 V 5.546875 H 44.75 v 3.09375 q 0.335937,-0.03125 0.6875,-0.046875 0.351562,-0.015625 0.609375,-0.015625 0.945312,0 1.65625,0.1640625 0.710937,0.15625 1.304687,0.5625 0.625,0.4296875 0.96875,1.1093755 0.34375,0.679687 0.34375,1.703125 z"
       id="path8892" />
    <path
       d="m 62.1875,15.8125 h -1.648438 l -1.140625,-3.242187 h -5.03125 L 53.226562,15.8125 H 51.65625 L 55.890625,4.1796875 h 2.0625 z M 58.921875,11.242188 56.882812,5.53125 54.835937,11.242188 Z"
       id="path8894" />
    <path
       d="m 68.070312,11.429688 h -4.875 v -1.414063 h 4.875 z"
       id="path8896" />
    <path
       d="M 78.257812,5.5546875 H 72.375 v 3.28125 h 5.054687 V 10.210938 H 72.375 V 15.8125 H 70.828125 V 4.1796875 h 7.429687 z"
       id="path8898" />
    <path
       d="m 89.007812,14.96875 q -0.429687,0.1875 -0.78125,0.351563 -0.34375,0.164062 -0.90625,0.34375 -0.476562,0.148437 -1.039062,0.25 -0.554688,0.109374 -1.226563,0.109374 -1.265625,0 -2.304687,-0.351562 -1.03125,-0.359375 -1.796875,-1.117187 -0.75,-0.742188 -1.171875,-1.882813 -0.421875,-1.148437 -0.421875,-2.664062 0,-1.4375005 0.40625,-2.570313 Q 80.171875,6.3046875 80.9375,5.5234375 81.679687,4.765625 82.726562,4.3671875 83.78125,3.96875 85.0625,3.96875 q 0.9375,0 1.867187,0.2265625 0.9375,0.2265625 2.078125,0.796875 V 6.828125 H 88.890625 Q 87.929687,6.0234375 86.984375,5.65625 86.039062,5.2890625 84.960937,5.2890625 q -0.882812,0 -1.59375,0.2890625 -0.703125,0.28125 -1.257812,0.8828125 -0.539063,0.5859375 -0.84375,1.484375 -0.296875,0.890625 -0.296875,2.0625005 0,1.226562 0.328125,2.109375 0.335937,0.882812 0.859375,1.4375 0.546875,0.578125 1.273437,0.859375 0.734375,0.273437 1.546875,0.273437 1.117188,0 2.09375,-0.382812 0.976563,-0.382813 1.828125,-1.148438 h 0.109375 z"
       id="path8900" />
    <path
       d="M 98.101562,15.8125 H 91.804687 V 14.625 h 2.421875 V 6.828125 h -2.421875 v -1.0625 q 0.492188,0 1.054688,-0.078125 0.5625,-0.085937 0.851562,-0.2421875 0.359375,-0.1953125 0.5625,-0.4921875 0.210938,-0.3046875 0.242188,-0.8125 h 1.210937 V 14.625 h 2.375 z"
       id="path8902" />
    <path
       d="m 108.27344,15.8125 h -6.29688 V 14.625 h 2.42188 V 6.828125 h -2.42188 v -1.0625 q 0.49219,0 1.05469,-0.078125 0.5625,-0.085937 0.85156,-0.2421875 0.35938,-0.1953125 0.5625,-0.4921875 0.21094,-0.3046875 0.24219,-0.8125 h 1.21094 V 14.625 h 2.375 z"
       id="path8904" />
    <path
       d="m 118.44531,15.8125 h -6.29687 V 14.625 h 2.42187 V 6.828125 h -2.42187 v -1.0625 q 0.49219,0 1.05469,-0.078125 0.5625,-0.085937 0.85156,-0.2421875 0.35937,-0.1953125 0.5625,-0.4921875 0.21094,-0.3046875 0.24219,-0.8125 h 1.21093 V 14.625 h 2.375 z"
       id="path8906" />
    <path
       d="m 129.26562,9.9921875 q 0,3.1328125 -0.98437,4.6015625 -0.97656,1.460937 -3.03906,1.460937 -2.09375,0 -3.0625,-1.484374 -0.96094,-1.484375 -0.96094,-4.5625 0,-3.101563 0.97656,-4.5781255 0.97657,-1.484375 3.04688,-1.484375 2.09375,0 3.05468,1.5078125 0.96875,1.5 0.96875,4.5390625 z m -2.05468,3.5468755 q 0.27344,-0.632813 0.36719,-1.484375 0.10156,-0.859375 0.10156,-2.0625005 0,-1.1875 -0.10156,-2.0625 -0.0937,-0.875 -0.375,-1.484375 -0.27344,-0.6015625 -0.75,-0.90625 -0.46875,-0.3046875 -1.21094,-0.3046875 -0.73438,0 -1.21875,0.3046875 -0.47656,0.3046875 -0.75781,0.921875 Q 123,7.0390625 122.89844,7.96875 q -0.0937,0.9296875 -0.0937,2.039063 0,1.21875 0.0859,2.039062 0.0859,0.820313 0.36718,1.46875 0.25782,0.609375 0.72657,0.929688 0.47656,0.320312 1.25781,0.320312 0.73437,0 1.21875,-0.304687 0.48437,-0.304688 0.75,-0.921875 z"
       id="path8908" />
    <path
       d="m 138.78906,15.8125 h -6.29687 V 14.625 h 2.42187 V 6.828125 h -2.42187 v -1.0625 q 0.49218,0 1.05468,-0.078125 0.5625,-0.085937 0.85157,-0.2421875 0.35937,-0.1953125 0.5625,-0.4921875 0.21093,-0.3046875 0.24218,-0.8125 h 1.21094 V 14.625 h 2.375 z"
       id="path8910" />
  </g>
  <metadata
     id="metadata36">
    <rdf:RDF>
      <cc:Work
         rdf:about="">
        <dc:format>image/svg+xml</dc:format>
        <dc:type
           rdf:resource="http://purl.org/dc/dcmitype/StillImage" />
        <dc:title>Dev: D0000</dc:title>
      </cc:Work>
    </rdf:RDF>
  </metadata>
  <defs
     id="defs34" />
  <sodipodi:namedview
     pagecolor="#ffffff"
     bordercolor="#666666"
     borderopacity="1"
     objecttolerance="10"
     gridtolerance="10"
     guidetolerance="10"
     inkscape:pageopacity="0"
     inkscape:pageshadow="2"
     inkscape:window-width="2560"
     inkscape:window-height="1369"
     id="namedview32"
     showgrid="false"
     inkscape:zoom="5.1491878"
     inkscape:cx="129.24368"
     inkscape:cy="-9.6131666"
     inkscape:window-x="2552"
     inkscape:window-y="-8"
     inkscape:window-maximized="1"
     inkscape:current-layer="svg30"
     inkscape:pagecheckerboard="0" />
  <title
     id="title2">Dev: D0000</title>
  <linearGradient
     id="s"
     x2="0"
     y2="1">
    <stop
       offset="0"
       stop-color="#bbb"
       stop-opacity=".1"
       id="stop4" />
    <stop
       offset="1"
       stop-opacity=".1"
       id="stop6" />
  </linearGradient>
  <clipPath
     id="r">
    <rect
       width="78"
       height="20"
       rx="3"
       id="rect9"
       x="0"
       y="0"
       style="fill:#ffffff" />
  </clipPath>
  <g
     clip-path="url(#r)"
     id="g18"
     style="fill:#000000;fill-opacity:0">
    <rect
       width="31"
       height="20"
       id="rect12"
       style="fill:#000000;fill-opacity:0"
       x="0"
       y="0" />
    <rect
       x="31"
       width="47"
       height="20"
       id="rect14"
       style="fill:#000000;fill-opacity:0"
       y="0" />
    <rect
       width="78"
       height="20"
       id="rect16"
       style="fill:#000000;fill-opacity:0"
       x="0"
       y="0" />
  </g>
</svg>
