<?xml version="1.0" encoding="UTF-8" standalone="no"?>
<svg
   width="241"
   height="20"
   role="img"
   aria-label="Dev: D0000"
   version="1.1"
   id="svg30"
   sodipodi:docname="d1-text.svg"
   inkscape:version="1.1.1 (3bf5ae0d25, 2021-09-20)"
   xmlns:inkscape="http://www.inkscape.org/namespaces/inkscape"
   xmlns:sodipodi="http://sodipodi.sourceforge.net/DTD/sodipodi-0.dtd"
   xmlns="http://www.w3.org/2000/svg"
   xmlns:svg="http://www.w3.org/2000/svg"
   xmlns:rdf="http://www.w3.org/1999/02/22-rdf-syntax-ns#"
   xmlns:cc="http://creativecommons.org/ns#"
   xmlns:dc="http://purl.org/dc/elements/1.1/">
  <g
     aria-label="Incremental build "
     id="text7806"
     style="font-size:16px;line-height:1.25">
    <path
       d="M 4.59375,15.957031 H 0 v -1.1875 H 1.5234375 V 5.5117187 H 0 v -1.1875 h 4.59375 v 1.1875 H 3.0703125 V 14.769531 H 4.59375 Z"
       id="path12474" />
    <path
       d="M 14.40625,15.957031 H 12.9375 v -4.96875 q 0,-0.601562 -0.07031,-1.1249997 -0.07031,-0.53125 -0.257813,-0.828125 -0.195312,-0.328125 -0.5625,-0.484375 -0.367187,-0.1640625 -0.953125,-0.1640625 -0.601562,0 -1.2578125,0.296875 -0.65625,0.296875 -1.2578125,0.7578125 V 15.957031 H 7.109375 V 7.2304687 h 1.46875 V 8.1992188 Q 9.265625,7.6289062 10,7.3085937 q 0.734375,-0.3203125 1.507813,-0.3203125 1.414062,0 2.15625,0.8515625 0.742187,0.8515626 0.742187,2.4531253 z"
       id="path12476" />
    <path
       d="m 23.6875,15.410156 q -0.734375,0.351563 -1.398438,0.546875 -0.65625,0.195313 -1.398437,0.195313 -0.945313,0 -1.734375,-0.273438 -0.789063,-0.28125 -1.351563,-0.84375 -0.570312,-0.5625 -0.882812,-1.421875 -0.3125,-0.859375 -0.3125,-2.007812 0,-2.1406252 1.171875,-3.3593752 1.179687,-1.2187501 3.109375,-1.2187501 0.75,0 1.46875,0.2109375 0.726562,0.2109375 1.328125,0.515625 v 1.6328126 h -0.07813 Q 22.9375,8.8632813 22.21875,8.5820313 q -0.710938,-0.28125 -1.390625,-0.28125 -1.25,0 -1.976563,0.84375 -0.71875,0.8359375 -0.71875,2.4609377 0,1.578125 0.703125,2.429687 0.710938,0.84375 1.992188,0.84375 0.445312,0 0.90625,-0.117187 0.460937,-0.117188 0.828125,-0.304688 0.320312,-0.164062 0.601562,-0.34375 0.28125,-0.1875 0.445313,-0.320312 h 0.07813 z"
       id="path12478" />
    <path
       d="M 31.015625,8.8320313 H 30.9375 q -0.328125,-0.078125 -0.640625,-0.109375 -0.304688,-0.039063 -0.726563,-0.039063 -0.679687,0 -1.3125,0.3046875 -0.632812,0.296875 -1.21875,0.7734375 v 6.1953122 h -1.46875 V 7.2304687 h 1.46875 v 1.2890626 q 0.875,-0.7031251 1.539063,-0.9921876 0.671875,-0.296875 1.367187,-0.296875 0.382813,0 0.554688,0.023437 0.171875,0.015625 0.515625,0.070312 z"
       id="path12480" />
    <path
       d="m 39.703125,11.746094 h -6.429688 q 0,0.804687 0.242188,1.40625 0.242187,0.59375 0.664062,0.976562 0.40625,0.375 0.960938,0.5625 0.5625,0.1875 1.234375,0.1875 0.890625,0 1.789062,-0.351562 0.90625,-0.359375 1.289063,-0.703125 h 0.07813 v 1.601562 q -0.742188,0.3125 -1.515625,0.523438 -0.773438,0.210937 -1.625,0.210937 -2.171875,0 -3.390625,-1.171875 -1.21875,-1.179687 -1.21875,-3.34375 0,-2.1406247 1.164062,-3.3984372 1.171875,-1.2578126 3.078125,-1.2578126 1.765625,0 2.71875,1.0312501 0.960938,1.03125 0.960938,2.9296877 z m -1.429688,-1.125 Q 38.265625,9.4648438 37.6875,8.8320313 37.117187,8.1992188 35.945312,8.1992188 q -1.179687,0 -1.882812,0.6953125 -0.695313,0.6953125 -0.789063,1.7265627 z"
       id="path12482" />
    <path
       d="m 54.664062,15.957031 h -1.46875 v -4.96875 q 0,-0.5625 -0.05469,-1.0859372 Q 53.09375,9.3789063 52.929687,9.0664063 52.75,8.7304688 52.414062,8.5585938 q -0.335937,-0.171875 -0.96875,-0.171875 -0.617187,0 -1.234375,0.3125 -0.617187,0.3046875 -1.234375,0.78125 0.02344,0.1796875 0.03906,0.421875 0.01563,0.2343752 0.01563,0.4687502 v 5.585937 H 47.5625 v -4.96875 q 0,-0.578125 -0.05469,-1.0937497 -0.04687,-0.5234375 -0.210937,-0.8359375 -0.179688,-0.3359375 -0.515625,-0.5 -0.335938,-0.171875 -0.96875,-0.171875 -0.601563,0 -1.210938,0.296875 Q 44,8.9804688 43.398437,9.4414063 v 6.5156247 h -1.46875 V 7.2304687 h 1.46875 v 0.9687501 q 0.6875,-0.5703126 1.367188,-0.8906251 0.6875,-0.3203125 1.460937,-0.3203125 0.890625,0 1.507813,0.375 0.625,0.375 0.929687,1.0390626 0.890625,-0.7500001 1.625,-1.0781251 0.734375,-0.3359375 1.570313,-0.3359375 1.4375,0 2.117187,0.875 0.6875,0.8671876 0.6875,2.4296878 z"
       id="path12484" />
    <path
       d="m 64.796875,11.746094 h -6.429688 q 0,0.804687 0.242188,1.40625 0.242187,0.59375 0.664062,0.976562 0.40625,0.375 0.960938,0.5625 0.5625,0.1875 1.234375,0.1875 0.890625,0 1.789062,-0.351562 0.90625,-0.359375 1.289063,-0.703125 H 64.625 v 1.601562 q -0.742188,0.3125 -1.515625,0.523438 -0.773438,0.210937 -1.625,0.210937 -2.171875,0 -3.390625,-1.171875 -1.21875,-1.179687 -1.21875,-3.34375 0,-2.1406247 1.164062,-3.3984372 1.171875,-1.2578126 3.078125,-1.2578126 1.765625,0 2.71875,1.0312501 0.960938,1.03125 0.960938,2.9296877 z m -1.429688,-1.125 Q 63.359375,9.4648438 62.78125,8.8320313 62.210937,8.1992188 61.039062,8.1992188 q -1.179687,0 -1.882812,0.6953125 -0.695313,0.6953125 -0.789063,1.7265627 z"
       id="path12486" />
    <path
       d="m 74.320312,15.957031 h -1.46875 v -4.96875 q 0,-0.601562 -0.07031,-1.1249997 -0.07031,-0.53125 -0.257813,-0.828125 -0.195312,-0.328125 -0.5625,-0.484375 -0.367187,-0.1640625 -0.953125,-0.1640625 -0.601562,0 -1.257812,0.296875 -0.65625,0.296875 -1.257813,0.7578125 v 6.5156247 h -1.46875 V 7.2304687 h 1.46875 v 0.9687501 q 0.6875,-0.5703126 1.421875,-0.8906251 0.734375,-0.3203125 1.507813,-0.3203125 1.414062,0 2.15625,0.8515625 0.742187,0.8515626 0.742187,2.4531253 z"
       id="path12488" />
    <path
       d="m 81.679687,15.878906 q -0.414062,0.109375 -0.90625,0.179688 -0.484375,0.07031 -0.867187,0.07031 -1.335938,0 -2.03125,-0.71875 -0.695313,-0.71875 -0.695313,-2.304687 V 8.4648438 H 76.1875 V 7.2304687 h 0.992187 V 4.7226562 h 1.46875 v 2.5078125 h 3.03125 v 1.2343751 h -3.03125 v 3.9765622 q 0,0.6875 0.03125,1.078125 0.03125,0.382813 0.21875,0.71875 0.171875,0.3125 0.46875,0.460938 0.304688,0.140625 0.921875,0.140625 0.359375,0 0.75,-0.101563 0.390625,-0.109375 0.5625,-0.179687 h 0.07813 z"
       id="path12490" />
    <path
       d="m 90.234375,15.957031 h -1.460938 v -0.929687 q -0.195312,0.132812 -0.53125,0.375 -0.328125,0.234375 -0.640625,0.375 -0.367187,0.179687 -0.84375,0.296875 -0.476562,0.125 -1.117187,0.125 -1.179688,0 -2,-0.78125 -0.820313,-0.78125 -0.820313,-1.992188 0,-0.992187 0.421875,-1.601562 0.429688,-0.617188 1.21875,-0.96875 0.796875,-0.351563 1.914063,-0.476563 1.117187,-0.125 2.398437,-0.1875 V 9.9648438 q 0,-0.5 -0.179687,-0.828125 -0.171875,-0.328125 -0.5,-0.515625 -0.3125,-0.1796875 -0.75,-0.2421875 -0.4375,-0.0625 -0.914063,-0.0625 -0.578125,0 -1.289062,0.15625 -0.710938,0.1484375 -1.46875,0.4375 H 83.59375 V 7.4179687 q 0.429687,-0.1171875 1.242187,-0.2578125 0.8125,-0.140625 1.601563,-0.140625 0.921875,0 1.601562,0.15625 0.6875,0.1484375 1.1875,0.515625 0.492188,0.3593751 0.75,0.9296876 0.257813,0.5703125 0.257813,1.4140622 z m -1.460938,-2.148437 v -2.429688 q -0.671875,0.03906 -1.585937,0.117188 -0.90625,0.07813 -1.4375,0.226562 -0.632813,0.179688 -1.023438,0.5625 -0.390625,0.375 -0.390625,1.039063 0,0.75 0.453125,1.132812 0.453125,0.375 1.382813,0.375 0.773437,0 1.414062,-0.296875 0.640625,-0.304687 1.1875,-0.726562 z"
       id="path12492" />
    <path
       d="m 94.546875,15.957031 h -1.46875 V 3.8007813 h 1.46875 z"
       id="path12494" />
    <path
       d="m 110.75781,11.527344 q 0,1.09375 -0.3125,1.96875 -0.30468,0.875 -0.82812,1.46875 -0.55469,0.617187 -1.21875,0.929687 -0.66406,0.304688 -1.46094,0.304688 -0.74219,0 -1.29687,-0.179688 -0.55469,-0.171875 -1.09375,-0.46875 l -0.0937,0.40625 h -1.375 V 3.8007813 h 1.46875 v 4.34375 q 0.61718,-0.5078126 1.3125,-0.8281251 0.69531,-0.328125 1.5625,-0.328125 1.54687,0 2.4375,1.1875001 0.89843,1.1875 0.89843,3.3515627 z m -1.51562,0.03906 q 0,-1.5625 -0.51563,-2.3671872 -0.51562,-0.8125 -1.66406,-0.8125 -0.64062,0 -1.29687,0.28125 -0.65625,0.2734375 -1.21875,0.7109375 v 4.9999997 q 0.625,0.28125 1.07031,0.390625 0.45312,0.109375 1.02344,0.109375 1.21875,0 1.90625,-0.796875 0.69531,-0.804687 0.69531,-2.515625 z"
       id="path12496" />
    <path
       d="m 120.28125,15.957031 h -1.46875 v -0.96875 q -0.74219,0.585938 -1.42187,0.898438 -0.67969,0.3125 -1.5,0.3125 -1.375,0 -2.14063,-0.835938 -0.76562,-0.84375 -0.76562,-2.46875 V 7.2304687 h 1.46875 v 4.9687503 q 0,0.664062 0.0625,1.140625 0.0625,0.46875 0.26562,0.804687 0.21094,0.34375 0.54688,0.5 0.33593,0.15625 0.97656,0.15625 0.57031,0 1.24219,-0.296875 0.67968,-0.296875 1.26562,-0.757812 V 7.2304687 h 1.46875 z"
       id="path12498" />
    <path
       d="m 124.75,5.7695312 h -1.65625 V 4.2460937 H 124.75 Z m -0.0937,10.1874998 H 123.1875 V 7.2304687 h 1.46875 z"
       id="path12500" />
    <path
       d="m 129.04687,15.957031 h -1.46874 V 3.8007813 h 1.46874 z"
       id="path12502" />
    <path
       d="m 139.03125,15.957031 h -1.46875 v -0.914062 q -0.63281,0.546875 -1.32031,0.851562 -0.6875,0.304688 -1.49219,0.304688 -1.5625,0 -2.48438,-1.203125 -0.91406,-1.203125 -0.91406,-3.335938 0,-1.109375 0.3125,-1.9765622 0.32031,-0.8671875 0.85938,-1.4765625 0.53125,-0.5937501 1.23437,-0.9062501 0.71094,-0.3125 1.46875,-0.3125 0.6875,0 1.21875,0.1484375 0.53125,0.140625 1.11719,0.4453125 V 3.8007813 h 1.46875 z M 137.5625,13.808594 V 8.8007813 q -0.59375,-0.265625 -1.0625,-0.3671875 -0.46875,-0.1015625 -1.02344,-0.1015625 -1.23437,0 -1.92187,0.859375 -0.6875,0.8593747 -0.6875,2.4374997 0,1.554688 0.53125,2.367188 0.53125,0.804687 1.70312,0.804687 0.625,0 1.26563,-0.273437 0.64062,-0.28125 1.19531,-0.71875 z"
       id="path12504" />
  </g>
  <metadata
     id="metadata36">
    <rdf:RDF>
      <cc:Work
         rdf:about="">
        <dc:format>image/svg+xml</dc:format>
        <dc:type
           rdf:resource="http://purl.org/dc/dcmitype/StillImage" />
        <dc:title>Dev: D0000</dc:title>
      </cc:Work>
    </rdf:RDF>
  </metadata>
  <defs
     id="defs34" />
  <sodipodi:namedview
     pagecolor="#ffffff"
     bordercolor="#666666"
     borderopacity="1"
     objecttolerance="10"
     gridtolerance="10"
     guidetolerance="10"
     inkscape:pageopacity="0"
     inkscape:pageshadow="2"
     inkscape:window-width="2560"
     inkscape:window-height="1369"
     id="namedview32"
     showgrid="false"
     inkscape:zoom="7.2820512"
     inkscape:cx="113.49824"
     inkscape:cy="-26.297536"
     inkscape:window-x="2552"
     inkscape:window-y="-8"
     inkscape:window-maximized="1"
     inkscape:current-layer="svg30"
     inkscape:pagecheckerboard="0" />
  <title
     id="title2">Dev: D0000</title>
  <linearGradient
     id="s"
     x2="0"
     y2="1">
    <stop
       offset="0"
       stop-color="#bbb"
       stop-opacity=".1"
       id="stop4" />
    <stop
       offset="1"
       stop-opacity=".1"
       id="stop6" />
  </linearGradient>
  <clipPath
     id="r">
    <rect
       width="78"
       height="20"
       rx="3"
       id="rect9"
       x="0"
       y="0"
       style="fill:#ffffff" />
  </clipPath>
</svg>
