<?xml version="1.0" encoding="UTF-8" standalone="no"?>
<svg
   xmlns:dc="http://purl.org/dc/elements/1.1/"
   xmlns:cc="http://creativecommons.org/ns#"
   xmlns:rdf="http://www.w3.org/1999/02/22-rdf-syntax-ns#"
   xmlns:svg="http://www.w3.org/2000/svg"
   xmlns="http://www.w3.org/2000/svg"
   xmlns:sodipodi="http://sodipodi.sourceforge.net/DTD/sodipodi-0.dtd"
   xmlns:inkscape="http://www.inkscape.org/namespaces/inkscape"
   width="261.32401"
   height="20"
   role="img"
   aria-label="Dev: D0000"
   version="1.1"
   id="svg30"
   sodipodi:docname="m1-text.svg"
   inkscape:version="0.92.4 (5da689c313, 2019-01-14)">
  <metadata
     id="metadata36">
    <rdf:RDF>
      <cc:Work
         rdf:about="">
        <dc:format>image/svg+xml</dc:format>
        <dc:type
           rdf:resource="http://purl.org/dc/dcmitype/StillImage" />
        <dc:title>Dev: D0000</dc:title>
      </cc:Work>
    </rdf:RDF>
  </metadata>
  <defs
     id="defs34" />
  <sodipodi:namedview
     pagecolor="#ffffff"
     bordercolor="#666666"
     borderopacity="1"
     objecttolerance="10"
     gridtolerance="10"
     guidetolerance="10"
     inkscape:pageopacity="0"
     inkscape:pageshadow="2"
     inkscape:window-width="2560"
     inkscape:window-height="1377"
     id="namedview32"
     showgrid="false"
     inkscape:zoom="5.1491878"
     inkscape:cx="66.962222"
     inkscape:cy="-13.734838"
     inkscape:window-x="2552"
     inkscape:window-y="-6"
     inkscape:window-maximized="1"
     inkscape:current-layer="svg30" />
  <title
     id="title2">Dev: D0000</title>
  <linearGradient
     id="s"
     x2="0"
     y2="1">
    <stop
       offset="0"
       stop-color="#bbb"
       stop-opacity=".1"
       id="stop4" />
    <stop
       offset="1"
       stop-opacity=".1"
       id="stop6" />
  </linearGradient>
  <clipPath
     id="r">
    <rect
       width="78"
       height="20"
       rx="3"
       id="rect9"
       x="0"
       y="0"
       style="fill:#ffffff" />
  </clipPath>
  <g
     aria-label="FC18151 write protection added"
     style="font-style:normal;font-variant:normal;font-weight:normal;font-stretch:normal;font-size:16px;line-height:1.25;font-family:'Segoe UI';-inkscape-font-specification:'Segoe UI, Normal';font-variant-ligatures:normal;font-variant-caps:normal;font-variant-numeric:normal;font-feature-settings:ss02;text-align:start;letter-spacing:0px;word-spacing:0px;writing-mode:lr-tb;text-anchor:start;fill:#000000;fill-opacity:1;stroke:none"
     id="text845">
    <path
       d="m 5.6875,4.0664062 h -4.375 v 3.875 H 5.359375 V 9.1210938 H 1.3125 V 14.082031 H 0 V 2.8789063 h 5.6875 z"
       style=""
       id="path847" />
    <path
       d="m 15.4375,13.613281 q -1.242187,0.65625 -3.09375,0.65625 -2.390625,0 -3.828125,-1.539062 -1.4375,-1.539063 -1.4375,-4.0390627 0,-2.6875001 1.6171875,-4.3437501 1.6171875,-1.6562499 4.1015625,-1.6562499 1.59375,0 2.640625,0.4609375 v 1.3984374 q -1.203125,-0.6718749 -2.65625,-0.6718749 -1.929687,0 -3.1328125,1.2890624 -1.1953125,1.2890625 -1.1953125,3.4453126 0,2.0468747 1.1171875,3.2656247 1.1250005,1.210938 2.9453125,1.210938 1.6875,0 2.921875,-0.75 z"
       style=""
       id="path849" />
    <path
       d="M 21.90625,14.082031 H 20.625 V 4.4023437 q -0.148438,0.1484375 -0.4375,0.34375 -0.28125,0.1875 -0.640625,0.375 -0.351563,0.1875 -0.75,0.3515625 -0.390625,0.1640625 -0.765625,0.2578125 v -1.296875 q 0.421875,-0.1171875 0.890625,-0.3125 0.476562,-0.2031249 0.929687,-0.4453124 0.460938,-0.25 0.867188,-0.515625 0.40625,-0.2734375 0.703125,-0.53125 h 0.484375 z"
       style=""
       id="path851" />
    <path
       d="m 25.578125,10.957031 q 0,-0.445312 0.140625,-0.890625 0.140625,-0.4531247 0.398437,-0.8437497 0.265625,-0.390625 0.648438,-0.7109375 Q 27.15625,8.1914063 27.648437,8.0039063 26.921875,7.5976562 26.492187,6.9648437 26.0625,6.3242187 26.0625,5.5507812 q 0,-0.6171875 0.234375,-1.140625 0.242187,-0.5234374 0.664062,-0.9062499 0.421875,-0.3828125 1,-0.59375 0.578125,-0.21875 1.25,-0.21875 0.679688,0 1.257813,0.21875 0.578125,0.21875 1,0.6015625 0.421875,0.3828125 0.65625,0.9062499 0.234375,0.5234375 0.234375,1.1328125 0,0.7734375 -0.429688,1.4140625 Q 31.5,7.5976562 30.789062,8.0039063 q 0.484375,0.1875 0.867188,0.5078125 0.382812,0.3203125 0.640625,0.7109375 0.265625,0.390625 0.40625,0.8437497 0.140625,0.445313 0.140625,0.890625 0,0.734375 -0.265625,1.34375 -0.265625,0.609375 -0.75,1.046875 -0.476563,0.429688 -1.148438,0.671875 -0.664062,0.242188 -1.46875,0.242188 -0.796875,0 -1.460937,-0.242188 -0.664063,-0.242187 -1.148438,-0.671875 -0.484375,-0.4375 -0.757812,-1.046875 -0.265625,-0.609375 -0.265625,-1.34375 z m 1.390625,-0.109375 q 0,0.523438 0.15625,0.945313 0.164062,0.421875 0.453125,0.71875 0.296875,0.296875 0.710937,0.460937 0.421875,0.15625 0.929688,0.15625 0.492187,0 0.90625,-0.164062 0.414062,-0.164063 0.710937,-0.460938 0.304688,-0.296875 0.46875,-0.71875 0.171875,-0.421875 0.171875,-0.9375 0,-0.46875 -0.164062,-0.8749997 Q 31.15625,9.5585938 30.859375,9.2460938 30.5625,8.9335938 30.148437,8.7539063 29.734375,8.5742188 29.21875,8.5742188 q -0.484375,0 -0.898438,0.171875 -0.40625,0.1640625 -0.710937,0.46875 -0.296875,0.296875 -0.46875,0.71875 -0.171875,0.4140622 -0.171875,0.9140622 z m 0.398437,-5.1953123 q 0,0.3984375 0.140625,0.7421875 0.148438,0.3359375 0.398438,0.59375 0.257812,0.25 0.59375,0.3984375 0.335937,0.140625 0.71875,0.140625 0.382812,0 0.71875,-0.1484375 0.34375,-0.1484375 0.59375,-0.3984375 0.25,-0.2578125 0.398437,-0.59375 0.148438,-0.34375 0.148438,-0.734375 0,-0.40625 -0.148438,-0.75 -0.140625,-0.34375 -0.390625,-0.59375 -0.25,-0.25 -0.59375,-0.3906249 -0.335937,-0.1484375 -0.726562,-0.1484375 -0.414063,0 -0.757813,0.1484375 Q 28.125,4.0664062 27.875,4.3242187 q -0.242188,0.25 -0.375,0.59375 -0.132813,0.34375 -0.132813,0.734375 z"
       style=""
       id="path853" />
    <path
       d="M 39.15625,14.082031 H 37.875 V 4.4023437 q -0.148438,0.1484375 -0.4375,0.34375 -0.28125,0.1875 -0.640625,0.375 -0.351563,0.1875 -0.75,0.3515625 -0.390625,0.1640625 -0.765625,0.2578125 v -1.296875 q 0.421875,-0.1171875 0.890625,-0.3125 0.476562,-0.2031249 0.929687,-0.4453124 0.460938,-0.25 0.867188,-0.515625 0.40625,-0.2734375 0.703125,-0.53125 h 0.484375 z"
       style=""
       id="path855" />
    <path
       d="m 49.695312,10.660156 q 0,0.820313 -0.28125,1.484375 -0.28125,0.664063 -0.804687,1.140625 -0.515625,0.476563 -1.25,0.734375 -0.734375,0.257813 -1.632813,0.257813 -1.5625,0 -2.320312,-0.46875 v -1.359375 q 1.140625,0.734375 2.335937,0.734375 0.609375,0 1.09375,-0.179688 0.492188,-0.179687 0.835938,-0.5 0.34375,-0.320312 0.523437,-0.773437 0.1875,-0.453125 0.1875,-0.992188 0,-1.0937497 -0.734375,-1.7109372 -0.734375,-0.625 -2.132812,-0.625 -0.226563,0 -0.476563,0.00781 -0.25,0.00781 -0.5,0.023437 -0.25,0.00781 -0.492187,0.023437 -0.234375,0.015625 -0.429688,0.039063 L 44,2.8789063 h 5.179687 v 1.1562499 h -4.070312 l -0.226563,3.2890625 q 0.25,-0.015625 0.53125,-0.023437 0.28125,-0.015625 0.5,-0.015625 0.890625,0 1.59375,0.234375 0.703125,0.234375 1.1875,0.6718751 0.492188,0.4296875 0.742188,1.0625 0.257812,0.625 0.257812,1.4062497 z"
       style=""
       id="path857" />
    <path
       d="M 56.40625,14.082031 H 55.125 V 4.4023437 q -0.148438,0.1484375 -0.4375,0.34375 -0.28125,0.1875 -0.640625,0.375 -0.351563,0.1875 -0.75,0.3515625 -0.390625,0.1640625 -0.765625,0.2578125 v -1.296875 q 0.421875,-0.1171875 0.890625,-0.3125 0.476562,-0.2031249 0.929687,-0.4453124 0.460938,-0.25 0.867188,-0.515625 0.40625,-0.2734375 0.703125,-0.53125 h 0.484375 z"
       style=""
       id="path859" />
    <path
       d="M 75.125,6.0820312 72.726562,14.082031 H 71.398437 L 69.75,8.3554688 Q 69.65625,8.0273438 69.625,7.6132812 h -0.03125 q -0.02344,0.28125 -0.164063,0.7265626 l -1.789062,5.7421872 h -1.28125 L 63.9375,6.0820312 h 1.34375 l 1.65625,6.0156248 q 0.07813,0.273438 0.109375,0.71875 h 0.0625 q 0.02344,-0.34375 0.140625,-0.734375 l 1.84375,-5.9999998 h 1.171875 l 1.65625,6.0312498 Q 72,12.402344 72.039062,12.832031 h 0.0625 q 0.01563,-0.304687 0.132813,-0.71875 l 1.625,-6.0312498 z"
       style=""
       id="path861" />
    <path
       d="M 80.78125,7.3789062 Q 80.445312,7.1210937 79.8125,7.1210937 q -0.820313,0 -1.375,0.7734375 -0.546875,0.7734376 -0.546875,2.1093748 v 4.078125 h -1.28125 V 6.0820312 h 1.28125 v 1.6484375 h 0.03125 q 0.273437,-0.84375 0.835937,-1.3125 0.5625,-0.4765625 1.257813,-0.4765625 0.5,0 0.765625,0.109375 z"
       style=""
       id="path863" />
    <path
       d="m 82.828125,4.0507812 q -0.34375,0 -0.585938,-0.2343749 Q 82,3.5820313 82,3.2226563 q 0,-0.359375 0.242187,-0.59375 0.242188,-0.2421875 0.585938,-0.2421875 0.351562,0 0.59375,0.2421875 0.25,0.234375 0.25,0.59375 0,0.34375 -0.25,0.5859375 -0.242188,0.2421874 -0.59375,0.2421874 z m 0.625,10.0312498 h -1.28125 V 6.0820312 h 1.28125 z"
       style=""
       id="path865" />
    <path
       d="m 89.757812,14.003906 q -0.453125,0.25 -1.195312,0.25 -2.101563,0 -2.101563,-2.34375 V 7.1757812 h -1.375 v -1.09375 h 1.375 v -1.953125 l 1.28125,-0.4140624 v 2.3671874 h 2.015625 v 1.09375 h -2.015625 v 4.5078128 q 0,0.804687 0.273438,1.148437 0.273437,0.34375 0.90625,0.34375 0.484375,0 0.835937,-0.265625 z"
       style=""
       id="path867" />
    <path
       d="m 97.914062,10.402344 h -5.648437 q 0.03125,1.335937 0.71875,2.0625 0.6875,0.726562 1.890625,0.726562 1.351562,0 2.484375,-0.890625 v 1.203125 q -1.054688,0.765625 -2.789063,0.765625 -1.695312,0 -2.664062,-1.085937 -0.96875,-1.09375 -0.96875,-3.070313 0,-1.8671872 1.054687,-3.0390623 1.0625,-1.1796875 2.632813,-1.1796875 1.570312,0 2.429687,1.015625 0.859375,1.015625 0.859375,2.8203126 z m -1.3125,-1.0859377 Q 96.59375,8.2070313 96.0625,7.5898437 95.539062,6.9726562 94.601562,6.9726562 q -0.90625,0 -1.539062,0.6484375 -0.632813,0.6484376 -0.78125,1.6953126 z"
       style=""
       id="path869" />
    <path
       d="m 105.54688,12.925781 h -0.0312 v 4.835938 h -1.28125 V 6.0820312 h 1.28125 v 1.40625 h 0.0312 q 0.94531,-1.59375 2.76562,-1.59375 1.54688,0 2.41406,1.078125 0.86719,1.0703126 0.86719,2.8750001 0,2.0078127 -0.97656,3.2187497 -0.97656,1.203125 -2.67188,1.203125 -1.55468,0 -2.39843,-1.34375 z m -0.0312,-3.2265622 v 1.1171872 q 0,0.992188 0.64062,1.6875 0.64844,0.6875 1.64063,0.6875 1.16406,0 1.82031,-0.890625 0.66406,-0.890625 0.66406,-2.4765622 0,-1.3359375 -0.61719,-2.0937501 -0.61718,-0.7578125 -1.67187,-0.7578125 -1.11719,0 -1.79688,0.78125 -0.67968,0.7734376 -0.67968,1.9453126 z"
       style=""
       id="path871" />
    <path
       d="m 117.8125,7.3789062 q -0.33594,-0.2578125 -0.96875,-0.2578125 -0.82031,0 -1.375,0.7734375 -0.54687,0.7734376 -0.54687,2.1093748 v 4.078125 h -1.28125 V 6.0820312 h 1.28125 v 1.6484375 h 0.0312 q 0.27343,-0.84375 0.83593,-1.3125 0.5625,-0.4765625 1.25782,-0.4765625 0.5,0 0.76562,0.109375 z"
       style=""
       id="path873" />
    <path
       d="m 122.54688,14.269531 q -1.77344,0 -2.83594,-1.117187 -1.05469,-1.125 -1.05469,-2.976563 0,-2.0156247 1.10156,-3.1484373 1.10157,-1.1328125 2.97657,-1.1328125 1.78906,0 2.78906,1.1015625 1.00781,1.1015626 1.00781,3.0546873 0,1.914063 -1.08594,3.070313 -1.07812,1.148437 -2.89843,1.148437 z m 0.0937,-7.2968748 q -1.23438,0 -1.95313,0.84375 -0.71875,0.8359376 -0.71875,2.3124998 0,1.421875 0.72656,2.242188 0.72657,0.820312 1.94532,0.820312 1.24218,0 1.90625,-0.804687 0.67187,-0.804688 0.67187,-2.289063 0,-1.4999997 -0.67187,-2.3124998 -0.66407,-0.8125 -1.90625,-0.8125 z"
       style=""
       id="path875" />
    <path
       d="m 132.28906,14.003906 q -0.45312,0.25 -1.19531,0.25 -2.10156,0 -2.10156,-2.34375 V 7.1757812 h -1.375 v -1.09375 h 1.375 v -1.953125 l 1.28125,-0.4140624 v 2.3671874 h 2.01562 v 1.09375 h -2.01562 v 4.5078128 q 0,0.804687 0.27343,1.148437 0.27344,0.34375 0.90625,0.34375 0.48438,0 0.83594,-0.265625 z"
       style=""
       id="path877" />
    <path
       d="m 140.44531,10.402344 h -5.64844 q 0.0312,1.335937 0.71875,2.0625 0.6875,0.726562 1.89063,0.726562 1.35156,0 2.48437,-0.890625 v 1.203125 q -1.05468,0.765625 -2.78906,0.765625 -1.69531,0 -2.66406,-1.085937 -0.96875,-1.09375 -0.96875,-3.070313 0,-1.8671872 1.05469,-3.0390623 1.0625,-1.1796875 2.63281,-1.1796875 1.57031,0 2.42969,1.015625 0.85937,1.015625 0.85937,2.8203126 z m -1.3125,-1.0859377 q -0.008,-1.109375 -0.53906,-1.7265626 -0.52344,-0.6171875 -1.46094,-0.6171875 -0.90625,0 -1.53906,0.6484375 -0.63281,0.6484376 -0.78125,1.6953126 z"
       style=""
       id="path879" />
    <path
       d="m 147.84375,13.714844 q -0.92188,0.554687 -2.1875,0.554687 -1.71094,0 -2.76563,-1.109375 -1.04687,-1.117187 -1.04687,-2.890625 0,-1.9765622 1.13281,-3.1718748 1.13281,-1.203125 3.02344,-1.203125 1.05469,0 1.85937,0.390625 v 1.3125 q -0.89062,-0.625 -1.90625,-0.625 -1.22656,0 -2.01562,0.8828125 -0.78125,0.8750001 -0.78125,2.3046873 0,1.40625 0.73437,2.21875 0.74219,0.8125 1.98438,0.8125 1.04687,0 1.96875,-0.695312 z"
       style=""
       id="path881" />
    <path
       d="m 153.50781,14.003906 q -0.45312,0.25 -1.19531,0.25 -2.10156,0 -2.10156,-2.34375 V 7.1757812 h -1.375 v -1.09375 h 1.375 v -1.953125 l 1.28125,-0.4140624 v 2.3671874 h 2.01562 v 1.09375 h -2.01562 v 4.5078128 q 0,0.804687 0.27343,1.148437 0.27344,0.34375 0.90625,0.34375 0.48438,0 0.83594,-0.265625 z"
       style=""
       id="path883" />
    <path
       d="m 155.89062,4.0507812 q -0.34375,0 -0.58593,-0.2343749 -0.24219,-0.234375 -0.24219,-0.59375 0,-0.359375 0.24219,-0.59375 0.24218,-0.2421875 0.58593,-0.2421875 0.35157,0 0.59375,0.2421875 0.25,0.234375 0.25,0.59375 0,0.34375 -0.25,0.5859375 -0.24218,0.2421874 -0.59375,0.2421874 z m 0.625,10.0312498 h -1.28125 V 6.0820312 h 1.28125 z"
       style=""
       id="path885" />
    <path
       d="m 162.45312,14.269531 q -1.77343,0 -2.83593,-1.117187 -1.05469,-1.125 -1.05469,-2.976563 0,-2.0156247 1.10156,-3.1484373 1.10156,-1.1328125 2.97656,-1.1328125 1.78907,0 2.78907,1.1015625 1.00781,1.1015626 1.00781,3.0546873 0,1.914063 -1.08594,3.070313 -1.07812,1.148437 -2.89844,1.148437 z m 0.0937,-7.2968748 q -1.23437,0 -1.95312,0.84375 -0.71875,0.8359376 -0.71875,2.3124998 0,1.421875 0.72656,2.242188 0.72656,0.820312 1.94531,0.820312 1.24219,0 1.90625,-0.804687 0.67188,-0.804688 0.67188,-2.289063 0,-1.4999997 -0.67188,-2.3124998 -0.66406,-0.8125 -1.90625,-0.8125 z"
       style=""
       id="path887" />
    <path
       d="m 175.125,14.082031 h -1.28125 V 9.5195313 q 0,-2.5468751 -1.85938,-2.5468751 -0.96093,0 -1.59375,0.7265625 -0.625,0.7187501 -0.625,1.8203126 v 4.5624997 h -1.28125 V 6.0820312 h 1.28125 v 1.328125 h 0.0312 q 0.90625,-1.515625 2.625,-1.515625 1.3125,0 2.00782,0.8515625 0.69531,0.84375 0.69531,2.4453126 z"
       style=""
       id="path889" />
    <path
       d="m 187.64844,14.082031 h -1.28125 v -1.25 h -0.0312 q -0.83594,1.4375 -2.46094,1.4375 -1.19531,0 -1.875,-0.632812 -0.67188,-0.632813 -0.67188,-1.679688 0,-2.2421872 2.64063,-2.6093747 l 2.39844,-0.3359375 q 0,-2.0390626 -1.64844,-2.0390626 -1.44531,0 -2.60938,0.984375 v -1.3125 q 1.17969,-0.75 2.71875,-0.75 2.82032,0 2.82032,2.9843751 z m -1.28125,-4.046875 -1.92969,0.265625 q -0.89063,0.125 -1.34375,0.445313 -0.45313,0.3125 -0.45313,1.117187 0,0.585938 0.41407,0.960938 0.42187,0.367187 1.11718,0.367187 0.95313,0 1.57032,-0.664062 0.625,-0.671875 0.625,-1.695313 z"
       style=""
       id="path891" />
    <path
       d="M 196.90625,14.082031 H 195.625 v -1.359375 h -0.0312 q -0.89063,1.546875 -2.75,1.546875 -1.50781,0 -2.41406,-1.070312 -0.89844,-1.078125 -0.89844,-2.929688 0,-1.9843747 1,-3.1796873 1,-1.1953125 2.66406,-1.1953125 1.64844,0 2.39844,1.296875 h 0.0312 V 2.2382813 h 1.28125 z M 195.625,10.464844 V 9.2851563 q 0,-0.96875 -0.64063,-1.6406251 -0.64062,-0.671875 -1.625,-0.671875 -1.17187,0 -1.84375,0.859375 -0.67187,0.8593751 -0.67187,2.3749998 0,1.382813 0.64062,2.1875 0.64844,0.796875 1.73438,0.796875 1.07031,0 1.73437,-0.773437 0.67188,-0.773438 0.67188,-1.953125 z"
       style=""
       id="path893" />
    <path
       d="m 206.34375,14.082031 h -1.28125 v -1.359375 h -0.0312 q -0.89063,1.546875 -2.75,1.546875 -1.50781,0 -2.41406,-1.070312 -0.89844,-1.078125 -0.89844,-2.929688 0,-1.9843747 1,-3.1796873 1,-1.1953125 2.66406,-1.1953125 1.64844,0 2.39844,1.296875 h 0.0312 V 2.2382813 h 1.28125 z M 205.0625,10.464844 V 9.2851563 q 0,-0.96875 -0.64063,-1.6406251 -0.64062,-0.671875 -1.625,-0.671875 -1.17187,0 -1.84375,0.859375 -0.67187,0.8593751 -0.67187,2.3749998 0,1.382813 0.64062,2.1875 0.64844,0.796875 1.73438,0.796875 1.07031,0 1.73437,-0.773437 0.67188,-0.773438 0.67188,-1.953125 z"
       style=""
       id="path895" />
    <path
       d="m 215.38281,10.402344 h -5.64844 q 0.0312,1.335937 0.71875,2.0625 0.6875,0.726562 1.89063,0.726562 1.35156,0 2.48437,-0.890625 v 1.203125 q -1.05468,0.765625 -2.78906,0.765625 -1.69531,0 -2.66406,-1.085937 -0.96875,-1.09375 -0.96875,-3.070313 0,-1.8671872 1.05469,-3.0390623 1.0625,-1.1796875 2.63281,-1.1796875 1.57031,0 2.42969,1.015625 0.85937,1.015625 0.85937,2.8203126 z m -1.3125,-1.0859377 q -0.008,-1.109375 -0.53906,-1.7265626 -0.52344,-0.6171875 -1.46094,-0.6171875 -0.90625,0 -1.53906,0.6484375 -0.63281,0.6484376 -0.78125,1.6953126 z"
       style=""
       id="path897" />
    <path
       d="M 224.15625,14.082031 H 222.875 v -1.359375 h -0.0312 q -0.89063,1.546875 -2.75,1.546875 -1.50781,0 -2.41406,-1.070312 -0.89844,-1.078125 -0.89844,-2.929688 0,-1.9843747 1,-3.1796873 1,-1.1953125 2.66406,-1.1953125 1.64844,0 2.39844,1.296875 h 0.0312 V 2.2382813 h 1.28125 z M 222.875,10.464844 V 9.2851563 q 0,-0.96875 -0.64063,-1.6406251 -0.64062,-0.671875 -1.625,-0.671875 -1.17187,0 -1.84375,0.859375 -0.67187,0.8593751 -0.67187,2.3749998 0,1.382813 0.64062,2.1875 0.64844,0.796875 1.73438,0.796875 1.07031,0 1.73437,-0.773437 0.67188,-0.773438 0.67188,-1.953125 z"
       style=""
       id="path899" />
  </g>
</svg>
