<?xml version="1.0" encoding="UTF-8" standalone="no"?>
<!-- Generated by Microsoft Visio, SVG Export fig-05-0-min.svg Page-1 -->

<svg
   xmlns:v="http://schemas.microsoft.com/visio/2003/SVGExtensions/"
   xmlns:dc="http://purl.org/dc/elements/1.1/"
   xmlns:cc="http://creativecommons.org/ns#"
   xmlns:rdf="http://www.w3.org/1999/02/22-rdf-syntax-ns#"
   xmlns:svg="http://www.w3.org/2000/svg"
   xmlns="http://www.w3.org/2000/svg"
   xmlns:sodipodi="http://sodipodi.sourceforge.net/DTD/sodipodi-0.dtd"
   xmlns:inkscape="http://www.inkscape.org/namespaces/inkscape"
   width="2.03776in"
   height="3.0816in"
   viewBox="0 0 146.719 221.875"
   xml:space="preserve"
   color-interpolation-filters="sRGB"
   class="st14"
   version="1.1"
   id="svg256"
   sodipodi:docname="fig-05-0-min.svg"
   inkscape:version="0.92.4 (5da689c313, 2019-01-14)"><metadata
   id="metadata260"><rdf:RDF><cc:Work
       rdf:about=""><dc:format>image/svg+xml</dc:format><dc:type
         rdf:resource="http://purl.org/dc/dcmitype/StillImage" /></cc:Work></rdf:RDF></metadata><sodipodi:namedview
   pagecolor="#ffffff"
   bordercolor="#666666"
   borderopacity="1"
   objecttolerance="10"
   gridtolerance="10"
   guidetolerance="10"
   inkscape:pageopacity="0"
   inkscape:pageshadow="2"
   inkscape:window-width="2560"
   inkscape:window-height="1377"
   id="namedview258"
   showgrid="false"
   inkscape:zoom="4.0903011"
   inkscape:cx="97.812351"
   inkscape:cy="148.1668"
   inkscape:window-x="-8"
   inkscape:window-y="-8"
   inkscape:window-maximized="1"
   inkscape:current-layer="svg256" />
	<title
   id="title2">GC Standard Document - Standard Drawing</title>
	<desc
   id="desc4">T0-1103-001 R01.00 General Drawing

REVISION
-------------------------------------------------------
01.00  Released for use</desc>
	<v:documentProperties
   v:langID="2057"
   v:metric="true"
   v:viewMarkup="false">
		<v:userDefs>
			<v:ud
   v:nameU="msvConvertTheme" />
		</v:userDefs>
	</v:documentProperties>

	<style
   type="text/css"
   id="style6">
	<![CDATA[
		.st1 {stroke:#000000;stroke-linecap:round;stroke-linejoin:round;stroke-width:0.75}
		.st2 {fill:none;stroke:none;stroke-linecap:round;stroke-linejoin:round;stroke-width:0.75}
		.st3 {fill:#000000;font-family:Segoe UI;font-size:0.583328em;font-weight:bold}
		.st4 {fill:#000000;font-family:Segoe UI;font-size:0.583328em}
		.st5 {fill:#9dbb61;stroke:#000000;stroke-linecap:round;stroke-linejoin:round;stroke-width:0.5}
		.st6 {fill:url(#grad0-41);stroke:#000000;stroke-linecap:round;stroke-linejoin:round;stroke-width:0.5}
		.st7 {fill:none;stroke:#ea700d;stroke-linecap:round;stroke-linejoin:round;stroke-width:0.75}
		.st8 {fill:#ff6c09;font-family:Segoe UI;font-size:0.583328em;font-weight:bold}
		.st9 {fill:#923931;stroke:#000000;stroke-linecap:round;stroke-linejoin:round;stroke-width:0.5}
		.st10 {fill:url(#grad0-59);stroke:#000000;stroke-linecap:round;stroke-linejoin:round;stroke-width:0.5}
		.st11 {fill:#f59d56;stroke:#000000;stroke-linecap:round;stroke-linejoin:round;stroke-width:0.5}
		.st12 {fill:url(#grad0-90);stroke:#000000;stroke-linecap:round;stroke-linejoin:round;stroke-width:0.5}
		.st13 {fill:#923931;font-family:Segoe UI;font-size:0.583328em}
		.st14 {fill:none;fill-rule:evenodd;font-size:12px;overflow:visible;stroke-linecap:square;stroke-miterlimit:3}
	]]>
	</style>

	<defs
   id="Patterns_And_Gradients">
		<linearGradient
   id="grad0-41"
   x1="0"
   y1="0"
   x2="1"
   y2="0"
   gradientTransform="rotate(180 0.5 0.5)">
			<stop
   offset="0"
   stop-color="#c4d6a0"
   stop-opacity="1"
   id="stop8" />
			<stop
   offset="1"
   stop-color="#789440"
   stop-opacity="1"
   id="stop10" />
		</linearGradient>
		<linearGradient
   id="grad0-59"
   x1="0"
   y1="0"
   x2="1"
   y2="0"
   gradientTransform="rotate(180 0.5 0.5)">
			<stop
   offset="0"
   stop-color="#e5b9b5"
   stop-opacity="1"
   id="stop13" />
			<stop
   offset="1"
   stop-color="#923931"
   stop-opacity="1"
   id="stop15" />
		</linearGradient>
		<linearGradient
   id="grad0-90"
   x1="0"
   y1="0"
   x2="1"
   y2="0"
   gradientTransform="rotate(180 0.5 0.5)">
			<stop
   offset="0"
   stop-color="#f9c499"
   stop-opacity="1"
   id="stop18" />
			<stop
   offset="1"
   stop-color="#ea700d"
   stop-opacity="1"
   id="stop20" />
		</linearGradient>
	</defs>
	<g
   v:mID="0"
   v:index="1"
   v:groupContext="foregroundPage"
   id="g254">
		<title
   id="title24">Page-1</title>
		<v:pageProperties
   v:drawingScale="2.66667"
   v:pageScale="0.166667"
   v:drawingUnits="28"
   v:shadowOffsetX="8.50394"
   v:shadowOffsetY="-8.50394" />
		<v:layer
   v:name="03-workflow"
   v:index="0" />
		<g
   id="group1522-1"
   transform="translate(0.375,-0.375)"
   v:mID="1522"
   v:groupContext="group">
			<title
   id="title26">Sheet.1522</title>
			<g
   id="shape1475-2"
   v:mID="1475"
   v:groupContext="shape"
   transform="translate(-186.156,118.365) rotate(-89.9525)">
				<title
   id="title28">Sheet.1475</title>
				<path
   d="M0 221.88 L37.67 221.88"
   class="st1"
   id="path30" />
			</g>
			<g
   id="shape1476-5"
   v:mID="1476"
   v:groupContext="shape"
   transform="translate(-186.031,70.5494) rotate(-90)">
				<title
   id="title33">Sheet.1476</title>
				<path
   d="M0 221.88 L23.42 221.88"
   class="st1"
   id="path35" />
			</g>
			<g
   id="shape1477-8"
   v:mID="1477"
   v:groupContext="shape"
   v:layerMember="0"
   transform="translate(46.2187,-209.25)">
				<title
   id="title38">Sheet.1477</title>
				<desc
   id="desc40">D:/Projects</desc>
				<v:textBlock
   v:margins="rect(0,0,0,0)"
   v:tabSpace="42.5197" />
				<v:textRect
   cx="43.875"
   cy="216.687"
   width="87.76"
   height="10.375" />
				<rect
   x="0"
   y="211.5"
   width="87.75"
   height="10.375"
   class="st2"
   id="rect42" />
				<g
   aria-label="D:/Projects"
   style="font-weight:bold;font-size:6.9999361px;font-family:'Segoe UI';fill:#000000"
   id="text44"><path
     d="m 0.56054176,218.61 v -4.90132 H 2.296854 q 2.6113043,0 2.6113043,2.38914 0,1.14501 -0.7143489,1.82859 Q 3.4828784,218.61 2.296854,218.61 Z m 1.10399384,-4.0024 v 3.1069 h 0.54687 q 0.7177669,0 1.1245014,-0.43066 0.4101526,-0.43066 0.4101526,-1.17235 0,-0.70068 -0.4067346,-1.10058 -0.4033166,-0.40331 -1.1347553,-0.40331 z"
     style="font-weight:bold;font-size:6.9999361px;font-family:'Segoe UI';fill:#000000"
     id="path1263" /><path
     d="m 6.1044364,216.19352 q -0.2665991,0 -0.4443318,-0.16064 -0.1777328,-0.16407 -0.1777328,-0.40332 0,-0.24609 0.1811507,-0.40332 0.1845686,-0.15722 0.4580036,-0.15722 0.276853,0 0.4511678,0.16064 0.1777327,0.15723 0.1777327,0.3999 0,0.24951 -0.1811507,0.40673 -0.1777327,0.15723 -0.4648395,0.15723 z m 0,2.50193 q -0.2665991,0 -0.4443318,-0.16406 -0.1777328,-0.16406 -0.1777328,-0.40332 0,-0.24609 0.1811507,-0.40332 0.1845686,-0.15722 0.4580036,-0.15722 0.276853,0 0.4511678,0.16064 0.1777327,0.15723 0.1777327,0.3999 0,0.24951 -0.1811507,0.41015 -0.1777327,0.15723 -0.4648395,0.15723 z"
     style="font-weight:bold;font-size:6.9999361px;font-family:'Segoe UI';fill:#000000"
     id="path1265" /><path
     d="m 10.253812,213.70868 -2.389138,5.71479 H 6.9008156 l 2.3788845,-5.71479 z"
     style="font-weight:bold;font-size:6.9999361px;font-family:'Segoe UI';fill:#000000"
     id="path1267" /><path
     d="M 11.836317,216.92154 V 218.61 h -1.103994 v -4.90132 H 12.4618 q 1.852522,0 1.852522,1.562 0,0.73827 -0.533198,1.19627 -0.529781,0.45459 -1.418444,0.45459 z m 0,-2.36521 v 1.52781 h 0.434078 q 0.881828,0 0.881828,-0.77245 0,-0.75536 -0.881828,-0.75536 z"
     style="font-weight:bold;font-size:6.9999361px;font-family:'Segoe UI';fill:#000000"
     id="path1269" /><path
     d="m 17.216152,216.08414 q -0.194822,-0.10595 -0.454586,-0.10595 -0.352047,0 -0.550288,0.25976 -0.19824,0.25635 -0.19824,0.70068 V 218.61 H 14.93297 v -3.49997 h 1.080068 v 0.64941 h 0.01367 q 0.256345,-0.71093 0.922843,-0.71093 0.170897,0 0.266599,0.041 z"
     style="font-weight:bold;font-size:6.9999361px;font-family:'Segoe UI';fill:#000000"
     id="path1271" /><path
     d="m 19.362617,218.69545 q -0.874992,0 -1.377429,-0.48877 -0.499019,-0.49218 -0.499019,-1.33299 0,-0.86816 0.519527,-1.35692 0.519526,-0.49219 1.404772,-0.49219 0.871574,0 1.367175,0.49219 0.495601,0.48876 0.495601,1.2954 0,0.87157 -0.51269,1.37742 -0.509273,0.50586 -1.397937,0.50586 z m 0.02734,-2.84372 q -0.382809,0 -0.594721,0.26318 -0.211913,0.26318 -0.211913,0.74511 0,1.00829 0.81347,1.00829 0.775871,0 0.775871,-1.03564 0,-0.98094 -0.782707,-0.98094 z"
     style="font-weight:bold;font-size:6.9999361px;font-family:'Segoe UI';fill:#000000"
     id="path1273" /><path
     d="m 22.507119,214.55633 q -0.273435,0 -0.44775,-0.16065 -0.174315,-0.16406 -0.174315,-0.3999 0,-0.24267 0.174315,-0.39648 0.174315,-0.1538 0.44775,-0.1538 0.276853,0 0.447749,0.1538 0.174315,0.15381 0.174315,0.39648 0,0.2461 -0.174315,0.40332 -0.170896,0.15723 -0.447749,0.15723 z m 0.533198,3.99215 q 0,0.77587 -0.379391,1.24071 -0.379391,0.46484 -1.09374,0.46484 -0.235838,0 -0.516109,-0.10254 v -0.84765 q 0.225584,0.12647 0.399899,0.12647 0.509273,0 0.509273,-0.7998 v -3.52048 h 1.080068 z"
     style="font-weight:bold;font-size:6.9999361px;font-family:'Segoe UI';fill:#000000"
     id="path1275" /><path
     d="m 27.100826,217.16763 h -2.283182 q 0.05469,0.7622 0.96044,0.7622 0.577631,0 1.015127,-0.27343 v 0.77929 q -0.485347,0.25976 -1.261219,0.25976 -0.847648,0 -1.315905,-0.46826 -0.468258,-0.47167 -0.468258,-1.31249 0,-0.87157 0.505855,-1.38084 0.505855,-0.50928 1.244129,-0.50928 0.765618,0 1.182607,0.45459 0.420406,0.45459 0.420406,1.23388 z m -1.001456,-0.66308 q 0,-0.75195 -0.608393,-0.75195 -0.259763,0 -0.451168,0.21533 -0.187986,0.21533 -0.229001,0.53662 z"
     style="font-weight:bold;font-size:6.9999361px;font-family:'Segoe UI';fill:#000000"
     id="path1277" /><path
     d="m 30.395718,218.48354 q -0.365719,0.21191 -1.056143,0.21191 -0.806633,0 -1.305652,-0.48877 -0.499019,-0.48876 -0.499019,-1.26121 0,-0.89209 0.533198,-1.40478 0.536617,-0.51611 1.432116,-0.51611 0.618647,0 0.8955,0.16407 v 0.916 q -0.338376,-0.25292 -0.755364,-0.25292 -0.46484,0 -0.738275,0.27343 -0.270017,0.27002 -0.270017,0.74853 0,0.46484 0.259763,0.73144 0.259764,0.26318 0.714349,0.26318 0.403317,0 0.789544,-0.25293 z"
     style="font-weight:bold;font-size:6.9999361px;font-family:'Segoe UI';fill:#000000"
     id="path1279" /><path
     d="m 33.222352,218.56899 q -0.239255,0.12646 -0.721184,0.12646 -1.141592,0 -1.141592,-1.18603 v -1.60301 h -0.567377 v -0.79638 h 0.567377 v -0.75536 l 1.076651,-0.30762 v 1.06298 h 0.786125 v 0.79638 h -0.786125 v 1.41503 q 0,0.54687 0.434078,0.54687 0.170897,0 0.352047,-0.0991 z"
     style="font-weight:bold;font-size:6.9999361px;font-family:'Segoe UI';fill:#000000"
     id="path1281" /><path
     d="m 33.598326,218.51772 v -0.875 q 0.266599,0.16065 0.52978,0.23926 0.266599,0.0786 0.502437,0.0786 0.287106,0 0.451167,-0.0786 0.167479,-0.0786 0.167479,-0.23926 0,-0.10253 -0.07519,-0.17089 -0.0752,-0.0684 -0.194823,-0.11963 -0.11621,-0.0513 -0.256345,-0.0923 -0.140135,-0.041 -0.270017,-0.0923 -0.208494,-0.0786 -0.369137,-0.16748 -0.157225,-0.0923 -0.266599,-0.21191 -0.105956,-0.11963 -0.164061,-0.27685 -0.05469,-0.15723 -0.05469,-0.37256 0,-0.29394 0.126463,-0.50585 0.129882,-0.21192 0.341794,-0.34521 0.21533,-0.13672 0.488765,-0.19825 0.276853,-0.0649 0.574214,-0.0649 0.232419,0 0.471675,0.0376 0.239256,0.0342 0.471675,0.10254 v 0.83398 q -0.205076,-0.11963 -0.440914,-0.17774 -0.232419,-0.0615 -0.458003,-0.0615 -0.105956,0 -0.201659,0.0205 -0.09228,0.0171 -0.164061,0.0547 -0.07178,0.0342 -0.112791,0.0923 -0.04102,0.0547 -0.04102,0.12646 0,0.0957 0.06152,0.16406 0.06152,0.0684 0.160643,0.11963 0.09912,0.0478 0.218748,0.0889 0.123046,0.0376 0.242674,0.0786 0.21533,0.0752 0.389645,0.16406 0.174314,0.0889 0.29736,0.2085 0.126464,0.11962 0.191405,0.28027 0.06836,0.16064 0.06836,0.38281 0,0.31103 -0.136717,0.53319 -0.1333,0.21875 -0.358883,0.35889 -0.222166,0.13672 -0.516109,0.19824 -0.290525,0.0649 -0.604975,0.0649 -0.577631,0 -1.069814,-0.17773 z"
     style="font-weight:bold;font-size:6.9999361px;font-family:'Segoe UI';fill:#000000"
     id="path1283" /></g>			</g>
			<g
   id="shape1480-11"
   v:mID="1480"
   v:groupContext="shape"
   v:layerMember="0"
   transform="translate(46.2188,-175.562)">
				<title
   id="title47">Sheet.1480</title>
				<desc
   id="desc49">2500 Git Projects</desc>
				<v:textBlock
   v:margins="rect(0,0,0,0)"
   v:tabSpace="42.5197" />
				<v:textRect
   cx="43.875"
   cy="216.687"
   width="87.76"
   height="10.375" />
				<rect
   x="0"
   y="211.5"
   width="87.75"
   height="10.375"
   class="st2"
   id="rect51" />
				<g
   aria-label="2500 Git Projects"
   style="font-size:6.9999361px;font-family:'Segoe UI';fill:#000000"
   id="text53"><path
     d="m 2.6386478,214.99382 q 0,-0.22558 -0.071777,-0.39306 -0.068359,-0.16748 -0.1914045,-0.27685 -0.1196278,-0.1128 -0.2836888,-0.16748 -0.164061,-0.0547 -0.3554655,-0.0547 -0.164061,0 -0.3212862,0.0444 -0.1572251,0.0444 -0.3076143,0.12305 -0.14697135,0.0786 -0.28710679,0.18799 -0.1367175,0.10937 -0.25634531,0.24267 v -0.60156 q 0.23583769,-0.229 0.5263624,-0.34863 0.2939426,-0.12304 0.7143489,-0.12304 0.3007785,0 0.5571238,0.0889 0.2563454,0.0855 0.4443319,0.25293 0.1879866,0.16748 0.2939427,0.41357 0.109374,0.24609 0.109374,0.56396 0,0.29053 -0.068359,0.52636 -0.064941,0.23584 -0.2016583,0.44434 -0.1332996,0.20849 -0.3383758,0.39989 -0.2050763,0.19141 -0.4819292,0.38965 -0.3452117,0.24609 -0.5707956,0.42041 -0.2221659,0.17431 -0.3554655,0.32812 -0.1298816,0.15039 -0.1845686,0.30419 -0.0512691,0.15039 -0.0512691,0.34863 H 3.3974299 V 218.61 H 0.37255519 v -0.24267 q 0,-0.31445 0.0683588,-0.55371 0.0683588,-0.23925 0.22558388,-0.45458 0.15722513,-0.21533 0.41015248,-0.43066 0.2563453,-0.21533 0.6254826,-0.48535 0.2665991,-0.19141 0.4443319,-0.36572 0.1811507,-0.17432 0.2905247,-0.34863 0.109374,-0.17432 0.1538072,-0.35205 0.047851,-0.18115 0.047851,-0.38281 z"
     style="font-size:6.9999361px;font-family:'Segoe UI';fill:#000000"
     id="path1232" /><path
     d="m 7.0853847,217.11294 q 0,0.35889 -0.1230458,0.64941 -0.1230457,0.29053 -0.3520476,0.49902 -0.2255838,0.2085 -0.54687,0.32129 -0.3212861,0.11279 -0.7143489,0.11279 -0.6835875,0 -1.0151275,-0.20508 v -0.59472 q 0.4990189,0.32129 1.0219634,0.32129 0.2665991,0 0.4785112,-0.0786 0.2153301,-0.0786 0.3657193,-0.21875 0.1503893,-0.14014 0.2290018,-0.33838 0.082031,-0.19824 0.082031,-0.43408 0,-0.47851 -0.3212861,-0.74852 -0.3212861,-0.27344 -0.9330969,-0.27344 -0.09912,0 -0.2084942,0.003 -0.109374,0.003 -0.218748,0.0103 -0.109374,0.003 -0.2153301,0.0103 -0.1025381,0.007 -0.1879866,0.0171 l 0.167479,-2.4575 h 2.2660926 v 0.50585 H 5.0790553 l -0.09912,1.43895 q 0.109374,-0.007 0.2324198,-0.0103 0.1230457,-0.007 0.218748,-0.007 0.3896449,0 0.6972592,0.10254 0.3076144,0.10254 0.5195265,0.29395 0.2153301,0.18798 0.3247041,0.46484 0.112792,0.27343 0.112792,0.61522 z"
     style="font-size:6.9999361px;font-family:'Segoe UI';fill:#000000"
     id="path1234" /><path
     d="m 11.033103,216.13883 q 0,0.61523 -0.112792,1.09032 -0.109374,0.4751 -0.321286,0.80322 -0.208495,0.3247 -0.516109,0.4956 -0.3041964,0.16748 -0.6938413,0.16748 -0.3691373,0 -0.659662,-0.16064 -0.2871067,-0.16407 -0.4853471,-0.4751 -0.1982404,-0.31103 -0.3007785,-0.7622 -0.1025381,-0.45458 -0.1025381,-1.03905 0,-0.64257 0.105956,-1.13476 0.109374,-0.49218 0.3178682,-0.82372 0.2084942,-0.33496 0.5161086,-0.50244 0.3110323,-0.17089 0.710931,-0.17089 1.5414902,0 1.5414902,2.51218 z m -0.574214,0.0547 q 0,-2.09178 -0.9946197,-2.09178 -1.0493068,0 -1.0493068,2.12938 0,1.98582 1.0287992,1.98582 1.0151273,0 1.0151273,-2.02342 z"
     style="font-size:6.9999361px;font-family:'Segoe UI';fill:#000000"
     id="path1236" /><path
     d="m 14.806506,216.13883 q 0,0.61523 -0.112792,1.09032 -0.109374,0.4751 -0.321286,0.80322 -0.208494,0.3247 -0.516109,0.4956 -0.304196,0.16748 -0.693841,0.16748 -0.369137,0 -0.659662,-0.16064 -0.287107,-0.16407 -0.485347,-0.4751 -0.198241,-0.31103 -0.300779,-0.7622 -0.102538,-0.45458 -0.102538,-1.03905 0,-0.64257 0.105956,-1.13476 0.109374,-0.49218 0.317868,-0.82372 0.208495,-0.33496 0.516109,-0.50244 0.311032,-0.17089 0.710931,-0.17089 1.54149,0 1.54149,2.51218 z m -0.574214,0.0547 q 0,-2.09178 -0.99462,-2.09178 -1.049306,0 -1.049306,2.12938 0,1.98582 1.028799,1.98582 1.015127,0 1.015127,-2.02342 z"
     style="font-size:6.9999361px;font-family:'Segoe UI';fill:#000000"
     id="path1238" /><path
     d="m 21.314259,218.27504 q -0.738274,0.41699 -1.64061,0.41699 -1.049307,0 -1.698715,-0.67675 -0.64599,-0.67675 -0.64599,-1.791 0,-1.13817 0.717767,-1.86619 0.721185,-0.73144 1.825179,-0.73144 0.799797,0 1.343249,0.25976 v 0.63574 q -0.594721,-0.37598 -1.40819,-0.37598 -0.823723,0 -1.350085,0.56738 -0.526363,0.56738 -0.526363,1.46971 0,0.92968 0.488765,1.46288 0.488765,0.52978 1.32616,0.52978 0.574213,0 0.99462,-0.229 v -1.37401 h -1.073233 v -0.51953 h 1.647446 z"
     style="font-size:6.9999361px;font-family:'Segoe UI';fill:#000000"
     id="path1240" /><path
     d="m 22.660927,214.22137 q -0.15039,0 -0.256346,-0.10254 -0.105956,-0.10254 -0.105956,-0.25976 0,-0.15723 0.105956,-0.25977 0.105956,-0.10595 0.256346,-0.10595 0.153807,0 0.259763,0.10595 0.109374,0.10254 0.109374,0.25977 0,0.15039 -0.109374,0.25634 -0.105956,0.10596 -0.259763,0.10596 z M 22.934362,218.61 H 22.37382 v -3.49997 h 0.560542 z"
     style="font-size:6.9999361px;font-family:'Segoe UI';fill:#000000"
     id="path1242" /><path
     d="m 25.692637,218.57582 q -0.19824,0.10938 -0.522944,0.10938 -0.919425,0 -0.919425,-1.02539 v -2.07127 h -0.601557 v -0.47851 h 0.601557 v -0.85448 l 0.560542,-0.18115 v 1.03563 h 0.881827 v 0.47851 H 24.81081 v 1.97215 q 0,0.35205 0.119627,0.50244 0.119628,0.15039 0.396481,0.15039 0.211912,0 0.365719,-0.11621 z"
     style="font-size:6.9999361px;font-family:'Segoe UI';fill:#000000"
     id="path1244" /><path
     d="M 29.011454,216.75748 V 218.61 H 28.43724 v -4.90132 h 1.346668 q 0.786125,0 1.216786,0.38281 0.434078,0.38281 0.434078,1.08007 0,0.69725 -0.48193,1.14159 -0.478511,0.44433 -1.295398,0.44433 z m 0,-2.52928 v 2.00975 h 0.601557 q 0.594721,0 0.905753,-0.27002 0.314451,-0.27343 0.314451,-0.76903 0,-0.9707 -1.148427,-0.9707 z"
     style="font-size:6.9999361px;font-family:'Segoe UI';fill:#000000"
     id="path1246" /><path
     d="m 34.111016,215.67741 q -0.146971,-0.11279 -0.423824,-0.11279 -0.358883,0 -0.601557,0.33837 -0.239256,0.33838 -0.239256,0.92285 V 218.61 h -0.560541 v -3.49997 h 0.560541 v 0.72119 h 0.01367 q 0.119628,-0.36914 0.36572,-0.57422 0.246091,-0.20849 0.550287,-0.20849 0.218748,0 0.334958,0.0479 z"
     style="font-size:6.9999361px;font-family:'Segoe UI';fill:#000000"
     id="path1248" /><path
     d="m 36.182286,218.69203 q -0.775872,0 -1.240711,-0.48876 -0.461422,-0.49219 -0.461422,-1.30224 0,-0.88183 0.481929,-1.37743 0.481929,-0.4956 1.302234,-0.4956 0.782708,0 1.220204,0.48193 0.440914,0.48193 0.440914,1.33641 0,0.8374 -0.475093,1.34325 -0.471676,0.50244 -1.268055,0.50244 z m 0.04102,-3.19235 q -0.540034,0 -0.854484,0.36913 -0.314451,0.36572 -0.314451,1.01171 0,0.62207 0.317869,0.98095 0.317868,0.35889 0.851066,0.35889 0.543452,0 0.833977,-0.35205 0.293942,-0.35205 0.293942,-1.00146 0,-0.65624 -0.293942,-1.01171 -0.290525,-0.35546 -0.833977,-0.35546 z"
     style="font-size:6.9999361px;font-family:'Segoe UI';fill:#000000"
     id="path1250" /><path
     d="m 39.381475,218.46303 q 0,0.86132 -0.34863,1.32616 -0.345212,0.46826 -0.991202,0.46826 -0.239255,0 -0.464839,-0.10938 v -0.52294 q 0.252927,0.15381 0.478511,0.15381 0.765618,0 0.765618,-1.22363 v -3.44528 h 0.560542 z m -0.273435,-4.24166 q -0.15039,0 -0.256346,-0.10254 -0.105956,-0.10254 -0.105956,-0.25976 0,-0.15723 0.105956,-0.25977 0.105956,-0.10595 0.256346,-0.10595 0.153807,0 0.259763,0.10595 0.109374,0.10254 0.109374,0.25977 0,0.15039 -0.109374,0.25634 -0.105956,0.10596 -0.259763,0.10596 z"
     style="font-size:6.9999361px;font-family:'Segoe UI';fill:#000000"
     id="path1252" /><path
     d="m 43.329193,217.00015 h -2.471169 q 0.01367,0.58447 0.31445,0.90234 0.300779,0.31787 0.827141,0.31787 0.591303,0 1.086904,-0.38965 v 0.52636 q -0.461421,0.33496 -1.220203,0.33496 -0.741693,0 -1.165517,-0.47509 -0.423824,-0.47851 -0.423824,-1.34325 0,-0.81689 0.461421,-1.32958 0.46484,-0.51611 1.151845,-0.51611 0.687006,0 1.062979,0.44433 0.375973,0.44434 0.375973,1.23388 z m -0.574214,-0.47509 q -0.0034,-0.48535 -0.235837,-0.75537 -0.229002,-0.27001 -0.639155,-0.27001 -0.396481,0 -0.673333,0.28369 -0.276853,0.28369 -0.341794,0.74169 z"
     style="font-size:6.9999361px;font-family:'Segoe UI';fill:#000000"
     id="path1254" /><path
     d="m 46.565983,218.44936 q -0.403317,0.24267 -0.957023,0.24267 -0.748528,0 -1.20995,-0.48535 -0.458003,-0.48876 -0.458003,-1.26463 0,-0.86474 0.4956,-1.38769 0.495601,-0.52636 1.322742,-0.52636 0.461422,0 0.813469,0.1709 v 0.57421 q -0.389644,-0.27343 -0.833976,-0.27343 -0.536617,0 -0.881828,0.38622 -0.341794,0.38281 -0.341794,1.0083 0,0.61522 0.321286,0.97069 0.324704,0.35547 0.868156,0.35547 0.458004,0 0.861321,-0.3042 z"
     style="font-size:6.9999361px;font-family:'Segoe UI';fill:#000000"
     id="path1256" /><path
     d="m 49.043986,218.57582 q -0.19824,0.10938 -0.522944,0.10938 -0.919425,0 -0.919425,-1.02539 v -2.07127 H 47.00006 v -0.47851 h 0.601557 v -0.85448 l 0.560541,-0.18115 v 1.03563 h 0.881828 v 0.47851 h -0.881828 v 1.97215 q 0,0.35205 0.119628,0.50244 0.119628,0.15039 0.396481,0.15039 0.211912,0 0.365719,-0.11621 z"
     style="font-size:6.9999361px;font-family:'Segoe UI';fill:#000000"
     id="path1258" /><path
     d="m 49.587437,218.48354 v -0.60156 q 0.458004,0.33838 1.008292,0.33838 0.738274,0 0.738274,-0.49219 0,-0.14013 -0.06494,-0.23583 -0.06152,-0.0991 -0.170897,-0.17432 -0.105956,-0.0752 -0.252928,-0.1333 -0.143553,-0.0615 -0.311032,-0.12646 -0.23242,-0.0923 -0.410153,-0.18457 -0.174314,-0.0957 -0.293942,-0.21191 -0.11621,-0.11963 -0.177733,-0.27002 -0.0581,-0.15039 -0.0581,-0.35205 0,-0.24609 0.112792,-0.43408 0.112792,-0.1914 0.300779,-0.31786 0.187986,-0.12989 0.427242,-0.19483 0.242673,-0.0649 0.499019,-0.0649 0.454585,0 0.813469,0.15723 v 0.56737 q -0.386227,-0.25292 -0.888664,-0.25292 -0.157225,0 -0.283689,0.0376 -0.126463,0.0342 -0.218748,0.0991 -0.08887,0.0649 -0.140135,0.15723 -0.04785,0.0889 -0.04785,0.19824 0,0.13672 0.04785,0.229 0.05127,0.0923 0.146971,0.16406 0.0957,0.0718 0.23242,0.12988 0.136717,0.0581 0.311032,0.12647 0.23242,0.0889 0.416989,0.18457 0.184568,0.0923 0.31445,0.21191 0.129881,0.11621 0.19824,0.27002 0.07178,0.1538 0.07178,0.36572 0,0.25976 -0.11621,0.45116 -0.112792,0.19141 -0.304196,0.31787 -0.191405,0.12647 -0.440914,0.18799 -0.24951,0.0615 -0.522945,0.0615 -0.540034,0 -0.936515,-0.20849 z"
     style="font-size:6.9999361px;font-family:'Segoe UI';fill:#000000"
     id="path1260" /></g>			</g>
			<g
   id="shape1481-14"
   v:mID="1481"
   v:groupContext="shape"
   v:layerMember="0"
   transform="translate(46.125,-141)">
				<title
   id="title56">Sheet.1481</title>
				<desc
   id="desc58">PS2001-pal-software</desc>
				<v:textBlock
   v:margins="rect(0,0,0,0)"
   v:tabSpace="42.5197" />
				<v:textRect
   cx="43.875"
   cy="216.687"
   width="87.76"
   height="10.375" />
				<rect
   x="0"
   y="211.5"
   width="87.75"
   height="10.375"
   class="st2"
   id="rect60" />
				<g
   aria-label="PS2001-pal-software"
   style="font-size:6.9999361px;font-family:'Segoe UI';fill:#000000"
   id="text62"><path
     d="M 1.2167858,216.75748 V 218.61 H 0.64257226 v -4.90132 H 1.9892397 q 0.7861256,0 1.2167857,0.38281 0.4340781,0.38281 0.4340781,1.08007 0,0.69725 -0.4819292,1.14159 -0.4785113,0.44433 -1.2953983,0.44433 z m 0,-2.52928 v 2.00975 h 0.601557 q 0.5947211,0 0.9057534,-0.27002 0.3144503,-0.27343 0.3144503,-0.76903 0,-0.9707 -1.148427,-0.9707 z"
     style="font-size:6.9999361px;font-family:'Segoe UI';fill:#000000"
     id="path1193" /><path
     d="m 4.3373628,218.41176 v -0.67675 q 0.1162099,0.10254 0.2768529,0.18457 0.164061,0.082 0.3417938,0.14013 0.1811507,0.0547 0.3623014,0.0855 0.1811507,0.0308 0.3349579,0.0308 0.5297803,0 0.7895435,-0.19482 0.2631812,-0.19824 0.2631812,-0.56738 0,-0.19824 -0.088866,-0.34521 -0.085449,-0.14697 -0.2392557,-0.2666 -0.1538072,-0.12304 -0.3657193,-0.23242 -0.2084942,-0.11279 -0.4511678,-0.23584 -0.2563453,-0.12988 -0.4785112,-0.26318 -0.2221659,-0.1333 -0.386227,-0.29394 -0.164061,-0.16064 -0.2597632,-0.3623 -0.092284,-0.20508 -0.092284,-0.47851 0,-0.33496 0.1469713,-0.58105 0.1469713,-0.24951 0.3862269,-0.41015 0.2392557,-0.16065 0.5434521,-0.23926 0.3076144,-0.0786 0.6254826,-0.0786 0.7246027,0 1.0561427,0.17431 v 0.64599 q -0.4340781,-0.30078 -1.1142477,-0.30078 -0.1879865,0 -0.3759731,0.041 -0.1879866,0.0376 -0.3349579,0.12646 -0.1469713,0.0889 -0.2392556,0.229 -0.092284,0.14014 -0.092284,0.3418 0,0.18799 0.068359,0.3247 0.071777,0.13672 0.2084942,0.24951 0.1367175,0.11279 0.33154,0.21875 0.1982404,0.10596 0.4545857,0.23242 0.2631812,0.12988 0.4990189,0.27343 0.2358376,0.14356 0.4135704,0.31787 0.1777327,0.17432 0.2802709,0.38623 0.105956,0.21191 0.105956,0.48535 0,0.3623 -0.1435533,0.61523 -0.1401355,0.24951 -0.382809,0.40673 -0.2392557,0.15723 -0.5537059,0.22558 -0.3144503,0.0718 -0.6630799,0.0718 -0.1162099,0 -0.2871068,-0.0205 -0.1708968,-0.0171 -0.3486296,-0.0547 -0.1777328,-0.0342 -0.3383758,-0.0855 -0.1572251,-0.0547 -0.2529274,-0.11963 z"
     style="font-size:6.9999361px;font-family:'Segoe UI';fill:#000000"
     id="path1195" /><path
     d="m 10.281156,214.99382 q 0,-0.22558 -0.07178,-0.39306 -0.06836,-0.16748 -0.191405,-0.27685 -0.1196277,-0.1128 -0.2836887,-0.16748 -0.164061,-0.0547 -0.3554655,-0.0547 -0.164061,0 -0.3212861,0.0444 -0.1572252,0.0444 -0.3076144,0.12305 -0.1469713,0.0786 -0.2871068,0.18799 -0.1367175,0.10937 -0.2563453,0.24267 v -0.60156 q 0.2358377,-0.229 0.5263624,-0.34863 0.2939426,-0.12304 0.7143489,-0.12304 0.3007785,0 0.5571235,0.0889 0.256346,0.0855 0.444332,0.25293 0.187987,0.16748 0.293943,0.41357 0.109374,0.24609 0.109374,0.56396 0,0.29053 -0.06836,0.52636 -0.06494,0.23584 -0.201658,0.44434 -0.1333,0.20849 -0.338376,0.39989 -0.205076,0.19141 -0.4819292,0.38965 -0.3452117,0.24609 -0.5707956,0.42041 -0.2221659,0.17431 -0.3554655,0.32812 -0.1298816,0.15039 -0.1845686,0.30419 -0.051269,0.15039 -0.051269,0.34863 h 2.440407 V 218.61 H 8.0150637 v -0.24267 q 0,-0.31445 0.068359,-0.55371 0.068359,-0.23925 0.2255838,-0.45458 0.1572252,-0.21533 0.4101525,-0.43066 0.2563454,-0.21533 0.6254826,-0.48535 0.2665991,-0.19141 0.4443319,-0.36572 0.1811507,-0.17432 0.2905247,-0.34863 0.109374,-0.17432 0.153807,-0.35205 0.04785,-0.18115 0.04785,-0.38281 z"
     style="font-size:6.9999361px;font-family:'Segoe UI';fill:#000000"
     id="path1197" /><path
     d="m 14.902208,216.13883 q 0,0.61523 -0.112792,1.09032 -0.109374,0.4751 -0.321286,0.80322 -0.208494,0.3247 -0.516109,0.4956 -0.304196,0.16748 -0.693841,0.16748 -0.369137,0 -0.659662,-0.16064 -0.287107,-0.16407 -0.485347,-0.4751 -0.19824,-0.31103 -0.300779,-0.7622 -0.102538,-0.45458 -0.102538,-1.03905 0,-0.64257 0.105956,-1.13476 0.109374,-0.49218 0.317869,-0.82372 0.208494,-0.33496 0.516108,-0.50244 0.311032,-0.17089 0.710931,-0.17089 1.54149,0 1.54149,2.51218 z m -0.574214,0.0547 q 0,-2.09178 -0.994619,-2.09178 -1.049307,0 -1.049307,2.12938 0,1.98582 1.028799,1.98582 1.015127,0 1.015127,-2.02342 z"
     style="font-size:6.9999361px;font-family:'Segoe UI';fill:#000000"
     id="path1199" /><path
     d="m 18.675611,216.13883 q 0,0.61523 -0.112792,1.09032 -0.109374,0.4751 -0.321286,0.80322 -0.208494,0.3247 -0.516108,0.4956 -0.304197,0.16748 -0.693842,0.16748 -0.369137,0 -0.659662,-0.16064 -0.287107,-0.16407 -0.485347,-0.4751 -0.19824,-0.31103 -0.300778,-0.7622 -0.102539,-0.45458 -0.102539,-1.03905 0,-0.64257 0.105957,-1.13476 0.109374,-0.49218 0.317868,-0.82372 0.208494,-0.33496 0.516108,-0.50244 0.311033,-0.17089 0.710931,-0.17089 1.54149,0 1.54149,2.51218 z m -0.574213,0.0547 q 0,-2.09178 -0.99462,-2.09178 -1.049307,0 -1.049307,2.12938 0,1.98582 1.028799,1.98582 1.015128,0 1.015128,-2.02342 z"
     style="font-size:6.9999361px;font-family:'Segoe UI';fill:#000000"
     id="path1201" /><path
     d="m 21.437306,218.61 h -0.560542 v -4.23482 q -0.06494,0.0649 -0.191405,0.15039 -0.123045,0.082 -0.28027,0.16406 -0.153808,0.082 -0.328122,0.1538 -0.170897,0.0718 -0.334958,0.1128 v -0.56738 q 0.184568,-0.0513 0.389645,-0.13672 0.208494,-0.0889 0.406734,-0.19482 0.201658,-0.10938 0.379391,-0.22559 0.177733,-0.11962 0.307615,-0.23242 h 0.211912 z"
     style="font-size:6.9999361px;font-family:'Segoe UI';fill:#000000"
     id="path1203" /><path
     d="m 25.094499,216.88052 h -1.866194 v -0.44091 h 1.866194 z"
     style="font-size:6.9999361px;font-family:'Segoe UI';fill:#000000"
     id="path1205" /><path
     d="m 26.680421,218.10415 h -0.01367 v 2.1157 h -0.560542 v -5.10982 h 0.560542 v 0.61523 h 0.01367 q 0.41357,-0.69726 1.20995,-0.69726 0.676751,0 1.056143,0.47168 0.379391,0.46825 0.379391,1.2578 0,0.87841 -0.427243,1.40819 -0.427242,0.52636 -1.168934,0.52636 -0.68017,0 -1.049307,-0.58788 z m -0.01367,-1.41161 v 0.48876 q 0,0.43408 0.280271,0.73828 0.283689,0.30078 0.717767,0.30078 0.509273,0 0.796379,-0.38965 0.290525,-0.38964 0.290525,-1.08349 0,-0.58446 -0.270017,-0.916 -0.270017,-0.33154 -0.731439,-0.33154 -0.488765,0 -0.786125,0.34179 -0.297361,0.33838 -0.297361,0.85107 z"
     style="font-size:6.9999361px;font-family:'Segoe UI';fill:#000000"
     id="path1207" /><path
     d="M 32.726752,218.61 H 32.16621 v -0.54687 h -0.01367 q -0.365719,0.6289 -1.07665,0.6289 -0.522944,0 -0.820305,-0.27685 -0.293943,-0.27685 -0.293943,-0.73486 0,-0.98095 1.155263,-1.14159 l 1.049307,-0.14697 q 0,-0.89208 -0.721185,-0.89208 -0.632318,0 -1.141591,0.43066 v -0.57422 q 0.516109,-0.32812 1.189442,-0.32812 1.233876,0 1.233876,1.30565 z m -0.560542,-1.77049 -0.84423,0.11621 q -0.389645,0.0547 -0.587886,0.19482 -0.19824,0.13672 -0.19824,0.48877 0,0.25634 0.181151,0.4204 0.184568,0.16065 0.488765,0.16065 0.416988,0 0.687005,-0.29053 0.273435,-0.29394 0.273435,-0.74169 z"
     style="font-size:6.9999361px;font-family:'Segoe UI';fill:#000000"
     id="path1209" /><path
     d="m 34.350274,218.61 h -0.560541 v -5.18159 h 0.560541 z"
     style="font-size:6.9999361px;font-family:'Segoe UI';fill:#000000"
     id="path1211" /><path
     d="m 37.276029,216.88052 h -1.866194 v -0.44091 h 1.866194 z"
     style="font-size:6.9999361px;font-family:'Segoe UI';fill:#000000"
     id="path1213" /><path
     d="m 38.075825,218.48354 v -0.60156 q 0.458004,0.33838 1.008292,0.33838 0.738274,0 0.738274,-0.49219 0,-0.14013 -0.06494,-0.23583 -0.06152,-0.0991 -0.170897,-0.17432 -0.105956,-0.0752 -0.252928,-0.1333 -0.143553,-0.0615 -0.311032,-0.12646 -0.23242,-0.0923 -0.410152,-0.18457 -0.174315,-0.0957 -0.293943,-0.21191 -0.11621,-0.11963 -0.177733,-0.27002 -0.0581,-0.15039 -0.0581,-0.35205 0,-0.24609 0.112792,-0.43408 0.112792,-0.1914 0.300779,-0.31786 0.187986,-0.12989 0.427242,-0.19483 0.242673,-0.0649 0.499019,-0.0649 0.454585,0 0.813469,0.15723 v 0.56737 q -0.386227,-0.25292 -0.888664,-0.25292 -0.157225,0 -0.283689,0.0376 -0.126463,0.0342 -0.218748,0.0991 -0.08887,0.0649 -0.140135,0.15723 -0.04785,0.0889 -0.04785,0.19824 0,0.13672 0.04785,0.229 0.05127,0.0923 0.146971,0.16406 0.0957,0.0718 0.23242,0.12988 0.136717,0.0581 0.311032,0.12647 0.23242,0.0889 0.416989,0.18457 0.184568,0.0923 0.31445,0.21191 0.129881,0.11621 0.19824,0.27002 0.07178,0.1538 0.07178,0.36572 0,0.25976 -0.11621,0.45116 -0.112792,0.19141 -0.304196,0.31787 -0.191405,0.12647 -0.440914,0.18799 -0.24951,0.0615 -0.522945,0.0615 -0.540034,0 -0.936515,-0.20849 z"
     style="font-size:6.9999361px;font-family:'Segoe UI';fill:#000000"
     id="path1215" /><path
     d="m 42.717385,218.69203 q -0.775872,0 -1.240711,-0.48876 -0.461422,-0.49219 -0.461422,-1.30224 0,-0.88183 0.481929,-1.37743 0.481929,-0.4956 1.302234,-0.4956 0.782708,0 1.220204,0.48193 0.440914,0.48193 0.440914,1.33641 0,0.8374 -0.475093,1.34325 -0.471676,0.50244 -1.268055,0.50244 z m 0.04102,-3.19235 q -0.540034,0 -0.854484,0.36913 -0.314451,0.36572 -0.314451,1.01171 0,0.62207 0.317869,0.98095 0.317868,0.35889 0.851066,0.35889 0.543452,0 0.833977,-0.35205 0.293943,-0.35205 0.293943,-1.00146 0,-0.65624 -0.293943,-1.01171 -0.290525,-0.35546 -0.833977,-0.35546 z"
     style="font-size:6.9999361px;font-family:'Segoe UI';fill:#000000"
     id="path1217" /><path
     d="m 47.085508,213.92059 q -0.164061,-0.0923 -0.372555,-0.0923 -0.587885,0 -0.587885,0.74169 v 0.54003 h 0.820305 v 0.47851 H 46.125068 V 218.61 h -0.557124 v -3.02146 h -0.598139 v -0.47851 h 0.598139 v -0.56738 q 0,-0.55028 0.317868,-0.86815 0.317868,-0.32129 0.792962,-0.32129 0.256345,0 0.406734,0.0615 z"
     style="font-size:6.9999361px;font-family:'Segoe UI';fill:#000000"
     id="path1219" /><path
     d="m 49.167033,218.57582 q -0.19824,0.10938 -0.522944,0.10938 -0.919425,0 -0.919425,-1.02539 v -2.07127 h -0.601557 v -0.47851 h 0.601557 v -0.85448 l 0.560541,-0.18115 v 1.03563 h 0.881828 v 0.47851 h -0.881828 v 1.97215 q 0,0.35205 0.119628,0.50244 0.119628,0.15039 0.396481,0.15039 0.211912,0 0.365719,-0.11621 z"
     style="font-size:6.9999361px;font-family:'Segoe UI';fill:#000000"
     id="path1221" /><path
     d="M 54.331536,215.11003 53.282229,218.61 h -0.58105 l -0.721184,-2.50535 q -0.04102,-0.14355 -0.05469,-0.3247 h -0.01367 q -0.01025,0.12304 -0.07178,0.31787 L 51.057152,218.61 H 50.49661 l -1.059561,-3.49997 h 0.587885 l 0.724603,2.63181 q 0.03418,0.11963 0.04785,0.31445 h 0.02734 q 0.01025,-0.15038 0.06152,-0.32128 l 0.806633,-2.62498 h 0.512691 l 0.724602,2.63865 q 0.03418,0.12646 0.05127,0.31445 h 0.02734 q 0.0068,-0.1333 0.0581,-0.31445 l 0.710931,-2.63865 z"
     style="font-size:6.9999361px;font-family:'Segoe UI';fill:#000000"
     id="path1223" /><path
     d="m 57.486292,218.61 h -0.560541 v -0.54687 h -0.01367 q -0.365719,0.6289 -1.07665,0.6289 -0.522945,0 -0.820305,-0.27685 -0.293943,-0.27685 -0.293943,-0.73486 0,-0.98095 1.155263,-1.14159 l 1.049307,-0.14697 q 0,-0.89208 -0.721185,-0.89208 -0.632319,0 -1.141591,0.43066 v -0.57422 q 0.516108,-0.32812 1.189442,-0.32812 1.233875,0 1.233875,1.30565 z m -0.560541,-1.77049 -0.844231,0.11621 q -0.389645,0.0547 -0.587885,0.19482 -0.198241,0.13672 -0.198241,0.48877 0,0.25634 0.181151,0.4204 0.184569,0.16065 0.488765,0.16065 0.416989,0 0.687006,-0.29053 0.273435,-0.29394 0.273435,-0.74169 z"
     style="font-size:6.9999361px;font-family:'Segoe UI';fill:#000000"
     id="path1225" /><path
     d="m 60.374448,215.67741 q -0.146971,-0.11279 -0.423824,-0.11279 -0.358884,0 -0.601557,0.33837 -0.239256,0.33838 -0.239256,0.92285 V 218.61 h -0.560542 v -3.49997 h 0.560542 v 0.72119 h 0.01367 q 0.119628,-0.36914 0.365719,-0.57422 0.246092,-0.20849 0.550288,-0.20849 0.218748,0 0.334958,0.0479 z"
     style="font-size:6.9999361px;font-family:'Segoe UI';fill:#000000"
     id="path1227" /><path
     d="m 63.795803,217.00015 h -2.471169 q 0.01367,0.58447 0.31445,0.90234 0.300779,0.31787 0.827141,0.31787 0.591303,0 1.086904,-0.38965 v 0.52636 q -0.461421,0.33496 -1.220204,0.33496 -0.741692,0 -1.165516,-0.47509 -0.423825,-0.47851 -0.423825,-1.34325 0,-0.81689 0.461422,-1.32958 0.46484,-0.51611 1.151845,-0.51611 0.687005,0 1.062979,0.44433 0.375973,0.44434 0.375973,1.23388 z m -0.574214,-0.47509 q -0.0034,-0.48535 -0.235837,-0.75537 -0.229002,-0.27001 -0.639155,-0.27001 -0.396481,0 -0.673333,0.28369 -0.276853,0.28369 -0.341794,0.74169 z"
     style="font-size:6.9999361px;font-family:'Segoe UI';fill:#000000"
     id="path1229" /></g>			</g>
			<g
   id="shape1482-17"
   v:mID="1482"
   v:groupContext="shape"
   v:layerMember="0"
   transform="translate(47.0625,-92.9505)">
				<title
   id="title65">Sheet.1482</title>
				<desc
   id="desc67">CON100</desc>
				<v:textBlock
   v:margins="rect(0,0,0,0)"
   v:tabSpace="42.5197" />
				<v:textRect
   cx="43.875"
   cy="216.687"
   width="87.76"
   height="10.375" />
				<rect
   x="0"
   y="211.5"
   width="87.75"
   height="10.375"
   class="st2"
   id="rect69" />
				<g
   aria-label="CON100"
   style="font-size:6.9999361px;font-family:'Segoe UI';fill:#000000"
   id="text71"><path
     d="m 3.9784793,218.40492 q -0.5434521,0.28711 -1.3535033,0.28711 -1.0458889,0 -1.67478936,-0.67333 -0.62890051,-0.67334 -0.62890051,-1.76708 0,-1.17577 0.70751307,-1.90037 0.7075131,-0.7246 1.7944172,-0.7246 0.6972593,0 1.1552629,0.20166 v 0.61181 q -0.5263624,-0.29395 -1.1620988,-0.29395 -0.8442305,0 -1.3705929,0.56396 -0.52294446,0.56396 -0.52294446,1.50731 0,0.8955 0.48876506,1.4287 0.492183,0.52978 1.2885625,0.52978 0.7382745,0 1.2783086,-0.32812 z"
     style="font-size:6.9999361px;font-family:'Segoe UI';fill:#000000"
     id="path1180" /><path
     d="m 6.7606806,218.69203 q -1.0424709,0 -1.6713714,-0.687 -0.6254826,-0.68701 -0.6254826,-1.78759 0,-1.1826 0.6391543,-1.8867 0.6391543,-0.70409 1.7397302,-0.70409 1.0151275,0 1.6337742,0.68359 0.6220646,0.68358 0.6220646,1.78758 0,1.19969 -0.6357364,1.89695 -0.6357364,0.69726 -1.7021329,0.69726 z m 0.041015,-4.54586 q -0.7724539,0 -1.2543831,0.55713 -0.4819292,0.55712 -0.4819292,1.46288 0,0.90575 0.4682574,1.45945 0.4716754,0.55029 1.2270396,0.55029 0.8066333,0 1.2714728,-0.52636 0.4648395,-0.52636 0.4648395,-1.47313 0,-0.9707 -0.4511678,-1.50048 -0.4511677,-0.52978 -1.2441292,-0.52978 z"
     style="font-size:6.9999361px;font-family:'Segoe UI';fill:#000000"
     id="path1182" /><path
     d="m 14.013544,218.61 h -0.704095 l -2.522438,-3.9067 q -0.0957,-0.14697 -0.157225,-0.30762 h -0.02051 q 0.02734,0.15723 0.02734,0.67334 V 218.61 h -0.574214 v -4.90132 h 0.745111 l 2.454079,3.84518 q 0.153807,0.23925 0.19824,0.32812 h 0.01367 q -0.03418,-0.21191 -0.03418,-0.72118 v -3.45212 h 0.574213 z"
     style="font-size:6.9999361px;font-family:'Segoe UI';fill:#000000"
     id="path1184" /><path
     d="m 17.130703,218.61 h -0.560541 v -4.23482 q -0.06494,0.0649 -0.191405,0.15039 -0.123046,0.082 -0.280271,0.16406 -0.153807,0.082 -0.328122,0.1538 -0.170897,0.0718 -0.334958,0.1128 v -0.56738 q 0.184569,-0.0513 0.389645,-0.13672 0.208494,-0.0889 0.406735,-0.19482 0.201658,-0.10938 0.379391,-0.22559 0.177733,-0.11962 0.307614,-0.23242 h 0.211912 z"
     style="font-size:6.9999361px;font-family:'Segoe UI';fill:#000000"
     id="path1186" /><path
     d="m 21.915816,216.13883 q 0,0.61523 -0.112792,1.09032 -0.109374,0.4751 -0.321286,0.80322 -0.208494,0.3247 -0.516109,0.4956 -0.304196,0.16748 -0.693841,0.16748 -0.369137,0 -0.659662,-0.16064 -0.287107,-0.16407 -0.485347,-0.4751 -0.19824,-0.31103 -0.300779,-0.7622 -0.102538,-0.45458 -0.102538,-1.03905 0,-0.64257 0.105956,-1.13476 0.109374,-0.49218 0.317869,-0.82372 0.208494,-0.33496 0.516108,-0.50244 0.311032,-0.17089 0.710931,-0.17089 1.54149,0 1.54149,2.51218 z m -0.574214,0.0547 q 0,-2.09178 -0.994619,-2.09178 -1.049307,0 -1.049307,2.12938 0,1.98582 1.028799,1.98582 1.015127,0 1.015127,-2.02342 z"
     style="font-size:6.9999361px;font-family:'Segoe UI';fill:#000000"
     id="path1188" /><path
     d="m 25.689219,216.13883 q 0,0.61523 -0.112792,1.09032 -0.109374,0.4751 -0.321286,0.80322 -0.208494,0.3247 -0.516109,0.4956 -0.304196,0.16748 -0.693841,0.16748 -0.369137,0 -0.659662,-0.16064 -0.287107,-0.16407 -0.485347,-0.4751 -0.19824,-0.31103 -0.300778,-0.7622 -0.102539,-0.45458 -0.102539,-1.03905 0,-0.64257 0.105957,-1.13476 0.109374,-0.49218 0.317868,-0.82372 0.208494,-0.33496 0.516108,-0.50244 0.311033,-0.17089 0.710931,-0.17089 1.54149,0 1.54149,2.51218 z m -0.574213,0.0547 q 0,-2.09178 -0.99462,-2.09178 -1.049307,0 -1.049307,2.12938 0,1.98582 1.028799,1.98582 1.015128,0 1.015128,-2.02342 z"
     style="font-size:6.9999361px;font-family:'Segoe UI';fill:#000000"
     id="path1190" /></g>			</g>
			<g
   id="shape1483-20"
   v:mID="1483"
   v:groupContext="shape"
   v:layerMember="0"
   transform="translate(0,-47.9505)">
				<title
   id="title74">Sheet.1483</title>
				<desc
   id="desc76">Program blocks</desc>
				<v:textBlock
   v:margins="rect(0,0,0,0)"
   v:tabSpace="42.5197" />
				<v:textRect
   cx="36"
   cy="216.687"
   width="72.01"
   height="10.375" />
				<rect
   x="0"
   y="211.5"
   width="72"
   height="10.375"
   class="st2"
   id="rect78" />
				<g
   aria-label="Program blocks"
   style="font-size:6.9999361px;font-family:'Segoe UI';fill:#000000"
   id="text80"><path
     d="M 13.156785,216.75748 V 218.61 h -0.574213 v -4.90132 h 1.346667 q 0.786126,0 1.216786,0.38281 0.434078,0.38281 0.434078,1.08007 0,0.69725 -0.481929,1.14159 -0.478511,0.44433 -1.295398,0.44433 z m 0,-2.52928 v 2.00975 h 0.601557 q 0.594721,0 0.905754,-0.27002 0.31445,-0.27343 0.31445,-0.76903 0,-0.9707 -1.148427,-0.9707 z"
     style="font-size:6.9999361px;font-family:'Segoe UI';fill:#000000"
     id="path1153" /><path
     d="m 18.256348,215.67741 q -0.146971,-0.11279 -0.423824,-0.11279 -0.358883,0 -0.601557,0.33837 -0.239256,0.33838 -0.239256,0.92285 V 218.61 H 16.43117 v -3.49997 h 0.560541 v 0.72119 h 0.01367 q 0.119628,-0.36914 0.365719,-0.57422 0.246092,-0.20849 0.550288,-0.20849 0.218748,0 0.334958,0.0479 z"
     style="font-size:6.9999361px;font-family:'Segoe UI';fill:#000000"
     id="path1155" /><path
     d="m 20.327618,218.69203 q -0.775872,0 -1.240711,-0.48876 -0.461422,-0.49219 -0.461422,-1.30224 0,-0.88183 0.481929,-1.37743 0.48193,-0.4956 1.302235,-0.4956 0.782707,0 1.220203,0.48193 0.440914,0.48193 0.440914,1.33641 0,0.8374 -0.475093,1.34325 -0.471675,0.50244 -1.268055,0.50244 z m 0.04101,-3.19235 q -0.540034,0 -0.854484,0.36913 -0.31445,0.36572 -0.31445,1.01171 0,0.62207 0.317868,0.98095 0.317868,0.35889 0.851066,0.35889 0.543453,0 0.833977,-0.35205 0.293943,-0.35205 0.293943,-1.00146 0,-0.65624 -0.293943,-1.01171 -0.290524,-0.35546 -0.833977,-0.35546 z"
     style="font-size:6.9999361px;font-family:'Segoe UI';fill:#000000"
     id="path1157" /><path
     d="m 25.953544,218.32973 q 0,1.92772 -1.845687,1.92772 -0.649408,0 -1.134755,-0.24609 v -0.56055 q 0.591303,0.32813 1.127919,0.32813 1.291981,0 1.291981,-1.37402 v -0.3828 h -0.01367 q -0.399899,0.66991 -1.203114,0.66991 -0.652826,0 -1.052725,-0.46484 -0.39648,-0.46826 -0.39648,-1.25438 0,-0.89208 0.427242,-1.41845 0.43066,-0.52636 1.17577,-0.52636 0.707513,0 1.049307,0.56738 h 0.01367 v -0.48535 h 0.560542 z m -0.560542,-1.30223 v -0.51611 q 0,-0.41699 -0.283689,-0.71435 -0.280271,-0.29736 -0.700677,-0.29736 -0.519527,0 -0.813469,0.37939 -0.293943,0.37597 -0.293943,1.05614 0,0.58447 0.280271,0.93652 0.283689,0.34863 0.748528,0.34863 0.471676,0 0.765618,-0.33496 0.297361,-0.33496 0.297361,-0.8579 z"
     style="font-size:6.9999361px;font-family:'Segoe UI';fill:#000000"
     id="path1159" /><path
     d="m 28.920313,215.67741 q -0.146971,-0.11279 -0.423824,-0.11279 -0.358884,0 -0.601557,0.33837 -0.239256,0.33838 -0.239256,0.92285 V 218.61 h -0.560542 v -3.49997 h 0.560542 v 0.72119 h 0.01367 q 0.119628,-0.36914 0.365719,-0.57422 0.246092,-0.20849 0.550288,-0.20849 0.218748,0 0.334958,0.0479 z"
     style="font-size:6.9999361px;font-family:'Segoe UI';fill:#000000"
     id="path1161" /><path
     d="m 32.034053,218.61 h -0.560541 v -0.54687 h -0.01367 q -0.365719,0.6289 -1.07665,0.6289 -0.522945,0 -0.820305,-0.27685 -0.293943,-0.27685 -0.293943,-0.73486 0,-0.98095 1.155263,-1.14159 l 1.049307,-0.14697 q 0,-0.89208 -0.721185,-0.89208 -0.632319,0 -1.141591,0.43066 v -0.57422 q 0.516108,-0.32812 1.189442,-0.32812 1.233875,0 1.233875,1.30565 z m -0.560541,-1.77049 -0.844231,0.11621 q -0.389645,0.0547 -0.587885,0.19482 -0.198241,0.13672 -0.198241,0.48877 0,0.25634 0.181151,0.4204 0.184569,0.16065 0.488765,0.16065 0.416989,0 0.687006,-0.29053 0.273435,-0.29394 0.273435,-0.74169 z"
     style="font-size:6.9999361px;font-family:'Segoe UI';fill:#000000"
     id="path1163" /><path
     d="m 38.066713,218.61 h -0.560541 v -2.00975 q 0,-0.58105 -0.181151,-0.84081 -0.177733,-0.25976 -0.601557,-0.25976 -0.358884,0 -0.611811,0.32812 -0.249509,0.32812 -0.249509,0.78613 V 218.61 h -0.560542 v -2.07811 q 0,-1.03221 -0.79638,-1.03221 -0.369137,0 -0.608392,0.31103 -0.239256,0.30761 -0.239256,0.80322 V 218.61 h -0.560542 v -3.49997 h 0.560542 v 0.55371 h 0.01367 q 0.372555,-0.63574 1.086904,-0.63574 0.358883,0 0.625482,0.20166 0.266599,0.19824 0.36572,0.52294 0.389645,-0.7246 1.162098,-0.7246 1.155263,0 1.155263,1.42528 z"
     style="font-size:6.9999361px;font-family:'Segoe UI';fill:#000000"
     id="path1165" /><path
     d="m 41.614533,218.10415 h -0.01367 V 218.61 h -0.560542 v -5.18159 h 0.560542 v 2.29685 h 0.01367 q 0.41357,-0.69726 1.209949,-0.69726 0.673334,0 1.052725,0.47168 0.382809,0.46825 0.382809,1.2578 0,0.87841 -0.427242,1.40819 -0.427242,0.52636 -1.168935,0.52636 -0.693841,0 -1.049306,-0.58788 z m -0.01367,-1.41161 v 0.48876 q 0,0.43408 0.280271,0.73828 0.283688,0.30078 0.717767,0.30078 0.509272,0 0.796379,-0.38965 0.290525,-0.38964 0.290525,-1.08349 0,-0.58446 -0.270017,-0.916 -0.270017,-0.33154 -0.731439,-0.33154 -0.488765,0 -0.786126,0.34179 -0.29736,0.33838 -0.29736,0.85107 z"
     style="font-size:6.9999361px;font-family:'Segoe UI';fill:#000000"
     id="path1167" /><path
     d="m 45.716059,218.61 h -0.560542 v -5.18159 h 0.560542 z"
     style="font-size:6.9999361px;font-family:'Segoe UI';fill:#000000"
     id="path1169" /><path
     d="m 48.313692,218.69203 q -0.775872,0 -1.240712,-0.48876 -0.461421,-0.49219 -0.461421,-1.30224 0,-0.88183 0.481929,-1.37743 0.481929,-0.4956 1.302234,-0.4956 0.782708,0 1.220204,0.48193 0.440914,0.48193 0.440914,1.33641 0,0.8374 -0.475093,1.34325 -0.471676,0.50244 -1.268055,0.50244 z m 0.04101,-3.19235 q -0.540034,0 -0.854484,0.36913 -0.314451,0.36572 -0.314451,1.01171 0,0.62207 0.317868,0.98095 0.317869,0.35889 0.851067,0.35889 0.543452,0 0.833977,-0.35205 0.293942,-0.35205 0.293942,-1.00146 0,-0.65624 -0.293942,-1.01171 -0.290525,-0.35546 -0.833977,-0.35546 z"
     style="font-size:6.9999361px;font-family:'Segoe UI';fill:#000000"
     id="path1171" /><path
     d="m 53.338059,218.44936 q -0.403316,0.24267 -0.957022,0.24267 -0.748529,0 -1.20995,-0.48535 -0.458004,-0.48876 -0.458004,-1.26463 0,-0.86474 0.495601,-1.38769 0.495601,-0.52636 1.322742,-0.52636 0.461421,0 0.813469,0.1709 v 0.57421 q -0.389645,-0.27343 -0.833977,-0.27343 -0.536616,0 -0.881828,0.38622 -0.341793,0.38281 -0.341793,1.0083 0,0.61522 0.321286,0.97069 0.324704,0.35547 0.868156,0.35547 0.458004,0 0.86132,-0.3042 z"
     style="font-size:6.9999361px;font-family:'Segoe UI';fill:#000000"
     id="path1173" /><path
     d="m 57.09779,218.61 h -0.786126 l -1.544908,-1.68162 h -0.01367 V 218.61 h -0.560541 v -5.18159 h 0.560541 v 3.28464 h 0.01367 l 1.469713,-1.60302 h 0.734857 l -1.62352,1.68846 z"
     style="font-size:6.9999361px;font-family:'Segoe UI';fill:#000000"
     id="path1175" /><path
     d="m 57.466928,218.48354 v -0.60156 q 0.458004,0.33838 1.008292,0.33838 0.738274,0 0.738274,-0.49219 0,-0.14013 -0.06494,-0.23583 -0.06152,-0.0991 -0.170897,-0.17432 -0.105956,-0.0752 -0.252927,-0.1333 -0.143553,-0.0615 -0.311032,-0.12646 -0.23242,-0.0923 -0.410153,-0.18457 -0.174315,-0.0957 -0.293942,-0.21191 -0.11621,-0.11963 -0.177733,-0.27002 -0.0581,-0.15039 -0.0581,-0.35205 0,-0.24609 0.112792,-0.43408 0.112792,-0.1914 0.300778,-0.31786 0.187987,-0.12989 0.427243,-0.19483 0.242673,-0.0649 0.499018,-0.0649 0.454586,0 0.81347,0.15723 v 0.56737 q -0.386227,-0.25292 -0.888664,-0.25292 -0.157225,0 -0.283689,0.0376 -0.126464,0.0342 -0.218748,0.0991 -0.08887,0.0649 -0.140135,0.15723 -0.04785,0.0889 -0.04785,0.19824 0,0.13672 0.04785,0.229 0.05127,0.0923 0.146971,0.16406 0.0957,0.0718 0.23242,0.12988 0.136717,0.0581 0.311032,0.12647 0.23242,0.0889 0.416988,0.18457 0.184569,0.0923 0.314451,0.21191 0.129881,0.11621 0.19824,0.27002 0.07178,0.1538 0.07178,0.36572 0,0.25976 -0.11621,0.45116 -0.112792,0.19141 -0.304197,0.31787 -0.191404,0.12647 -0.440914,0.18799 -0.249509,0.0615 -0.522944,0.0615 -0.540034,0 -0.936515,-0.20849 z"
     style="font-size:6.9999361px;font-family:'Segoe UI';fill:#000000"
     id="path1177" /></g>			</g>
			<g
   id="shape1484-23"
   v:mID="1484"
   v:groupContext="shape"
   v:layerMember="0"
   transform="translate(33.2813,-16.5)">
				<title
   id="title83">Sheet.1484</title>
				<desc
   id="desc85">PLC tags</desc>
				<v:textBlock
   v:margins="rect(0,0,0,0)"
   v:tabSpace="42.5197" />
				<v:textRect
   cx="36"
   cy="216.687"
   width="72.01"
   height="10.375" />
				<rect
   x="0"
   y="211.5"
   width="72"
   height="10.375"
   class="st2"
   id="rect87" />
				<g
   aria-label="PLC tags"
   style="font-size:6.9999361px;font-family:'Segoe UI';fill:#000000"
   id="text89"><path
     d="M 23.966786,216.75748 V 218.61 h -0.574214 v -4.90132 h 1.346668 q 0.786125,0 1.216785,0.38281 0.434078,0.38281 0.434078,1.08007 0,0.69725 -0.481929,1.14159 -0.478511,0.44433 -1.295398,0.44433 z m 0,-2.52928 v 2.00975 h 0.601557 q 0.594721,0 0.905753,-0.27002 0.31445,-0.27343 0.31445,-0.76903 0,-0.9707 -1.148427,-0.9707 z"
     style="font-size:6.9999361px;font-family:'Segoe UI';fill:#000000"
     id="path1138" /><path
     d="m 29.85931,218.61 h -2.542945 v -4.90132 h 0.574213 v 4.38179 h 1.968732 z"
     style="font-size:6.9999361px;font-family:'Segoe UI';fill:#000000"
     id="path1140" /><path
     d="m 33.714744,218.40492 q -0.543453,0.28711 -1.353504,0.28711 -1.045889,0 -1.674789,-0.67333 -0.628901,-0.67334 -0.628901,-1.76708 0,-1.17577 0.707513,-1.90037 0.707514,-0.7246 1.794418,-0.7246 0.697259,0 1.155263,0.20166 v 0.61181 q -0.526363,-0.29395 -1.162099,-0.29395 -0.844231,0 -1.370593,0.56396 -0.522945,0.56396 -0.522945,1.50731 0,0.8955 0.488765,1.4287 0.492183,0.52978 1.288563,0.52978 0.738274,0 1.278309,-0.32812 z"
     style="font-size:6.9999361px;font-family:'Segoe UI';fill:#000000"
     id="path1142" /><path
     d="m 38.175152,218.57582 q -0.198241,0.10938 -0.522945,0.10938 -0.919425,0 -0.919425,-1.02539 v -2.07127 h -0.601557 v -0.47851 h 0.601557 v -0.85448 l 0.560542,-0.18115 v 1.03563 h 0.881828 v 0.47851 h -0.881828 v 1.97215 q 0,0.35205 0.119628,0.50244 0.119628,0.15039 0.396481,0.15039 0.211912,0 0.365719,-0.11621 z"
     style="font-size:6.9999361px;font-family:'Segoe UI';fill:#000000"
     id="path1144" /><path
     d="m 41.435865,218.61 h -0.560542 v -0.54687 h -0.01367 q -0.36572,0.6289 -1.076651,0.6289 -0.522944,0 -0.820305,-0.27685 -0.293942,-0.27685 -0.293942,-0.73486 0,-0.98095 1.155262,-1.14159 l 1.049307,-0.14697 q 0,-0.89208 -0.721185,-0.89208 -0.632318,0 -1.141591,0.43066 v -0.57422 q 0.516109,-0.32812 1.189443,-0.32812 1.233875,0 1.233875,1.30565 z m -0.560542,-1.77049 -0.84423,0.11621 q -0.389645,0.0547 -0.587886,0.19482 -0.19824,0.13672 -0.19824,0.48877 0,0.25634 0.181151,0.4204 0.184568,0.16065 0.488765,0.16065 0.416988,0 0.687005,-0.29053 0.273435,-0.29394 0.273435,-0.74169 z"
     style="font-size:6.9999361px;font-family:'Segoe UI';fill:#000000"
     id="path1146" /><path
     d="m 45.48612,218.32973 q 0,1.92772 -1.845686,1.92772 -0.649408,0 -1.134755,-0.24609 v -0.56055 q 0.591303,0.32813 1.127919,0.32813 1.29198,0 1.29198,-1.37402 v -0.3828 h -0.01367 q -0.399899,0.66991 -1.203114,0.66991 -0.652826,0 -1.052725,-0.46484 -0.396481,-0.46826 -0.396481,-1.25438 0,-0.89208 0.427242,-1.41845 0.43066,-0.52636 1.175771,-0.52636 0.707513,0 1.049307,0.56738 h 0.01367 v -0.48535 h 0.560542 z m -0.560542,-1.30223 v -0.51611 q 0,-0.41699 -0.283688,-0.71435 -0.280271,-0.29736 -0.700678,-0.29736 -0.519526,0 -0.813469,0.37939 -0.293942,0.37597 -0.293942,1.05614 0,0.58447 0.280271,0.93652 0.283688,0.34863 0.748528,0.34863 0.471675,0 0.765618,-0.33496 0.29736,-0.33496 0.29736,-0.8579 z"
     style="font-size:6.9999361px;font-family:'Segoe UI';fill:#000000"
     id="path1148" /><path
     d="m 46.415799,218.48354 v -0.60156 q 0.458003,0.33838 1.008291,0.33838 0.738275,0 0.738275,-0.49219 0,-0.14013 -0.06494,-0.23583 -0.06152,-0.0991 -0.170897,-0.17432 -0.105956,-0.0752 -0.252927,-0.1333 -0.143554,-0.0615 -0.311033,-0.12646 -0.232419,-0.0923 -0.410152,-0.18457 -0.174315,-0.0957 -0.293943,-0.21191 -0.11621,-0.11963 -0.177732,-0.27002 -0.0581,-0.15039 -0.0581,-0.35205 0,-0.24609 0.112792,-0.43408 0.112792,-0.1914 0.300778,-0.31786 0.187987,-0.12989 0.427242,-0.19483 0.242674,-0.0649 0.499019,-0.0649 0.454586,0 0.813469,0.15723 v 0.56737 q -0.386227,-0.25292 -0.888663,-0.25292 -0.157226,0 -0.283689,0.0376 -0.126464,0.0342 -0.218748,0.0991 -0.08887,0.0649 -0.140136,0.15723 -0.04785,0.0889 -0.04785,0.19824 0,0.13672 0.04785,0.229 0.05127,0.0923 0.146972,0.16406 0.0957,0.0718 0.232419,0.12988 0.136718,0.0581 0.311033,0.12647 0.232419,0.0889 0.416988,0.18457 0.184569,0.0923 0.31445,0.21191 0.129882,0.11621 0.198241,0.27002 0.07178,0.1538 0.07178,0.36572 0,0.25976 -0.11621,0.45116 -0.112791,0.19141 -0.304196,0.31787 -0.191404,0.12647 -0.440914,0.18799 -0.249509,0.0615 -0.522944,0.0615 -0.540034,0 -0.936515,-0.20849 z"
     style="font-size:6.9999361px;font-family:'Segoe UI';fill:#000000"
     id="path1150" /></g>			</g>
			<g
   id="shape1485-26"
   v:mID="1485"
   v:groupContext="shape"
   v:layerMember="0"
   transform="translate(73.9688,-46.5625)">
				<title
   id="title92">Sheet.1485</title>
				<desc
   id="desc94">PLC data types</desc>
				<v:textBlock
   v:margins="rect(0,0,0,0)"
   v:tabSpace="42.5197" />
				<v:textRect
   cx="36"
   cy="216.687"
   width="72.01"
   height="10.375" />
				<rect
   x="0"
   y="211.5"
   width="72"
   height="10.375"
   class="st2"
   id="rect96" />
				<g
   aria-label="PLC data types"
   style="font-size:6.9999361px;font-family:'Segoe UI';fill:#000000"
   id="text98"><path
     d="M 14.466786,216.75748 V 218.61 h -0.574214 v -4.90132 h 1.346668 q 0.786125,0 1.216785,0.38281 0.434078,0.38281 0.434078,1.08007 0,0.69725 -0.481929,1.14159 -0.478511,0.44433 -1.295398,0.44433 z m 0,-2.52928 v 2.00975 h 0.601557 q 0.594721,0 0.905753,-0.27002 0.31445,-0.27343 0.31445,-0.76903 0,-0.9707 -1.148427,-0.9707 z"
     style="font-size:6.9999361px;font-family:'Segoe UI';fill:#000000"
     id="path1113" /><path
     d="m 20.35931,218.61 h -2.542945 v -4.90132 h 0.574213 v 4.38179 h 1.968732 z"
     style="font-size:6.9999361px;font-family:'Segoe UI';fill:#000000"
     id="path1115" /><path
     d="m 24.214744,218.40492 q -0.543453,0.28711 -1.353504,0.28711 -1.045889,0 -1.674789,-0.67333 -0.628901,-0.67334 -0.628901,-1.76708 0,-1.17577 0.707513,-1.90037 0.707514,-0.7246 1.794418,-0.7246 0.697259,0 1.155263,0.20166 v 0.61181 q -0.526363,-0.29395 -1.162099,-0.29395 -0.844231,0 -1.370593,0.56396 -0.522945,0.56396 -0.522945,1.50731 0,0.8955 0.488765,1.4287 0.492183,0.52978 1.288563,0.52978 0.738274,0 1.278309,-0.32812 z"
     style="font-size:6.9999361px;font-family:'Segoe UI';fill:#000000"
     id="path1117" /><path
     d="m 30.038909,218.61 h -0.560542 v -0.59472 h -0.01367 q -0.389644,0.67675 -1.203114,0.67675 -0.659662,0 -1.056142,-0.46826 -0.393063,-0.47167 -0.393063,-1.28172 0,-0.86816 0.437496,-1.3911 0.437496,-0.52295 1.165517,-0.52295 0.721184,0 1.049306,0.56738 h 0.01367 v -2.16697 h 0.560542 z m -0.560542,-1.5825 v -0.51611 q 0,-0.42383 -0.280271,-0.71777 -0.280271,-0.29394 -0.710931,-0.29394 -0.51269,0 -0.806633,0.37597 -0.293943,0.37597 -0.293943,1.03905 0,0.60498 0.280271,0.95703 0.283689,0.34863 0.758782,0.34863 0.468258,0 0.758783,-0.33838 0.293942,-0.33838 0.293942,-0.85448 z"
     style="font-size:6.9999361px;font-family:'Segoe UI';fill:#000000"
     id="path1119" /><path
     d="m 33.685849,218.61 h -0.560542 v -0.54687 h -0.01367 q -0.365719,0.6289 -1.07665,0.6289 -0.522944,0 -0.820305,-0.27685 -0.293943,-0.27685 -0.293943,-0.73486 0,-0.98095 1.155263,-1.14159 l 1.049307,-0.14697 q 0,-0.89208 -0.721185,-0.89208 -0.632318,0 -1.141591,0.43066 v -0.57422 q 0.516109,-0.32812 1.189442,-0.32812 1.233876,0 1.233876,1.30565 z m -0.560542,-1.77049 -0.844231,0.11621 q -0.389644,0.0547 -0.587885,0.19482 -0.19824,0.13672 -0.19824,0.48877 0,0.25634 0.181151,0.4204 0.184568,0.16065 0.488765,0.16065 0.416988,0 0.687005,-0.29053 0.273435,-0.29394 0.273435,-0.74169 z"
     style="font-size:6.9999361px;font-family:'Segoe UI';fill:#000000"
     id="path1121" /><path
     d="m 36.372348,218.57582 q -0.198241,0.10938 -0.522945,0.10938 -0.919425,0 -0.919425,-1.02539 v -2.07127 h -0.601557 v -0.47851 h 0.601557 v -0.85448 l 0.560542,-0.18115 v 1.03563 h 0.881828 v 0.47851 H 35.49052 v 1.97215 q 0,0.35205 0.119628,0.50244 0.119628,0.15039 0.396481,0.15039 0.211912,0 0.365719,-0.11621 z"
     style="font-size:6.9999361px;font-family:'Segoe UI';fill:#000000"
     id="path1123" /><path
     d="m 39.633059,218.61 h -0.560542 v -0.54687 h -0.01367 q -0.36572,0.6289 -1.076651,0.6289 -0.522944,0 -0.820305,-0.27685 -0.293942,-0.27685 -0.293942,-0.73486 0,-0.98095 1.155263,-1.14159 l 1.049306,-0.14697 q 0,-0.89208 -0.721184,-0.89208 -0.632319,0 -1.141592,0.43066 v -0.57422 q 0.516109,-0.32812 1.189443,-0.32812 1.233875,0 1.233875,1.30565 z m -0.560542,-1.77049 -0.84423,0.11621 q -0.389645,0.0547 -0.587885,0.19482 -0.198241,0.13672 -0.198241,0.48877 0,0.25634 0.181151,0.4204 0.184568,0.16065 0.488765,0.16065 0.416988,0 0.687005,-0.29053 0.273435,-0.29394 0.273435,-0.74169 z"
     style="font-size:6.9999361px;font-family:'Segoe UI';fill:#000000"
     id="path1125" /><path
     d="m 44.233604,218.57582 q -0.198241,0.10938 -0.522945,0.10938 -0.919425,0 -0.919425,-1.02539 v -2.07127 h -0.601557 v -0.47851 h 0.601557 v -0.85448 l 0.560542,-0.18115 v 1.03563 h 0.881828 v 0.47851 h -0.881828 v 1.97215 q 0,0.35205 0.119627,0.50244 0.119628,0.15039 0.396481,0.15039 0.211912,0 0.36572,-0.11621 z"
     style="font-size:6.9999361px;font-family:'Segoe UI';fill:#000000"
     id="path1127" /><path
     d="m 47.774588,215.11003 -1.609849,4.06051 q -0.43066,1.08691 -1.20995,1.08691 -0.218748,0 -0.365719,-0.0444 v -0.50243 q 0.18115,0.0615 0.33154,0.0615 0.423824,0 0.635736,-0.50586 l 0.280271,-0.66308 -1.367175,-3.49313 h 0.622065 l 0.946768,2.69334 q 0.01709,0.0513 0.07178,0.2666 h 0.02051 q 0.01709,-0.082 0.06836,-0.25977 l 0.99462,-2.70017 z"
     style="font-size:6.9999361px;font-family:'Segoe UI';fill:#000000"
     id="path1129" /><path
     d="m 48.953775,218.10415 h -0.01367 v 2.1157 h -0.560542 v -5.10982 h 0.560542 v 0.61523 h 0.01367 q 0.41357,-0.69726 1.209949,-0.69726 0.676752,0 1.056143,0.47168 0.379391,0.46825 0.379391,1.2578 0,0.87841 -0.427242,1.40819 -0.427242,0.52636 -1.168935,0.52636 -0.680169,0 -1.049306,-0.58788 z m -0.01367,-1.41161 v 0.48876 q 0,0.43408 0.280271,0.73828 0.283688,0.30078 0.717767,0.30078 0.509272,0 0.796379,-0.38965 0.290525,-0.38964 0.290525,-1.08349 0,-0.58446 -0.270017,-0.916 -0.270017,-0.33154 -0.731439,-0.33154 -0.488765,0 -0.786126,0.34179 -0.29736,0.33838 -0.29736,0.85107 z"
     style="font-size:6.9999361px;font-family:'Segoe UI';fill:#000000"
     id="path1131" /><path
     d="m 55.30772,217.00015 h -2.471169 q 0.01367,0.58447 0.31445,0.90234 0.300779,0.31787 0.827141,0.31787 0.591303,0 1.086904,-0.38965 v 0.52636 q -0.461421,0.33496 -1.220203,0.33496 -0.741693,0 -1.165517,-0.47509 -0.423824,-0.47851 -0.423824,-1.34325 0,-0.81689 0.461421,-1.32958 0.46484,-0.51611 1.151845,-0.51611 0.687006,0 1.062979,0.44433 0.375973,0.44434 0.375973,1.23388 z m -0.574214,-0.47509 q -0.0034,-0.48535 -0.235837,-0.75537 -0.229002,-0.27001 -0.639155,-0.27001 -0.39648,0 -0.673333,0.28369 -0.276853,0.28369 -0.341794,0.74169 z"
     style="font-size:6.9999361px;font-family:'Segoe UI';fill:#000000"
     id="path1133" /><path
     d="m 55.946877,218.48354 v -0.60156 q 0.458004,0.33838 1.008292,0.33838 0.738274,0 0.738274,-0.49219 0,-0.14013 -0.06494,-0.23583 -0.06152,-0.0991 -0.170897,-0.17432 -0.105956,-0.0752 -0.252927,-0.1333 -0.143553,-0.0615 -0.311032,-0.12646 -0.23242,-0.0923 -0.410153,-0.18457 -0.174315,-0.0957 -0.293942,-0.21191 -0.11621,-0.11963 -0.177733,-0.27002 -0.0581,-0.15039 -0.0581,-0.35205 0,-0.24609 0.112792,-0.43408 0.112792,-0.1914 0.300778,-0.31786 0.187987,-0.12989 0.427243,-0.19483 0.242673,-0.0649 0.499018,-0.0649 0.454586,0 0.81347,0.15723 v 0.56737 q -0.386227,-0.25292 -0.888664,-0.25292 -0.157225,0 -0.283689,0.0376 -0.126464,0.0342 -0.218748,0.0991 -0.08887,0.0649 -0.140135,0.15723 -0.04785,0.0889 -0.04785,0.19824 0,0.13672 0.04785,0.229 0.05127,0.0923 0.146971,0.16406 0.0957,0.0718 0.23242,0.12988 0.136717,0.0581 0.311032,0.12647 0.23242,0.0889 0.416988,0.18457 0.184569,0.0923 0.314451,0.21191 0.129881,0.11621 0.19824,0.27002 0.07178,0.1538 0.07178,0.36572 0,0.25976 -0.11621,0.45116 -0.112792,0.19141 -0.304197,0.31787 -0.191404,0.12647 -0.440914,0.18799 -0.249509,0.0615 -0.522944,0.0615 -0.540034,0 -0.936515,-0.20849 z"
     style="font-size:6.9999361px;font-family:'Segoe UI';fill:#000000"
     id="path1135" /></g>			</g>
			<g
   id="shape1486-29"
   v:mID="1486"
   v:groupContext="shape"
   transform="translate(35.7188,-70.3256)">
				<title
   id="title101">Sheet.1486</title>
				<path
   d="M0 211.2 L74.34 211.2 L74.34 221.88"
   class="st1"
   id="path103" />
			</g>
			<g
   id="shape1487-32"
   v:mID="1487"
   v:groupContext="shape"
   transform="translate(-152.313,181.724) rotate(-90)">
				<title
   id="title106">Sheet.1487</title>
				<path
   d="M0 221.88 L40.85 221.88"
   class="st1"
   id="path108" />
			</g>
			<g
   id="group1488-35"
   transform="translate(-178.75,80.875) rotate(-90)"
   v:mID="1488"
   v:groupContext="group">
				<title
   id="title111">Sheet.1488</title>
				<g
   id="shape1489-36"
   v:mID="1489"
   v:groupContext="shape">
					<title
   id="title113">Sheet.1489</title>
					<path
   d="M0 207.63 L0 221.13 a0.75 0.75 -180 0 0 0.75 0.75 L9.58 221.88 a0.75 0.75 -180 0 0 0.75 -0.75 L10.33          213.63 a0.75 0.75 0 0 1 0.75 -0.75 L11.25 212.88 a0.75 0.75 -180 0 0 0.75 -0.75 L12 207.63 a0.75          0.75 -180 0 0 -0.75 -0.75 L0.75 206.88 a0.75 0.75 -180 0 0 -0.75 0.75 Z"
   class="st5"
   id="path115" />
				</g>
				<g
   id="shape1490-38"
   v:mID="1490"
   v:groupContext="shape">
					<title
   id="title118">Sheet.1490</title>
					<rect
   x="0"
   y="206.875"
   width="9"
   height="15"
   rx="0.75"
   ry="0.75"
   class="st6"
   id="rect120" />
				</g>
			</g>
			<g
   id="shape1491-42"
   v:mID="1491"
   v:groupContext="shape"
   transform="translate(4.5,-14.25)">
				<title
   id="title124">Sheet.1491</title>
				<rect
   x="0"
   y="98.875"
   width="132"
   height="123"
   rx="4.5"
   ry="4.5"
   class="st7"
   id="rect126" />
			</g>
			<g
   id="shape1492-44"
   v:mID="1492"
   v:groupContext="shape"
   v:layerMember="0"
   transform="translate(9.75,-2.84217E-14)">
				<title
   id="title129">Sheet.1492</title>
				<desc
   id="desc131">Git repository files</desc>
				<v:textBlock
   v:margins="rect(0,0,0,0)"
   v:tabSpace="42.5197" />
				<v:textRect
   cx="59.25"
   cy="216.687"
   width="118.5"
   height="10.375" />
				<rect
   x="0"
   y="211.5"
   width="118.5"
   height="10.375"
   class="st2"
   id="rect133" />
				<g
   aria-label="Git repository files"
   style="font-weight:bold;font-size:6.9999361px;font-family:'Segoe UI';fill:#ff6c09"
   id="text135"><path
     d="m 33.383453,218.28188 q -0.717766,0.41357 -1.784163,0.41357 -1.182606,0 -1.866194,-0.65283 -0.680169,-0.65624 -0.680169,-1.80467 0,-1.15526 0.74511,-1.88328 0.74511,-0.72802 1.982404,-0.72802 0.77929,0 1.374011,0.21533 v 1.03563 q -0.567378,-0.32812 -1.387683,-0.32812 -0.687005,0 -1.121083,0.44775 -0.430661,0.44433 -0.430661,1.18944 0,0.75537 0.386227,1.16894 0.389645,0.41357 1.049307,0.41357 0.396481,0 0.628901,-0.11279 v -0.95703 h -0.980948 v -0.88182 h 2.084941 z"
     style="font-weight:bold;font-size:6.9999361px;font-family:'Segoe UI';fill:#ff6c09"
     id="path1076" /><path
     d="m 34.777972,214.55633 q -0.273435,0 -0.44775,-0.16065 -0.174314,-0.16406 -0.174314,-0.3999 0,-0.24267 0.174314,-0.39648 0.174315,-0.1538 0.44775,-0.1538 0.276853,0 0.44775,0.1538 0.174315,0.15381 0.174315,0.39648 0,0.2461 -0.174315,0.40332 -0.170897,0.15723 -0.44775,0.15723 z M 35.31117,218.61 h -1.080068 v -3.49997 h 1.080068 z"
     style="font-weight:bold;font-size:6.9999361px;font-family:'Segoe UI';fill:#ff6c09"
     id="path1078" /><path
     d="m 38.342881,218.56899 q -0.239256,0.12646 -0.721185,0.12646 -1.141591,0 -1.141591,-1.18603 v -1.60301 h -0.567377 v -0.79638 h 0.567377 v -0.75536 l 1.07665,-0.30762 v 1.06298 h 0.786126 v 0.79638 h -0.786126 v 1.41503 q 0,0.54687 0.434079,0.54687 0.170896,0 0.352047,-0.0991 z"
     style="font-weight:bold;font-size:6.9999361px;font-family:'Segoe UI';fill:#ff6c09"
     id="path1080" /><path
     d="m 43.158755,216.08414 q -0.194822,-0.10595 -0.454586,-0.10595 -0.352047,0 -0.550288,0.25976 -0.19824,0.25635 -0.19824,0.70068 V 218.61 h -1.080068 v -3.49997 h 1.080068 v 0.64941 h 0.01367 q 0.256345,-0.71093 0.922843,-0.71093 0.170897,0 0.266599,0.041 z"
     style="font-weight:bold;font-size:6.9999361px;font-family:'Segoe UI';fill:#ff6c09"
     id="path1082" /><path
     d="m 46.781768,217.16763 h -2.283182 q 0.05469,0.7622 0.960441,0.7622 0.577631,0 1.015127,-0.27343 v 0.77929 q -0.485347,0.25976 -1.261219,0.25976 -0.847648,0 -1.315906,-0.46826 -0.468257,-0.47167 -0.468257,-1.31249 0,-0.87157 0.505854,-1.38084 0.505855,-0.50928 1.24413,-0.50928 0.765618,0 1.182606,0.45459 0.420406,0.45459 0.420406,1.23388 z m -1.001455,-0.66308 q 0,-0.75195 -0.608393,-0.75195 -0.259763,0 -0.451168,0.21533 -0.187987,0.21533 -0.229002,0.53662 z"
     style="font-weight:bold;font-size:6.9999361px;font-family:'Segoe UI';fill:#ff6c09"
     id="path1084" /><path
     d="m 48.518081,218.20327 h -0.01367 v 2.01658 h -1.080068 v -5.10982 h 1.080068 v 0.52636 h 0.01367 q 0.399899,-0.61181 1.124501,-0.61181 0.68017,0 1.049307,0.46826 0.372555,0.46484 0.372555,1.26806 0,0.87499 -0.434078,1.40477 -0.43066,0.52978 -1.148427,0.52978 -0.632318,0 -0.963858,-0.49218 z m -0.03076,-1.43554 v 0.28027 q 0,0.3623 0.191405,0.59131 0.191404,0.229 0.502437,0.229 0.369137,0 0.570795,-0.28369 0.205077,-0.28711 0.205077,-0.81005 0,-0.92284 -0.717767,-0.92284 -0.33154,0 -0.543452,0.25292 -0.208495,0.24951 -0.208495,0.66308 z"
     style="font-weight:bold;font-size:6.9999361px;font-family:'Segoe UI';fill:#ff6c09"
     id="path1086" /><path
     d="m 53.439911,218.69545 q -0.874992,0 -1.377429,-0.48877 -0.499019,-0.49218 -0.499019,-1.33299 0,-0.86816 0.519526,-1.35692 0.519527,-0.49219 1.404773,-0.49219 0.871574,0 1.367175,0.49219 0.495601,0.48876 0.495601,1.2954 0,0.87157 -0.512691,1.37742 -0.509273,0.50586 -1.397936,0.50586 z m 0.02734,-2.84372 q -0.382809,0 -0.594721,0.26318 -0.211912,0.26318 -0.211912,0.74511 0,1.00829 0.813469,1.00829 0.775872,0 0.775872,-1.03564 0,-0.98094 -0.782708,-0.98094 z"
     style="font-weight:bold;font-size:6.9999361px;font-family:'Segoe UI';fill:#ff6c09"
     id="path1088" /><path
     d="m 55.822214,218.51772 v -0.875 q 0.266599,0.16065 0.52978,0.23926 0.266599,0.0786 0.502437,0.0786 0.287107,0 0.451168,-0.0786 0.167479,-0.0786 0.167479,-0.23926 0,-0.10253 -0.0752,-0.17089 -0.07519,-0.0684 -0.194822,-0.11963 -0.11621,-0.0513 -0.256346,-0.0923 -0.140135,-0.041 -0.270017,-0.0923 -0.208494,-0.0786 -0.369137,-0.16748 -0.157225,-0.0923 -0.266599,-0.21191 -0.105956,-0.11963 -0.164061,-0.27685 -0.05469,-0.15723 -0.05469,-0.37256 0,-0.29394 0.126464,-0.50585 0.129881,-0.21192 0.341793,-0.34521 0.21533,-0.13672 0.488765,-0.19825 0.276853,-0.0649 0.574214,-0.0649 0.23242,0 0.471675,0.0376 0.239256,0.0342 0.471676,0.10254 v 0.83398 q -0.205076,-0.11963 -0.440914,-0.17774 -0.23242,-0.0615 -0.458004,-0.0615 -0.105956,0 -0.201658,0.0205 -0.09228,0.0171 -0.164061,0.0547 -0.07178,0.0342 -0.112792,0.0923 -0.04102,0.0547 -0.04102,0.12646 0,0.0957 0.06152,0.16406 0.06152,0.0684 0.160643,0.11963 0.09912,0.0478 0.218748,0.0889 0.123045,0.0376 0.242673,0.0786 0.21533,0.0752 0.389645,0.16406 0.174315,0.0889 0.297361,0.2085 0.126463,0.11962 0.191404,0.28027 0.06836,0.16064 0.06836,0.38281 0,0.31103 -0.136718,0.53319 -0.133299,0.21875 -0.358883,0.35889 -0.222166,0.13672 -0.516109,0.19824 -0.290524,0.0649 -0.604975,0.0649 -0.577631,0 -1.069814,-0.17773 z"
     style="font-weight:bold;font-size:6.9999361px;font-family:'Segoe UI';fill:#ff6c09"
     id="path1090" /><path
     d="m 59.674229,214.55633 q -0.273435,0 -0.44775,-0.16065 -0.174315,-0.16406 -0.174315,-0.3999 0,-0.24267 0.174315,-0.39648 0.174315,-0.1538 0.44775,-0.1538 0.276853,0 0.44775,0.1538 0.174315,0.15381 0.174315,0.39648 0,0.2461 -0.174315,0.40332 -0.170897,0.15723 -0.44775,0.15723 z m 0.533198,4.05367 h -1.080068 v -3.49997 h 1.080068 z"
     style="font-weight:bold;font-size:6.9999361px;font-family:'Segoe UI';fill:#ff6c09"
     id="path1092" /><path
     d="m 63.239139,218.56899 q -0.239256,0.12646 -0.721185,0.12646 -1.141591,0 -1.141591,-1.18603 v -1.60301 h -0.567378 v -0.79638 h 0.567378 v -0.75536 l 1.07665,-0.30762 v 1.06298 h 0.786126 v 0.79638 h -0.786126 v 1.41503 q 0,0.54687 0.434078,0.54687 0.170897,0 0.352048,-0.0991 z"
     style="font-weight:bold;font-size:6.9999361px;font-family:'Segoe UI';fill:#ff6c09"
     id="path1094" /><path
     d="m 65.484722,218.69545 q -0.874992,0 -1.377429,-0.48877 -0.499019,-0.49218 -0.499019,-1.33299 0,-0.86816 0.519527,-1.35692 0.519526,-0.49219 1.404772,-0.49219 0.871574,0 1.367175,0.49219 0.495601,0.48876 0.495601,1.2954 0,0.87157 -0.512691,1.37742 -0.509272,0.50586 -1.397936,0.50586 z m 0.02734,-2.84372 q -0.382809,0 -0.594721,0.26318 -0.211912,0.26318 -0.211912,0.74511 0,1.00829 0.813469,1.00829 0.775872,0 0.775872,-1.03564 0,-0.98094 -0.782708,-0.98094 z"
     style="font-weight:bold;font-size:6.9999361px;font-family:'Segoe UI';fill:#ff6c09"
     id="path1096" /><path
     d="m 70.379209,216.08414 q -0.194822,-0.10595 -0.454585,-0.10595 -0.352048,0 -0.550288,0.25976 -0.198241,0.25635 -0.198241,0.70068 V 218.61 h -1.080068 v -3.49997 h 1.080068 v 0.64941 h 0.01367 q 0.256345,-0.71093 0.922843,-0.71093 0.170897,0 0.266599,0.041 z"
     style="font-weight:bold;font-size:6.9999361px;font-family:'Segoe UI';fill:#ff6c09"
     id="path1098" /><path
     d="m 74.504661,215.11003 -1.421862,3.78024 q -0.51269,1.36376 -1.544907,1.36376 -0.393063,0 -0.645991,-0.0889 v -0.86132 q 0.21533,0.12647 0.468258,0.12647 0.416988,0 0.581049,-0.39307 l 0.184569,-0.43408 -1.421862,-3.49313 h 1.196278 l 0.652826,2.12938 q 0.06152,0.19824 0.0957,0.46826 h 0.01367 q 0.03076,-0.19825 0.112792,-0.46143 l 0.659662,-2.13621 z"
     style="font-weight:bold;font-size:6.9999361px;font-family:'Segoe UI';fill:#ff6c09"
     id="path1100" /><path
     d="m 79.156473,214.25555 q -0.208494,-0.082 -0.399899,-0.082 -0.519526,0 -0.519526,0.56396 v 0.37255 h 0.799797 v 0.79638 H 78.237048 V 218.61 h -1.076651 v -2.70359 h -0.587885 v -0.79638 h 0.587885 v -0.43408 q 0,-0.59813 0.389645,-0.96385 0.389645,-0.36572 1.059561,-0.36572 0.328122,0 0.54687,0.0684 z"
     style="font-weight:bold;font-size:6.9999361px;font-family:'Segoe UI';fill:#ff6c09"
     id="path1102" /><path
     d="m 80.099825,214.55633 q -0.273435,0 -0.44775,-0.16065 -0.174314,-0.16406 -0.174314,-0.3999 0,-0.24267 0.174314,-0.39648 0.174315,-0.1538 0.44775,-0.1538 0.276853,0 0.44775,0.1538 0.174315,0.15381 0.174315,0.39648 0,0.2461 -0.174315,0.40332 -0.170897,0.15723 -0.44775,0.15723 z m 0.533199,4.05367 h -1.080069 v -3.49997 h 1.080069 z"
     style="font-weight:bold;font-size:6.9999361px;font-family:'Segoe UI';fill:#ff6c09"
     id="path1104" /><path
     d="M 82.629098,218.61 H 81.54903 v -5.18159 h 1.080068 z"
     style="font-weight:bold;font-size:6.9999361px;font-family:'Segoe UI';fill:#ff6c09"
     id="path1106" /><path
     d="m 86.689607,217.16763 h -2.283182 q 0.05469,0.7622 0.96044,0.7622 0.577632,0 1.015128,-0.27343 v 0.77929 q -0.485347,0.25976 -1.261219,0.25976 -0.847649,0 -1.315906,-0.46826 -0.468258,-0.47167 -0.468258,-1.31249 0,-0.87157 0.505855,-1.38084 0.505855,-0.50928 1.244129,-0.50928 0.765618,0 1.182607,0.45459 0.420406,0.45459 0.420406,1.23388 z m -1.001456,-0.66308 q 0,-0.75195 -0.608392,-0.75195 -0.259764,0 -0.451168,0.21533 -0.187987,0.21533 -0.229002,0.53662 z"
     style="font-weight:bold;font-size:6.9999361px;font-family:'Segoe UI';fill:#ff6c09"
     id="path1108" /><path
     d="m 87.103178,218.51772 v -0.875 q 0.266599,0.16065 0.52978,0.23926 0.266599,0.0786 0.502437,0.0786 0.287107,0 0.451168,-0.0786 0.167479,-0.0786 0.167479,-0.23926 0,-0.10253 -0.07519,-0.17089 -0.0752,-0.0684 -0.194822,-0.11963 -0.11621,-0.0513 -0.256346,-0.0923 -0.140135,-0.041 -0.270017,-0.0923 -0.208494,-0.0786 -0.369137,-0.16748 -0.157225,-0.0923 -0.266599,-0.21191 -0.105956,-0.11963 -0.164061,-0.27685 -0.05469,-0.15723 -0.05469,-0.37256 0,-0.29394 0.126464,-0.50585 0.129881,-0.21192 0.341793,-0.34521 0.21533,-0.13672 0.488765,-0.19825 0.276853,-0.0649 0.574214,-0.0649 0.23242,0 0.471675,0.0376 0.239256,0.0342 0.471676,0.10254 v 0.83398 q -0.205077,-0.11963 -0.440914,-0.17774 -0.23242,-0.0615 -0.458004,-0.0615 -0.105956,0 -0.201658,0.0205 -0.09228,0.0171 -0.164061,0.0547 -0.07178,0.0342 -0.112792,0.0923 -0.04101,0.0547 -0.04101,0.12646 0,0.0957 0.06152,0.16406 0.06152,0.0684 0.160644,0.11963 0.09912,0.0478 0.218748,0.0889 0.123045,0.0376 0.242673,0.0786 0.21533,0.0752 0.389645,0.16406 0.174315,0.0889 0.297361,0.2085 0.126463,0.11962 0.191404,0.28027 0.06836,0.16064 0.06836,0.38281 0,0.31103 -0.136718,0.53319 -0.133299,0.21875 -0.358883,0.35889 -0.222166,0.13672 -0.516109,0.19824 -0.290524,0.0649 -0.604975,0.0649 -0.577631,0 -1.069814,-0.17773 z"
     style="font-weight:bold;font-size:6.9999361px;font-family:'Segoe UI';fill:#ff6c09"
     id="path1110" /></g>			</g>
			<g
   id="shape1493-47"
   v:mID="1493"
   v:groupContext="shape"
   transform="translate(-186.156,151.244) rotate(-89.921)">
				<title
   id="title138">Sheet.1493</title>
				<path
   d="M0 221.88 L22.67 221.88"
   class="st1"
   id="path140" />
			</g>
			<g
   id="shape1494-50"
   v:mID="1494"
   v:groupContext="shape"
   transform="translate(35.7188,-121.326)">
				<title
   id="title143">Sheet.1494</title>
				<path
   d="M0 211.2 L75 211.2 L75 221.88"
   class="st1"
   id="path145" />
			</g>
			<g
   id="group1495-53"
   transform="translate(-103.656,110.875) rotate(-90)"
   v:mID="1495"
   v:groupContext="group">
				<title
   id="title148">Sheet.1495</title>
				<g
   id="shape1496-54"
   v:mID="1496"
   v:groupContext="shape">
					<title
   id="title150">Sheet.1496</title>
					<path
   d="M0 207.63 L0 221.13 a0.75 0.75 -180 0 0 0.75 0.75 L9.58 221.88 a0.75 0.75 -180 0 0 0.75 -0.75 L10.33          213.63 a0.75 0.75 0 0 1 0.75 -0.75 L11.25 212.88 a0.75 0.75 -180 0 0 0.75 -0.75 L12 207.63 a0.75          0.75 -180 0 0 -0.75 -0.75 L0.75 206.88 a0.75 0.75 -180 0 0 -0.75 0.75 Z"
   class="st9"
   id="path152" />
				</g>
				<g
   id="shape1497-56"
   v:mID="1497"
   v:groupContext="shape">
					<title
   id="title155">Sheet.1497</title>
					<rect
   x="0"
   y="206.875"
   width="9"
   height="15"
   rx="0.75"
   ry="0.75"
   class="st10"
   id="rect157" />
				</g>
			</g>
			<g
   id="group1498-60"
   transform="translate(-178.75,128.875) rotate(-90)"
   v:mID="1498"
   v:groupContext="group">
				<title
   id="title161">Sheet.1498</title>
				<g
   id="shape1499-61"
   v:mID="1499"
   v:groupContext="shape">
					<title
   id="title163">Sheet.1499</title>
					<path
   d="M0 207.63 L0 221.13 a0.75 0.75 -180 0 0 0.75 0.75 L9.58 221.88 a0.75 0.75 -180 0 0 0.75 -0.75 L10.33          213.63 a0.75 0.75 0 0 1 0.75 -0.75 L11.25 212.88 a0.75 0.75 -180 0 0 0.75 -0.75 L12 207.63 a0.75          0.75 -180 0 0 -0.75 -0.75 L0.75 206.88 a0.75 0.75 -180 0 0 -0.75 0.75 Z"
   class="st5"
   id="path165" />
				</g>
				<g
   id="shape1500-63"
   v:mID="1500"
   v:groupContext="shape">
					<title
   id="title168">Sheet.1500</title>
					<rect
   x="0"
   y="206.875"
   width="9"
   height="15"
   rx="0.75"
   ry="0.75"
   class="st6"
   id="rect170" />
				</g>
			</g>
			<g
   id="group1501-66"
   transform="translate(-178.656,161.875) rotate(-90)"
   v:mID="1501"
   v:groupContext="group">
				<title
   id="title174">Sheet.1501</title>
				<g
   id="shape1502-67"
   v:mID="1502"
   v:groupContext="shape">
					<title
   id="title176">Sheet.1502</title>
					<path
   d="M0 207.63 L0 221.13 a0.75 0.75 -180 0 0 0.75 0.75 L9.58 221.88 a0.75 0.75 -180 0 0 0.75 -0.75 L10.33          213.63 a0.75 0.75 0 0 1 0.75 -0.75 L11.25 212.88 a0.75 0.75 -180 0 0 0.75 -0.75 L12 207.63 a0.75          0.75 -180 0 0 -0.75 -0.75 L0.75 206.88 a0.75 0.75 -180 0 0 -0.75 0.75 Z"
   class="st5"
   id="path178" />
				</g>
				<g
   id="shape1503-69"
   v:mID="1503"
   v:groupContext="shape">
					<title
   id="title181">Sheet.1503</title>
					<rect
   x="0"
   y="206.875"
   width="9"
   height="15"
   rx="0.75"
   ry="0.75"
   class="st6"
   id="rect183" />
				</g>
			</g>
			<g
   id="group1504-72"
   transform="translate(-144.906,191.875) rotate(-90)"
   v:mID="1504"
   v:groupContext="group">
				<title
   id="title187">Sheet.1504</title>
				<g
   id="shape1505-73"
   v:mID="1505"
   v:groupContext="shape">
					<title
   id="title189">Sheet.1505</title>
					<path
   d="M0 207.63 L0 221.13 a0.75 0.75 -180 0 0 0.75 0.75 L9.58 221.88 a0.75 0.75 -180 0 0 0.75 -0.75 L10.33          213.63 a0.75 0.75 0 0 1 0.75 -0.75 L11.25 212.88 a0.75 0.75 -180 0 0 0.75 -0.75 L12 207.63 a0.75          0.75 -180 0 0 -0.75 -0.75 L0.75 206.88 a0.75 0.75 -180 0 0 -0.75 0.75 Z"
   class="st5"
   id="path191" />
				</g>
				<g
   id="shape1506-75"
   v:mID="1506"
   v:groupContext="shape">
					<title
   id="title194">Sheet.1506</title>
					<rect
   x="0"
   y="206.875"
   width="9"
   height="15"
   rx="0.75"
   ry="0.75"
   class="st6"
   id="rect196" />
				</g>
			</g>
			<g
   id="group1507-78"
   transform="translate(-103.656,161.875) rotate(-90)"
   v:mID="1507"
   v:groupContext="group">
				<title
   id="title200">Sheet.1507</title>
				<g
   id="shape1508-79"
   v:mID="1508"
   v:groupContext="shape">
					<title
   id="title202">Sheet.1508</title>
					<path
   d="M0 207.63 L0 221.13 a0.75 0.75 -180 0 0 0.75 0.75 L9.58 221.88 a0.75 0.75 -180 0 0 0.75 -0.75 L10.33          213.63 a0.75 0.75 0 0 1 0.75 -0.75 L11.25 212.88 a0.75 0.75 -180 0 0 0.75 -0.75 L12 207.63 a0.75          0.75 -180 0 0 -0.75 -0.75 L0.75 206.88 a0.75 0.75 -180 0 0 -0.75 0.75 Z"
   class="st5"
   id="path204" />
				</g>
				<g
   id="shape1509-81"
   v:mID="1509"
   v:groupContext="shape">
					<title
   id="title207">Sheet.1509</title>
					<rect
   x="0"
   y="206.875"
   width="9"
   height="15"
   rx="0.75"
   ry="0.75"
   class="st6"
   id="rect209" />
				</g>
			</g>
			<g
   id="group1510-84"
   transform="translate(-178.656,12.625) rotate(-90)"
   v:mID="1510"
   v:groupContext="group">
				<title
   id="title213">Sheet.1510</title>
				<g
   id="shape1511-85"
   v:mID="1511"
   v:groupContext="shape">
					<title
   id="title215">Sheet.1511</title>
					<path
   d="M0 207.63 L0 221.13 a0.75 0.75 -180 0 0 0.75 0.75 L9.58 221.88 a0.75 0.75 -180 0 0 0.75 -0.75 L10.33          213.63 a0.75 0.75 0 0 1 0.75 -0.75 L11.25 212.88 a0.75 0.75 -180 0 0 0.75 -0.75 L12 207.63 a0.75          0.75 -180 0 0 -0.75 -0.75 L0.75 206.88 a0.75 0.75 -180 0 0 -0.75 0.75 Z"
   class="st11"
   id="path217" />
				</g>
				<g
   id="shape1512-87"
   v:mID="1512"
   v:groupContext="shape">
					<title
   id="title220">Sheet.1512</title>
					<rect
   x="0"
   y="206.875"
   width="9"
   height="15"
   rx="0.75"
   ry="0.75"
   class="st12"
   id="rect222" />
				</g>
			</g>
			<g
   id="shape1516-91"
   v:mID="1516"
   v:groupContext="shape"
   transform="translate(-186.156,46.8905) rotate(-89.8944)">
				<title
   id="title226">Sheet.1516</title>
				<path
   d="M0 221.88 L33.92 221.88"
   class="st1"
   id="path228" />
			</g>
			<g
   id="group1517-94"
   transform="translate(-178.656,47.125) rotate(-90)"
   v:mID="1517"
   v:groupContext="group">
				<title
   id="title231">Sheet.1517</title>
				<g
   id="shape1518-95"
   v:mID="1518"
   v:groupContext="shape">
					<title
   id="title233">Sheet.1518</title>
					<path
   d="M0 207.63 L0 221.13 a0.75 0.75 -180 0 0 0.75 0.75 L9.58 221.88 a0.75 0.75 -180 0 0 0.75 -0.75 L10.33          213.63 a0.75 0.75 0 0 1 0.75 -0.75 L11.25 212.88 a0.75 0.75 -180 0 0 0.75 -0.75 L12 207.63 a0.75          0.75 -180 0 0 -0.75 -0.75 L0.75 206.88 a0.75 0.75 -180 0 0 -0.75 0.75 Z"
   class="st11"
   id="path235" />
				</g>
				<g
   id="shape1519-97"
   v:mID="1519"
   v:groupContext="shape">
					<title
   id="title238">Sheet.1519</title>
					<rect
   x="0"
   y="206.875"
   width="9"
   height="15"
   rx="0.75"
   ry="0.75"
   class="st12"
   id="rect240" />
				</g>
			</g>
			<g
   id="shape1521-100"
   v:mID="1521"
   v:groupContext="shape"
   v:layerMember="0"
   transform="translate(121.125,-111)">
				<title
   id="title244">Sheet.1521</title>
				<desc
   id="desc246">.git</desc>
				<v:textBlock
   v:margins="rect(0,0,0,0)"
   v:tabSpace="42.5197" />
				<v:textRect
   cx="7.5"
   cy="216.687"
   width="15.01"
   height="10.375" />
				<rect
   x="0"
   y="211.5"
   width="15"
   height="10.375"
   class="st2"
   id="rect248" />
				<g
   aria-label=".git"
   style="font-size:6.9999361px;font-family:'Segoe UI';fill:#923931"
   id="text250"><path
     d="m 0.76220007,218.6852 q -0.15722512,0 -0.27001706,-0.1128 -0.109374,-0.11279 -0.109374,-0.27001 0,-0.15723 0.109374,-0.27002 0.11279194,-0.11621 0.27001706,-0.11621 0.16064307,0 0.27343503,0.11621 0.1127919,0.11279 0.1127919,0.27002 0,0.15722 -0.1127919,0.27001 -0.11279196,0.1128 -0.27343503,0.1128 z"
     style="font-size:6.9999361px;font-family:'Segoe UI';fill:#923931"
     id="path1067" /><path
     d="m 5.0722193,218.32973 q 0,1.92772 -1.8456862,1.92772 -0.6494082,0 -1.1347553,-0.24609 v -0.56055 q 0.5913032,0.32813 1.1279194,0.32813 1.2919804,0 1.2919804,-1.37402 v -0.3828 h -0.013672 q -0.3998987,0.66991 -1.203114,0.66991 -0.652826,0 -1.0527247,-0.46484 -0.3964808,-0.46826 -0.3964808,-1.25438 0,-0.89208 0.4272422,-1.41845 0.4306601,-0.52636 1.1757705,-0.52636 0.7075131,0 1.0493068,0.56738 h 0.013672 v -0.48535 H 5.0722193 Z M 4.5116776,217.0275 v -0.51611 q 0,-0.41699 -0.2836888,-0.71435 -0.2802709,-0.29736 -0.7006772,-0.29736 -0.5195265,0 -0.8134692,0.37939 -0.2939426,0.37597 -0.2939426,1.05614 0,0.58447 0.2802709,0.93652 0.2836888,0.34863 0.7485283,0.34863 0.4716754,0 0.765618,-0.33496 0.2973606,-0.33496 0.2973606,-0.8579 z"
     style="font-size:6.9999361px;font-family:'Segoe UI';fill:#923931"
     id="path1069" /><path
     d="m 6.5009173,214.22137 q -0.1503893,0 -0.2563454,-0.10254 -0.105956,-0.10254 -0.105956,-0.25976 0,-0.15723 0.105956,-0.25977 0.1059561,-0.10595 0.2563454,-0.10595 0.1538072,0 0.2597632,0.10595 0.109374,0.10254 0.109374,0.25977 0,0.15039 -0.109374,0.25634 -0.105956,0.10596 -0.2597632,0.10596 z M 6.7743523,218.61 H 6.2138105 v -3.49997 h 0.5605418 z"
     style="font-size:6.9999361px;font-family:'Segoe UI';fill:#923931"
     id="path1071" /><path
     d="m 9.5326281,218.57582 q -0.1982404,0.10938 -0.5229445,0.10938 -0.9194252,0 -0.9194252,-1.02539 v -2.07127 h -0.601557 v -0.47851 h 0.601557 v -0.85448 l 0.5605418,-0.18115 v 1.03563 h 0.8818279 v 0.47851 H 8.6508002 v 1.97215 q 0,0.35205 0.1196278,0.50244 0.1196278,0.15039 0.3964808,0.15039 0.2119121,0 0.3657193,-0.11621 z"
     style="font-size:6.9999361px;font-family:'Segoe UI';fill:#923931"
     id="path1073" /></g>			</g>
		</g>
	</g>
</svg>