<?xml version="1.0" encoding="UTF-8" standalone="no"?>
<!-- Generated by Microsoft Visio, SVG Export fig-05-03-min.svg Page-1 -->

<svg
   xmlns:v="http://schemas.microsoft.com/visio/2003/SVGExtensions/"
   xmlns:dc="http://purl.org/dc/elements/1.1/"
   xmlns:cc="http://creativecommons.org/ns#"
   xmlns:rdf="http://www.w3.org/1999/02/22-rdf-syntax-ns#"
   xmlns:svg="http://www.w3.org/2000/svg"
   xmlns="http://www.w3.org/2000/svg"
   xmlns:sodipodi="http://sodipodi.sourceforge.net/DTD/sodipodi-0.dtd"
   xmlns:inkscape="http://www.inkscape.org/namespaces/inkscape"
   width="1.91146in"
   height="2.14869in"
   viewBox="0 0 137.625 154.706"
   xml:space="preserve"
   color-interpolation-filters="sRGB"
   class="st12"
   version="1.1"
   id="svg145"
   sodipodi:docname="fig-05-03-min.svg"
   inkscape:version="0.92.4 (5da689c313, 2019-01-14)"><metadata
   id="metadata149"><rdf:RDF><cc:Work
       rdf:about=""><dc:format>image/svg+xml</dc:format><dc:type
         rdf:resource="http://purl.org/dc/dcmitype/StillImage" /></cc:Work></rdf:RDF></metadata><sodipodi:namedview
   pagecolor="#ffffff"
   bordercolor="#666666"
   borderopacity="1"
   objecttolerance="10"
   gridtolerance="10"
   guidetolerance="10"
   inkscape:pageopacity="0"
   inkscape:pageshadow="2"
   inkscape:window-width="2560"
   inkscape:window-height="1377"
   id="namedview147"
   showgrid="false"
   inkscape:zoom="5.8684061"
   inkscape:cx="91.750084"
   inkscape:cy="103.3502"
   inkscape:window-x="-8"
   inkscape:window-y="-8"
   inkscape:window-maximized="1"
   inkscape:current-layer="svg145" />
	<title
   id="title2">GC Standard Document - Standard Drawing</title>
	<desc
   id="desc4">T0-1103-001 R01.00 General Drawing

REVISION
-------------------------------------------------------
01.00  Released for use</desc>
	<v:documentProperties
   v:langID="2057"
   v:metric="true"
   v:viewMarkup="false">
		<v:userDefs>
			<v:ud
   v:nameU="msvConvertTheme" />
		</v:userDefs>
	</v:documentProperties>

	<style
   type="text/css"
   id="style6">
	<![CDATA[
		.st1 {fill:none;stroke:none;stroke-linecap:round;stroke-linejoin:round;stroke-width:0.75}
		.st2 {fill:#000000;font-family:Segoe UI;font-size:0.666664em;font-weight:bold}
		.st3 {fill:#000000;font-family:Segoe UI;font-size:0.666664em}
		.st4 {stroke:#000000;stroke-linecap:round;stroke-linejoin:round;stroke-width:0.75}
		.st5 {fill:#ff6c09;font-family:Segoe UI;font-size:0.666664em;font-weight:bold}
		.st6 {font-size:1em}
		.st7 {fill:none;stroke:#ff6c09;stroke-linecap:round;stroke-linejoin:round;stroke-width:0.75}
		.st8 {fill:#1f477d;stroke:#000000;stroke-linecap:round;stroke-linejoin:round;stroke-width:0.5}
		.st9 {fill:url(#grad0-32);stroke:#000000;stroke-linecap:round;stroke-linejoin:round;stroke-width:0.5}
		.st10 {fill:#f59d56;stroke:#000000;stroke-linecap:round;stroke-linejoin:round;stroke-width:0.5}
		.st11 {fill:url(#grad0-48);stroke:#000000;stroke-linecap:round;stroke-linejoin:round;stroke-width:0.5}
		.st12 {fill:none;fill-rule:evenodd;font-size:12px;overflow:visible;stroke-linecap:square;stroke-miterlimit:3}
	]]>
	</style>

	<defs
   id="Patterns_And_Gradients">
		<linearGradient
   id="grad0-32"
   x1="0"
   y1="0"
   x2="1"
   y2="0"
   gradientTransform="rotate(180 0.5 0.5)">
			<stop
   offset="0"
   stop-color="#8db1e2"
   stop-opacity="1"
   id="stop8" />
			<stop
   offset="1"
   stop-color="#17355d"
   stop-opacity="1"
   id="stop10" />
		</linearGradient>
		<linearGradient
   id="grad0-48"
   x1="0"
   y1="0"
   x2="1"
   y2="0"
   gradientTransform="rotate(180 0.5 0.5)">
			<stop
   offset="0"
   stop-color="#f9c499"
   stop-opacity="1"
   id="stop13" />
			<stop
   offset="1"
   stop-color="#ea700d"
   stop-opacity="1"
   id="stop15" />
		</linearGradient>
	</defs>
	<g
   v:mID="0"
   v:index="1"
   v:groupContext="foregroundPage"
   id="g143">
		<title
   id="title19">Page-1</title>
		<v:pageProperties
   v:drawingScale="2.66667"
   v:pageScale="0.166667"
   v:drawingUnits="28"
   v:shadowOffsetX="8.50394"
   v:shadowOffsetY="-8.50394" />
		<v:layer
   v:name="03-workflow"
   v:index="0" />
		<g
   id="group1474-1"
   transform="translate(0.375,-3.61249)"
   v:mID="1474"
   v:groupContext="group">
			<title
   id="title21">Sheet.1474</title>
			<g
   id="shape1386-2"
   v:mID="1386"
   v:groupContext="shape"
   v:layerMember="0"
   transform="translate(49.125,-138.843)">
				<title
   id="title23">Sheet.1386</title>
				<desc
   id="desc25">D:/Projects</desc>
				<v:textBlock
   v:margins="rect(0,0,0,0)"
   v:tabSpace="42.5197" />
				<v:textRect
   cx="43.875"
   cy="149.518"
   width="87.76"
   height="10.375" />
				<rect
   x="0"
   y="144.331"
   width="87.75"
   height="10.375"
   class="st1"
   id="rect27" />
				<g
   aria-label="D:/Projects"
   style="font-weight:bold;font-size:7.99996805px;font-family:'Segoe UI';fill:#000000"
   id="text29"><path
     d="m 0.64062244,151.72 v -5.60154 H 2.6249895 q 2.9843631,0 2.9843631,2.73046 0,1.30859 -0.816403,2.08983 Q 3.9804529,151.72 2.6249895,151.72 Z m 1.26171376,-4.5742 v 3.55077 h 0.6249975 q 0.8203092,0 1.2851511,-0.49219 0.4687481,-0.49218 0.4687481,-1.33984 0,-0.80077 -0.4648419,-1.2578 -0.4609357,-0.46094 -1.2968698,-0.46094 z"
     style="font-weight:bold;font-size:7.99996805px;font-family:'Segoe UI';fill:#000000"
     id="path1100" /><path
     d="m 6.9765349,148.95829 q -0.3046863,0 -0.5078105,-0.18359 -0.2031242,-0.1875 -0.2031242,-0.46094 0,-0.28124 0.2070304,-0.46093 0.2109367,-0.17969 0.5234354,-0.17969 0.316405,0 0.515623,0.1836 0.2031242,0.17968 0.2031242,0.45702 0,0.28516 -0.2070305,0.46485 -0.2031241,0.17968 -0.5312478,0.17968 z m 0,2.85937 q -0.3046863,0 -0.5078105,-0.1875 -0.2031242,-0.1875 -0.2031242,-0.46094 0,-0.28125 0.2070304,-0.46093 0.2109367,-0.17969 0.5234354,-0.17969 0.316405,0 0.515623,0.18359 0.2031242,0.17969 0.2031242,0.45703 0,0.28516 -0.2070305,0.46875 -0.2031241,0.17969 -0.5312478,0.17969 z"
     style="font-weight:bold;font-size:7.99996805px;font-family:'Segoe UI';fill:#000000"
     id="path1102" /><path
     d="m 11.718703,146.11846 -2.7304578,6.53123 H 7.8866871 l 2.7187389,-6.53123 z"
     style="font-weight:bold;font-size:7.99996805px;font-family:'Segoe UI';fill:#000000"
     id="path1104" /><path
     d="M 13.52729,149.79032 V 151.72 h -1.261713 v -5.60154 h 1.976554 q 2.117179,0 2.117179,1.78515 0,0.84375 -0.609372,1.36718 -0.605467,0.51953 -1.621088,0.51953 z m 0,-2.70311 v 1.74608 h 0.496092 q 1.007809,0 1.007809,-0.8828 0,-0.86328 -1.007809,-0.86328 z"
     style="font-weight:bold;font-size:7.99996805px;font-family:'Segoe UI';fill:#000000"
     id="path1106" /><path
     d="m 19.675704,148.83329 q -0.222655,-0.12109 -0.519529,-0.12109 -0.402342,0 -0.628904,0.29687 -0.226562,0.29297 -0.226562,0.80078 V 151.72 h -1.23437 v -3.99998 h 1.23437 v 0.74218 h 0.01563 q 0.292968,-0.8125 1.054684,-0.8125 0.195311,0 0.304686,0.0469 z"
     style="font-weight:bold;font-size:7.99996805px;font-family:'Segoe UI';fill:#000000"
     id="path1108" /><path
     d="m 22.128818,151.81766 q -0.999996,0 -1.574212,-0.55859 -0.57031,-0.5625 -0.57031,-1.52344 0,-0.99218 0.593747,-1.55077 0.593748,-0.5625 1.605463,-0.5625 0.996089,0 1.562493,0.5625 0.566404,0.55859 0.566404,1.48046 0,0.99609 -0.585935,1.57421 -0.582029,0.57813 -1.59765,0.57813 z m 0.03125,-3.24999 q -0.437498,0 -0.679685,0.30078 -0.242186,0.30078 -0.242186,0.85156 0,1.15234 0.929684,1.15234 0.886715,0 0.886715,-1.18359 0,-1.12109 -0.894528,-1.12109 z"
     style="font-weight:bold;font-size:7.99996805px;font-family:'Segoe UI';fill:#000000"
     id="path1110" /><path
     d="m 25.722554,147.08721 q -0.312498,0 -0.511716,-0.1836 -0.199218,-0.1875 -0.199218,-0.45703 0,-0.27734 0.199218,-0.45312 0.199218,-0.17578 0.511716,-0.17578 0.316405,0 0.511717,0.17578 0.199218,0.17578 0.199218,0.45312 0,0.28125 -0.199218,0.46094 -0.195312,0.17969 -0.511717,0.17969 z m 0.609373,4.56248 q 0,0.88671 -0.433592,1.41796 -0.433592,0.53125 -1.249995,0.53125 -0.26953,0 -0.589841,-0.11719 v -0.96874 q 0.257811,0.14453 0.457029,0.14453 0.582029,0 0.582029,-0.91406 v -4.02342 h 1.23437 z"
     style="font-weight:bold;font-size:7.99996805px;font-family:'Segoe UI';fill:#000000"
     id="path1112" /><path
     d="m 30.972533,150.07157 h -2.609365 q 0.0625,0.87109 1.097652,0.87109 0.660154,0 1.160152,-0.3125 v 0.89062 q -0.554685,0.29688 -1.441401,0.29688 -0.968746,0 -1.5039,-0.53516 -0.535154,-0.53906 -0.535154,-1.49999 0,-0.99609 0.578123,-1.57812 0.578122,-0.58203 1.421869,-0.58203 0.874997,0 1.351557,0.51953 0.480467,0.51953 0.480467,1.41015 z m -1.144527,-0.75781 q 0,-0.85937 -0.695309,-0.85937 -0.296874,0 -0.515623,0.24609 -0.214843,0.24609 -0.261718,0.61328 z"
     style="font-weight:bold;font-size:7.99996805px;font-family:'Segoe UI';fill:#000000"
     id="path1114" /><path
     d="m 34.738143,151.57547 q -0.417967,0.24219 -1.207026,0.24219 -0.921872,0 -1.492182,-0.55859 -0.57031,-0.5586 -0.57031,-1.4414 0,-1.01953 0.609372,-1.60547 0.613279,-0.58984 1.636713,-0.58984 0.707028,0 1.023433,0.1875 v 1.04687 q -0.386717,-0.28906 -0.863278,-0.28906 -0.531248,0 -0.843746,0.3125 -0.308593,0.30859 -0.308593,0.85546 0,0.53125 0.296874,0.83594 0.296874,0.30078 0.816403,0.30078 0.460936,0 0.90234,-0.28906 z"
     style="font-weight:bold;font-size:7.99996805px;font-family:'Segoe UI';fill:#000000"
     id="path1116" /><path
     d="m 37.968601,151.67313 q -0.273436,0.14453 -0.824216,0.14453 -1.304682,0 -1.304682,-1.35547 v -1.83202 h -0.648435 v -0.91015 h 0.648435 v -0.86328 l 1.230464,-0.35156 v 1.21484 h 0.898434 v 0.91015 h -0.898434 v 1.61718 q 0,0.625 0.496092,0.625 0.195312,0 0.402342,-0.11328 z"
     style="font-weight:bold;font-size:7.99996805px;font-family:'Segoe UI';fill:#000000"
     id="path1118" /><path
     d="m 38.398284,151.61453 v -0.99999 q 0.304686,0.18359 0.605466,0.27343 0.304686,0.0899 0.574217,0.0899 0.328123,0 0.515623,-0.0899 0.191405,-0.0898 0.191405,-0.27343 0,-0.11719 -0.08594,-0.19531 -0.08594,-0.0781 -0.222655,-0.13672 -0.132812,-0.0586 -0.292968,-0.10547 -0.160156,-0.0469 -0.308593,-0.10547 -0.23828,-0.0898 -0.421873,-0.19141 -0.179687,-0.10546 -0.304686,-0.24218 -0.121093,-0.13672 -0.187499,-0.31641 -0.0625,-0.17968 -0.0625,-0.42578 0,-0.33593 0.144531,-0.57812 0.148436,-0.24219 0.390623,-0.39453 0.246093,-0.15625 0.558592,-0.22656 0.316405,-0.0742 0.656247,-0.0742 0.265624,0 0.53906,0.043 0.273437,0.0391 0.539061,0.11719 v 0.95312 q -0.234374,-0.13672 -0.503905,-0.20313 -0.265624,-0.0703 -0.523435,-0.0703 -0.121093,0 -0.230468,0.0234 -0.105468,0.0195 -0.187499,0.0625 -0.08203,0.0391 -0.128906,0.10547 -0.04687,0.0625 -0.04687,0.14453 0,0.10937 0.07031,0.1875 0.07031,0.0781 0.183593,0.13672 0.11328,0.0547 0.249999,0.10156 0.140624,0.043 0.277342,0.0898 0.246093,0.0859 0.445311,0.1875 0.199218,0.10156 0.339842,0.23828 0.144531,0.13672 0.218749,0.32031 0.07813,0.18359 0.07813,0.4375 0,0.35547 -0.156249,0.60937 -0.152343,0.25 -0.410155,0.41016 -0.253905,0.15625 -0.589841,0.22656 -0.33203,0.0742 -0.691404,0.0742 -0.660153,0 -1.222651,-0.20313 z"
     style="font-weight:bold;font-size:7.99996805px;font-family:'Segoe UI';fill:#000000"
     id="path1120" /></g>			</g>
			<g
   id="shape1387-5"
   v:mID="1387"
   v:groupContext="shape"
   v:layerMember="0"
   transform="translate(48.75,-104.25)">
				<title
   id="title32">Sheet.1387</title>
				<desc
   id="desc34">1000 Software Projects</desc>
				<v:textBlock
   v:margins="rect(0,0,0,0)"
   v:tabSpace="42.5197" />
				<v:textRect
   cx="43.875"
   cy="149.518"
   width="87.76"
   height="10.375" />
				<rect
   x="0"
   y="144.331"
   width="87.75"
   height="10.375"
   class="st1"
   id="rect36" />
				<g
   aria-label="1000 Software Projects"
   style="font-size:7.99996805px;font-family:'Segoe UI';fill:#000000"
   id="text38"><path
     d="M 2.8281137,151.72 H 2.1874913 v -4.83982 q -0.074219,0.0742 -0.2187492,0.17187 -0.1406244,0.0937 -0.3203112,0.1875 -0.1757805,0.0937 -0.3749985,0.17578 -0.1953117,0.082 -0.38281096,0.12891 v -0.64844 q 0.21093666,-0.0586 0.44531076,-0.15625 0.2382803,-0.10156 0.4648419,-0.22265 0.2304678,-0.125 0.433592,-0.25781 0.2031242,-0.13672 0.3515611,-0.26563 h 0.2421865 z"
     style="font-size:7.99996805px;font-family:'Segoe UI';fill:#000000"
     id="path1059" /><path
     d="m 8.2968419,148.89579 q 0,0.70313 -0.1289057,1.24609 -0.1249995,0.54297 -0.367186,0.91797 -0.2382803,0.37109 -0.5898414,0.5664 -0.3476549,0.19141 -0.7929656,0.19141 -0.4218733,0 -0.7539033,-0.1836 -0.3281237,-0.1875 -0.5546852,-0.54296 -0.2265616,-0.35547 -0.3437487,-0.87109 -0.117187,-0.51953 -0.117187,-1.1875 0,-0.73437 0.1210933,-1.29687 0.1249995,-0.5625 0.3632798,-0.9414 0.2382803,-0.38281 0.5898414,-0.57422 0.3554673,-0.19531 0.8124967,-0.19531 1.7617117,0 1.7617117,2.87108 z m -0.6562474,0.0625 q 0,-2.39061 -1.1367142,-2.39061 -1.1992139,0 -1.1992139,2.43358 0,2.26952 1.1757765,2.26952 1.1601516,0 1.1601516,-2.31249 z"
     style="font-size:7.99996805px;font-family:'Segoe UI';fill:#000000"
     id="path1061" /><path
     d="m 12.609325,148.89579 q 0,0.70313 -0.128906,1.24609 -0.124999,0.54297 -0.367186,0.91797 -0.23828,0.37109 -0.589841,0.5664 -0.347655,0.19141 -0.792966,0.19141 -0.421873,0 -0.7539032,-0.1836 -0.3281237,-0.1875 -0.5546853,-0.54296 -0.2265616,-0.35547 -0.3437486,-0.87109 -0.1171871,-0.51953 -0.1171871,-1.1875 0,-0.73437 0.1210933,-1.29687 0.1249995,-0.5625 0.3632798,-0.9414 0.2382803,-0.38281 0.5898411,-0.57422 0.355468,-0.19531 0.812497,-0.19531 1.761712,0 1.761712,2.87108 z m -0.656248,0.0625 q 0,-2.39061 -1.136714,-2.39061 -1.1992138,0 -1.1992138,2.43358 0,2.26952 1.1757768,2.26952 1.160151,0 1.160151,-2.31249 z"
     style="font-size:7.99996805px;font-family:'Segoe UI';fill:#000000"
     id="path1063" /><path
     d="m 16.921808,148.89579 q 0,0.70313 -0.128906,1.24609 -0.125,0.54297 -0.367186,0.91797 -0.23828,0.37109 -0.589842,0.5664 -0.347654,0.19141 -0.792965,0.19141 -0.421873,0 -0.753903,-0.1836 -0.328124,-0.1875 -0.554686,-0.54296 -0.226561,-0.35547 -0.343748,-0.87109 -0.117187,-0.51953 -0.117187,-1.1875 0,-0.73437 0.121093,-1.29687 0.124999,-0.5625 0.36328,-0.9414 0.23828,-0.38281 0.589841,-0.57422 0.355467,-0.19531 0.812497,-0.19531 1.761712,0 1.761712,2.87108 z m -0.656248,0.0625 q 0,-2.39061 -1.136714,-2.39061 -1.199214,0 -1.199214,2.43358 0,2.26952 1.175777,2.26952 1.160151,0 1.160151,-2.31249 z"
     style="font-size:7.99996805px;font-family:'Segoe UI';fill:#000000"
     id="path1065" /><path
     d="m 19.910076,151.49344 v -0.77343 q 0.132812,0.11718 0.316405,0.21093 0.187499,0.0937 0.390624,0.16016 0.20703,0.0625 0.41406,0.0976 0.207031,0.0352 0.382811,0.0352 0.605467,0 0.902341,-0.22266 0.30078,-0.22656 0.30078,-0.64843 0,-0.22656 -0.101562,-0.39453 -0.09766,-0.16797 -0.273437,-0.30469 -0.17578,-0.14062 -0.417967,-0.26562 -0.23828,-0.12891 -0.515623,-0.26953 -0.292968,-0.14844 -0.546873,-0.30078 -0.253905,-0.15234 -0.441404,-0.33594 -0.187499,-0.18359 -0.296874,-0.41406 -0.105468,-0.23437 -0.105468,-0.54687 0,-0.38281 0.167968,-0.66406 0.167968,-0.28516 0.441404,-0.46875 0.273437,-0.18359 0.621091,-0.27344 0.351562,-0.0898 0.714841,-0.0898 0.828122,0 1.207027,0.19922 v 0.73828 q -0.496092,-0.34375 -1.273433,-0.34375 -0.214843,0 -0.429685,0.0469 -0.214843,0.043 -0.382811,0.14453 -0.167968,0.10157 -0.273437,0.26172 -0.105468,0.16016 -0.105468,0.39063 0,0.21484 0.07813,0.37109 0.08203,0.15625 0.23828,0.28515 0.156249,0.12891 0.378905,0.25 0.226561,0.1211 0.519529,0.26563 0.30078,0.14843 0.57031,0.31249 0.26953,0.16407 0.472654,0.36328 0.203125,0.19922 0.320312,0.44141 0.121093,0.24219 0.121093,0.55468 0,0.41407 -0.164062,0.70313 -0.160156,0.28515 -0.437498,0.46484 -0.273437,0.17969 -0.63281,0.25781 -0.359374,0.082 -0.75781,0.082 -0.132812,0 -0.328123,-0.0234 -0.195312,-0.0195 -0.398436,-0.0625 -0.203124,-0.0391 -0.386717,-0.0977 -0.179687,-0.0625 -0.289062,-0.13672 z"
     style="font-size:7.99996805px;font-family:'Segoe UI';fill:#000000"
     id="path1067" /><path
     d="m 26.007708,151.81375 q -0.886715,0 -1.417963,-0.55859 -0.527342,-0.5625 -0.527342,-1.48828 0,-1.0078 0.550779,-1.57421 0.550779,-0.5664 1.488275,-0.5664 0.894528,0 1.394526,0.55078 0.503904,0.55078 0.503904,1.52733 0,0.95703 -0.542966,1.53515 -0.539061,0.57422 -1.449213,0.57422 z m 0.04687,-3.64842 q -0.617185,0 -0.976559,0.42187 -0.359373,0.41797 -0.359373,1.15625 0,0.71093 0.363279,1.12109 0.36328,0.41015 0.972653,0.41015 0.621091,0 0.953121,-0.40234 0.335936,-0.40234 0.335936,-1.14453 0,-0.75 -0.335936,-1.15624 -0.33203,-0.40625 -0.953121,-0.40625 z"
     style="font-size:7.99996805px;font-family:'Segoe UI';fill:#000000"
     id="path1069" /><path
     d="m 30.999877,146.36065 q -0.187499,-0.10547 -0.42578,-0.10547 -0.671872,0 -0.671872,0.84765 v 0.61719 h 0.937496 v 0.54687 H 29.902225 V 151.72 h -0.636716 v -3.45311 h -0.683591 v -0.54687 h 0.683591 v -0.64844 q 0,-0.6289 0.36328,-0.99218 0.36328,-0.36719 0.906246,-0.36719 0.292968,0 0.464842,0.0703 z"
     style="font-size:7.99996805px;font-family:'Segoe UI';fill:#000000"
     id="path1071" /><path
     d="m 33.378772,151.68094 q -0.226561,0.125 -0.597654,0.125 -1.050777,0 -1.050777,-1.17187 v -2.36718 h -0.687497 v -0.54687 h 0.687497 v -0.97656 l 0.640623,-0.20703 v 1.18359 h 1.007808 v 0.54687 h -1.007808 v 2.2539 q 0,0.40234 0.136718,0.57421 0.136718,0.17188 0.453123,0.17188 0.242187,0 0.417967,-0.13281 z"
     style="font-size:7.99996805px;font-family:'Segoe UI';fill:#000000"
     id="path1073" /><path
     d="M 39.281094,147.72002 38.08188,151.72 h -0.66406 l -0.824215,-2.86327 q -0.04687,-0.16406 -0.0625,-0.37109 h -0.01563 q -0.01172,0.14062 -0.08203,0.36328 L 35.538921,151.72 h -0.640622 l -1.210933,-3.99998 h 0.671872 l 0.828122,3.0078 q 0.03906,0.13672 0.05469,0.35937 h 0.03125 q 0.01172,-0.17187 0.07031,-0.36718 l 0.921872,-2.99999 h 0.585935 l 0.828122,3.01561 q 0.03906,0.14453 0.05859,0.35937 h 0.03125 q 0.0078,-0.15234 0.06641,-0.35937 l 0.812497,-3.01561 z"
     style="font-size:7.99996805px;font-family:'Segoe UI';fill:#000000"
     id="path1075" /><path
     d="m 42.886548,151.72 h -0.640622 v -0.625 h -0.01563 q -0.417967,0.71875 -1.230464,0.71875 -0.597654,0 -0.937496,-0.3164 -0.335936,-0.31641 -0.335936,-0.83984 0,-1.12109 1.320307,-1.30469 l 1.199214,-0.16796 q 0,-1.01953 -0.824216,-1.01953 -0.722653,0 -1.304682,0.49218 v -0.65624 q 0.589842,-0.375 1.35937,-0.375 1.41015,0 1.41015,1.49218 z m -0.640622,-2.02343 -0.96484,0.13281 q -0.445311,0.0625 -0.671872,0.22266 -0.226562,0.15625 -0.226562,0.55859 0,0.29297 0.20703,0.48047 0.210937,0.18359 0.558592,0.18359 0.476561,0 0.785153,-0.33203 0.312499,-0.33594 0.312499,-0.84765 z"
     style="font-size:7.99996805px;font-family:'Segoe UI';fill:#000000"
     id="path1077" /><path
     d="m 46.187317,148.36845 q -0.167968,-0.1289 -0.484373,-0.1289 -0.410154,0 -0.687497,0.38671 -0.273436,0.38672 -0.273436,1.05469 V 151.72 h -0.640623 v -3.99998 h 0.640623 v 0.82421 h 0.01563 q 0.136718,-0.42187 0.417967,-0.65624 0.281249,-0.23829 0.628903,-0.23829 0.249999,0 0.382811,0.0547 z"
     style="font-size:7.99996805px;font-family:'Segoe UI';fill:#000000"
     id="path1079" /><path
     d="M 50.097458,149.88016 H 47.27325 q 0.01563,0.66797 0.359374,1.03125 0.343748,0.36328 0.945309,0.36328 0.675778,0 1.242182,-0.44531 v 0.60156 q -0.527342,0.38281 -1.394526,0.38281 -0.847652,0 -1.332026,-0.54297 -0.484373,-0.54687 -0.484373,-1.53515 0,-0.93359 0.527342,-1.51952 0.531248,-0.58984 1.316401,-0.58984 0.785153,0 1.214839,0.50781 0.429686,0.50781 0.429686,1.41015 z M 49.44121,149.3372 q -0.0039,-0.55469 -0.26953,-0.86328 -0.261718,-0.30859 -0.730466,-0.30859 -0.453123,0 -0.769528,0.32422 -0.316405,0.32421 -0.390623,0.84765 z"
     style="font-size:7.99996805px;font-family:'Segoe UI';fill:#000000"
     id="path1081" /><path
     d="M 53.999785,149.60282 V 151.72 h -0.656248 v -5.60154 h 1.539057 q 0.898434,0 1.390619,0.4375 0.496092,0.4375 0.496092,1.23437 0,0.79687 -0.550779,1.30468 -0.546873,0.50781 -1.480463,0.50781 z m 0,-2.89061 v 2.29686 h 0.687497 q 0.679685,0 1.035152,-0.30859 0.359374,-0.3125 0.359374,-0.8789 0,-1.10937 -1.312495,-1.10937 z"
     style="font-size:7.99996805px;font-family:'Segoe UI';fill:#000000"
     id="path1083" /><path
     d="m 59.827885,148.36845 q -0.167968,-0.1289 -0.484373,-0.1289 -0.410154,0 -0.687497,0.38671 -0.273437,0.38672 -0.273437,1.05469 V 151.72 h -0.640622 v -3.99998 h 0.640622 v 0.82421 h 0.01563 q 0.136719,-0.42187 0.417967,-0.65624 0.281249,-0.23829 0.628904,-0.23829 0.249999,0 0.382811,0.0547 z"
     style="font-size:7.99996805px;font-family:'Segoe UI';fill:#000000"
     id="path1085" /><path
     d="m 62.195063,151.81375 q -0.886715,0 -1.417963,-0.55859 -0.527342,-0.5625 -0.527342,-1.48828 0,-1.0078 0.550779,-1.57421 0.550779,-0.5664 1.488276,-0.5664 0.894527,0 1.394525,0.55078 0.503904,0.55078 0.503904,1.52733 0,0.95703 -0.542966,1.53515 -0.53906,0.57422 -1.449213,0.57422 z m 0.04687,-3.64842 q -0.617185,0 -0.976559,0.42187 -0.359373,0.41797 -0.359373,1.15625 0,0.71093 0.363279,1.12109 0.36328,0.41015 0.972653,0.41015 0.621091,0 0.953121,-0.40234 0.335936,-0.40234 0.335936,-1.14453 0,-0.75 -0.335936,-1.15624 -0.33203,-0.40625 -0.953121,-0.40625 z"
     style="font-size:7.99996805px;font-family:'Segoe UI';fill:#000000"
     id="path1087" /><path
     d="m 65.851298,151.55203 q 0,0.98437 -0.398436,1.51562 -0.39453,0.53516 -1.132808,0.53516 -0.273436,0 -0.531248,-0.125 v -0.59766 q 0.289062,0.17578 0.546873,0.17578 0.874997,0 0.874997,-1.39843 v -3.93748 h 0.640622 z m -0.312499,-4.84763 q -0.171874,0 -0.292967,-0.11719 -0.121094,-0.11719 -0.121094,-0.29687 0,-0.17969 0.121094,-0.29688 0.121093,-0.12109 0.292967,-0.12109 0.175781,0 0.296874,0.12109 0.125,0.11719 0.125,0.29688 0,0.17187 -0.125,0.29296 -0.121093,0.1211 -0.296874,0.1211 z"
     style="font-size:7.99996805px;font-family:'Segoe UI';fill:#000000"
     id="path1089" /><path
     d="m 70.362999,149.88016 h -2.824208 q 0.01563,0.66797 0.359374,1.03125 0.343749,0.36328 0.945309,0.36328 0.675778,0 1.242182,-0.44531 v 0.60156 q -0.527341,0.38281 -1.394526,0.38281 -0.847652,0 -1.332025,-0.54297 -0.484374,-0.54687 -0.484374,-1.53515 0,-0.93359 0.527342,-1.51952 0.531248,-0.58984 1.316401,-0.58984 0.785153,0 1.214839,0.50781 0.429686,0.50781 0.429686,1.41015 z m -0.656248,-0.54296 q -0.0039,-0.55469 -0.26953,-0.86328 -0.261717,-0.30859 -0.730466,-0.30859 -0.453123,0 -0.769528,0.32422 -0.316405,0.32421 -0.390623,0.84765 z"
     style="font-size:7.99996805px;font-family:'Segoe UI';fill:#000000"
     id="path1091" /><path
     d="m 74.062204,151.53641 q -0.460935,0.27734 -1.093745,0.27734 -0.855466,0 -1.382807,-0.55468 -0.523436,-0.5586 -0.523436,-1.44531 0,-0.98828 0.566404,-1.58593 0.566404,-0.60156 1.511713,-0.60156 0.527342,0 0.929684,0.19531 v 0.65625 q -0.445311,-0.3125 -0.953121,-0.3125 -0.613279,0 -1.007809,0.4414 -0.390623,0.4375 -0.390623,1.15234 0,0.70312 0.367186,1.10937 0.371092,0.40625 0.992183,0.40625 0.523436,0 0.984371,-0.34765 z"
     style="font-size:7.99996805px;font-family:'Segoe UI';fill:#000000"
     id="path1093" /><path
     d="m 76.894224,151.68094 q -0.226562,0.125 -0.597654,0.125 -1.050777,0 -1.050777,-1.17187 v -2.36718 h -0.687497 v -0.54687 h 0.687497 v -0.97656 l 0.640622,-0.20703 v 1.18359 h 1.007809 v 0.54687 h -1.007809 v 2.2539 q 0,0.40234 0.136718,0.57421 0.136719,0.17188 0.453124,0.17188 0.242186,0 0.417967,-0.13281 z"
     style="font-size:7.99996805px;font-family:'Segoe UI';fill:#000000"
     id="path1095" /><path
     d="m 77.515318,151.57547 v -0.6875 q 0.523436,0.38672 1.152339,0.38672 0.843747,0 0.843747,-0.5625 0,-0.16015 -0.07422,-0.26953 -0.07031,-0.11328 -0.195312,-0.19922 -0.121093,-0.0859 -0.289062,-0.15234 -0.164061,-0.0703 -0.355467,-0.14453 -0.265624,-0.10547 -0.468748,-0.21094 -0.199218,-0.10937 -0.335936,-0.24218 -0.132812,-0.13672 -0.203124,-0.30859 -0.06641,-0.17188 -0.06641,-0.40235 0,-0.28125 0.128905,-0.49609 0.128906,-0.21875 0.343749,-0.36328 0.214843,-0.14844 0.488279,-0.22265 0.277343,-0.0742 0.570311,-0.0742 0.519529,0 0.929683,0.17968 v 0.64844 q -0.441404,-0.28906 -1.015621,-0.28906 -0.179686,0 -0.324217,0.043 -0.144531,0.0391 -0.249999,0.11328 -0.101562,0.0742 -0.160156,0.17968 -0.05469,0.10157 -0.05469,0.22657 0,0.15625 0.05469,0.26171 0.05859,0.10547 0.167968,0.1875 0.109375,0.082 0.265624,0.14844 0.15625,0.0664 0.355468,0.14453 0.265624,0.10156 0.47656,0.21094 0.210937,0.10547 0.359374,0.24218 0.148437,0.13282 0.226561,0.3086 0.08203,0.17578 0.08203,0.41796 0,0.29688 -0.132812,0.51563 -0.128905,0.21875 -0.347654,0.36328 -0.21875,0.14453 -0.503905,0.21484 -0.285155,0.0703 -0.597654,0.0703 -0.617185,0 -1.070308,-0.23828 z"
     style="font-size:7.99996805px;font-family:'Segoe UI';fill:#000000"
     id="path1097" /></g>			</g>
			<g
   id="shape1388-8"
   v:mID="1388"
   v:groupContext="shape"
   transform="translate(-116.454,72.1619) rotate(-89.6826)">
				<title
   id="title41">Sheet.1388</title>
				<path
   d="M0 154.71 L22.56 154.71"
   class="st4"
   id="path43" />
			</g>
			<g
   id="shape1389-11"
   v:mID="1389"
   v:groupContext="shape"
   v:layerMember="0"
   transform="translate(48.75,-71.312)">
				<title
   id="title46">Sheet.1389</title>
				<desc
   id="desc48">PS2001-PAL-Build-SW</desc>
				<v:textBlock
   v:margins="rect(0,0,0,0)"
   v:tabSpace="42.5197" />
				<v:textRect
   cx="43.875"
   cy="149.518"
   width="87.76"
   height="10.375" />
				<rect
   x="0"
   y="144.331"
   width="87.75"
   height="10.375"
   class="st1"
   id="rect50" />
				<g
   aria-label="PS2001-PAL-Build-SW"
   style="font-size:7.99996805px;font-family:'Segoe UI';fill:#000000"
   id="text52"><path
     d="M 1.3906194,149.60282 V 151.72 H 0.73437207 v -5.60154 H 2.2734284 q 0.8984339,0 1.3906195,0.4375 0.4960917,0.4375 0.4960917,1.23437 0,0.79687 -0.550779,1.30468 -0.5468728,0.50781 -1.4804629,0.50781 z m 0,-2.89061 v 2.29686 h 0.6874973 q 0.6796848,0 1.0351521,-0.30859 0.3593736,-0.3125 0.3593736,-0.8789 0,-1.10937 -1.3124948,-1.10937 z"
     style="font-size:7.99996805px;font-family:'Segoe UI';fill:#000000"
     id="path1020" /><path
     d="m 4.9570112,151.49344 v -0.77343 q 0.132812,0.11718 0.316405,0.21093 0.1874993,0.0937 0.3906235,0.16016 0.2070304,0.0625 0.4140608,0.0976 0.2070304,0.0352 0.382811,0.0352 0.6054663,0 0.9023401,-0.22266 0.3007801,-0.22656 0.3007801,-0.64843 0,-0.22656 -0.1015621,-0.39453 -0.097656,-0.16797 -0.2734364,-0.30469 -0.1757806,-0.14062 -0.4179671,-0.26562 -0.2382803,-0.12891 -0.5156229,-0.26953 -0.2929676,-0.14844 -0.5468729,-0.30078 -0.2539052,-0.15234 -0.4414044,-0.33594 -0.1874993,-0.18359 -0.2968739,-0.41406 -0.1054683,-0.23437 -0.1054683,-0.54687 0,-0.38281 0.1679681,-0.66406 0.1679681,-0.28516 0.4414045,-0.46875 0.2734364,-0.18359 0.6210912,-0.27344 0.3515611,-0.0898 0.7148409,-0.0898 0.8281217,0 1.2070265,0.19922 v 0.73828 q -0.4960918,-0.34375 -1.2734324,-0.34375 -0.2148429,0 -0.4296858,0.0469 -0.2148429,0.043 -0.382811,0.14453 -0.1679681,0.10157 -0.2734364,0.26172 -0.1054683,0.16016 -0.1054683,0.39063 0,0.21484 0.078125,0.37109 0.082031,0.15625 0.2382803,0.28515 0.1562493,0.12891 0.3789047,0.25 0.2265616,0.1211 0.5195292,0.26563 0.30078,0.14843 0.5703102,0.31249 0.2695302,0.16407 0.4726543,0.36328 0.2031242,0.19922 0.3203113,0.44141 0.1210932,0.24219 0.1210932,0.55468 0,0.41407 -0.1640618,0.70313 -0.1601556,0.28515 -0.4374983,0.46484 -0.2734364,0.17969 -0.6328099,0.25781 -0.3593736,0.082 -0.7578095,0.082 -0.132812,0 -0.3281237,-0.0234 -0.1953117,-0.0195 -0.3984359,-0.0625 -0.2031242,-0.0391 -0.3867172,-0.0977 -0.1796868,-0.0625 -0.2890614,-0.13672 z"
     style="font-size:7.99996805px;font-family:'Segoe UI';fill:#000000"
     id="path1022" /><path
     d="m 11.749953,147.58721 q 0,-0.25782 -0.08203,-0.44922 -0.07813,-0.19141 -0.218749,-0.31641 -0.136719,-0.1289 -0.324218,-0.1914 -0.187499,-0.0625 -0.406248,-0.0625 -0.187499,0 -0.367186,0.0508 -0.179687,0.0508 -0.3515613,0.14062 -0.1679681,0.0898 -0.3281237,0.21485 -0.1562494,0.125 -0.2929676,0.27734 v -0.6875 q 0.2695302,-0.26172 0.6015601,-0.39843 0.3359365,-0.14063 0.8164025,-0.14063 0.343749,0 0.636717,0.10156 0.292967,0.0977 0.50781,0.28906 0.214843,0.19141 0.335936,0.47266 0.125,0.28125 0.125,0.64453 0,0.33203 -0.07813,0.60156 -0.07422,0.26953 -0.230468,0.50781 -0.152343,0.23828 -0.386717,0.45703 -0.234374,0.21875 -0.550779,0.44531 -0.39453,0.28125 -0.652341,0.48047 -0.253905,0.19921 -0.406248,0.37499 -0.1484374,0.17188 -0.2109371,0.34766 -0.058594,0.17187 -0.058594,0.39843 H 12.617137 V 151.72 H 9.1601193 v -0.27734 q 0,-0.35937 0.078125,-0.63281 0.078125,-0.27344 0.2578114,-0.51953 0.1796868,-0.24609 0.4687482,-0.49219 0.2929674,-0.24609 0.7148404,-0.55468 0.304687,-0.21875 0.507811,-0.41797 0.20703,-0.19922 0.33203,-0.39843 0.124999,-0.19922 0.17578,-0.40235 0.05469,-0.20703 0.05469,-0.43749 z"
     style="font-size:7.99996805px;font-family:'Segoe UI';fill:#000000"
     id="path1024" /><path
     d="m 17.031182,148.89579 q 0,0.70313 -0.128906,1.24609 -0.125,0.54297 -0.367186,0.91797 -0.23828,0.37109 -0.589842,0.5664 -0.347654,0.19141 -0.792965,0.19141 -0.421873,0 -0.753903,-0.1836 -0.328124,-0.1875 -0.554686,-0.54296 -0.226561,-0.35547 -0.343748,-0.87109 -0.117187,-0.51953 -0.117187,-1.1875 0,-0.73437 0.121093,-1.29687 0.124999,-0.5625 0.36328,-0.9414 0.23828,-0.38281 0.589841,-0.57422 0.355467,-0.19531 0.812497,-0.19531 1.761712,0 1.761712,2.87108 z m -0.656248,0.0625 q 0,-2.39061 -1.136714,-2.39061 -1.199214,0 -1.199214,2.43358 0,2.26952 1.175777,2.26952 1.160151,0 1.160151,-2.31249 z"
     style="font-size:7.99996805px;font-family:'Segoe UI';fill:#000000"
     id="path1026" /><path
     d="m 21.343665,148.89579 q 0,0.70313 -0.128905,1.24609 -0.125,0.54297 -0.367186,0.91797 -0.238281,0.37109 -0.589842,0.5664 -0.347655,0.19141 -0.792965,0.19141 -0.421874,0 -0.753904,-0.1836 -0.328123,-0.1875 -0.554685,-0.54296 -0.226561,-0.35547 -0.343748,-0.87109 -0.117188,-0.51953 -0.117188,-1.1875 0,-0.73437 0.121094,-1.29687 0.124999,-0.5625 0.36328,-0.9414 0.23828,-0.38281 0.589841,-0.57422 0.355467,-0.19531 0.812497,-0.19531 1.761711,0 1.761711,2.87108 z m -0.656247,0.0625 q 0,-2.39061 -1.136714,-2.39061 -1.199214,0 -1.199214,2.43358 0,2.26952 1.175776,2.26952 1.160152,0 1.160152,-2.31249 z"
     style="font-size:7.99996805px;font-family:'Segoe UI';fill:#000000"
     id="path1028" /><path
     d="m 24.499901,151.72 h -0.640622 v -4.83982 q -0.07422,0.0742 -0.21875,0.17187 -0.140624,0.0937 -0.320311,0.1875 -0.17578,0.0937 -0.374998,0.17578 -0.195312,0.082 -0.382811,0.12891 v -0.64844 q 0.210936,-0.0586 0.44531,-0.15625 0.238281,-0.10156 0.464842,-0.22265 0.230468,-0.125 0.433592,-0.25781 0.203125,-0.13672 0.351561,-0.26563 h 0.242187 z"
     style="font-size:7.99996805px;font-family:'Segoe UI';fill:#000000"
     id="path1030" /><path
     d="M 28.679574,149.74345 H 26.54677 v -0.50391 h 2.132804 z"
     style="font-size:7.99996805px;font-family:'Segoe UI';fill:#000000"
     id="path1032" /><path
     d="M 30.578003,149.60282 V 151.72 h -0.656247 v -5.60154 h 1.539056 q 0.898434,0 1.39062,0.4375 0.496091,0.4375 0.496091,1.23437 0,0.79687 -0.550779,1.30468 -0.546873,0.50781 -1.480463,0.50781 z m 0,-2.89061 v 2.29686 H 31.2655 q 0.679685,0 1.035152,-0.30859 0.359374,-0.3125 0.359374,-0.8789 0,-1.10937 -1.312495,-1.10937 z"
     style="font-size:7.99996805px;font-family:'Segoe UI';fill:#000000"
     id="path1034" /><path
     d="m 38.195159,151.72 h -0.72656 l -0.593747,-1.57031 H 34.499861 L 33.941269,151.72 h -0.730465 l 2.148429,-5.60154 h 0.679684 z m -1.53515,-2.16015 -0.878903,-2.38671 q -0.04297,-0.11718 -0.08594,-0.37499 h -0.01563 q -0.03906,0.23828 -0.08984,0.37499 l -0.87109,2.38671 z"
     style="font-size:7.99996805px;font-family:'Segoe UI';fill:#000000"
     id="path1036" /><path
     d="m 41.921708,151.72 h -2.906239 v -5.60154 h 0.656248 v 5.00779 h 2.249991 z"
     style="font-size:7.99996805px;font-family:'Segoe UI';fill:#000000"
     id="path1038" /><path
     d="m 44.742009,149.74345 h -2.132804 v -0.50391 h 2.132804 z"
     style="font-size:7.99996805px;font-family:'Segoe UI';fill:#000000"
     id="path1040" /><path
     d="m 45.984193,151.72 v -5.60154 h 1.593743 q 0.72656,0 1.15234,0.35547 0.425779,0.35547 0.425779,0.92578 0,0.47656 -0.257811,0.82812 -0.257812,0.35156 -0.710935,0.5 v 0.0156 q 0.566404,0.0664 0.906246,0.42969 0.339843,0.35937 0.339843,0.93749 0,0.71875 -0.515623,1.16406 -0.515623,0.44531 -1.300776,0.44531 z m 0.656247,-5.00779 v 1.80859 h 0.671872 q 0.539061,0 0.847653,-0.25782 0.308593,-0.26171 0.308593,-0.73437 0,-0.8164 -1.074215,-0.8164 z m 0,2.39843 v 2.01561 h 0.890622 q 0.578122,0 0.894527,-0.27343 0.320311,-0.27344 0.320311,-0.75 0,-0.99218 -1.351557,-0.99218 z"
     style="font-size:7.99996805px;font-family:'Segoe UI';fill:#000000"
     id="path1042" /><path
     d="m 53.726349,151.72 h -0.640623 v -0.63281 h -0.01563 q -0.398436,0.72656 -1.23437,0.72656 -1.429682,0 -1.429682,-1.70312 v -2.39061 h 0.636717 v 2.28905 q 0,1.26562 0.968746,1.26562 0.468748,0 0.769528,-0.34375 0.304686,-0.34765 0.304686,-0.90624 v -2.30468 h 0.640623 z"
     style="font-size:7.99996805px;font-family:'Segoe UI';fill:#000000"
     id="path1044" /><path
     d="m 55.351341,146.7044 q -0.171874,0 -0.292967,-0.11719 -0.121094,-0.11719 -0.121094,-0.29687 0,-0.17969 0.121094,-0.29688 0.121093,-0.12109 0.292967,-0.12109 0.175781,0 0.296874,0.12109 0.124999,0.11719 0.124999,0.29688 0,0.17187 -0.124999,0.29296 -0.121093,0.1211 -0.296874,0.1211 z m 0.312499,5.0156 h -0.640623 v -3.99998 h 0.640623 z"
     style="font-size:7.99996805px;font-family:'Segoe UI';fill:#000000"
     id="path1046" /><path
     d="M 57.601332,151.72 H 56.96071 v -5.92185 h 0.640622 z"
     style="font-size:7.99996805px;font-family:'Segoe UI';fill:#000000"
     id="path1048" /><path
     d="m 62.312251,151.72 h -0.640622 v -0.67968 h -0.01563 q -0.445311,0.77343 -1.374995,0.77343 -0.753903,0 -1.207026,-0.53515 -0.449217,-0.53906 -0.449217,-1.46484 0,-0.99218 0.499998,-1.58984 0.499998,-0.59765 1.332026,-0.59765 0.824215,0 1.199214,0.64843 h 0.01563 v -2.47655 h 0.640622 z m -0.640622,-1.80859 v -0.58984 q 0,-0.48437 -0.320312,-0.82031 -0.320311,-0.33593 -0.812496,-0.33593 -0.585935,0 -0.921872,0.42968 -0.335936,0.42969 -0.335936,1.1875 0,0.6914 0.320311,1.09374 0.324218,0.39844 0.867184,0.39844 0.535155,0 0.867184,-0.38672 0.335937,-0.38671 0.335937,-0.97656 z"
     style="font-size:7.99996805px;font-family:'Segoe UI';fill:#000000"
     id="path1050" /><path
     d="m 65.6638,149.74345 h -2.132804 v -0.50391 H 65.6638 Z"
     style="font-size:7.99996805px;font-family:'Segoe UI';fill:#000000"
     id="path1052" /><path
     d="m 66.644262,151.49344 v -0.77343 q 0.132812,0.11718 0.316405,0.21093 0.1875,0.0937 0.390624,0.16016 0.20703,0.0625 0.414061,0.0976 0.20703,0.0352 0.382811,0.0352 0.605466,0 0.90234,-0.22266 0.30078,-0.22656 0.30078,-0.64843 0,-0.22656 -0.101562,-0.39453 -0.09766,-0.16797 -0.273437,-0.30469 -0.17578,-0.14062 -0.417967,-0.26562 -0.23828,-0.12891 -0.515623,-0.26953 -0.292967,-0.14844 -0.546873,-0.30078 -0.253905,-0.15234 -0.441404,-0.33594 -0.187499,-0.18359 -0.296874,-0.41406 -0.105468,-0.23437 -0.105468,-0.54687 0,-0.38281 0.167968,-0.66406 0.167968,-0.28516 0.441404,-0.46875 0.273437,-0.18359 0.621092,-0.27344 0.351561,-0.0898 0.714841,-0.0898 0.828121,0 1.207026,0.19922 v 0.73828 q -0.496092,-0.34375 -1.273432,-0.34375 -0.214843,0 -0.429686,0.0469 -0.214843,0.043 -0.382811,0.14453 -0.167968,0.10157 -0.273437,0.26172 -0.105468,0.16016 -0.105468,0.39063 0,0.21484 0.07813,0.37109 0.08203,0.15625 0.23828,0.28515 0.156249,0.12891 0.378905,0.25 0.226561,0.1211 0.519529,0.26563 0.30078,0.14843 0.57031,0.31249 0.26953,0.16407 0.472655,0.36328 0.203124,0.19922 0.320311,0.44141 0.121093,0.24219 0.121093,0.55468 0,0.41407 -0.164062,0.70313 -0.160155,0.28515 -0.437498,0.46484 -0.273436,0.17969 -0.63281,0.25781 -0.359374,0.082 -0.75781,0.082 -0.132811,0 -0.328123,-0.0234 -0.195312,-0.0195 -0.398436,-0.0625 -0.203124,-0.0391 -0.386717,-0.0977 -0.179687,-0.0625 -0.289062,-0.13672 z"
     style="font-size:7.99996805px;font-family:'Segoe UI';fill:#000000"
     id="path1054" /><path
     d="M 77.796563,146.11846 76.214538,151.72 H 75.44501 l -1.152339,-4.09373 q -0.07422,-0.26172 -0.08984,-0.57031 h -0.01563 q -0.02344,0.28906 -0.101562,0.5625 L 72.925489,151.72 h -0.761716 l -1.640618,-5.60154 h 0.722653 l 1.191402,4.29686 q 0.07422,0.26953 0.09375,0.5625 h 0.01953 q 0.01953,-0.20703 0.121094,-0.5625 l 1.238276,-4.29686 h 0.628904 l 1.187495,4.32811 q 0.0625,0.22265 0.09375,0.52343 h 0.01563 q 0.01563,-0.20312 0.105468,-0.53906 l 1.144527,-4.31248 z"
     style="font-size:7.99996805px;font-family:'Segoe UI';fill:#000000"
     id="path1056" /></g>			</g>
			<g
   id="shape1390-14"
   v:mID="1390"
   v:groupContext="shape"
   v:layerMember="0"
   transform="translate(-1.19904E-13,-21.249)">
				<title
   id="title55">Sheet.1390</title>
				<desc
   id="desc57">31 SW TIA PAL</desc>
				<v:textBlock
   v:margins="rect(0,0,0,0)"
   v:tabSpace="42.5197" />
				<v:textRect
   cx="36"
   cy="149.518"
   width="72.01"
   height="10.375" />
				<rect
   x="0"
   y="144.331"
   width="72"
   height="10.375"
   class="st1"
   id="rect59" />
				<g
   aria-label="31 SW TIA PAL"
   style="font-size:7.99996805px;font-family:'Segoe UI';fill:#000000"
   id="text61"><path
     d="m 13.822642,150.13407 q 0,0.3789 -0.144531,0.6914 -0.140624,0.3086 -0.402342,0.53125 -0.257812,0.21875 -0.621091,0.33984 -0.36328,0.1211 -0.800778,0.1211 -0.800778,0 -1.273433,-0.30469 v -0.6875 q 0.566404,0.44531 1.29687,0.44531 0.292968,0 0.527342,-0.0742 0.23828,-0.0742 0.406248,-0.21485 0.171874,-0.14062 0.261718,-0.33984 0.09375,-0.19922 0.09375,-0.44922 0,-1.09765 -1.562493,-1.09765 h -0.464842 v -0.54296 h 0.441404 q 1.382807,0 1.382807,-1.03125 0,-0.95312 -1.054683,-0.95312 -0.593748,0 -1.113277,0.39843 v -0.62109 q 0.535154,-0.32031 1.273433,-0.32031 0.351561,0 0.636716,0.0977 0.285155,0.0977 0.488279,0.27343 0.203124,0.17578 0.312499,0.42188 0.113281,0.24609 0.113281,0.54296 0,1.10547 -1.117183,1.42187 v 0.0156 q 0.285155,0.0312 0.527341,0.14062 0.242187,0.10547 0.417967,0.27734 0.175781,0.17188 0.273437,0.40625 0.101562,0.23047 0.101562,0.51172 z"
     style="font-size:7.99996805px;font-family:'Segoe UI';fill:#000000"
     id="path999" /><path
     d="m 17.240597,151.72 h -0.640623 v -4.83982 q -0.07422,0.0742 -0.218749,0.17187 -0.140624,0.0937 -0.320311,0.1875 -0.17578,0.0937 -0.374998,0.17578 -0.195312,0.082 -0.382811,0.12891 v -0.64844 q 0.210936,-0.0586 0.44531,-0.15625 0.238281,-0.10156 0.464842,-0.22265 0.230468,-0.125 0.433592,-0.25781 0.203124,-0.13672 0.351561,-0.26563 h 0.242187 z"
     style="font-size:7.99996805px;font-family:'Segoe UI';fill:#000000"
     id="path1001" /><path
     d="m 21.385112,151.49344 v -0.77343 q 0.132812,0.11718 0.316405,0.21093 0.187499,0.0937 0.390623,0.16016 0.207031,0.0625 0.414061,0.0976 0.207031,0.0352 0.382811,0.0352 0.605466,0 0.90234,-0.22266 0.30078,-0.22656 0.30078,-0.64843 0,-0.22656 -0.101562,-0.39453 -0.09766,-0.16797 -0.273436,-0.30469 -0.175781,-0.14062 -0.417967,-0.26562 -0.238281,-0.12891 -0.515623,-0.26953 -0.292968,-0.14844 -0.546873,-0.30078 -0.253905,-0.15234 -0.441405,-0.33594 -0.187499,-0.18359 -0.296873,-0.41406 -0.105469,-0.23437 -0.105469,-0.54687 0,-0.38281 0.167968,-0.66406 0.167968,-0.28516 0.441405,-0.46875 0.273436,-0.18359 0.621091,-0.27344 0.351561,-0.0898 0.714841,-0.0898 0.828122,0 1.207026,0.19922 v 0.73828 q -0.496091,-0.34375 -1.273432,-0.34375 -0.214843,0 -0.429686,0.0469 -0.214843,0.043 -0.382811,0.14453 -0.167968,0.10157 -0.273436,0.26172 -0.105468,0.16016 -0.105468,0.39063 0,0.21484 0.07812,0.37109 0.08203,0.15625 0.238281,0.28515 0.156249,0.12891 0.378904,0.25 0.226562,0.1211 0.519529,0.26563 0.30078,0.14843 0.570311,0.31249 0.26953,0.16407 0.472654,0.36328 0.203124,0.19922 0.320311,0.44141 0.121094,0.24219 0.121094,0.55468 0,0.41407 -0.164062,0.70313 -0.160156,0.28515 -0.437499,0.46484 -0.273436,0.17969 -0.63281,0.25781 -0.359373,0.082 -0.757809,0.082 -0.132812,0 -0.328124,-0.0234 -0.195311,-0.0195 -0.398436,-0.0625 -0.203124,-0.0391 -0.386717,-0.0977 -0.179687,-0.0625 -0.289061,-0.13672 z"
     style="font-size:7.99996805px;font-family:'Segoe UI';fill:#000000"
     id="path1003" /><path
     d="M 32.537411,146.11846 30.955386,151.72 h -0.769528 l -1.152339,-4.09373 q -0.07422,-0.26172 -0.08984,-0.57031 h -0.01563 q -0.02344,0.28906 -0.101562,0.5625 L 27.666337,151.72 h -0.761716 l -1.640619,-5.60154 h 0.722654 l 1.191401,4.29686 q 0.07422,0.26953 0.09375,0.5625 h 0.01953 q 0.01953,-0.20703 0.121093,-0.5625 l 1.238277,-4.29686 h 0.628903 l 1.187496,4.32811 q 0.0625,0.22265 0.09375,0.52343 h 0.01563 q 0.01563,-0.20312 0.105469,-0.53906 l 1.144526,-4.31248 z"
     style="font-size:7.99996805px;font-family:'Segoe UI';fill:#000000"
     id="path1005" /><path
     d="M 38.86551,146.71221 H 37.248329 V 151.72 h -0.656247 v -5.00779 h -1.613275 v -0.59375 h 3.886703 z"
     style="font-size:7.99996805px;font-family:'Segoe UI';fill:#000000"
     id="path1007" /><path
     d="m 40.396753,151.72 h -0.656247 v -5.60154 h 0.656247 z"
     style="font-size:7.99996805px;font-family:'Segoe UI';fill:#000000"
     id="path1009" /><path
     d="m 46.201419,151.72 h -0.72656 l -0.593748,-1.57031 h -2.37499 L 41.947529,151.72 h -0.730465 l 2.148428,-5.60154 h 0.679685 z m -1.53515,-2.16015 -0.878903,-2.38671 q -0.04297,-0.11718 -0.08594,-0.37499 h -0.01563 q -0.03906,0.23828 -0.08984,0.37499 l -0.87109,2.38671 z"
     style="font-size:7.99996805px;font-family:'Segoe UI';fill:#000000"
     id="path1011" /><path
     d="M 49.865467,149.60282 V 151.72 H 49.20922 v -5.60154 h 1.539056 q 0.898434,0 1.39062,0.4375 0.496091,0.4375 0.496091,1.23437 0,0.79687 -0.550779,1.30468 -0.546872,0.50781 -1.480462,0.50781 z m 0,-2.89061 v 2.29686 h 0.687497 q 0.679685,0 1.035153,-0.30859 0.359373,-0.3125 0.359373,-0.8789 0,-1.10937 -1.312495,-1.10937 z"
     style="font-size:7.99996805px;font-family:'Segoe UI';fill:#000000"
     id="path1013" /><path
     d="m 57.482625,151.72 h -0.72656 l -0.593747,-1.57031 H 53.787327 L 53.228736,151.72 H 52.49827 l 2.148429,-5.60154 h 0.679684 z m -1.53515,-2.16015 -0.878903,-2.38671 q -0.04297,-0.11718 -0.08594,-0.37499 h -0.01563 q -0.03906,0.23828 -0.08984,0.37499 l -0.87109,2.38671 z"
     style="font-size:7.99996805px;font-family:'Segoe UI';fill:#000000"
     id="path1015" /><path
     d="m 61.20917,151.72 h -2.906238 v -5.60154 h 0.656247 v 5.00779 h 2.249991 z"
     style="font-size:7.99996805px;font-family:'Segoe UI';fill:#000000"
     id="path1017" /></g>			</g>
			<g
   id="shape1392-17"
   v:mID="1392"
   v:groupContext="shape"
   v:layerMember="0">
				<title
   id="title64">Sheet.1392</title>
				<desc
   id="desc66">TIA Project storage area</desc>
				<v:textBlock
   v:margins="rect(0,0,0,0)"
   v:tabSpace="42.5197" />
				<v:textRect
   cx="36"
   cy="149.518"
   width="72.01"
   height="10.375" />
				<rect
   x="0"
   y="144.331"
   width="72"
   height="10.375"
   class="st1"
   id="rect68" />
				<g
   aria-label="TIA Projectstorage area"
   style="font-weight:bold;font-size:7.99996805px;font-family:'Segoe UI';fill:#ff6c09"
   id="text72"><path
     d="m 19.7742,142.74581 h -1.59765 v 4.5742 h -1.26562 v -4.5742 h -1.589837 v -1.02734 H 19.7742 Z"
     style="font-weight:bold;font-size:7.99996805px;font-family:'Segoe UI';fill:#ff6c09"
     id="path956" /><path
     d="m 21.789817,147.32001 h -1.261713 v -5.60154 h 1.261713 z"
     style="font-weight:bold;font-size:7.99996805px;font-family:'Segoe UI';fill:#ff6c09"
     id="path958" /><path
     d="m 27.985105,147.32001 h -1.374994 l -0.398436,-1.24609 h -1.99218 l -0.394529,1.24609 h -1.367182 l 2.039054,-5.60154 h 1.496088 z m -2.062492,-2.21484 -0.60156,-1.8828 q -0.06641,-0.21094 -0.09375,-0.50391 h -0.03125 q -0.01953,0.2461 -0.09766,0.48828 l -0.609373,1.89843 z"
     style="font-weight:bold;font-size:7.99996805px;font-family:'Segoe UI';fill:#ff6c09"
     id="path960" /><path
     d="m 32.149151,145.39033 v 1.92968 h -1.261714 v -5.60154 h 1.976555 q 2.117179,0 2.117179,1.78515 0,0.84374 -0.609373,1.36718 -0.605466,0.51953 -1.621087,0.51953 z m 0,-2.70312 v 1.74609 h 0.496092 q 1.007808,0 1.007808,-0.88281 0,-0.86328 -1.007808,-0.86328 z"
     style="font-weight:bold;font-size:7.99996805px;font-family:'Segoe UI';fill:#ff6c09"
     id="path962" /><path
     d="m 38.297563,144.4333 q -0.222655,-0.12109 -0.519529,-0.12109 -0.402342,0 -0.628903,0.29687 -0.226562,0.29297 -0.226562,0.80078 v 1.91015 h -1.23437 v -3.99999 h 1.23437 v 0.74219 h 0.01563 q 0.292967,-0.8125 1.054683,-0.8125 0.195312,0 0.304686,0.0469 z"
     style="font-weight:bold;font-size:7.99996805px;font-family:'Segoe UI';fill:#ff6c09"
     id="path964" /><path
     d="m 40.75068,147.41766 q -0.999996,0 -1.574213,-0.55859 -0.57031,-0.5625 -0.57031,-1.52343 0,-0.99218 0.593748,-1.55077 0.593747,-0.5625 1.605462,-0.5625 0.99609,0 1.562494,0.5625 0.566404,0.55859 0.566404,1.48046 0,0.99609 -0.585935,1.57421 -0.582029,0.57812 -1.59765,0.57812 z m 0.03125,-3.24998 q -0.437499,0 -0.679685,0.30078 -0.242187,0.30078 -0.242187,0.85156 0,1.15233 0.929684,1.15233 0.886715,0 0.886715,-1.18358 0,-1.12109 -0.894527,-1.12109 z"
     style="font-weight:bold;font-size:7.99996805px;font-family:'Segoe UI';fill:#ff6c09"
     id="path966" /><path
     d="m 44.344416,142.68721 q -0.312499,0 -0.511717,-0.18359 -0.199218,-0.1875 -0.199218,-0.45703 0,-0.27734 0.199218,-0.45312 0.199218,-0.17578 0.511717,-0.17578 0.316405,0 0.511717,0.17578 0.199218,0.17578 0.199218,0.45312 0,0.28125 -0.199218,0.46094 -0.195312,0.17968 -0.511717,0.17968 z m 0.609372,4.56249 q 0,0.88671 -0.433592,1.41796 -0.433592,0.53125 -1.249995,0.53125 -0.26953,0 -0.589841,-0.11719 v -0.96875 q 0.257811,0.14453 0.457029,0.14453 0.582029,0 0.582029,-0.91406 v -4.02342 h 1.23437 z"
     style="font-weight:bold;font-size:7.99996805px;font-family:'Segoe UI';fill:#ff6c09"
     id="path968" /><path
     d="M 49.594394,145.67158 H 46.98503 q 0.0625,0.87109 1.097652,0.87109 0.660153,0 1.160151,-0.3125 v 0.89062 q -0.554685,0.29687 -1.4414,0.29687 -0.968746,0 -1.5039,-0.53515 -0.535154,-0.53906 -0.535154,-1.49999 0,-0.99609 0.578122,-1.57812 0.578123,-0.58203 1.42187,-0.58203 0.874996,0 1.351557,0.51953 0.480466,0.51953 0.480466,1.41015 z m -1.144526,-0.75781 q 0,-0.85937 -0.69531,-0.85937 -0.296874,0 -0.515623,0.24609 -0.214843,0.24609 -0.261718,0.61328 z"
     style="font-weight:bold;font-size:7.99996805px;font-family:'Segoe UI';fill:#ff6c09"
     id="path970" /><path
     d="m 53.360005,147.17548 q -0.417968,0.24218 -1.207027,0.24218 -0.921871,0 -1.492181,-0.55859 -0.570311,-0.55859 -0.570311,-1.4414 0,-1.01953 0.609373,-1.60546 0.613279,-0.58984 1.636712,-0.58984 0.707029,0 1.023434,0.1875 v 1.04687 q -0.386718,-0.28906 -0.863278,-0.28906 -0.531248,0 -0.843747,0.31249 -0.308592,0.3086 -0.308592,0.85547 0,0.53125 0.296873,0.83593 0.296874,0.30078 0.816403,0.30078 0.460936,0 0.902341,-0.28906 z"
     style="font-weight:bold;font-size:7.99996805px;font-family:'Segoe UI';fill:#ff6c09"
     id="path972" /><path
     d="m 56.59046,147.27313 q -0.273436,0.14453 -0.824215,0.14453 -1.304682,0 -1.304682,-1.35546 v -1.83202 h -0.648435 v -0.91016 h 0.648435 v -0.86327 l 1.230464,-0.35157 v 1.21484 h 0.898433 v 0.91016 h -0.898433 v 1.61718 q 0,0.62499 0.496091,0.62499 0.195312,0 0.402342,-0.11328 z"
     style="font-weight:bold;font-size:7.99996805px;font-family:'Segoe UI';fill:#ff6c09"
     id="path974" /><path
     d="m 12.947811,156.0145 v -0.99999 q 0.304686,0.18359 0.605466,0.27343 0.304687,0.0899 0.574217,0.0899 0.328124,0 0.515623,-0.0899 0.191405,-0.0898 0.191405,-0.27343 0,-0.11719 -0.08594,-0.19531 -0.08594,-0.0781 -0.222655,-0.13672 -0.132812,-0.0586 -0.292968,-0.10547 -0.160155,-0.0469 -0.308592,-0.10547 -0.238281,-0.0898 -0.421874,-0.1914 -0.179686,-0.10547 -0.304686,-0.24219 -0.121093,-0.13672 -0.187499,-0.31641 -0.0625,-0.17968 -0.0625,-0.42578 0,-0.33593 0.144531,-0.57812 0.148437,-0.24218 0.390623,-0.39453 0.246093,-0.15625 0.558592,-0.22656 0.316405,-0.0742 0.656247,-0.0742 0.265624,0 0.53906,0.043 0.273437,0.0391 0.539061,0.11719 v 0.95312 q -0.234374,-0.13672 -0.503904,-0.20313 -0.265624,-0.0703 -0.523436,-0.0703 -0.121093,0 -0.230468,0.0234 -0.105468,0.0195 -0.187499,0.0625 -0.08203,0.0391 -0.128906,0.10547 -0.04687,0.0625 -0.04687,0.14453 0,0.10937 0.07031,0.1875 0.07031,0.0781 0.183593,0.13672 0.113281,0.0547 0.249999,0.10156 0.140624,0.043 0.277342,0.0898 0.246093,0.0859 0.445311,0.1875 0.199218,0.10156 0.339842,0.23828 0.144531,0.13672 0.21875,0.32031 0.07812,0.1836 0.07812,0.4375 0,0.35547 -0.156249,0.60937 -0.152343,0.25 -0.410155,0.41016 -0.253905,0.15625 -0.589841,0.22656 -0.33203,0.0742 -0.691404,0.0742 -0.660153,0 -1.222651,-0.20313 z"
     style="font-size:7.99996805px"
     id="path976" /><path
     d="m 19.143099,156.0731 q -0.273437,0.14453 -0.824216,0.14453 -1.304682,0 -1.304682,-1.35547 v -1.83202 h -0.648435 v -0.91015 h 0.648435 v -0.86328 l 1.230464,-0.35156 v 1.21484 h 0.898434 v 0.91015 h -0.898434 v 1.61718 q 0,0.625 0.496092,0.625 0.195311,0 0.402342,-0.11328 z"
     style="font-size:7.99996805px"
     id="path978" /><path
     d="m 21.709494,156.21763 q -0.999996,0 -1.574212,-0.55859 -0.57031,-0.5625 -0.57031,-1.52343 0,-0.99219 0.593747,-1.55078 0.593748,-0.5625 1.605463,-0.5625 0.996089,0 1.562493,0.5625 0.566404,0.55859 0.566404,1.48046 0,0.99609 -0.585935,1.57422 -0.582029,0.57812 -1.59765,0.57812 z m 0.03125,-3.24999 q -0.437498,0 -0.679684,0.30078 -0.242187,0.30078 -0.242187,0.85156 0,1.15234 0.929684,1.15234 0.886715,0 0.886715,-1.18359 0,-1.12109 -0.894528,-1.12109 z"
     style="font-size:7.99996805px"
     id="path980" /><path
     d="m 27.303223,153.23327 q -0.222656,-0.1211 -0.51953,-0.1211 -0.402342,0 -0.628903,0.29688 -0.226562,0.29296 -0.226562,0.80077 v 1.91015 h -1.23437 v -3.99998 h 1.23437 v 0.74218 h 0.01563 q 0.292968,-0.81249 1.054683,-0.81249 0.195312,0 0.304687,0.0469 z"
     style="font-size:7.99996805px"
     id="path982" /><path
     d="m 31.209456,156.11997 h -1.167964 v -0.57421 h -0.01563 q -0.402342,0.67187 -1.191401,0.67187 -0.582029,0 -0.917965,-0.32813 -0.33203,-0.33203 -0.33203,-0.8828 0,-1.16406 1.378901,-1.34375 l 1.085933,-0.14453 q 0,-0.65625 -0.710935,-0.65625 -0.714841,0 -1.35937,0.42578 v -0.92968 q 0.257812,-0.13281 0.703123,-0.23438 0.449217,-0.10156 0.816403,-0.10156 1.71093,0 1.71093,1.70703 z m -1.160151,-1.62499 v -0.26953 l -0.72656,0.0937 q -0.60156,0.0781 -0.60156,0.54296 0,0.21094 0.144531,0.34766 0.148437,0.13281 0.398436,0.13281 0.347654,0 0.566404,-0.23828 0.218749,-0.24219 0.218749,-0.60937 z"
     style="font-size:7.99996805px"
     id="path984" /><path
     d="m 36.115687,155.66294 q 0,1.11328 -0.644529,1.72265 -0.644529,0.61328 -1.86718,0.61328 -0.80859,0 -1.281245,-0.23047 v -1.03906 q 0.617185,0.35938 1.246089,0.35938 0.624997,0 0.968746,-0.33203 0.343749,-0.32813 0.343749,-0.89453 v -0.3164 h -0.01563 q -0.421874,0.67187 -1.246089,0.67187 -0.765622,0 -1.214839,-0.53906 -0.449217,-0.53906 -0.449217,-1.44531 0,-1.01562 0.499998,-1.61327 0.499998,-0.59766 1.316401,-0.59766 0.730466,0 1.093746,0.5625 h 0.01563 v -0.46484 h 1.23437 z m -1.218745,-1.46484 v -0.3164 q 0,-0.3789 -0.226562,-0.64453 -0.222655,-0.26953 -0.582029,-0.26953 -0.410154,0 -0.644529,0.32031 -0.234374,0.32031 -0.234374,0.90234 0,0.5 0.222656,0.79297 0.222655,0.28906 0.609372,0.28906 0.382811,0 0.617185,-0.29297 0.238281,-0.29687 0.238281,-0.78125 z"
     style="font-size:7.99996805px"
     id="path986" /><path
     d="m 40.740669,154.47154 h -2.609365 q 0.0625,0.87109 1.097652,0.87109 0.660154,0 1.160152,-0.3125 v 0.89062 q -0.554685,0.29688 -1.441401,0.29688 -0.968746,0 -1.5039,-0.53516 -0.535154,-0.53906 -0.535154,-1.49999 0,-0.99609 0.578123,-1.57812 0.578122,-0.58203 1.421869,-0.58203 0.874997,0 1.351557,0.51953 0.480467,0.51953 0.480467,1.41015 z m -1.144527,-0.75781 q 0,-0.85937 -0.695309,-0.85937 -0.296874,0 -0.515623,0.24609 -0.214843,0.2461 -0.261718,0.61328 z"
     style="font-size:7.99996805px"
     id="path988" /><path
     d="m 47.006268,156.11997 h -1.167964 v -0.57421 h -0.01563 q -0.402342,0.67187 -1.191401,0.67187 -0.582029,0 -0.917965,-0.32813 -0.33203,-0.33203 -0.33203,-0.8828 0,-1.16406 1.378901,-1.34375 l 1.085933,-0.14453 q 0,-0.65625 -0.710935,-0.65625 -0.714841,0 -1.359369,0.42578 v -0.92968 q 0.257811,-0.13281 0.703122,-0.23438 0.449217,-0.10156 0.816403,-0.10156 1.71093,0 1.71093,1.70703 z m -1.160151,-1.62499 v -0.26953 l -0.72656,0.0937 q -0.60156,0.0781 -0.60156,0.54296 0,0.21094 0.144531,0.34766 0.148437,0.13281 0.398436,0.13281 0.347655,0 0.566404,-0.23828 0.218749,-0.24219 0.218749,-0.60937 z"
     style="font-size:7.99996805px"
     id="path990" /><path
     d="m 50.600006,153.23327 q -0.222655,-0.1211 -0.519529,-0.1211 -0.402342,0 -0.628904,0.29688 -0.226562,0.29296 -0.226562,0.80077 v 1.91015 h -1.23437 v -3.99998 h 1.23437 v 0.74218 h 0.01563 q 0.292968,-0.81249 1.054684,-0.81249 0.195311,0 0.304686,0.0469 z"
     style="font-size:7.99996805px"
     id="path992" /><path
     d="m 54.740612,154.47154 h -2.609365 q 0.0625,0.87109 1.097652,0.87109 0.660154,0 1.160152,-0.3125 v 0.89062 q -0.554686,0.29688 -1.441401,0.29688 -0.968746,0 -1.5039,-0.53516 -0.535154,-0.53906 -0.535154,-1.49999 0,-0.99609 0.578123,-1.57812 0.578122,-0.58203 1.421869,-0.58203 0.874996,0 1.351557,0.51953 0.480467,0.51953 0.480467,1.41015 z m -1.144527,-0.75781 q 0,-0.85937 -0.69531,-0.85937 -0.296873,0 -0.515623,0.24609 -0.214842,0.2461 -0.261717,0.61328 z"
     style="font-size:7.99996805px"
     id="path994" /><path
     d="m 58.803098,156.11997 h -1.167964 v -0.57421 h -0.01563 q -0.402343,0.67187 -1.191402,0.67187 -0.582029,0 -0.917965,-0.32813 -0.33203,-0.33203 -0.33203,-0.8828 0,-1.16406 1.378901,-1.34375 l 1.085933,-0.14453 q 0,-0.65625 -0.710935,-0.65625 -0.714841,0 -1.359369,0.42578 v -0.92968 q 0.257811,-0.13281 0.703122,-0.23438 0.449217,-0.10156 0.816403,-0.10156 1.710931,0 1.710931,1.70703 z m -1.160152,-1.62499 v -0.26953 l -0.72656,0.0937 q -0.60156,0.0781 -0.60156,0.54296 0,0.21094 0.144531,0.34766 0.148437,0.13281 0.398436,0.13281 0.347655,0 0.566404,-0.23828 0.218749,-0.24219 0.218749,-0.60937 z"
     style="font-size:7.99996805px"
     id="path996" /></g>			</g>
			<g
   id="shape1394-21"
   v:mID="1394"
   v:groupContext="shape"
   transform="translate(-116.393,109.516) rotate(-89.8648)">
				<title
   id="title75">Sheet.1394</title>
				<path
   d="M0 154.71 L26.49 154.71"
   class="st4"
   id="path77" />
			</g>
			<g
   id="shape1411-24"
   v:mID="1411"
   v:groupContext="shape"
   transform="translate(6.74999,-16.6241)">
				<title
   id="title80">Sheet.1411</title>
				<rect
   x="0"
   y="106.706"
   width="58.5"
   height="48"
   rx="4.5"
   ry="4.5"
   class="st7"
   id="rect82" />
			</g>
			<g
   id="group1435-26"
   transform="translate(-108.956,83.394) rotate(-90)"
   v:mID="1435"
   v:groupContext="group">
				<title
   id="title85">Sheet.1435</title>
				<g
   id="shape1436-27"
   v:mID="1436"
   v:groupContext="shape">
					<title
   id="title87">Sheet.1436</title>
					<path
   d="M0 140.46 L0 153.96 a0.75 0.75 -180 0 0 0.75 0.75 L9.58 154.71 a0.75 0.75 -180 0 0 0.75 -0.75 L10.33          146.46 a0.75 0.75 0 0 1 0.75 -0.75 L11.25 145.71 a0.75 0.75 -180 0 0 0.75 -0.75 L12 140.46 a0.75          0.75 -180 0 0 -0.75 -0.75 L0.75 139.71 a0.75 0.75 -180 0 0 -0.75 0.75 Z"
   class="st8"
   id="path89" />
				</g>
				<g
   id="shape1437-29"
   v:mID="1437"
   v:groupContext="shape">
					<title
   id="title92">Sheet.1437</title>
					<rect
   x="0"
   y="139.706"
   width="9"
   height="15"
   rx="0.75"
   ry="0.75"
   class="st9"
   id="rect94" />
				</g>
			</g>
			<g
   id="group1438-33"
   transform="translate(-108.956,120.207) rotate(-90)"
   v:mID="1438"
   v:groupContext="group">
				<title
   id="title98">Sheet.1438</title>
				<g
   id="shape1439-34"
   v:mID="1439"
   v:groupContext="shape">
					<title
   id="title100">Sheet.1439</title>
					<path
   d="M0 140.46 L0 153.96 a0.75 0.75 -180 0 0 0.75 0.75 L9.58 154.71 a0.75 0.75 -180 0 0 0.75 -0.75 L10.33          146.46 a0.75 0.75 0 0 1 0.75 -0.75 L11.25 145.71 a0.75 0.75 -180 0 0 0.75 -0.75 L12 140.46 a0.75          0.75 -180 0 0 -0.75 -0.75 L0.75 139.71 a0.75 0.75 -180 0 0 -0.75 0.75 Z"
   class="st8"
   id="path102" />
				</g>
				<g
   id="shape1440-36"
   v:mID="1440"
   v:groupContext="shape">
					<title
   id="title105">Sheet.1440</title>
					<rect
   x="0"
   y="139.706"
   width="9"
   height="15"
   rx="0.75"
   ry="0.75"
   class="st9"
   id="rect107" />
				</g>
			</g>
			<g
   id="shape1451-39"
   v:mID="1451"
   v:groupContext="shape"
   transform="translate(-116.456,39.8494) rotate(-90)">
				<title
   id="title111">Sheet.1451</title>
				<path
   d="M0 154.71 L23.99 154.71"
   class="st4"
   id="path113" />
			</g>
			<g
   id="group1452-42"
   transform="translate(-108.956,50.456) rotate(-90)"
   v:mID="1452"
   v:groupContext="group">
				<title
   id="title116">Sheet.1452</title>
				<g
   id="shape1453-43"
   v:mID="1453"
   v:groupContext="shape">
					<title
   id="title118">Sheet.1453</title>
					<path
   d="M0 140.46 L0 153.96 a0.75 0.75 -180 0 0 0.75 0.75 L9.58 154.71 a0.75 0.75 -180 0 0 0.75 -0.75 L10.33          146.46 a0.75 0.75 0 0 1 0.75 -0.75 L11.25 145.71 a0.75 0.75 -180 0 0 0.75 -0.75 L12 140.46 a0.75          0.75 -180 0 0 -0.75 -0.75 L0.75 139.71 a0.75 0.75 -180 0 0 -0.75 0.75 Z"
   class="st10"
   id="path120" />
				</g>
				<g
   id="shape1454-45"
   v:mID="1454"
   v:groupContext="shape">
					<title
   id="title123">Sheet.1454</title>
					<rect
   x="0"
   y="139.706"
   width="9"
   height="15"
   rx="0.75"
   ry="0.75"
   class="st11"
   id="rect125" />
				</g>
			</g>
			<g
   id="group1455-49"
   transform="translate(-108.956,15.8625) rotate(-90)"
   v:mID="1455"
   v:groupContext="group">
				<title
   id="title129">Sheet.1455</title>
				<g
   id="shape1456-50"
   v:mID="1456"
   v:groupContext="shape">
					<title
   id="title131">Sheet.1456</title>
					<path
   d="M0 140.46 L0 153.96 a0.75 0.75 -180 0 0 0.75 0.75 L9.58 154.71 a0.75 0.75 -180 0 0 0.75 -0.75 L10.33          146.46 a0.75 0.75 0 0 1 0.75 -0.75 L11.25 145.71 a0.75 0.75 -180 0 0 0.75 -0.75 L12 140.46 a0.75          0.75 -180 0 0 -0.75 -0.75 L0.75 139.71 a0.75 0.75 -180 0 0 -0.75 0.75 Z"
   class="st10"
   id="path133" />
				</g>
				<g
   id="shape1457-52"
   v:mID="1457"
   v:groupContext="shape">
					<title
   id="title136">Sheet.1457</title>
					<rect
   x="0"
   y="139.706"
   width="9"
   height="15"
   rx="0.75"
   ry="0.75"
   class="st11"
   id="rect138" />
				</g>
			</g>
		</g>
	</g>
</svg>