<?xml version="1.0" encoding="UTF-8" standalone="no"?>
<svg
   width="261.32401"
   height="20"
   role="img"
   aria-label="Dev: D0000"
   version="1.1"
   id="svg30"
   sodipodi:docname="m1-text.svg"
   inkscape:version="1.1.1 (3bf5ae0d25, 2021-09-20)"
   xmlns:inkscape="http://www.inkscape.org/namespaces/inkscape"
   xmlns:sodipodi="http://sodipodi.sourceforge.net/DTD/sodipodi-0.dtd"
   xmlns="http://www.w3.org/2000/svg"
   xmlns:svg="http://www.w3.org/2000/svg"
   xmlns:rdf="http://www.w3.org/1999/02/22-rdf-syntax-ns#"
   xmlns:cc="http://creativecommons.org/ns#"
   xmlns:dc="http://purl.org/dc/elements/1.1/">
  <g
     aria-label="FC19511 — Released for use"
     id="text1777"
     style="font-size:16px;line-height:1.25">
    <path
       d="M 7.4296875,5.7382812 H 1.546875 V 9.0195313 H 6.6015625 V 10.394531 H 1.546875 v 5.601563 H 0 V 4.3632812 h 7.4296875 z"
       id="path2401" />
    <path
       d="m 18.179687,15.152344 q -0.429687,0.1875 -0.78125,0.351562 -0.34375,0.164063 -0.90625,0.34375 -0.476562,0.148438 -1.039062,0.25 -0.554687,0.109375 -1.226562,0.109375 -1.265625,0 -2.304688,-0.351562 Q 10.890625,15.496094 10.125,14.738281 9.375,13.996094 8.953125,12.855469 8.53125,11.707031 8.53125,10.191406 q 0,-1.4374997 0.40625,-2.5703123 0.40625,-1.1328125 1.171875,-1.9140625 0.742188,-0.7578125 1.789063,-1.15625 1.054687,-0.3984375 2.335937,-0.3984375 0.9375,0 1.867187,0.2265625 0.9375,0.2265625 2.078125,0.796875 V 7.0117187 H 18.0625 Q 17.101562,6.2070312 16.15625,5.8398437 15.210938,5.4726562 14.132813,5.4726562 q -0.882813,0 -1.59375,0.2890625 -0.703125,0.28125 -1.257813,0.8828125 -0.539062,0.5859375 -0.84375,1.4843751 -0.296875,0.890625 -0.296875,2.0624997 0,1.226563 0.328125,2.109375 0.335938,0.882813 0.859375,1.4375 0.546875,0.578125 1.273438,0.859375 0.734375,0.273438 1.546875,0.273438 1.117187,0 2.093749,-0.382813 0.976563,-0.382812 1.828125,-1.148437 h 0.109375 z"
       id="path2403" />
    <path
       d="m 27.273437,15.996094 h -6.296875 v -1.1875 h 2.421875 V 7.0117187 h -2.421875 v -1.0625 q 0.492188,0 1.054688,-0.078125 0.5625,-0.085937 0.851562,-0.2421875 0.359375,-0.1953125 0.5625,-0.4921875 0.210938,-0.3046875 0.242188,-0.8125 h 1.210937 V 14.808594 h 2.375 z"
       id="path2405" />
    <path
       d="m 38.09375,9.4804688 q 0,1.5234372 -0.351563,2.7656252 -0.34375,1.242187 -1.046875,2.117187 -0.710937,0.890625 -1.78125,1.375 -1.070312,0.484375 -2.515625,0.484375 -0.40625,0 -0.765625,-0.04687 -0.359375,-0.03906 -0.640625,-0.132812 v -1.492188 h 0.07813 q 0.226563,0.117188 0.640625,0.226563 0.414063,0.101562 0.921875,0.101562 1.726563,0 2.703125,-1.03125 0.984375,-1.039062 1.140625,-2.859375 -0.726562,0.4375 -1.367187,0.625 -0.640625,0.1875 -1.398438,0.1875 -0.71875,0 -1.304687,-0.140625 -0.578125,-0.140625 -1.164063,-0.546875 -0.6875,-0.476562 -1.039062,-1.2109372 -0.34375,-0.734375 -0.34375,-1.7578125 0,-1.7812501 1.171875,-2.8984376 1.171875,-1.1171875 2.859375,-1.1171875 0.84375,0 1.5625,0.265625 0.71875,0.2578125 1.257812,0.78125 0.664063,0.6484375 1.023438,1.671875 0.359375,1.015625 0.359375,2.6328126 z M 36.515625,9.1445313 q 0,-1.2109376 -0.25,-1.9453126 -0.25,-0.734375 -0.6875,-1.140625 -0.367188,-0.3515625 -0.789063,-0.5 -0.421875,-0.15625 -0.914062,-0.15625 -1.125,0 -1.78125,0.703125 -0.648438,0.703125 -0.648438,1.9765626 0,0.7421875 0.210938,1.2109375 0.210937,0.46875 0.710937,0.8203122 0.351563,0.242188 0.773438,0.328125 0.421875,0.07813 0.9375,0.07813 0.609375,0 1.234375,-0.164062 0.625,-0.164063 1.171875,-0.4765627 0.0078,-0.1640625 0.01563,-0.3203125 0.01563,-0.1640625 0.01563,-0.4140625 z"
       id="path2407" />
    <path
       d="m 48.1875,12.300781 q 0,0.8125 -0.296875,1.554688 -0.296875,0.742187 -0.8125,1.25 -0.5625,0.546875 -1.34375,0.84375 -0.773438,0.289062 -1.796875,0.289062 -0.953125,0 -1.835938,-0.203125 -0.882812,-0.195312 -1.492187,-0.476562 v -1.648438 h 0.109375 q 0.640625,0.40625 1.5,0.695313 0.859375,0.28125 1.6875,0.28125 0.554687,0 1.070312,-0.15625 0.523438,-0.15625 0.929688,-0.546875 0.34375,-0.335938 0.515625,-0.804688 0.179687,-0.46875 0.179687,-1.085937 0,-0.601563 -0.210937,-1.015625 -0.203125,-0.414063 -0.570313,-0.664063 -0.40625,-0.296875 -0.992187,-0.414062 -0.578125,-0.125 -1.296875,-0.125 -0.6875,0 -1.328125,0.09375 -0.632813,0.09375 -1.09375,0.1875 V 4.3632812 h 7 v 1.3671875 h -5.492188 v 3.0937501 q 0.335938,-0.03125 0.6875,-0.046875 0.351563,-0.015625 0.609375,-0.015625 0.945313,0 1.65625,0.1640625 0.710938,0.15625 1.304688,0.5625 0.625,0.4296875 0.96875,1.1093747 0.34375,0.679688 0.34375,1.703125 z"
       id="path2409" />
    <path
       d="m 57.789062,15.996094 h -6.296875 v -1.1875 h 2.421875 V 7.0117187 h -2.421875 v -1.0625 q 0.492188,0 1.054688,-0.078125 0.5625,-0.085937 0.851562,-0.2421875 0.359375,-0.1953125 0.5625,-0.4921875 0.210938,-0.3046875 0.242188,-0.8125 h 1.210937 V 14.808594 h 2.375 z"
       id="path2411" />
    <path
       d="m 67.960937,15.996094 h -6.296875 v -1.1875 h 2.421875 V 7.0117187 h -2.421875 v -1.0625 q 0.492188,0 1.054688,-0.078125 0.5625,-0.085937 0.851562,-0.2421875 0.359375,-0.1953125 0.5625,-0.4921875 0.210938,-0.3046875 0.242188,-0.8125 h 1.210937 V 14.808594 h 2.375 z"
       id="path2413" />
    <path
       d="M 90.09375,11.527344 H 76.484375 v -1.25 H 90.09375 Z"
       id="path2415" />
    <path
       d="m 108.10156,15.996094 h -2.00781 l -3.89062,-4.625 h -2.17969 v 4.625 H 98.476562 V 4.3632812 h 3.257818 q 1.05468,0 1.75781,0.140625 0.70312,0.1328125 1.26562,0.484375 0.63282,0.3984375 0.98438,1.0078125 0.35937,0.6015625 0.35937,1.53125 0,1.2578126 -0.63281,2.1093751 -0.63281,0.8437502 -1.74219,1.2734372 z m -3.61718,-8.3593753 q 0,-0.5 -0.17969,-0.8828125 -0.17188,-0.390625 -0.57813,-0.65625 -0.33593,-0.2265625 -0.79687,-0.3125 -0.46094,-0.09375 -1.08594,-0.09375 h -1.82031 v 4.3906248 h 1.5625 q 0.73437,0 1.28125,-0.1249997 0.54687,-0.1328125 0.92969,-0.484375 0.35156,-0.328125 0.51562,-0.75 0.17188,-0.4296875 0.17188,-1.0859376 z"
       id="path2417" />
    <path
       d="m 116.39844,11.785156 h -6.42969 q 0,0.804688 0.24219,1.40625 0.24219,0.59375 0.66406,0.976563 0.40625,0.375 0.96094,0.5625 0.5625,0.1875 1.23437,0.1875 0.89063,0 1.78907,-0.351563 0.90625,-0.359375 1.28906,-0.703125 h 0.0781 v 1.601563 q -0.74218,0.3125 -1.51562,0.523437 -0.77344,0.210938 -1.625,0.210938 -2.17188,0 -3.39063,-1.171875 -1.21875,-1.179688 -1.21875,-3.34375 0,-2.1406252 1.16407,-3.3984377 1.17187,-1.2578126 3.07812,-1.2578126 1.76563,0 2.71875,1.0312501 0.96094,1.03125 0.96094,2.9296872 z m -1.42969,-1.125 q -0.008,-1.1562497 -0.58594,-1.7890622 -0.57031,-0.6328125 -1.74218,-0.6328125 -1.17969,0 -1.88282,0.6953125 -0.69531,0.6953125 -0.78906,1.7265622 z"
       id="path2419" />
    <path
       d="m 120.10938,15.996094 h -1.46875 V 3.8398438 h 1.46875 z"
       id="path2421" />
    <path
       d="m 130.32031,11.785156 h -6.42968 q 0,0.804688 0.24218,1.40625 0.24219,0.59375 0.66407,0.976563 0.40625,0.375 0.96093,0.5625 0.5625,0.1875 1.23438,0.1875 0.89062,0 1.78906,-0.351563 0.90625,-0.359375 1.28906,-0.703125 h 0.0781 v 1.601563 q -0.74219,0.3125 -1.51563,0.523437 -0.77343,0.210938 -1.625,0.210938 -2.17187,0 -3.39062,-1.171875 -1.21875,-1.179688 -1.21875,-3.34375 0,-2.1406252 1.16406,-3.3984377 1.17188,-1.2578126 3.07813,-1.2578126 1.76562,0 2.71874,1.0312501 0.96094,1.03125 0.96094,2.9296872 z m -1.42969,-1.125 q -0.008,-1.1562497 -0.58593,-1.7890622 -0.57031,-0.6328125 -1.74219,-0.6328125 -1.17969,0 -1.88281,0.6953125 -0.69531,0.6953125 -0.78906,1.7265622 z"
       id="path2423" />
    <path
       d="m 139.32812,15.996094 h -1.46093 v -0.929688 q -0.19532,0.132813 -0.53125,0.375 -0.32813,0.234375 -0.64063,0.375 -0.36719,0.179688 -0.84375,0.296875 -0.47656,0.125 -1.11719,0.125 -1.17968,0 -2,-0.78125 -0.82031,-0.78125 -0.82031,-1.992187 0,-0.992188 0.42188,-1.601563 0.42968,-0.617187 1.21875,-0.96875 0.79687,-0.351562 1.91406,-0.476562 1.11719,-0.125 2.39844,-0.1875 v -0.226563 q 0,-0.4999997 -0.17969,-0.8281247 -0.17188,-0.328125 -0.5,-0.515625 -0.3125,-0.1796875 -0.75,-0.2421875 -0.4375,-0.0625 -0.91406,-0.0625 -0.57813,0 -1.28907,0.15625 -0.71093,0.1484375 -1.46875,0.4375 h -0.0781 V 7.4570312 q 0.42969,-0.1171875 1.24219,-0.2578125 0.8125,-0.140625 1.60156,-0.140625 0.92187,0 1.60156,0.15625 0.6875,0.1484375 1.1875,0.515625 0.49219,0.3593751 0.75,0.9296876 0.25781,0.5703125 0.25781,1.4140627 z m -1.46093,-2.148438 v -2.429687 q -0.67188,0.03906 -1.58594,0.117187 -0.90625,0.07813 -1.4375,0.226563 -0.63281,0.179687 -1.02344,0.5625 -0.39062,0.375 -0.39062,1.039062 0,0.75 0.45312,1.132813 0.45313,0.375 1.38281,0.375 0.77344,0 1.41407,-0.296875 0.64062,-0.304688 1.1875,-0.726563 z"
       id="path2425" />
    <path
       d="m 148.39062,13.480469 q 0,1.195312 -0.99218,1.960937 -0.98438,0.765625 -2.69532,0.765625 -0.96875,0 -1.78125,-0.226562 -0.80468,-0.234375 -1.35156,-0.507813 v -1.648437 h 0.0781 q 0.69531,0.523437 1.54687,0.835937 0.85156,0.304688 1.63281,0.304688 0.96875,0 1.51563,-0.3125 0.54687,-0.3125 0.54687,-0.984375 0,-0.515625 -0.29687,-0.78125 -0.29688,-0.265625 -1.14063,-0.453125 -0.3125,-0.07031 -0.82031,-0.164063 -0.5,-0.09375 -0.91406,-0.203125 -1.14844,-0.304687 -1.63281,-0.890625 -0.47657,-0.59375 -0.47657,-1.4531247 0,-0.5390625 0.21875,-1.015625 0.22657,-0.4765625 0.67969,-0.8515626 0.4375,-0.3671875 1.10938,-0.578125 0.67968,-0.21875 1.51562,-0.21875 0.78125,0 1.57813,0.1953125 0.80468,0.1875 1.33593,0.4609375 v 1.5703126 h -0.0781 q -0.5625,-0.4140625 -1.36719,-0.6953125 -0.80469,-0.2890625 -1.57812,-0.2890625 -0.80469,0 -1.35938,0.3125 -0.55469,0.3046875 -0.55469,0.9140625 0,0.5390622 0.33594,0.8125002 0.32813,0.273437 1.0625,0.445312 0.40625,0.09375 0.90625,0.1875 0.50781,0.09375 0.84375,0.171875 1.02344,0.234375 1.57813,0.804688 0.55468,0.578125 0.55468,1.53125 z"
       id="path2427" />
    <path
       d="m 157.79687,11.785156 h -6.42968 q 0,0.804688 0.24218,1.40625 0.24219,0.59375 0.66407,0.976563 0.40625,0.375 0.96093,0.5625 0.5625,0.1875 1.23438,0.1875 0.89062,0 1.78906,-0.351563 0.90625,-0.359375 1.28906,-0.703125 h 0.0781 v 1.601563 q -0.74219,0.3125 -1.51563,0.523437 -0.77343,0.210938 -1.625,0.210938 -2.17187,0 -3.39062,-1.171875 -1.21875,-1.179688 -1.21875,-3.34375 0,-2.1406252 1.16406,-3.3984377 1.17188,-1.2578126 3.07813,-1.2578126 1.76562,0 2.71875,1.0312501 0.96093,1.03125 0.96093,2.9296872 z m -1.42968,-1.125 q -0.008,-1.1562497 -0.58594,-1.7890622 -0.57031,-0.6328125 -1.74219,-0.6328125 -1.17969,0 -1.88281,0.6953125 -0.69531,0.6953125 -0.78906,1.7265622 z"
       id="path2429" />
    <path
       d="m 167.10156,15.996094 h -1.46875 V 15.082031 Q 165,15.628906 164.3125,15.933594 q -0.6875,0.304687 -1.49219,0.304687 -1.5625,0 -2.48437,-1.203125 -0.91407,-1.203125 -0.91407,-3.335937 0,-1.109375 0.3125,-1.9765627 0.32032,-0.8671875 0.85938,-1.4765625 0.53125,-0.5937501 1.23437,-0.9062501 0.71094,-0.3125 1.46875,-0.3125 0.6875,0 1.21875,0.1484375 0.53125,0.140625 1.11719,0.4453125 V 3.8398438 h 1.46875 z m -1.46875,-2.148438 V 8.8398438 q -0.59375,-0.265625 -1.0625,-0.3671875 -0.46875,-0.1015625 -1.02344,-0.1015625 -1.23437,0 -1.92187,0.859375 -0.6875,0.8593752 -0.6875,2.4375002 0,1.554687 0.53125,2.367187 0.53125,0.804688 1.70312,0.804688 0.625,0 1.26563,-0.273438 0.64062,-0.28125 1.19531,-0.71875 z"
       id="path2431" />
    <path
       d="m 180.3125,5.2617187 h -0.0781 q -0.24218,-0.070312 -0.63281,-0.140625 -0.39062,-0.078125 -0.6875,-0.078125 -0.94531,0 -1.375,0.421875 -0.42187,0.4140625 -0.42187,1.5078125 v 0.296875 h 2.64843 v 1.2343751 h -2.60156 v 7.4921877 h -1.46875 V 8.5039063 h -0.99219 V 7.2695312 h 0.99219 V 6.9804687 q 0,-1.5546875 0.77344,-2.3828125 0.77344,-0.8359374 2.23437,-0.8359374 0.49219,0 0.88282,0.046875 0.39843,0.046875 0.72656,0.109375 z"
       id="path2433" />
    <path
       d="m 188.67969,11.636719 q 0,2.132812 -1.09375,3.367187 -1.09375,1.234375 -2.92969,1.234375 -1.85156,0 -2.94531,-1.234375 -1.08594,-1.234375 -1.08594,-3.367187 0,-2.1328127 1.08594,-3.3671877 1.09375,-1.2421876 2.94531,-1.2421876 1.83594,0 2.92969,1.2421876 1.09375,1.234375 1.09375,3.3671877 z m -1.51563,0 q 0,-1.6953127 -0.66406,-2.5156252 -0.66406,-0.828125 -1.84375,-0.828125 -1.19531,0 -1.85938,0.828125 -0.65625,0.8203125 -0.65625,2.5156252 0,1.640625 0.66407,2.492187 0.66406,0.84375 1.85156,0.84375 1.17187,0 1.83594,-0.835937 0.67187,-0.84375 0.67187,-2.5 z"
       id="path2435" />
    <path
       d="m 196.39844,8.8710938 h -0.0781 q -0.32812,-0.078125 -0.64062,-0.109375 -0.30469,-0.039063 -0.72657,-0.039063 -0.67968,0 -1.3125,0.3046875 -0.63281,0.296875 -1.21875,0.7734375 v 6.1953127 h -1.46875 V 7.2695312 h 1.46875 v 1.2890626 q 0.875,-0.7031251 1.53907,-0.9921876 0.67187,-0.296875 1.36718,-0.296875 0.38282,0 0.55469,0.023437 0.17188,0.015625 0.51563,0.070312 z"
       id="path2437" />
    <path
       d="m 210.64062,15.996094 h -1.46875 v -0.96875 q -0.74218,0.585937 -1.42187,0.898437 -0.67969,0.3125 -1.5,0.3125 -1.375,0 -2.14063,-0.835937 -0.76562,-0.84375 -0.76562,-2.46875 V 7.2695312 h 1.46875 v 4.9687498 q 0,0.664063 0.0625,1.140625 0.0625,0.46875 0.26562,0.804688 0.21094,0.34375 0.54688,0.5 0.33594,0.15625 0.97656,0.15625 0.57031,0 1.24219,-0.296875 0.67969,-0.296875 1.26562,-0.757813 V 7.2695312 h 1.46875 z"
       id="path2439" />
    <path
       d="m 219.76562,13.480469 q 0,1.195312 -0.99218,1.960937 -0.98438,0.765625 -2.69532,0.765625 -0.96875,0 -1.78125,-0.226562 -0.80468,-0.234375 -1.35156,-0.507813 v -1.648437 h 0.0781 q 0.69531,0.523437 1.54687,0.835937 0.85156,0.304688 1.63281,0.304688 0.96875,0 1.51563,-0.3125 0.54687,-0.3125 0.54687,-0.984375 0,-0.515625 -0.29687,-0.78125 -0.29688,-0.265625 -1.14063,-0.453125 -0.3125,-0.07031 -0.82031,-0.164063 -0.5,-0.09375 -0.91406,-0.203125 -1.14844,-0.304687 -1.63281,-0.890625 -0.47657,-0.59375 -0.47657,-1.4531247 0,-0.5390625 0.21875,-1.015625 0.22657,-0.4765625 0.67969,-0.8515626 0.4375,-0.3671875 1.10938,-0.578125 0.67968,-0.21875 1.51562,-0.21875 0.78125,0 1.57813,0.1953125 0.80468,0.1875 1.33593,0.4609375 v 1.5703126 h -0.0781 q -0.5625,-0.4140625 -1.36719,-0.6953125 -0.80469,-0.2890625 -1.57812,-0.2890625 -0.80469,0 -1.35938,0.3125 -0.55469,0.3046875 -0.55469,0.9140625 0,0.5390622 0.33594,0.8125002 0.32813,0.273437 1.0625,0.445312 0.40625,0.09375 0.90625,0.1875 0.50781,0.09375 0.84375,0.171875 1.02344,0.234375 1.57813,0.804688 0.55468,0.578125 0.55468,1.53125 z"
       id="path2441" />
    <path
       d="m 229.17187,11.785156 h -6.42968 q 0,0.804688 0.24218,1.40625 0.24219,0.59375 0.66407,0.976563 0.40625,0.375 0.96093,0.5625 0.5625,0.1875 1.23438,0.1875 0.89062,0 1.78906,-0.351563 0.90625,-0.359375 1.28906,-0.703125 H 229 v 1.601563 q -0.74219,0.3125 -1.51563,0.523437 -0.77343,0.210938 -1.625,0.210938 -2.17187,0 -3.39062,-1.171875 -1.21875,-1.179688 -1.21875,-3.34375 0,-2.1406252 1.16406,-3.3984377 1.17188,-1.2578126 3.07813,-1.2578126 1.76562,0 2.71875,1.0312501 0.96093,1.03125 0.96093,2.9296872 z m -1.42968,-1.125 q -0.008,-1.1562497 -0.58594,-1.7890622 -0.57031,-0.6328125 -1.74219,-0.6328125 -1.17969,0 -1.88281,0.6953125 -0.69531,0.6953125 -0.78906,1.7265622 z"
       id="path2443" />
  </g>
  <metadata
     id="metadata36">
    <rdf:RDF>
      <cc:Work
         rdf:about="">
        <dc:format>image/svg+xml</dc:format>
        <dc:type
           rdf:resource="http://purl.org/dc/dcmitype/StillImage" />
        <dc:title>Dev: D0000</dc:title>
      </cc:Work>
    </rdf:RDF>
  </metadata>
  <defs
     id="defs34" />
  <sodipodi:namedview
     pagecolor="#ffffff"
     bordercolor="#666666"
     borderopacity="1"
     objecttolerance="10"
     gridtolerance="10"
     guidetolerance="10"
     inkscape:pageopacity="0"
     inkscape:pageshadow="2"
     inkscape:window-width="2560"
     inkscape:window-height="1369"
     id="namedview32"
     showgrid="false"
     inkscape:zoom="5.1491878"
     inkscape:cx="115.2609"
     inkscape:cy="-13.885685"
     inkscape:window-x="2552"
     inkscape:window-y="-8"
     inkscape:window-maximized="1"
     inkscape:current-layer="svg30"
     inkscape:pagecheckerboard="0" />
  <title
     id="title2">Dev: D0000</title>
  <linearGradient
     id="s"
     x2="0"
     y2="1">
    <stop
       offset="0"
       stop-color="#bbb"
       stop-opacity=".1"
       id="stop4" />
    <stop
       offset="1"
       stop-opacity=".1"
       id="stop6" />
  </linearGradient>
  <clipPath
     id="r">
    <rect
       width="78"
       height="20"
       rx="3"
       id="rect9"
       x="0"
       y="0"
       style="fill:#ffffff" />
  </clipPath>
</svg>
