<?xml version="1.0" standalone="no"?>
<!DOCTYPE svg PUBLIC "-//W3C//DTD SVG 20010904//EN"
 "http://www.w3.org/TR/2001/REC-SVG-20010904/DTD/svg10.dtd">
<svg version="1.0" xmlns="http://www.w3.org/2000/svg"
 width="700.000000pt" height="700.000000pt" viewBox="0 0 700.000000 700.000000"
 preserveAspectRatio="xMidYMid meet">
<metadata>
Created by potrace 1.11, written by Peter Selinger 2001-2013
</metadata>
<g transform="translate(0.000000,700.000000) scale(0.100000,-0.100000)"
fill="#000000" stroke="none">
<path d="M4243 6984 c-186 -40 -354 -153 -461 -312 -128 -188 -161 -416 -93
-640 18 -61 80 -176 125 -234 86 -108 220 -200 366 -248 89 -29 260 -37 357
-17 239 51 428 200 528 416 116 250 83 544 -85 761 -109 141 -233 221 -420
271 -65 17 -244 19 -317 3z"/>
<path d="M2824 5539 c-368 -254 -675 -464 -681 -466 -23 -9 -14 -21 20 -28 48
-10 163 -54 242 -93 243 -120 449 -323 570 -562 45 -90 101 -245 111 -310 4
-22 10 -40 14 -40 4 0 46 53 94 118 111 151 360 487 661 893 132 177 243 328
248 335 5 9 -9 18 -45 30 -227 74 -450 297 -533 532 -11 28 -22 52 -25 52 -4
0 -308 -208 -676 -461z"/>
<path d="M5132 5743 c-62 -96 -211 -226 -326 -285 l-45 -23 52 -55 c52 -56 88
-96 207 -230 36 -40 75 -85 88 -99 53 -59 52 -48 16 -286 -18 -120 -36 -241
-39 -269 -4 -27 -8 -56 -10 -65 -2 -9 -7 -44 -11 -76 -4 -33 -8 -62 -9 -65 -1
-3 -5 -30 -9 -60 -5 -30 -10 -64 -12 -75 -2 -11 -7 -50 -10 -87 -6 -60 -4 -71
19 -110 50 -84 119 -129 387 -248 102 -45 214 -95 250 -112 190 -88 311 -138
332 -138 43 0 94 72 79 112 -5 13 -76 86 -157 163 -197 186 -292 284 -311 320
-26 48 -19 117 31 325 67 277 71 291 112 332 42 44 20 39 359 84 28 3 59 8 70
10 11 2 54 7 95 10 128 11 170 -11 265 -136 27 -36 53 -69 58 -75 4 -5 55 -73
113 -150 57 -77 118 -152 134 -167 26 -24 33 -26 59 -17 16 6 42 22 56 35 32
30 31 37 -19 194 -19 58 -73 227 -121 375 -84 261 -157 432 -204 476 -44 42
-84 46 -356 34 -113 -5 -362 -14 -550 -20 l-161 -6 -44 48 c-25 27 -63 68 -84
93 -22 25 -74 83 -116 130 -42 47 -92 102 -110 123 -17 20 -36 37 -40 37 -4 0
-22 -21 -38 -47z"/>
<path d="M1759 4926 c-2 -2 -30 -6 -62 -10 -171 -18 -396 -112 -537 -224 -274
-217 -425 -529 -424 -877 1 -194 28 -312 114 -490 148 -308 463 -547 790 -600
19 -3 48 -8 63 -11 55 -11 263 -5 339 10 580 113 967 633 904 1216 -14 133
-39 221 -103 360 -137 299 -441 535 -779 605 -68 14 -295 29 -305 21z"/>
<path d="M1373 2588 c-38 -10 -89 -60 -119 -115 -12 -21 -70 -121 -129 -223
-60 -102 -131 -225 -159 -273 -67 -116 -64 -111 -118 -202 -118 -204 -407
-700 -456 -785 -30 -52 -111 -192 -180 -310 -207 -355 -207 -354 -207 -435 0
-59 5 -78 28 -118 30 -50 81 -90 144 -113 32 -11 309 -13 1628 -11 1500 2
1592 3 1622 20 121 65 170 179 128 296 -8 24 -76 149 -151 279 -76 130 -202
350 -281 487 -79 138 -148 257 -153 265 -5 8 -37 62 -70 120 -33 58 -65 112
-70 120 -25 40 -100 172 -100 176 0 2 -11 21 -24 42 -19 31 -203 348 -274 472
-137 242 -157 271 -202 295 -41 21 -84 24 -167 9 -125 -21 -162 -25 -263 -25
-108 -1 -197 7 -255 23 -54 14 -133 17 -172 6z m473 -424 c60 -28 166 -157
271 -329 26 -42 283 -484 317 -545 20 -36 41 -72 46 -80 72 -114 174 -322 206
-417 57 -171 9 -240 -196 -277 -141 -26 -1272 -28 -1390 -2 -8 1 -36 6 -61 10
-25 4 -67 20 -94 34 -144 80 -112 201 193 732 11 19 44 78 74 130 247 430 335
570 423 668 78 86 141 109 211 76z"/>
</g>
</svg>
